<svg id="brands-badmobil-logo" xmlns="http://www.w3.org/2000/svg" width="468" height="334" viewBox="0 0 468 334">
  <defs>
    <style>
      .cls-1 {
        fill: #eee;
      }

      .cls-2 {
        fill: #fff;
        fill-rule: evenodd;
      }
    </style>
  </defs>
  <path id="badmobil" class="cls-2" d="M877.8,4723.27c0.021,1.53.033,2.88,0.033,4.06v2.91c0,2.25-.012,4.05-0.033,5.38v2.23c-0.719.03-1.4,0.05-2.052,0.07s-1.2.03-1.647,0.03a35.934,35.934,0,0,1-4.237-.23,18.848,18.848,0,0,1-3.631-.85,8,8,0,0,1-3.4-2.13,5.458,5.458,0,0,1-1.244-3.73,4.718,4.718,0,0,1,1.445-3.51,9.883,9.883,0,0,1,3.363-2.14,28.061,28.061,0,0,1,6.22-1.49Q876.318,4723.33,877.8,4723.27Zm-36.718-.78a8.161,8.161,0,0,0-3.161-1.86,12.629,12.629,0,0,0-4.337-.71q-1.885,0-3.06.03-1.144.03-1.513,0.03l-0.538-4.06a18.537,18.537,0,0,0,4.371-.57,10.959,10.959,0,0,0,3.4-1.6,8.127,8.127,0,0,0,2.32-2.57,7.025,7.025,0,0,0,.908-3.55,6.154,6.154,0,0,0-1.009-3.55,7.015,7.015,0,0,0-2.757-2.41,13.43,13.43,0,0,0-3.632-1.05,27.909,27.909,0,0,0-4.606-.37c-1.055,0-2.03.03-2.925,0.07q-1.312.03-1.682,0.03-0.1,4.95-.134,10.5v8.05q0,5.82.034,11.71,0.066,5.85.067,6.26c0.448,0.02,1.041.06,1.782,0.1,0.761,0.03,1.49.04,2.186,0.04a58.857,58.857,0,0,0,7.161-.41,15.073,15.073,0,0,0,5.616-1.69,7.634,7.634,0,0,0,2.891-2.74,8.083,8.083,0,0,0,.438-7.04A8.868,8.868,0,0,0,841.08,4722.49Zm63.113-8.5a11.969,11.969,0,0,0-5.212,4.47,12.23,12.23,0,0,0-1.849,6.77,10.063,10.063,0,0,0,1.782,5.99,12.691,12.691,0,0,0,4.438,3.92,19.959,19.959,0,0,0,5.212,1.9,29.672,29.672,0,0,0,6.119.61h0.875q0-.3.033-5.04,0.033-4.77.034-14.49v-6.26a33.1,33.1,0,0,0-6.355.58A22.242,22.242,0,0,0,904.193,4713.99Zm199.887-10.41V4754H808v-73.99h296.08v11.75H1108Q1106.29,4696.875,1104.08,4703.58Zm-254.83,24.46a11.2,11.2,0,0,0-.739-4.33,10.071,10.071,0,0,0-2.186-3.22,11.432,11.432,0,0,0-3.833-2.54,14.821,14.821,0,0,0-4.506-1.11v-0.34a11.31,11.31,0,0,0,5.01-3.66,9.483,9.483,0,0,0,2.22-6.19,8.924,8.924,0,0,0-1.749-5.59,11.063,11.063,0,0,0-4.808-3.52,22.679,22.679,0,0,0-4.943-1.25,40.8,40.8,0,0,0-6.389-.47q-3.06,0-6.321.13c-2.153.1-3.385,0.15-3.7,0.17q0,0.24.068,6.06,0.1,5.79.1,15.74c0,3.5-.013,7.17-0.034,11.03q-0.034,5.76-.135,12.25c0.269,0.03,1.569.08,3.9,0.17q3.531,0.1,6.859.1a42.577,42.577,0,0,0,8-.67,24.379,24.379,0,0,0,6.422-2.24,12.712,12.712,0,0,0,5.01-4.43A10.989,10.989,0,0,0,849.25,4728.04Zm33.726-5.96a22.222,22.222,0,0,0-.975-7.48,11.13,11.13,0,0,0-2.892-4.36,11.964,11.964,0,0,0-5.178-2.68,27.024,27.024,0,0,0-7.061-.84c-1.727,0-3.094.03-4.1,0.1-0.988.04-1.648,0.08-1.984,0.1l-0.538,4.5c1.21-.07,2.162-0.12,2.858-0.17,0.717-.04,1.58-0.07,2.589-0.07a29.146,29.146,0,0,1,4.236.27,13.011,13.011,0,0,1,3.3.85,6.947,6.947,0,0,1,3.261,2.57,9.057,9.057,0,0,1,1.312,4.33,69.732,69.732,0,0,0-8.339,1.12,31.192,31.192,0,0,0-5.817,1.63,13.958,13.958,0,0,0-5.481,3.82,8.964,8.964,0,0,0-.3,10.76,11.531,11.531,0,0,0,4.372,3.42,19.684,19.684,0,0,0,4.808,1.46,31.712,31.712,0,0,0,5.548.5q4.4,0,7.195-.23,2.79-.21,3.128-0.24c0-.27.01-2.17,0.033-5.69S882.976,4727.68,882.976,4722.08Zm37.726-3.01q0-9.045.067-17.84t0.068-9.47h-5.313l0.1,15.6a38.736,38.736,0,0,0-7.263.71,26.408,26.408,0,0,0-6.557,2.03,17.135,17.135,0,0,0-7.464,6.23,16.238,16.238,0,0,0-2.589,9.1,14.384,14.384,0,0,0,2.32,7.99,16.255,16.255,0,0,0,6.792,5.75,24.25,24.25,0,0,0,7.027,2.2,66.953,66.953,0,0,0,9.953.58c0.425,0,1-.01,1.715-0.04h1.278c-0.023-2.77-.057-6.08-0.1-9.91Q920.7,4726.21,920.7,4719.07Zm180.248,31.79v-37.69c-0.25.77-.49,1.51-0.71,2.21q-3.315,10.26-5.73,17.94c-1.61,5.12-2.46,7.8-2.53,8.05h-5.32q0.165-.4,3.26-9.88,3.135-9.51,5.16-15.77,1.305-4.02,3.25-10.15c0.82-2.56,1.7-5.31,2.62-8.25v-14.16H929.793v67.7H1100.95Zm-73.74-33.92a20.563,20.563,0,0,1-1.12,7.31,27.4,27.4,0,0,1-3.84,7.51,27,27,0,0,1-5.98,6.13,23.874,23.874,0,0,1-5.99,3.24,18.626,18.626,0,0,1-6.48,1.12,14.16,14.16,0,0,1-5.7-1.08,9.855,9.855,0,0,1-4-3.25,11.644,11.644,0,0,1-2-6.09,20.909,20.909,0,0,1,1.092-7.65,27.618,27.618,0,0,1,3.483-7.14,26.654,26.654,0,0,1,5.635-5.89,23.419,23.419,0,0,1,6.41-3.62,18.981,18.981,0,0,1,6.74-1.29,13.526,13.526,0,0,1,5.94,1.19,9.121,9.121,0,0,1,3.95,3.48A12.192,12.192,0,0,1,1027.21,4716.94Zm-5.62,1.35a8.635,8.635,0,0,0-1.52-5.08,5.7,5.7,0,0,0-2.49-1.96,8.432,8.432,0,0,0-3.51-.71,11.825,11.825,0,0,0-4.27.75,15.078,15.078,0,0,0-3.98,2.33,20.589,20.589,0,0,0-4.34,4.67,23.42,23.42,0,0,0-2.909,5.89,18.6,18.6,0,0,0-1.011,6.36,8.378,8.378,0,0,0,1.754,4.98,5.907,5.907,0,0,0,2.436,1.82,9.077,9.077,0,0,0,3.43.61,12.081,12.081,0,0,0,4.18-.74,14.341,14.341,0,0,0,3.93-2.17,20.548,20.548,0,0,0,4.45-4.74,22.426,22.426,0,0,0,2.89-5.82A18.684,18.684,0,0,0,1021.59,4718.29Zm43.68-1.35a15.052,15.052,0,0,1-.76,7.04,23.378,23.378,0,0,1-5.81,9.54,25.57,25.57,0,0,1-9.22,5.96,35.835,35.835,0,0,1-7.44,1.89,67.662,67.662,0,0,1-9.4.58h-2.99q0.885-2.61,3.2-9.68,2.34-7.08,5.56-17.03,1.965-6.09,3.78-11.81t3.67-11.67h5.32l-5.14,15.6a38.028,38.028,0,0,1,10.62,1.25,14.74,14.74,0,0,1,5.91,3.15A8.884,8.884,0,0,1,1065.27,4716.94Zm-6.29.3a8.247,8.247,0,0,0-4.61-4.03,19.988,19.988,0,0,0-3.76-.98,25.441,25.441,0,0,0-4.38-.37h-1.65c-0.16.5-.75,2.3-1.78,5.42q-1.5,4.635-2.47,7.64-1.83,5.655-2.55,7.99t-1.49,4.74a42.173,42.173,0,0,0,6.93-.54,24.287,24.287,0,0,0,5.85-1.76,18.424,18.424,0,0,0,6.27-4.54,18.774,18.774,0,0,0,3.74-6.7C1059.97,4721.38,1059.93,4719.09,1058.98,4717.24Zm17.35-.3c-0.87,2.77-1.69,5.32-2.44,7.65q-1.29,3.99-3.33,10.12-2.01,6.12-2.22,6.66h5.31c0.03-.09.52-1.72,1.48-4.91q1.485-4.77,4.03-12.65,1.065-3.315,2.47-7.55,1.44-4.26,3.08-9.14h-5.31Q1077.69,4712.745,1076.33,4716.94Zm-96.342-10.7a19.56,19.56,0,0,0-5.953,1.25,64.125,64.125,0,0,0-8.275,3.66h-0.067a5.1,5.1,0,0,0-2.024-3.52,7.945,7.945,0,0,0-5.032-1.39,18.368,18.368,0,0,0-6.568,1.59,51.532,51.532,0,0,0-6.686,3.22l-0.023-.04,1.291-3.89h-5.245q-1.822,5.955-3.343,10.66-1.485,4.71-2.383,7.48-2.743,8.505-4,12.19c-0.831,2.43-1.276,3.74-1.334,3.92h5.313c0.072-.22.68-2.21,1.823-5.95q1.756-5.655,3.059-9.68,0.765-2.37,2-6.1c0.832-2.5,1.31-3.94,1.434-4.33a65.054,65.054,0,0,1,6.8-3.15,13.9,13.9,0,0,1,4.765-1.11,6.229,6.229,0,0,1,2.986.54,2.728,2.728,0,0,1,1.313,1.56,4.847,4.847,0,0,1,.132,2.3,20.541,20.541,0,0,1-.651,2.84c-0.327,1.08-.862,2.78-1.605,5.08q-1.072,3.42-1.617,5.11c-1.094,3.38-2.063,6.32-2.91,8.8s-1.31,3.84-1.39,4.09h5.313c0.072-.22.488-1.61,1.243-4.16q1.168-3.825,2.983-9.44,0.829-2.58,1.772-5.38,0.951-2.85,1.837-5.59,0.261-.81.392-1.32c0.11-.34.182-0.56,0.219-0.68a48.726,48.726,0,0,1,6.635-2.84,16.026,16.026,0,0,1,4.7-.91c2.085,0,3.453.52,4.1,1.55,0.674,1.04.607,2.92-.2,5.62q-0.525,1.725-1.649,5.21-1.083,3.465-1.574,4.98-1.248,3.855-2.724,8.22c-0.963,2.92-1.5,4.49-1.6,4.74h5.313c0.058-.18.475-1.58,1.254-4.19q1.2-3.93,3.037-9.62c0.59-1.82,1.159-3.55,1.706-5.17q0.864-2.475,2.025-6.06,1.494-4.635-.251-7.35C985.2,4707.16,983.081,4706.24,979.988,4706.24Zm109.022-11.5h-5.91l-1.88,5.82h5.91Z" transform="translate(-726 -4550)"/>
</svg>
