<svg id="brands-chefn-logo" xmlns="http://www.w3.org/2000/svg" width="468" height="334" viewBox="0 0 468 334">
  <defs>
    <style>
      .cls-1 {
        fill: #eee;
      }

      .cls-2 {
        fill: #fff;
        fill-rule: evenodd;
      }
    </style>
  </defs>
  <path id="chefn" class="cls-2" d="M1047.03,5617.07c-0.4,5.33-6.23,10.66-12.45,13.89s-18.65,5.42-18.65,2.16,15.9-2.84,16.1-9.06c0-1.22-3.01-1.22-4.38-1.28-6.57-.37-10.85-4.84-10.85-8.72a7,7,0,0,1,2.98-5.4,286.38,286.38,0,0,0-62.732-6.65c-69.61,0-126.061,22.38-126.061,49.97s56.384,50.03,125.994,50.03,126.029-22.39,126.029-50.01C1083.01,5638.41,1069.3,5626.09,1047.03,5617.07Zm-165.351,50.1a37.133,37.133,0,0,1-16.055,2.94c-12.388,0-22.232-4.39-22.232-15.67,0-10.92,8.773-15.55,23.438-15.55,10.045,0,21.077,2.55,21.077,12.49H871.5a7.075,7.075,0,0,0-1.407-3.87,4.327,4.327,0,0,0-3.6-1.57c-3.834,0-5.474,3.33-5.474,8.1,0,5.16,1.105,9.02,5.223,9.02a4.89,4.89,0,0,0,5.257-5.42h16.741C888.259,5662.09,885.747,5665.14,881.679,5667.17Zm52.434,1.84H916.986v-15.53c0-4.31-1.674-5.79-4.637-5.79-3.968,0-5.575,2.41-5.575,6.89v14.43H889.648v-41.72h17.126v17.79a15.243,15.243,0,0,1,13.092-6.19c5.223,0,14.247,1.67,14.247,12.79v17.33Zm46.875-12.21H952.913c0,4.99,1.975,7.19,5.876,7.19,3.348,0,4.637-1.5,5.123-3.33h16.741c-0.519,4.88-6.512,9.5-21.563,9.5-13.694,0-22.952-4.44-22.952-15.43,0-11.28,9.543-15.79,22.467-15.79,11.15,0,22.45,3.53,22.45,16.37Zm31.222-22.18a12.853,12.853,0,0,0-3.5-.35c-3.35,0-5.36,1.38-5.36,4.34v1.38h8.37v8.08h-8.37v20.94H986.312v-20.94h-4.889v-8.08h4.889v-1.38c0-7.8,2.98-12.44,15.838-12.44a62.526,62.526,0,0,1,10.04.87Zm55.11,34.39h-17.11v-15.53c0-4.31-1.67-5.79-4.65-5.79-3.95,0-5.58,2.41-5.58,6.89v14.43h-17.11v-17.63c0-3.87-.08-7.7-0.36-11.39h16.85l0.36,5.09c2.78-4.11,7.4-6.19,13.39-6.19,5.22,0,14.25,1.67,14.25,12.79Zm-103.006-17.74h-11.4c0-3.83,2.042-6.24,5.692-6.24,3.9,0,5.709,2.48,5.709,6.24" transform="translate(-724 -5486)"/>
</svg>
