<svg id="brands-wiltshire-logo" xmlns="http://www.w3.org/2000/svg" width="468" height="334" viewBox="0 0 468 334">
  <defs>
    <style>
      .cls-1 {
        fill: #eee;
      }

      .cls-2 {
        fill: #fff;
        fill-rule: evenodd;
      }
    </style>
  </defs>
  <path id="wiltshire" class="cls-2" d="M871.97,4394.81a59.391,59.391,0,0,1,1.239-9.74c0.206-1.21.465-2.28,0.465-2.51a0.383,0.383,0,0,0-.311-0.44c-1.288,0-2.71,1.61-3.456,1.61a0.574,0.574,0,0,1-.594-0.16,0.834,0.834,0,0,0-.153-0.21,0.306,0.306,0,0,1-.058-0.23c0-.91,3.873-2.95,8.961-2.95,1.058,0,1.805.18,2.327,0.18a0.292,0.292,0,0,1,.306.23,0.549,0.549,0,0,1-.359.42,9.785,9.785,0,0,0-1.5.15,0.287,0.287,0,0,1-.206.05,9.617,9.617,0,0,0-2.767.18,0.417,0.417,0,0,0-.282.45,2.843,2.843,0,0,1-.618,1.19,32.934,32.934,0,0,0-1.11,4.37,41.293,41.293,0,0,0-.465,7.54c0,0.2.178,1.06,0.178,1.32a0.576,0.576,0,0,1-.666.67c-0.675,0-.933-1.24-0.933-2.12m19.593,0.41a3.874,3.874,0,0,0-.258-0.59c-0.206-1.38-.311-4.2-0.441-4.64-0.047-.23-0.047-0.31-0.1-0.31a0.283,0.283,0,0,0-.235.15,21.773,21.773,0,0,1-2.3,3.11,2.475,2.475,0,0,0-.412.65,3.846,3.846,0,0,1-2.685,1.66,0.725,0.725,0,0,1-.465-0.83c0-2.43,1.264-5.46,1.47-6.58,0.053-.28-0.024-0.23-0.23-0.07-0.206.13-1,1.58-1.7,1.58a5.07,5.07,0,0,1-.775-0.21,0.4,0.4,0,0,0-.259.13,8.806,8.806,0,0,0-2.092,2.3,17.17,17.17,0,0,0-1.493,3.42,1.15,1.15,0,0,1-.622.59,0.918,0.918,0,0,1-.953-0.93c0-.05.077-0.28,0.153-0.6,0.283-1.93,1.034-3.62,1.058-5.54,0-.25.182-0.46,0.182-0.72,0-.39.517-0.47,0.823-0.47a0.62,0.62,0,0,1,.723.52,0.764,0.764,0,0,1-.129.52,1.251,1.251,0,0,0-.129.26c0,0.08-.154.44-0.178,0.57a8.834,8.834,0,0,0-.234,1.86c0,0.26.129,0.21,0.206,0.08,0.416-.59.852-1.35,1.421-2.04,0.13-.16.465-0.39,0.618-0.58a9,9,0,0,1,.546-0.72,2.221,2.221,0,0,1,1.287-.75,8.087,8.087,0,0,0,.929.31,5.927,5.927,0,0,0,1.139-1.06,2.253,2.253,0,0,1,.981-0.18,0.976,0.976,0,0,1,.723.75,5.4,5.4,0,0,1-.646,1.6,17.569,17.569,0,0,0-1.163,4.48c0,0.18.029,0.29,0.182,0.29s0.617-.13,1.546-1.3a16.223,16.223,0,0,0,2.015-2.9c0.129-.26.235-0.59,0.388-0.85,0.364-.83.493-0.93,0.775-0.93a2.555,2.555,0,0,1,.723.31,0.461,0.461,0,0,1,.359.44c0,0.15.081,0.33,0.081,0.46a28.545,28.545,0,0,0,.336,4.3,14.2,14.2,0,0,0,.177,1.55,3.429,3.429,0,0,1,.21.73,0.413,0.413,0,0,1-.311.39,1.733,1.733,0,0,1-.541.29,0.868,0.868,0,0,1-.7-0.5m5.339-1.11a0.381,0.381,0,0,0-.364-0.39,0.838,0.838,0,0,0-.488.2,2.773,2.773,0,0,0-.876,1.61,0.189,0.189,0,0,0,.23.18,1.615,1.615,0,0,0,1.5-1.6m-3.044,1.55a2.857,2.857,0,0,1,1.034-1.58c0.1-.16.177-0.33,0.282-0.49,0.283-.26.747-0.65,0.9-0.83,0.129-.13.177-0.2,0.076-0.33-0.541-.99-1.886-2.23-1.886-3.73a3.537,3.537,0,0,1,3.744-2.85,0.387,0.387,0,0,1,.411.36,0.8,0.8,0,0,1-.641.65c-1.967.65-2.2,1.14-2.2,1.84a6.117,6.117,0,0,0,1.369,2.87c0.1,0.21.182,0.23,0.282,0.1,1.757-1.88,2.92-2.92,5.27-8.51,0.436-1.04.771-1.64,1.235-1.64a0.885,0.885,0,0,1,.7.86c0,0.23-.052.44-0.052,0.65a5.085,5.085,0,0,1-.307,1.24c-0.105.49-.234,0.85-0.569,2.2-0.053.26,0,.36,0.282,0.36,0.206,0,1.293-.33,1.628-0.33,0.488,0,.722.15,0.722,0.41,0,0.31-.105.28-0.593,0.41a18.141,18.141,0,0,0-2.015.68,0.945,0.945,0,0,0-.541.64,22.419,22.419,0,0,0-.723,4.3,3.641,3.641,0,0,0,.206,1.04,0.511,0.511,0,0,0,.359.39,2.643,2.643,0,0,0,.957-0.21c0.158,0,.364.1,0.364,0.54a2.034,2.034,0,0,1-1.24,1.22c-1.163,0-1.728-1.3-1.728-2.77a18.452,18.452,0,0,1,.512-3.68c0.053-.26.029-0.46-0.23-0.36a1.155,1.155,0,0,1-.411.16c-0.34,0-.57-0.16-0.57-0.73a1.878,1.878,0,0,1,1.293-.9,0.8,0.8,0,0,0,.541-0.52c0.258-.78.383-2.02,0.593-2.85,0.053-.26-0.105-0.18-0.182-0.08-0.617.96-3.25,6.19-4.983,8.16a0.49,0.49,0,0,0-.1.38,4.461,4.461,0,0,1,.282,1.35c0,2.02-2.192,2.77-3.073,2.77a1.049,1.049,0,0,1-1.005-1.19m13.677-5.23a0.176,0.176,0,0,0,.154.03c0.593-.13,3.125-1.81,3.125-2.8a0.2,0.2,0,0,0-.234-0.23c-0.412-.03-3.068,2.23-3.068,2.92Zm9.785-1.03a4.421,4.421,0,0,0,.593-1.09,0.563,0.563,0,0,0-.617-0.52c-0.905,0-4.442,4.56-4.778,6.7v0.06c0,0.1.029,0.13,0.106,0.13a0.825,0.825,0,0,0,.23-0.06c1.421-.56,2.79-2.51,4.466-5.22m-12.341,5.33a6.166,6.166,0,0,1,.235-1.82c0.024-.1.153-0.48-0.077-0.54a0.367,0.367,0,0,1-.364-0.36,1,1,0,0,1,.829-0.78,0.827,0.827,0,0,0,.512-0.54c0.469-1.55,3.149-4.64,4.806-4.64a1.147,1.147,0,0,1,1.235,1.04c0,1.66-1.752,3.34-4.6,4.66a2.753,2.753,0,0,0-1.263,2.41c0,1.06.363,1.37,0.88,1.37,2.71,0,2.968-1.37,6.142-5.18,2.2-2.64,3.178-3.98,4.365-3.98a2.906,2.906,0,0,1,1.164.54c0.129,0,.129-0.05.177-0.15,1.187-2.1.105-3.89,1.575-3.89a0.847,0.847,0,0,1,.775.83,8.127,8.127,0,0,1-.852,2.23c-0.594,1.29-.981,4.45-0.981,8.05a12.368,12.368,0,0,1,.287,1.42,0.9,0.9,0,0,1-.57.78,1.313,1.313,0,0,1-.9-1.14v-1.55c0-.21.258-0.94,0.258-1.3,0-1.86.024-2.02,0.024-2.77,0-.28-0.077-0.39-0.129-0.39a2.762,2.762,0,0,0-.723.96c-1.91,3.27-3.533,6.32-5.883,6.32a0.867,0.867,0,0,1-.881-1.04c0-.41.34-1.19,0.34-1.45a0.13,0.13,0,0,0-.105-0.15,0.115,0.115,0,0,0-.077.05c-1.345,1.5-2.685,3.13-4.413,3.13a1.843,1.843,0,0,1-1.786-2.12m27.231-1.68a0.345,0.345,0,0,0,.106-0.45c-0.182-.49-0.465-1.24-0.6-1.7-0.1-.34-0.282-0.31-0.512-0.03-0.182.24-.929,0.41-1.11,0.65a7.726,7.726,0,0,0-.7.8c-0.1.13-.359,0.8-0.441,0.93-0.1.16-.282,0.78-0.359,0.93-0.052.09-.335,0.37-0.335,0.42,0,0.21.1,0.23,0.335,0.23,0.776,0,2.5-1.08,3.614-1.78m1.006-7.2c0-.39-0.1-0.57-0.283-0.57a1.387,1.387,0,0,0-.8,1.32,6.005,6.005,0,0,0,.052.96c0.048,0.33.13,0.33,0.307,0.08a3.544,3.544,0,0,0,.723-1.79m1.886,10.61a4.832,4.832,0,0,1-2.092-2.3,0.3,0.3,0,0,0-.488-0.13c-1.346.93-3.332,2.07-4.907,2.07-0.412,0-.747-0.02-0.747-0.75a4.675,4.675,0,0,1,1.029-2.17,46.441,46.441,0,0,1,3.074-3.52,1.148,1.148,0,0,0,.234-0.94,9.064,9.064,0,0,1-.21-1.97c0-1.45.569-2.53,2.144-2.53a1.379,1.379,0,0,1,1.268,1.39c0,1.12-.933,2.18-1.732,3.11a1.132,1.132,0,0,0-.182,1.04,18.833,18.833,0,0,0,.646,2.25c0.077,0.21.234,0.18,0.416,0.08,0.436-.29,2.14-2,2.628-2a2.583,2.583,0,0,1,.34.11,0.587,0.587,0,0,1,.383.59,0.754,0.754,0,0,1-.565.65,5.292,5.292,0,0,0-1.833,1.25c-0.153.1-.335,0.2-0.541,0.36a0.354,0.354,0,0,0-.129.51,3.292,3.292,0,0,0,1.833,1.84c0.412,0.13,1,.23,1,0.68,0,0.25-.229.59-0.952,0.59a1.321,1.321,0,0,1-.622-0.21m15.174-6.13c1.369-.83,1.967-1.53,1.967-1.97a0.194,0.194,0,0,0-.234-0.18c-0.335,0-1.034.7-1.91,1.86a0.3,0.3,0,0,0-.153.34,0.286,0.286,0,0,0,.33-0.05m-6.323,6.57a5.122,5.122,0,0,1-.283-1.42,35.333,35.333,0,0,1,.671-5.13c0.076-.44-0.13-0.44-0.412-0.31-0.259.13-.57,0.23-0.7,0.31a0.942,0.942,0,0,1-.594.29,0.721,0.721,0,0,1-.7-0.73,1.979,1.979,0,0,1,.21-0.83,0.905,0.905,0,0,1,.488-0.13,6.968,6.968,0,0,0,1.523-.23,0.648,0.648,0,0,0,.593-0.57c0.182-1.16.417-2.69,0.493-3.34a4.005,4.005,0,0,1,.335-1.29,1.065,1.065,0,0,1,.67-0.55,0.476,0.476,0,0,1,.517.44,3.979,3.979,0,0,1,.077.63,2.494,2.494,0,0,1-.259.95c-0.282.88-.023-0.39-0.617,2.67-0.053.31,0.024,0.49,0.258,0.49,0.541,0,5.213-1.42,6.171-1.42a1.081,1.081,0,0,1,1.263,1.06c0,1.4-1.6,2.8-4.442,4.02a2.157,2.157,0,0,0-1.11,2.04,1.51,1.51,0,0,0,1.474,1.63,2.228,2.228,0,0,0,1.24-.54,1.316,1.316,0,0,1,.617-0.55c0.441,0,.517.19,0.517,0.39a4.1,4.1,0,0,1-.569.67,2.414,2.414,0,0,1-1.728,1.01c-1.781,0-2.738-.88-2.738-2.53,0-1.58.88-2.95,2.972-5.31,0.206-.23.177-0.41-0.182-0.39a14.076,14.076,0,0,0-3.537.83,1.382,1.382,0,0,0-.7.91,51.349,51.349,0,0,0-.67,5.33c0,0.98.335,0.8,0.335,1.24a0.862,0.862,0,0,1-.723.75,0.663,0.663,0,0,1-.464-0.39m11.9-2.79a0.381,0.381,0,0,0-.364-0.39,0.823,0.823,0,0,0-.488.2,2.793,2.793,0,0,0-.881,1.61,0.191,0.191,0,0,0,.235.18,1.618,1.618,0,0,0,1.5-1.6m-3.049,1.55a2.857,2.857,0,0,1,1.034-1.58c0.1-.16.182-0.33,0.282-0.49,0.288-.26.752-0.65,0.9-0.83,0.129-.13.182-0.2,0.077-0.33-0.541-.99-1.886-2.23-1.886-3.73a3.539,3.539,0,0,1,3.743-2.85,0.391,0.391,0,0,1,.416.36,0.8,0.8,0,0,1-.646.65c-1.962.65-2.2,1.14-2.2,1.84a6.117,6.117,0,0,0,1.369,2.87c0.105,0.21.182,0.23,0.287,0.1,1.752-1.88,2.915-2.92,5.266-8.51,0.44-1.04.775-1.64,1.239-1.64a0.891,0.891,0,0,1,.7.86c0,0.23-.052.44-0.052,0.65a5.114,5.114,0,0,1-.312,1.24c-0.105.49-.234,0.85-0.569,2.2-0.053.26,0,.36,0.287,0.36,0.206,0,1.288-.33,1.623-0.33,0.493,0,.723.15,0.723,0.41,0,0.31-.1.28-0.594,0.41a17.824,17.824,0,0,0-2.01.68,0.932,0.932,0,0,0-.541.64,22.419,22.419,0,0,0-.723,4.3,3.789,3.789,0,0,0,.2,1.04,0.518,0.518,0,0,0,.364.39,2.678,2.678,0,0,0,.957-0.21c0.153,0,.359.1,0.359,0.54a2.022,2.022,0,0,1-1.24,1.22c-1.163,0-1.728-1.3-1.728-2.77a18.16,18.16,0,0,1,.517-3.68c0.048-.26.024-0.46-0.234-0.36a1.166,1.166,0,0,1-.412.16c-0.335,0-.57-0.16-0.57-0.73a1.89,1.89,0,0,1,1.293-.9,0.8,0.8,0,0,0,.541-0.52c0.258-.78.388-2.02,0.593-2.85,0.053-.26-0.1-0.18-0.181-0.08-0.618.96-3.251,6.19-4.979,8.16a0.473,0.473,0,0,0-.105.38,4.305,4.305,0,0,1,.282,1.35c0,2.02-2.192,2.77-3.073,2.77a1.049,1.049,0,0,1-1-1.19m13.68-5.23a0.174,0.174,0,0,0,.153.03c0.593-.13,3.126-1.81,3.126-2.8a0.2,0.2,0,0,0-.235-0.23c-0.412-.03-3.073,2.23-3.073,2.92Zm9.784-1.03a4.421,4.421,0,0,0,.593-1.09,0.563,0.563,0,0,0-.617-0.52c-0.9,0-4.442,4.56-4.777,6.7v0.06c0,0.1.024,0.13,0.105,0.13a0.861,0.861,0,0,0,.23-0.06c1.421-.56,2.791-2.51,4.466-5.22m-12.34,5.33a6.331,6.331,0,0,1,.229-1.82c0.029-.1.158-0.48-0.076-0.54a0.366,0.366,0,0,1-.359-0.36,1,1,0,0,1,.828-0.78,0.839,0.839,0,0,0,.512-0.54c0.464-1.55,3.15-4.64,4.806-4.64a1.147,1.147,0,0,1,1.235,1.04c0,1.66-1.752,3.34-4.595,4.66a2.754,2.754,0,0,0-1.264,2.41c0,1.06.364,1.37,0.881,1.37,2.709,0,2.967-1.37,6.141-5.18,2.2-2.64,3.174-3.98,4.366-3.98a2.84,2.84,0,0,1,1.158.54c0.129,0,.129-0.05.182-0.15,1.187-2.1.105-3.89,1.575-3.89a0.847,0.847,0,0,1,.775.83,8.127,8.127,0,0,1-.852,2.23c-0.593,1.29-.981,4.45-0.981,8.05a12.561,12.561,0,0,1,.282,1.42,0.907,0.907,0,0,1-.565.78,1.313,1.313,0,0,1-.9-1.14v-1.55c0-.21.258-0.94,0.258-1.3,0-1.86.024-2.02,0.024-2.77,0-.28-0.076-0.39-0.129-0.39a2.7,2.7,0,0,0-.723.96c-1.91,3.27-3.537,6.32-5.888,6.32a0.866,0.866,0,0,1-.876-1.04c0-.41.335-1.19,0.335-1.45a0.126,0.126,0,0,0-.105-0.15,0.122,0.122,0,0,0-.076.05c-1.341,1.5-2.681,3.13-4.414,3.13a1.842,1.842,0,0,1-1.78-2.12m25.369,0.52a0.377,0.377,0,0,0-.387-0.42,0.725,0.725,0,0,0-.465.24,2.684,2.684,0,0,0-.876,1.6c0,0.11.053,0.16,0.235,0.16a1.59,1.59,0,0,0,1.493-1.58m-3.044,1.55a2.784,2.784,0,0,1,1-1.58c0.129-.15.206-0.36,0.311-0.49,0.283-.26.723-0.65,0.929-0.83a0.277,0.277,0,0,0,.077-0.36c-1.393-2.3-2.269-3.21-2.269-4.74,0-.91,1.1-2.36,3.484-2.74a2.667,2.667,0,0,1,.824-0.19c0.775,0,1.11.26,1.11,0.78a0.764,0.764,0,0,1-.67.83,2.342,2.342,0,0,1-.823-0.33c-1.915,0-2.585.85-2.585,1.55,0,0.9.412,2.07,1.68,4.01,0.077,0.18.182,0.21,0.307,0.08a24.3,24.3,0,0,0,3.9-4.32,0.892,0.892,0,0,0-.053-0.42,0.767,0.767,0,0,1,.747-0.96,2.51,2.51,0,0,1,.387.18,0.844,0.844,0,0,1,.623.73,2.164,2.164,0,0,1-.311.9,36.382,36.382,0,0,0-1.446,5.21,7.7,7.7,0,0,0-.153,1.35,1.126,1.126,0,0,1-.929,1.13c-0.517,0-.622-0.33-0.622-0.9a4.443,4.443,0,0,1,.335-1.3c0.158-.49,1.063-3.18,1.063-3.54,0-.26-0.053-0.44-0.264-0.16-0.335.42-1.933,1.68-2.785,2.77a0.778,0.778,0,0,0-.106.42,2.887,2.887,0,0,1,.388,1.26c0,2.02-2.274,2.85-3.174,2.85a1.047,1.047,0,0,1-.981-1.19m8.415-14.29a0.845,0.845,0,0,1,.881-0.78,1.353,1.353,0,0,1,1.264,1.14,1.069,1.069,0,0,1-.958.78,1.234,1.234,0,0,1-1.187-1.14m10.532,11.11a5.388,5.388,0,0,1,.49-2.2c0.21-.42.05-0.47-0.29-0.21a6.429,6.429,0,0,0-1.72,2.66,1.816,1.816,0,0,1-.98,1.27,1.318,1.318,0,0,1-.65.21,1.489,1.489,0,0,1-.85-1.24,35.811,35.811,0,0,1-.31-4.56,0.265,0.265,0,0,0-.23-0.31,1.457,1.457,0,0,0-.88.65c-0.105.15-.417,0.36-0.517,0.51-0.929,1.38-1.321,3.66-1.7,4.61a1.008,1.008,0,0,1-1.01.42c-0.388,0-.512-0.39-0.594-0.86a44.049,44.049,0,0,1-.024-4.89,8.564,8.564,0,0,1-.234-1.29c0-.99.44-1.17,0.751-1.17a2.279,2.279,0,0,0,.412.15,0.408,0.408,0,0,1,.464.32,7.825,7.825,0,0,1-.182,1.32c0,1.26,0,3.7.077,3.93,0.053,0.13.029,0.23,0.134,0.23a3.379,3.379,0,0,0,.459-1.13,17.941,17.941,0,0,1,2.248-4.2,2.711,2.711,0,0,1,1.58-1.06c0.41,0,.54.72,0.54,1.19a46.835,46.835,0,0,0,.44,5.15,0.234,0.234,0,0,0,.46.05,26.541,26.541,0,0,1,3.77-4.81,5.352,5.352,0,0,1,3.67-1.76c0.36,0,.72.1,0.72,0.39a1.057,1.057,0,0,1-.49.83,3.081,3.081,0,0,1-.64.28c-1.94.36-3.7,2.28-3.7,5.46a1.2,1.2,0,0,0,1.24,1.43,3.1,3.1,0,0,0,2.22-1.3,2.234,2.234,0,0,0,.39-0.43,0.341,0.341,0,0,1,.59.25,0.321,0.321,0,0,1-.1.21,0.889,0.889,0,0,0-.42.52,3.246,3.246,0,0,1-.25.49,3.041,3.041,0,0,1-2.55,1.6,2.511,2.511,0,0,1-2.33-2.71m12.03-6.79a0.282,0.282,0,0,0-.26-0.28c-0.36,0-1.14.44-2.09,1.68a0.349,0.349,0,0,0-.13.36,0.263,0.263,0,0,0,.36.05,4.519,4.519,0,0,0,2.12-1.81m-5.56,7.15a11.181,11.181,0,0,1,.32-2.28c0.04-.21.04-0.26-0.13-0.31a0.777,0.777,0,0,1-.31-0.55c0-.59.25-0.54,0.88-0.93a1,1,0,0,0,.38-0.46c1.03-2.1,3.33-4.3,4.83-4.3a1.152,1.152,0,0,1,1,1.06c0,1.43-1.26,1.89-4.61,4.27a1.636,1.636,0,0,0-.63.91,10.165,10.165,0,0,0-.46,2.48,0.862,0.862,0,0,0,.75.99,1.666,1.666,0,0,0,1.57-.86,0.264,0.264,0,0,1,.21-0.1,0.277,0.277,0,0,1,.28.31c0,0.86-1.65,1.68-2.5,1.68a1.764,1.764,0,0,1-1.58-1.91m12.37,0.23c0-.54,1.16-7.64,1.16-9.01a0.519,0.519,0,0,0-.52-0.41,0.592,0.592,0,0,1-.49-0.63,3.483,3.483,0,0,1,1.63-1.96,0.518,0.518,0,0,1,.57.47,1.95,1.95,0,0,1,.31.69c0,0.31-.16.96-0.16,1.27,0,1.17-1.26,7.43-1.26,9.09a0.217,0.217,0,0,0,.05.18,5.621,5.621,0,0,1,.15.62c0,0.6-.15.86-0.54,0.86a1.113,1.113,0,0,1-.9-1.17m10.27-10.09a0.721,0.721,0,0,0,.08-0.24,0.182,0.182,0,0,0-.16-0.18,3.016,3.016,0,0,0-.95-0.47c-1.06,0-3.75,3.58-3.75,4.56,0,0.57.11,0.96,0.52,0.96,0.83,0,3.36-2.44,4.26-4.63m-2.76,12.19c0-.78,1.67-1.14,2.3-3.16a22.724,22.724,0,0,0,.72-5.36c0.02-.31-0.05-0.42-0.05-0.73a18.008,18.008,0,0,0,.15-1.88c0-.19-0.05-0.24-0.1-0.24-0.03,0-.03-0.02-0.18.21-0.21.33-1.14,1.76-2.04,2.95-0.08.11-.13,0.41-0.23,0.52a3.137,3.137,0,0,1-2.59,1.35c-1,0-1.24-.83-1.24-1.92,0-1.55,3.46-6.01,5.63-6.01a1.164,1.164,0,0,1,1.24.88,2.136,2.136,0,0,1-.07.44,0.2,0.2,0,0,0,.23.21,0.679,0.679,0,0,1,.69.75c0,3.03-1.21,9.76-2.81,11.86a1.394,1.394,0,0,1-1.06.91,0.651,0.651,0,0,1-.59-0.78m4.28-1.3a1.054,1.054,0,0,1-.15-0.36,0.339,0.339,0,0,1,.12-0.26,0.4,0.4,0,0,1,.26-0.15,4.036,4.036,0,0,1,1.14.83,3.706,3.706,0,0,0,1.11.36c2.19,0,5.11-2.51,5.11-4.89a1.806,1.806,0,0,0-1.83-1.9,8.443,8.443,0,0,0-2.35.45c-0.75.18-1.29,0.41-1.45,0.41a0.679,0.679,0,0,1-.74-0.8,0.794,0.794,0,0,1,.9-0.65,1.886,1.886,0,0,0,.59-0.05,3.249,3.249,0,0,0,.72-0.31,3.52,3.52,0,0,0,.42-0.29c0.1-.1.98-1.06,1.08-1.19,0.11-.11.6-0.26,0.7-0.39,0.05-.05.1-0.21,0.15-0.26a2.064,2.064,0,0,0,.36-1.63,0.956,0.956,0,0,0-.82-1.01,3.641,3.641,0,0,0-2.33,1.04,2.211,2.211,0,0,1-1.31.67c-0.57,0-.54-0.7-0.54-0.88,0-.83,2.76-1.89,4.28-1.89a2.023,2.023,0,0,1,1.97,1.84,2.714,2.714,0,0,1-.55,1.55c-0.1.16-.49,0.44-0.59,0.6s-0.31.47-.41,0.62c-0.29.39-.83,0.7-1.06,1.01a0.536,0.536,0,0,0-.11.18c0,0.08.08,0.13,0.24,0.11,0.2-.03.9-0.11,1.1-0.11a2.632,2.632,0,0,1,2.69,2.75c0,2.71-3.49,6.16-6.22,6.16a2.856,2.856,0,0,1-2.48-1.56m13.71-4.92a1.8,1.8,0,0,0-1.04-1.58c-0.74,0-1.21.34-2.11,1.89-0.08.16-.39,0.32-0.47,0.5a7.263,7.263,0,0,0-.18,2.33,1.241,1.241,0,0,0,.65,1.29c0.9,0,3.15-2.38,3.15-4.43m0.96-5.51a1.223,1.223,0,0,0-.78-1.22,0.787,0.787,0,0,1-.26.08c-0.08,0-.2-0.08-0.26-0.08-1.05,0-1.81,1.56-1.81,2.51a1.318,1.318,0,0,0,.86,1.09c0.49,0,2.25-1.32,2.25-2.38m-5.82,8.52a5.637,5.637,0,0,1,.93-3.6c0.08-.1.16-0.36,0.24-0.47a3.53,3.53,0,0,1,1.08-1.16c0.21-.13.18-0.26,0-0.42a2.007,2.007,0,0,1-.65-1.6c0-1.45,1.58-4.14,3.13-4.14a0.754,0.754,0,0,1,.85.62c0,0.05.02,0.08,0.13,0.1a1.9,1.9,0,0,1,1.37,1.86c0,1.02-1.39,2.36-2.35,2.85-0.15.08-.15,0.21,0.02,0.37a4.325,4.325,0,0,1,1.24,2.48c0,2.2-2.81,5.65-4.28,5.65-0.75,0-1.71-1.12-1.71-2.54m-186.664-58.88a8.859,8.859,0,0,0-3.063-.15v24.98c0,4.25-2.221,6.88-5.778,6.88-4.351,0-6.376-2.53-6.376-7.98v-18.37c0-3.04-3.006-4.65-5.567-5.36a8.2,8.2,0,0,0-3.26-.15v23.88c0,5.45-2.029,7.98-6.39,7.98-3.561,0-5.768-2.63-5.768-6.88v-19.47c0-2.83-2.408-4.5-4.945-5.26a10.726,10.726,0,0,0-3.872-.25v26.55c0,7.77,6.337,13.85,14.422,13.85a14.278,14.278,0,0,0,10.962-4.88,14.27,14.27,0,0,0,10.962,4.88c8.084,0,14.432-6.08,14.432-13.85v-21.04c0-3-3.188-4.73-5.759-5.36m62.147,32.63a12.836,12.836,0,0,1-4.39.73,11.669,11.669,0,0,1-2.8-.33,6.031,6.031,0,0,1-2.355-1.13,5.479,5.479,0,0,1-1.589-2.16,9.06,9.06,0,0,1-.565-3.47v-18.16h15.595a15.076,15.076,0,0,0,.647-1.67,7.816,7.816,0,0,0,.407-2.57,4.348,4.348,0,0,0-1.1-3.22,5.231,5.231,0,0,0-3.777-1.1H908.464v-5.42h-0.01v-0.28c0-2.97-2.527-4.73-5.193-5.53a11.339,11.339,0,0,0-4.055-.26v40.09a13.264,13.264,0,0,0,3.653,9.73q3.661,3.7,10.8,3.71a22.19,22.19,0,0,0,4.633-.46,26.447,26.447,0,0,0,3.82-1.09,16.307,16.307,0,0,0,2.877-1.38c0.79-.49,1.4-0.9,1.829-1.22l-3.734-6.2a12.183,12.183,0,0,1-2.92,1.39m44.6-12.75q-3.733-2.82-10.455-3.71l-8.262-1.06a12.839,12.839,0,0,1-5.1-1.5,3.557,3.557,0,0,1-1.781-3.22q0-4.98,9.416-4.97a29.328,29.328,0,0,1,10.478,1.75,16.344,16.344,0,0,1,2.968,1.39,10.122,10.122,0,0,1,1.426,1.01,2.861,2.861,0,0,0,.728-0.45,4.721,4.721,0,0,0,.928-0.93,7.031,7.031,0,0,0,.814-1.3,3.791,3.791,0,0,0,.373-1.71c0-2.02-1.565-3.64-4.671-4.89s-7.492-1.88-13.121-1.88a31.4,31.4,0,0,0-8.583,1.02,16.143,16.143,0,0,0-5.753,2.81,10.968,10.968,0,0,0-3.241,4.12,12.016,12.016,0,0,0-1.024,4.92,11.237,11.237,0,0,0,1.1,5.17,10.126,10.126,0,0,0,3.049,3.63,15.218,15.218,0,0,0,4.662,2.32,29.351,29.351,0,0,0,5.974,1.18l6.338,0.74q4.38,0.48,6.084,1.67a3.92,3.92,0,0,1,1.7,3.45,3.865,3.865,0,0,1-2.676,3.8,18.441,18.441,0,0,1-6.9,1.1,34.99,34.99,0,0,1-6.007-.49,38.092,38.092,0,0,1-4.921-1.18,37.189,37.189,0,0,1-3.614-1.35,12.411,12.411,0,0,1-2.025-1.06l-3.494,6.27a12.012,12.012,0,0,0,2.111,1.22,28.854,28.854,0,0,0,4.265,1.67,46.261,46.261,0,0,0,6.213,1.51,43.957,43.957,0,0,0,7.956.66q9.1,0,13.934-3.67a11.655,11.655,0,0,0,4.83-9.77q0-5.46-3.719-8.27m43.844-17.35a15.12,15.12,0,0,0-5.4-3.14,21.489,21.489,0,0,0-6.865-1.06,17.957,17.957,0,0,0-8.444,1.73,15.783,15.783,0,0,0-4.878,3.7v-8.74h-0.01v-1.18c0-2.96-2.522-4.72-5.193-5.52a11.361,11.361,0,0,0-4.059-.26v52.38h9.262V4352.8a12.464,12.464,0,0,1,2.8-8.49q2.808-3.2,8.319-3.2c3.629,0,6.183.92,7.683,2.76,1.48,1.84,2.23,4.55,2.23,8.12v22.67h9.26v-25.49a19.8,19.8,0,0,0-1.22-7.25,13.562,13.562,0,0,0-3.49-5.17m50.83-2.69a20.744,20.744,0,0,0-8.33-1.43q-8.13,0-12.71,4.12t-4.59,11.6v26.32h9.26v-23.63q0-10.095,9.5-10.1a17.1,17.1,0,0,1,4.63.57,22.076,22.076,0,0,1,3.42,1.23,5.756,5.756,0,0,0,1.25-1.64,5.114,5.114,0,0,0,.77-2.68c0-1.95-1.07-3.41-3.2-4.36m33.94,14.29a4.585,4.585,0,0,1-2.04,2.04,14.723,14.723,0,0,1-4.3,1.47,37.029,37.029,0,0,1-7.23.57h-3.41c-1.14,0-2.32-.03-3.57-0.08a14.74,14.74,0,0,1,.93-4.65,12.689,12.689,0,0,1,2.4-4.03,11.523,11.523,0,0,1,3.81-2.81,12.351,12.351,0,0,1,5.28-1.06,11.4,11.4,0,0,1,6.14,1.55,5.109,5.109,0,0,1,2.47,4.64,6,6,0,0,1-.48,2.36m4.99-11.69a17.612,17.612,0,0,0-5.48-2.93,23.351,23.351,0,0,0-7.47-1.1,23.723,23.723,0,0,0-8.81,1.59,20.957,20.957,0,0,0-6.99,4.48,20.325,20.325,0,0,0-4.63,6.93,23.159,23.159,0,0,0-1.67,8.92,22.694,22.694,0,0,0,1.71,9.08,19.424,19.424,0,0,0,4.67,6.68,19.691,19.691,0,0,0,6.91,4.11,25.436,25.436,0,0,0,8.48,1.39,33.466,33.466,0,0,0,5.97-.49,39.552,39.552,0,0,0,4.8-1.15,20.917,20.917,0,0,0,3.45-1.38c0.91-.49,1.59-0.87,2.03-1.13l-3.42-6.53c-0.32.17-.82,0.42-1.5,0.74a24.838,24.838,0,0,1-2.43.98,23.444,23.444,0,0,1-3.21.81,21.489,21.489,0,0,1-3.9.33q-6.255,0-9.63-2.57a10.138,10.138,0,0,1-4.02-6.72c1.09,0.05,2.11.1,3.05,0.12s1.96,0.04,3.05.04a58.271,58.271,0,0,0,11.53-.94,22.3,22.3,0,0,0,7.23-2.6,9.3,9.3,0,0,0,3.73-3.99,12.412,12.412,0,0,0,1.06-5.17,12.039,12.039,0,0,0-4.51-9.5m-219.717,2.97c0-2.97-2.532-4.72-5.194-5.52a11.479,11.479,0,0,0-4.059-.27v40.83h9.258v-31.23c0-.07,0-0.14,0-0.21v-3.6Zm14.886-11.57c0-2.96-2.522-4.71-5.189-5.52a11.624,11.624,0,0,0-4.059-.26v0.82l0,51.56h9.262v-44.42a0.841,0.841,0,0,0-.01-0.1v-2.08Zm134.681,11.57c0-2.96-2.53-4.72-5.2-5.52a11.367,11.367,0,0,0-4.06-.26v0.82h0v40h9.26v-35.04Zm75.34-12.7a1.691,1.691,0,0,1-.98.22h-0.54a1.556,1.556,0,0,1-.26-0.03v-1.62c0.04,0,.12-0.01.23-0.02s0.27-.02.48-0.02a1.8,1.8,0,0,1,1.08.25,0.807,0.807,0,0,1,.29.61,0.731,0.731,0,0,1-.3.61m1.21,2c-0.11-.21-0.22-0.41-0.32-0.59s-0.22-.36-0.33-0.52a1.73,1.73,0,0,0,.7-0.57,1.526,1.526,0,0,0,.27-0.95,1.563,1.563,0,0,0-.64-1.34,3.421,3.421,0,0,0-1.98-.47c-0.38,0-.69.01-0.94,0.02a1.816,1.816,0,0,0-.56.1,0.508,0.508,0,0,0-.26.21,0.662,0.662,0,0,0-.07.34v4.94h1.14v-1.98a1.239,1.239,0,0,0,.31.03h0.65a1.172,1.172,0,0,0,.24-0.02c0.07,0.11.16,0.26,0.27,0.44s0.2,0.38.3,0.58,0.19,0.38.27,0.56,0.15,0.31.19,0.39h1.32c-0.08-.18-0.17-0.37-0.27-0.56s-0.19-.41-0.29-0.61m1.69,0.06a4.481,4.481,0,0,1-.83,1.28,4.126,4.126,0,0,1-1.23.86,3.9,3.9,0,0,1-1.52.31,3.775,3.775,0,0,1-1.51-.31,4.257,4.257,0,0,1-1.23-.86,4.15,4.15,0,0,1-.82-4.42,3.957,3.957,0,0,1,.82-1.28,4.072,4.072,0,0,1,1.23-.86,3.612,3.612,0,0,1,1.51-.31,3.724,3.724,0,0,1,1.52.31,3.953,3.953,0,0,1,1.23.86,4.347,4.347,0,0,1,.83,1.28,4.03,4.03,0,0,1,.3,1.57,4.1,4.1,0,0,1-.3,1.57m1.14-3.57a5.264,5.264,0,0,0-1.1-1.63,5.385,5.385,0,0,0-1.63-1.1,4.992,4.992,0,0,0-1.99-.41,4.921,4.921,0,0,0-1.99.41,5.385,5.385,0,0,0-1.63,1.1,5.264,5.264,0,0,0-1.1,1.63,5,5,0,0,0-.4,2,4.915,4.915,0,0,0,.4,1.99,5.31,5.31,0,0,0,1.1,1.64,5.209,5.209,0,0,0,1.63,1.1,4.915,4.915,0,0,0,1.99.4,4.983,4.983,0,0,0,1.99-.4,5.209,5.209,0,0,0,1.63-1.1,5.31,5.31,0,0,0,1.1-1.64,4.915,4.915,0,0,0,.4-1.99,5,5,0,0,0-.4-2" transform="translate(-726 -4196)"/>
</svg>
