<svg id="brands-fackelmann-logo" xmlns="http://www.w3.org/2000/svg" width="468" height="334" viewBox="0 0 468 334">
  <defs>
    <style>
      .cls-1 {
        fill: #eee;
      }

      .cls-2 {
        fill: #fff;
        fill-rule: evenodd;
      }
    </style>
  </defs>
  <path id="fackelmann" class="cls-2" d="M415.316,3663.98l-8.948-14.02,0.27,14.02h-9.185v-30.49h9.185l-0.27,14.6,8.723-14.6h10.142l-9.151,14.83,10.141,15.66H415.316Zm-31.313.51a15.014,15.014,0,0,1-14.9-15.12c0-.11,0-0.22,0-0.33,0-9,6.754-16.05,15.342-16.05a21.861,21.861,0,0,1,6.663,1.06v9.4a9.178,9.178,0,0,0-5.38-1.96,7.161,7.161,0,0,0-7.046,7.25,7.238,7.238,0,0,0,7.2,7.25,8.855,8.855,0,0,0,5.222-1.71v9.24A27.142,27.142,0,0,1,384,3664.49Zm-65,5.68H624v6.84H319v-6.84Zm137.513-6.19v-30.49H466v21.99h9.387l-1.317,8.5H456.513Zm56.988-30.49H503.326l-4.964,17.52h-0.27l-0.36-1.29-4.6-16.23H482.964l-4.739,30.49h9.061l2.5-17.02,0.248-1.65h0.2l5.246,18.67h5.492l5.246-18.67h0.2l0.248,1.65,2.5,17.02h9.072Zm64.676,0v18.07H577.9l-11.008-18.07h-9.275v30.49h8.813v-18.06h0.282l10.974,18.06h9.3v-30.49h-8.8Zm36.571,0v18.07h-0.293l-11.008-18.07h-9.264v30.49H603v-18.06h0.281l10.963,18.06h9.309v-30.49h-8.8ZM440,3657.26v-5.54h8.689v-6H440v-5.55h9.522v-6.68h-19.1v30.49h19.427v-6.72H440Zm-111.433-10.92v-5.7h8.093l2.42-7.15H319v30.49h9.568v-11.32h4.041l2.138-6.32h-6.179Zm28.983-12.85H346.3l-10.131,30.49h9.467l1.125-4.03h0l0.135-.51,0.282-.99h9.8l0.282,0.99,0.146,0.51h0l1.126,4.03h9.432Zm-5.346,8.17,2.983,10.48h-6.225l2.983-10.48h0.259Zm190.314-8.17H531.263l-10.13,30.49H530.6l1.125-4.03h0l0.147-.51,0.281-.99h9.793l0.281,0.99,0.147,0.51h0l1.125,4.03h9.511Zm-5.335,8.17,2.982,10.48h-6.224l2.983-10.48h0.259Z" transform="translate(-240 -3488)"/>
</svg>
