<svg id="brands-oetker-logo" xmlns="http://www.w3.org/2000/svg" width="468" height="334" viewBox="0 0 468 334">
  <defs>
    <style>
      .cls-1 {
        fill: #eee;
      }

      .cls-2 {
        fill: #fff;
        fill-rule: evenodd;
      }
    </style>
  </defs>
  <path id="oetker" class="cls-2" d="M883.024,5232.99l-1.638,7.74h0l8.527-7.79h5.465l-9.024,7.66,5.761,10.95h-4.592l-4.3-8.37-2.86,2.47-1.235,5.9h-4.136l3.894-18.63Zm18.921,18.61,0.416-1.88h0a5.845,5.845,0,0,1-4.753,2.23c-2.686,0-4.029-1.21-4.029-3.61a4.26,4.26,0,0,1,0-.53,1.514,1.514,0,0,1,.107-0.67,2.933,2.933,0,0,0,.135-0.64c0.053-.19.08-0.35,0.107-0.47l1.692-7.91h3.72l-1.6,7.93a2.07,2.07,0,0,0-.094.38l-0.081.46a2.6,2.6,0,0,0,0,.45v0.35a1.189,1.189,0,0,0,.564,1,2.131,2.131,0,0,0,1.222.38,3.335,3.335,0,0,0,1.491-.32,3.731,3.731,0,0,0,1.1-.85,4.577,4.577,0,0,0,.765-1.2,7.222,7.222,0,0,0,.457-1.33l1.531-7.17h3.733l-2.847,13.48Zm0.5-18.62-0.631,3.06H898.36l0.644-3.06h3.438Zm5.156,0-0.631,3.06h-3.451l0.631-3.06H907.6Zm10.743,8.1a3.4,3.4,0,0,0-3.679,0,4.228,4.228,0,0,0-1.182,1.41,7.235,7.235,0,0,0-.644,1.86,9.558,9.558,0,0,0-.2,1.86,5.237,5.237,0,0,0,.134,1.15,2.4,2.4,0,0,0,.457.91,1.978,1.978,0,0,0,.792.63,3.113,3.113,0,0,0,2.324,0,2.97,2.97,0,0,0,.859-0.55,2.734,2.734,0,0,0,.631-0.79,4.612,4.612,0,0,0,.416-0.95h3.734a8,8,0,0,1-2.592,3.9,7.023,7.023,0,0,1-4.432,1.33,6.523,6.523,0,0,1-4.458-1.4,5.526,5.526,0,0,1-1.6-4.36,9.877,9.877,0,0,1,.524-3.25,7.969,7.969,0,0,1,1.49-2.66,7.1,7.1,0,0,1,2.4-1.82,7.63,7.63,0,0,1,3.263-.66,8.867,8.867,0,0,1,2.35.29,5.732,5.732,0,0,1,1.934.88,4.209,4.209,0,0,1,1.343,1.57,5.333,5.333,0,0,1,.51,2.28h-3.733A2.141,2.141,0,0,0,918.341,5241.08Zm12.073-8.09-1.343,6.65h0a3.51,3.51,0,0,1,.6-0.62,4.584,4.584,0,0,1,.954-0.63,6.311,6.311,0,0,1,1.342-.48,6.143,6.143,0,0,1,1.652-.2q4.029,0,4.029,3.62a4.685,4.685,0,0,1,0,.53l-0.121.67a3.3,3.3,0,0,1-.134.64l-0.094.49-1.679,7.89h-3.733l1.652-7.89a5.7,5.7,0,0,1,.147-0.84,4.385,4.385,0,0,0,.094-0.81,1.168,1.168,0,0,0-.564-0.99,2.125,2.125,0,0,0-1.222-.39,3.2,3.2,0,0,0-1.49.33,3.461,3.461,0,0,0-1.1.84,4.768,4.768,0,0,0-.766,1.21,6.427,6.427,0,0,0-.456,1.33l-1.531,7.17h-3.707l3.895-18.63Zm12.072,13.06v0.55a2.511,2.511,0,0,0,.739,1.9,3.036,3.036,0,0,0,2.256.73,2.764,2.764,0,0,0,1.745-.6,2.676,2.676,0,0,0,.578-0.6c0.174-.22.322-0.43,0.47-0.65h3.733a9.285,9.285,0,0,1-1.061,2.01,5.684,5.684,0,0,1-1.437,1.44,5.869,5.869,0,0,1-1.96.88,10.768,10.768,0,0,1-2.592.29,8.041,8.041,0,0,1-2.484-.37,4.886,4.886,0,0,1-3.129-2.94,6.825,6.825,0,0,1-.443-2.56,9,9,0,0,1,.537-3.11,8.615,8.615,0,0,1,1.477-2.66,6.945,6.945,0,0,1,5.492-2.54,8.879,8.879,0,0,1,2.619.25,5.26,5.26,0,0,1,1.987,1.12,4.693,4.693,0,0,1,1.343,1.85,6.551,6.551,0,0,1,.47,2.56,11.984,11.984,0,0,1-.215,2.11H942.594A0.773,0.773,0,0,0,942.486,5246.05Zm6.553-3.6a2.4,2.4,0,0,0-.349-0.93,1.878,1.878,0,0,0-.765-0.67,3.091,3.091,0,0,0-1.343-.24,3.84,3.84,0,0,0-1.343.23,3.8,3.8,0,0,0-1.047.62,3.964,3.964,0,0,0-.752.92,7.7,7.7,0,0,0-.511,1.09h6.231a5.318,5.318,0,0,0-.134-1.08Zm10.542-4.38-0.416,1.88h0a5.812,5.812,0,0,1,4.753-2.24q4.029,0,4.029,3.62a2.76,2.76,0,0,1,0,.53l-0.121.67a2.556,2.556,0,0,1-.134.64,2.9,2.9,0,0,0-.081.49l-1.692,7.89h-3.733l1.652-7.89a8.5,8.5,0,0,1,.147-0.84,4.3,4.3,0,0,0,.094-0.81,1.168,1.168,0,0,0-.564-0.99,2.125,2.125,0,0,0-1.222-.39,3.207,3.207,0,0,0-1.49.33,3.461,3.461,0,0,0-1.1.84,4.768,4.768,0,0,0-.766,1.21,7.146,7.146,0,0,0-.456,1.33l-1.531,7.17h-3.76l2.82-13.44h3.572Zm16.826-5.08-1.343,6.65h0a3.545,3.545,0,0,1,.6-0.62,4.518,4.518,0,0,1,.94-0.63,6.4,6.4,0,0,1,1.343-.48,6.673,6.673,0,0,1,1.665-.2c2.686,0,3.962,1.21,3.962,3.62a2.931,2.931,0,0,1,0,.53,3.8,3.8,0,0,1-.108.67c-0.04.22-.094,0.44-0.134,0.64s-0.08.36-.094,0.49l-1.678,7.89H977.83l1.652-7.89a5.724,5.724,0,0,1,.148-0.84,6.037,6.037,0,0,0,.094-0.81,1.176,1.176,0,0,0-.578-0.99,2.052,2.052,0,0,0-1.222-.39,3.155,3.155,0,0,0-1.477.33,3.535,3.535,0,0,0-1.114.84,4.982,4.982,0,0,0-.752,1.21,7.185,7.185,0,0,0-.47,1.33l-1.518,7.17h-3.706l3.881-18.63Zm12.059,13.06v0.55a2.563,2.563,0,0,0,.738,1.9,3.075,3.075,0,0,0,2.27.73,2.523,2.523,0,0,0,.98-0.17,2.554,2.554,0,0,0,.766-0.43,2.859,2.859,0,0,0,.577-0.6,6.435,6.435,0,0,0,.457-0.65H998a10.109,10.109,0,0,1-1.061,2.01,5.879,5.879,0,0,1-3.4,2.32,10.768,10.768,0,0,1-2.592.29,8.041,8.041,0,0,1-2.484-.37,5.1,5.1,0,0,1-1.92-1.11,5.022,5.022,0,0,1-1.222-1.83,7.1,7.1,0,0,1-.43-2.56,9.327,9.327,0,0,1,.524-3.11,8.449,8.449,0,0,1,1.49-2.66,7,7,0,0,1,2.35-1.85,6.906,6.906,0,0,1,3.129-.69,8.746,8.746,0,0,1,2.592.36,5.317,5.317,0,0,1,2,1.11,5.058,5.058,0,0,1,1.343,1.85,6.624,6.624,0,0,1,.456,2.57,11.766,11.766,0,0,1-.2,2.1H988.546A2.046,2.046,0,0,0,988.466,5246.05Zm6.566-3.6a2.388,2.388,0,0,0-.349-0.93,1.878,1.878,0,0,0-.765-0.67,3.091,3.091,0,0,0-1.343-.24,3.84,3.84,0,0,0-1.343.23,3.8,3.8,0,0,0-1.047.62,3.964,3.964,0,0,0-.752.92,6.361,6.361,0,0,0-.511,1.09h6.231a5.226,5.226,0,0,0-.121-1.08v0.06Zm11.858-9.46-4.03,18.62h-3.705l4.025-18.62h3.71Zm-0.32,7.61,0.52-2.48h2.24a20.421,20.421,0,0,1,.58-2.27,5.3,5.3,0,0,1,.86-1.65,3.4,3.4,0,0,1,1.46-1.02,6.9,6.9,0,0,1,2.38-.34h1.24a7.137,7.137,0,0,1,1.22.15l-0.58,2.66h-1.22a2.588,2.588,0,0,0-1.07.17,1.317,1.317,0,0,0-.57.5,3.1,3.1,0,0,0-.31.78,5.065,5.065,0,0,1-.25,1.05h2.68l-0.52,2.48h-2.69l-2.35,11h-3.73l2.35-11Zm12.06,5.45v0.55a2.464,2.464,0,0,0,.74,1.9,3.049,3.049,0,0,0,2.26.73,2.5,2.5,0,0,0,.98-0.17,2.769,2.769,0,0,0,.77-0.43,3,3,0,0,0,.58-0.6c0.16-.22.32-0.43,0.45-0.65h3.74a9.377,9.377,0,0,1-1.05,2.01,5.865,5.865,0,0,1-3.41,2.32,10.774,10.774,0,0,1-2.59.29,8.391,8.391,0,0,1-2.49-.37,4.989,4.989,0,0,1-1.9-1.11,5.055,5.055,0,0,1-1.23-1.83,7.212,7.212,0,0,1-.43-2.56,9.409,9.409,0,0,1,.53-3.11,8.314,8.314,0,0,1,1.49-2.66,6.944,6.944,0,0,1,5.48-2.54,8.76,8.76,0,0,1,2.59.36,5.328,5.328,0,0,1,2,1.11,4.9,4.9,0,0,1,1.34,1.85,6.646,6.646,0,0,1,.46,2.57,10.542,10.542,0,0,1-.22,2.1h-10.01A1.128,1.128,0,0,0,1018.63,5246.05Zm6.56-3.6a2.406,2.406,0,0,0-.36-0.93,1.93,1.93,0,0,0-.75-0.67,3.094,3.094,0,0,0-1.34-.24,3.871,3.871,0,0,0-1.35.23,3.774,3.774,0,0,0-1.04.62,3.522,3.522,0,0,0-.76.92,7.261,7.261,0,0,0-.52,1.09h6.24a6.611,6.611,0,0,0-.12-1.08v0.06Zm10.5-4.38-0.55,2.44h0a4.52,4.52,0,0,1,1.91-2.12,5.649,5.649,0,0,1,2.78-.72,9.044,9.044,0,0,1,1.16.08l-0.77,3.59-0.79-.16a5.077,5.077,0,0,0-.78,0,4.274,4.274,0,0,0-1.83.36,3.581,3.581,0,0,0-1.26.99,4.788,4.788,0,0,0-.82,1.42,10.834,10.834,0,0,0-.48,1.66l-1.26,5.96h-3.67l2.82-13.5h3.54Zm-3.27-81.98c-0.82-11.98-9.97-16.38-18.25-20.58-9.15-4.63-31.666-11.51-56.147-11.51s-47,6.88-56.159,11.51c-8.285,4.2-17.457,8.62-18.249,20.58-0.886,13.13-.309,26.82,3.344,32.42,3.276,5,7.439,12.33,28.079,22.38s42.972,9.73,42.972,9.67,22.358,0.4,42.97-9.67,24.79-17.38,28.07-22.38C1032.73,5182.91,1033.3,5169.22,1032.42,5156.09Zm-9.47,21.95c-1.34,2.22-2.95,6.79-16.03,12.98a92.4,92.4,0,0,1-22.093,6.92,0.523,0.523,0,0,0-.484.53h0v0.5c0,9.69-11.79,17.55-26.333,17.56s-26.347-7.87-26.347-17.56v-0.46h0a0.544,0.544,0,0,0-.444-0.53,92.655,92.655,0,0,1-22.13-6.92c-13.079-6.19-14.771-10.76-16.034-12.98-1.423-2.46-2-10.65-1.571-16.23,0.376-5,1.142-8.34,8.138-11.46,7.211-3.22,33.867-7.07,58.374-7.07s51.154,3.85,58.374,7.07c6.98,3.12,7.75,6.46,8.12,11.46,0.46,5.6-.12,13.7-1.54,16.19h0ZM958.037,5183c-13.563,0-24.548,7.14-24.548,15.96s10.985,15.96,24.548,15.96,24.534-7.13,24.534-15.96S971.586,5183,958.037,5183Zm11.79,26.78a1.575,1.575,0,0,1-1.343.41h-20.3a1.654,1.654,0,0,1-.954-0.16,0.8,0.8,0,0,1-.416-0.99,3.566,3.566,0,0,1,.551-1.17,6,6,0,0,1,2.256-1.74c1.705-.94,3.115-1.41,3.934-1.98a2.782,2.782,0,0,0,1.249-1.56,1.7,1.7,0,0,0-.148-1.45,3.921,3.921,0,0,0-2.215-1.03,1.144,1.144,0,0,1-1.061-1.11,8.076,8.076,0,0,0,0-1.1,4.179,4.179,0,0,0-.188-0.57,2.392,2.392,0,0,1,0-.44,0.865,0.865,0,0,1-.148-0.78c0.175-.54-0.309-0.61-0.43-0.73a1.556,1.556,0,0,1-.416-0.36,0.452,0.452,0,0,1-.067-0.5,1.423,1.423,0,0,1,.631-0.93,2.219,2.219,0,0,0,.712-1.33,9.342,9.342,0,0,0,0-1.11,2.875,2.875,0,0,1,.094-0.9s0.148-.55.188-0.68a1.325,1.325,0,0,0,0-.47,4.072,4.072,0,0,1,0-.91,2.193,2.193,0,0,1,.5-0.99c0.215-.22.644-0.57,0.765-0.68a13.883,13.883,0,0,1,1.021-1.13,2.261,2.261,0,0,1,1.437-.32,5.776,5.776,0,0,0,.832,0,7.773,7.773,0,0,0,1.182,0h0.349a2.906,2.906,0,0,1,.954.32,12.29,12.29,0,0,0,1.705.3,3.436,3.436,0,0,1,1.45,1.09,4.8,4.8,0,0,0,1.692.98,2.255,2.255,0,0,1,1.343,1.33,8.715,8.715,0,0,0,.927,1.92,3.008,3.008,0,0,1,.9,2.12c0.162,1.34.658,1.34,0.591,2.67a2.565,2.565,0,0,1-1.262,1.71,3.14,3.14,0,0,0-1.45.88,1.342,1.342,0,0,1-.994.74,6.063,6.063,0,0,1-1.343-.13,1.033,1.033,0,0,0-1.128.68,3.005,3.005,0,0,0,.873,2.66,16.206,16.206,0,0,0,3.773,2.66,30.223,30.223,0,0,1,2.807,1.78,4.548,4.548,0,0,1,1.007,1.19A1.691,1.691,0,0,1,969.827,5209.78Zm39.253-36.89a7.069,7.069,0,0,1-1.22,3.43,6.939,6.939,0,0,1-2.69,2.29,8.54,8.54,0,0,1-3.83.81,7.975,7.975,0,0,1-4.334-1.18,7.684,7.684,0,0,1-2.806-3.37,12.627,12.627,0,0,1-.98-5.15,14.51,14.51,0,0,1,.564-4.15,9.245,9.245,0,0,1,1.638-3.2,7.117,7.117,0,0,1,2.5-2.03,7.936,7.936,0,0,1,3.29-.69,8.369,8.369,0,0,1,2.28.32,6.812,6.812,0,0,1,2.06.92,6.178,6.178,0,0,1,1.61,1.49,9.59,9.59,0,0,1,1.6,3.31,17.572,17.572,0,0,1,.49,4.51v0.76H998.067v0.2a5.171,5.171,0,0,0,.887,3.14,2.754,2.754,0,0,0,4.126.5,3.521,3.521,0,0,0,1.07-1.91h4.93m-4.81-5.64a5.7,5.7,0,0,0-.99-2.9,2.356,2.356,0,0,0-2.02-.97,2.6,2.6,0,0,0-2.118,1.01,5.28,5.28,0,0,0-1.034,2.86h6.162Zm-36.9,5.64a6.983,6.983,0,0,1-1.208,3.43,6.913,6.913,0,0,1-2.686,2.29,8.565,8.565,0,0,1-3.827.81,7.979,7.979,0,0,1-4.338-1.18,7.638,7.638,0,0,1-2.806-3.37,12.4,12.4,0,0,1-.98-5.15,14.51,14.51,0,0,1,.564-4.15,9.229,9.229,0,0,1,1.624-3.2,7.227,7.227,0,0,1,2.512-2.03,7.919,7.919,0,0,1,3.29-.69,8.391,8.391,0,0,1,2.283.32,6.78,6.78,0,0,1,2.054.92,6.588,6.588,0,0,1,1.612,1.49,9.55,9.55,0,0,1,1.6,3.31,18.266,18.266,0,0,1,.5,4.51v0.76H956.371v0.2a5.171,5.171,0,0,0,.887,3.14,2.749,2.749,0,0,0,4.122.5,3.548,3.548,0,0,0,1.075-1.91h4.914m-4.794-5.64a5.873,5.873,0,0,0-.993-2.9,2.378,2.378,0,0,0-2.015-.97,2.61,2.61,0,0,0-2.121,1.01,5.267,5.267,0,0,0-1.048,2.86h6.177Zm7.48-6.84v-3.6h4.687v3.6h2.686v3.17h-2.686v9.79c0,1.41.309,1.98,1.665,1.98a9.143,9.143,0,0,0,1.047,0v3.23a28.221,28.221,0,0,1-3.048.2c-3.679,0-4.351-1.1-4.351-4.77v-10.43h-2.377v-3.17h2.377m40.825,18.3h4.68v-10.86a3.154,3.154,0,0,1,3.02-3.29c0.15,0,.3,0,0.45.01h1.46v-4.37h-0.84a4.723,4.723,0,0,0-4.22,2.9h-0.07v-2.49h-4.48v18.1m-92.5,0h4.686v-10.86a3.152,3.152,0,0,1,3.018-3.29c0.149,0,.3,0,0.447.01H928v-4.37h-0.846a4.716,4.716,0,0,0-4.217,2.9h0v-2.49h-4.485v18.1m22.788-24.01c-6.916,0-9.1,5.52-9.1,12.34s2.188,12.33,9.1,12.33,9.132-5.52,9.132-12.33S948.113,5154.7,941.237,5154.7Zm0,21.02c-3.357,0-3.652-3.88-3.652-8.67s0.389-8.69,3.652-8.69c3.008,0,3.653,3.89,3.653,8.69S944.245,5175.72,941.237,5175.72Zm-33.3-20.35h-8.5v23.34H907.6c6.876,0,8.823-3.72,8.823-11.97C916.421,5159.85,915.132,5155.37,907.934,5155.37Zm-1.168,19.3h-2.243v-15.51h2.149c3.867,0,4.324,2.55,4.324,7.57C911,5172.73,910.3,5174.67,906.766,5174.67Zm17.9,0.05H928.7v3.99h-4.029v-3.99Zm58.858-19.47v12.12l4.794-6.76h5.157l-5.264,7.13,6.043,10.97H989.1l-3.908-7.43-1.665,2.15v5.28h-4.686v-23.46h4.686" transform="translate(-726 -5018)"/>
</svg>
