<svg id="brands-stanley-logo" xmlns="http://www.w3.org/2000/svg" width="468" height="334" viewBox="0 0 468 334">
  <defs>
    <style>
      .cls-1 {
        fill: #eee;
      }

      .cls-2 {
        fill: #fff;
        fill-rule: evenodd;
      }
    </style>
  </defs>
  <path id="stanley-rogers" class="cls-2" d="M846.8,3998.68a3.7,3.7,0,0,0-2.141-2.53,1.15,1.15,0,0,1,.651-0.18l0.714-.06-0.479-.53c-2.039-2.26-3.921-1.29-4.8-.51a13.889,13.889,0,0,1-3.027,1.64c-3.3-.79-6.038-4.23-6.32-4.6a5.188,5.188,0,0,1-.518-1.89,4.7,4.7,0,0,0-.2-1.25c1.1-.72,5.56-3.81,6.156-6.8l0.1-.51-0.518.1c-0.525.1-.839,0-0.933-0.28a1.852,1.852,0,0,1,.784-1.78,8.616,8.616,0,0,0,2.055-1.62l0.329-.36-0.447-.21a1.25,1.25,0,0,1-.658-0.95,1.738,1.738,0,0,1,.572-1.12,5.784,5.784,0,0,0,1.043-2.06v-0.05a4.61,4.61,0,0,0-.416-2.87,3.394,3.394,0,0,1-.313-2.17l0.062-.45-0.454.06a4.773,4.773,0,0,0-1.286.33,2.057,2.057,0,0,0-.5-1.64,2.369,2.369,0,0,1-.517-1.1l-0.094-.46-0.408.22a3.886,3.886,0,0,0-2.18,2.68,0.4,0.4,0,0,1-.259-0.06,0.759,0.759,0,0,1-.266-0.58l-0.087-.64-0.494.42a3.186,3.186,0,0,0-1.3,2.62c0.078,1.84,1.882,3.37,2.415,3.78a8.055,8.055,0,0,1-.094,1.95c-0.581,2.59-4.227,5.2-5.576,6.09a3.184,3.184,0,0,0-.07-0.48l-0.118-.47-0.408.25a11.19,11.19,0,0,1-4.046,1.39c-1.31.12-3.011-.84-4.007-1.49h1.027l0.078-.22a0.951,0.951,0,0,1,1.106-.39,1.17,1.17,0,0,0,1.294-.78,2.011,2.011,0,0,0-.784-2.22,2.329,2.329,0,0,0-2.282-.52l-0.526.07a3.609,3.609,0,0,1-1.9-.19,2.093,2.093,0,0,0,.039-0.6c0.831,0.12,2.964.4,4.125-.19a2.337,2.337,0,0,0,1.364-1.9,2.061,2.061,0,0,0-.7-1.67,2.159,2.159,0,0,0,.243-1v-0.08a2.147,2.147,0,0,0-.125-1.09l-0.071-.14-0.141-.05a12.051,12.051,0,0,0-4.4-.12c-0.235-.35-1.686-2.4-4.015-2.17-0.251-.6-1.224-3-1.961-5.25-1.09,1.49-.894,2.35.087,2.7,0.258,0.62.784,1.9-.087,2.35s-2.8-.78-3.089-1.57c0.666-.51.705-1.21,0-1.57a10.059,10.059,0,0,0-1.694-.61,9.967,9.967,0,0,0-.33,1.78c-0.039.78,0.589,1.11,1.365,0.78,0.518,0.64.619,2.9-.227,3.45s-1.671-.58-2.071-1.11c0.189-1.03-.455-1.62-2.282-1.44,1.294,1.46,2.518,3.02,3.137,3.78a4.267,4.267,0,0,1-1.38.08l-0.831-.07,0.517,0.65,0.141,0.17a2.866,2.866,0,0,0,1.318,1.1c-1.788,1.03-1.953,2.06-1.968,2.19l-0.055.53,0.509-.15a5.482,5.482,0,0,1,.565-0.14,5.856,5.856,0,0,0-1.051,2.4,6.477,6.477,0,0,0-3.4-.69c-2.745.06-4.384-1.17-4.854-3.61l-0.2-.99-0.463.92c-2.07,4.08.416,6.46,1.482,7.25a5.233,5.233,0,0,0-1.733,3.5v0.58l0.518-.25a10.981,10.981,0,0,1,4.375-1.23c2.165,0.05,3.231.71,3.78,1.5a3.113,3.113,0,0,1,0,2.74,3.5,3.5,0,0,1-3.411,2.23,1.363,1.363,0,0,1-1.38-.72l-0.173-.57-0.415.42c-0.6.59-.7,2.16-0.22,3.37a2.743,2.743,0,0,0,1.365,1.57,4.7,4.7,0,0,0-1.24,2.22l-0.172.79,0.674-.36a6.013,6.013,0,0,1,.581-0.24,9.1,9.1,0,0,0-.785,6.99,7.361,7.361,0,0,0,4.9,4.89,7.9,7.9,0,0,0,6.555-.65,5.862,5.862,0,0,1-2.478,3.53,2.826,2.826,0,0,1-2.258.43l-0.6-.2,0.141,0.61a3.7,3.7,0,0,0,.933,1.76,16.8,16.8,0,0,0-2.925,1.01c-1.741.79-2.125,2.71-2.423,4.25-0.07.34-.133,0.67-0.212,0.95a0.6,0.6,0,0,1-.321.41,4.411,4.411,0,0,1-2.713-.25l-0.683-.25,0.228,0.7a4.5,4.5,0,0,0,1.568,2.15,4.022,4.022,0,0,1-1.717,1.15l-0.6.18,0.47,0.42a2.563,2.563,0,0,0,2.62.34,5.074,5.074,0,0,0,1.4,3.92l0.188,0.23,0.251-.14a1.559,1.559,0,0,1,2.189.36s0,0,.007.01a2.275,2.275,0,0,0,1.764,1.43,1.309,1.309,0,0,0,.479-0.09,1.334,1.334,0,0,0,.784-0.85,1.745,1.745,0,0,0,.635.35,1.529,1.529,0,0,0,.424.06,2.056,2.056,0,0,0,1.05-.32,1.424,1.424,0,0,0,.785-1.01,2.434,2.434,0,0,0,1.568-.57,1.83,1.83,0,0,0,.572-1.42,1.455,1.455,0,0,0-.439-1.08c-0.839-.79-2.642-0.79-4.093-0.74h-0.7a2.444,2.444,0,0,1-1.976-1.46,2.359,2.359,0,0,1,.455-2.56,4.105,4.105,0,0,1,4.03-1.57,14.151,14.151,0,0,0,2.91,0,2.046,2.046,0,0,0,.658,1.32l0.424,0.36,0.141-.53a4,4,0,0,1,.878-1.34,5.242,5.242,0,0,0,2.4,1.25l0.941,0.23-0.573-.79a3.394,3.394,0,0,1,0-3.83,7.192,7.192,0,0,0,1.216-4.78v-0.79a5.209,5.209,0,0,1,.259-1.93c3.285,0,9.88,2.2,10.273,5.05a3.1,3.1,0,0,1-1.192,3.14,1.843,1.843,0,0,1-1.992.07l-0.408-.27-0.125.47a2.606,2.606,0,0,0,1,2.48,5.164,5.164,0,0,1-1.952.23l-0.588-.1,0.188,0.56a2.578,2.578,0,0,0,1.278,1.57,3.087,3.087,0,0,0,.314,2.12c0.549,1.1,1.482,1.16,2.572,1.25a9.355,9.355,0,0,1,2.721.51,8.89,8.89,0,0,1,3.693,2.95,6.351,6.351,0,0,0,1.035,1.07,4.854,4.854,0,0,0,2.353.63,2.69,2.69,0,0,0,1.153-.22,1.615,1.615,0,0,0,.964-1.22,3.473,3.473,0,0,0,1.012.18,1.77,1.77,0,0,0,.784-0.17,1.551,1.551,0,0,0,.784-1.08,2.021,2.021,0,0,0,.047-0.74,1.351,1.351,0,0,0,.957-0.72,2.145,2.145,0,0,0-.314-2.12c-0.658-1.01-1.772-.86-3.309-0.66a22.557,22.557,0,0,1-2.462.22,3.51,3.51,0,0,1-2.643-1,4.717,4.717,0,0,1-1.333-3.27c0-1.83.784-4.77,2.98-5.36a4.652,4.652,0,0,0,2.211-1.13l0.353-.4-0.5-.17a3.732,3.732,0,0,1-1.356-.78,3.313,3.313,0,0,0,2.2-.73,2.7,2.7,0,0,0,.6-2.29l-0.078-.35-0.345.08c-1.381.33-2.565-.92-3.921-2.01a15.873,15.873,0,0,0-2.651-1.89c-2.109-1.09-6.038-1.35-7.842-1.41a14.513,14.513,0,0,0,2.447-2.5,4.035,4.035,0,0,0,2.666-3.05,3.693,3.693,0,0,1,1.569,3.57l-0.2.87,0.738-.5a5.659,5.659,0,0,0,1.4-1.52l2.51,2.35,0.1-.56a0.488,0.488,0,0,1,.517-0.33,2.76,2.76,0,0,1,.855.45,6.805,6.805,0,0,0,3.764,1.3,3.718,3.718,0,0,0,2.2-.55,2.117,2.117,0,0,1,1.874-.19l0.408,0.08v-0.41a2.916,2.916,0,0,0-.432-1.72,3.743,3.743,0,0,1,2.353-.55l0.557,0.06Zm-5.63-3.27a2.358,2.358,0,0,1,3.326-.05c0.016,0.02.031,0.03,0.046,0.05a1.087,1.087,0,0,0-.534.38,1.643,1.643,0,0,0-.109.2,9,9,0,0,0-2.965.34,10.262,10.262,0,0,1-1.827.32A10.413,10.413,0,0,0,841.174,3995.41Zm-9.763-25.95a2.35,2.35,0,0,1,.658-1.66,1.247,1.247,0,0,0,.424.48,1.224,1.224,0,0,0,.494.16,15.3,15.3,0,0,0,0,3.13c0,0.23.039,0.47,0.055,0.7A4.627,4.627,0,0,1,831.411,3969.46Zm-4,12.65c0.926-.58,5.489-3.59,6.274-6.76a13.049,13.049,0,0,0,.062-3.8c-0.18-2.28-.352-4.45,1.506-5.66a3,3,0,0,0,.525.93,1.654,1.654,0,0,1,.283,1.65,2.586,2.586,0,0,0-1,2.18s1.223-2.18,2.713-2.18a3.809,3.809,0,0,0,.4,2.05,3.9,3.9,0,0,1,.353,2.47,5.278,5.278,0,0,1-1,1.79,2.241,2.241,0,0,0-.7,1.69,1.943,1.943,0,0,0,.667,1.22,7.393,7.393,0,0,1-1.568,1.18,2.525,2.525,0,0,0-1.122,2.63,1.159,1.159,0,0,0,1.192.79c-0.855,2.45-4.462,5.03-5.6,5.8a6.282,6.282,0,0,0-4.4-3.14A3.731,3.731,0,0,0,827.411,3982.11Zm-21.675-7.34,0.385-.48-0.6-.09a2.892,2.892,0,0,0-.831,0,5.078,5.078,0,0,1,2.227-1.57l1.411-.62-1.568-.06a1.944,1.944,0,0,1-1.569-.63,10.268,10.268,0,0,0,4.635-1.91,9.811,9.811,0,0,1,2.988-1.45,3.625,3.625,0,0,1,3.45,1.57,11.662,11.662,0,0,0-3.466.99c0.063,0,6.273-.9,8.336-0.39a1.944,1.944,0,0,1,0,.58v0.08a1.094,1.094,0,0,1-.408.96,2.331,2.331,0,0,1-1.741.07s0.447,0.95,2.141.51a1.33,1.33,0,0,1,.463,1.1,1.661,1.661,0,0,1-.973,1.33c-1.043.52-3.34,0.2-4.132,0l-0.424-.09a2.539,2.539,0,0,1,0,1.43h0c-0.047.1-.1,0.21-0.157,0.35h0a3.434,3.434,0,0,0-.251,1.2,1.145,1.145,0,0,0,.785,1.14,1.116,1.116,0,0,0,.478.08,2.342,2.342,0,0,0,1.443-.58,1.969,1.969,0,0,1,1.443-.23,1.473,1.473,0,0,0-1.9-.31,1.454,1.454,0,0,1-1.208.39,0.452,0.452,0,0,1-.329-0.48,2.176,2.176,0,0,1,.18-0.78,4.321,4.321,0,0,0,2.251.24l0.541-.08a1.689,1.689,0,0,1,1.772.41,1.292,1.292,0,0,1,.5,1.38,0.461,0.461,0,0,1-.557.31,1.688,1.688,0,0,0-1.733.64l-1.568.05c-0.863,0-1.741.68-2.6,1.95a11.512,11.512,0,0,0-.886,1.57c-1.231-.4-1.568-2.69-1.568-3.59v-0.97l-0.6.78a6.574,6.574,0,0,0-.964,1.65,2.806,2.806,0,0,1-.949-1.77v-0.25l-0.243-.06a0.824,0.824,0,0,0-.612.13,2.355,2.355,0,0,0-.784,1.64,2.007,2.007,0,0,1-2.212,2.04,5.338,5.338,0,0,0,.667-3.85l-0.079-.37-0.36.1a3.891,3.891,0,0,0-1.89,1.06C804.058,3978.13,804.137,3976.74,805.736,3974.77Zm3.223,17.97s2.62,0.73,4.188-1.11c0.784,1.43.251,3.56-1.318,5.08l-0.58.56,0.784,0.05a10.02,10.02,0,0,0,2.988-.29,5.788,5.788,0,0,1-2.235,2.12,4.026,4.026,0,0,0-2.133,2.36,1.409,1.409,0,0,1-.455.78l-0.274.24a5.333,5.333,0,0,1-4.831,1.46,4.277,4.277,0,0,1-3.278-2.08c-0.784-1.41-.6-3.42.44-5.82a5.09,5.09,0,0,1,.486,2.54v0.71l0.564-.41c1.326-.93,1.2-2.27,1.075-3.67v-0.39c-0.1-1.24.086-1.49,0.98-2.72l0.384-.55a9.258,9.258,0,0,0,1.349-3.92c0.353,0.34.737,0.65,1.1,0.94s0.478,0.38.69,0.57c1.2,1.05-.047,3.03-0.063,3.05l-0.259.4Zm-8.994.7a1.661,1.661,0,0,0,1.137-.86,1.617,1.617,0,0,1-1.145.25,1.882,1.882,0,0,1-1.7-1.34,3.754,3.754,0,0,1-.141-2.14,2.4,2.4,0,0,0,1.67.62,4.214,4.214,0,0,0,4.031-2.7c0.51-1.46.494-2.57-.063-3.37-0.69-.99-1.937-1.75-4.344-1.81a11.888,11.888,0,0,0-4.1,1.04,4.324,4.324,0,0,1,1.741-2.66l0.486-.33-0.51-.28a4.565,4.565,0,0,1-2.023-5.69c0.784,2.14,2.588,3.24,5.285,3.19a5.153,5.153,0,0,1,3.341.78,7.31,7.31,0,0,0,.729,2.78l0.455,1.05,0.212-1.13a1.98,1.98,0,0,1,1.247-1.24,4.04,4.04,0,0,1-1.043,3.36l-0.612.55,0.823,0.06h0.447a3.785,3.785,0,0,0,.526,3.34,9.686,9.686,0,0,1-1.294,4.27l-0.384.54c-0.926,1.27-1.232,1.7-1.106,3.19v0.4a3.933,3.933,0,0,1-.235,2.48c-0.142-1.96-.981-3.13-2.353-3.13a6.525,6.525,0,0,0-2.4.36S799.1,3993.59,799.965,3993.44Zm31.265,11.05a14.791,14.791,0,0,1,2.541,1.8c1.3,1.07,2.58,2.4,4.109,2.22a1.677,1.677,0,0,1-.494,1.35c-0.439.52-1.239,0.55-2.3,0.49l-0.691-.04a3.361,3.361,0,0,0,1.882,1.95,5.051,5.051,0,0,1-1.442.59c-1.686.46-3.5,2.54-3.5,6.04a5.422,5.422,0,0,0,1.568,3.77,4.183,4.183,0,0,0,3.137,1.22,21.5,21.5,0,0,0,2.533-.23c1.5-.2,2.235-0.26,2.635.35a1.569,1.569,0,0,1,.274,1.42,0.7,0.7,0,0,1-.58.36,3.01,3.01,0,0,0-1.568-1.11c0.063,0,1.364,1.42,1.09,2.36a0.94,0.94,0,0,1-.439.62,2.481,2.481,0,0,1-1.451-.11,1.816,1.816,0,0,0-.408-1.12,1.783,1.783,0,0,0-1.207-.62,1.948,1.948,0,0,1,.313,3.05,3.636,3.636,0,0,1-2.846-.36,5.524,5.524,0,0,1-.887-0.94,9.68,9.68,0,0,0-4-3.14,10.306,10.306,0,0,0-2.909-.55c-1.122-.08-1.631-0.15-1.992-0.87a2.074,2.074,0,0,1-.18-1.83l0.227-.43-0.478-.09a1.442,1.442,0,0,1-.894-0.79,8.6,8.6,0,0,0,2.352-.48l0.667-.25-0.6-.38a3.124,3.124,0,0,1-1.278-1.69,2.6,2.6,0,0,0,2.25-.31,3.8,3.8,0,0,0,1.475-3.85c-0.455-3.27-7.058-5.49-10.618-5.64a8.627,8.627,0,0,1,3.035-2.6,25.8,25.8,0,0,0,2.274-1.5C823.663,4003.14,828.831,4003.24,831.23,4004.49Zm-11.033-.46c-4.007,2.35-4,4.27-4,5.83v0.8a6.571,6.571,0,0,1-1.1,4.39,4.1,4.1,0,0,0-.407,3.82,2.627,2.627,0,0,1-1.4-1l-0.2-.46-0.369.33a7.066,7.066,0,0,0-1.113,1.37,0.856,0.856,0,0,1-.063-0.64l0.188-.57-0.588.1a12.121,12.121,0,0,1-3.184,0,4.834,4.834,0,0,0-4.634,1.8,3.031,3.031,0,0,0-.557,3.35,3.136,3.136,0,0,0,2.611,1.87h0.722c1.176,0,2.948-.07,3.576.53a0.8,0.8,0,0,1,.227.58,1.183,1.183,0,0,1-.337.91,1.829,1.829,0,0,1-1.192.38,1.432,1.432,0,0,0-.784-0.88s0.839,1.43-.283,1.99a1.386,1.386,0,0,1-.933.19,1.571,1.571,0,0,1-.745-0.54,1.156,1.156,0,0,0-.564-0.98h0s0.156,1.73-.549,2-1.357-.99-1.365-0.99h0a2.181,2.181,0,0,0-2.87-.79c-0.784-.98-1.192-1.65-1.051-3.87l0.047-.72-0.6.41a1.972,1.972,0,0,1-1.756.32,3.618,3.618,0,0,0,1.615-1.51l0.181-.35-0.338-.12a2.537,2.537,0,0,1-1.184-1.22,4.012,4.012,0,0,0,2.517,0,1.3,1.3,0,0,0,.683-0.85c0.078-.31.149-0.64,0.219-1,0.283-1.44.612-3.08,2.023-3.73a14.914,14.914,0,0,1,3.506-1.12l1.051-.15-0.973-.54a2.586,2.586,0,0,1-1.051-1.26,3.891,3.891,0,0,0,2.227-.61,6.9,6.9,0,0,0,2.973-4.92l0.141-.88-0.7.55a7.156,7.156,0,0,1-6.642,1.05,6.673,6.673,0,0,1-4.447-4.42,8.33,8.33,0,0,1,1.1-7.06,5.371,5.371,0,0,1,1.2-.1,1.485,1.485,0,0,1,.682.21c-1.247,2.77-1.427,5.03-.525,6.71a5.023,5.023,0,0,0,3.811,2.45,6.81,6.81,0,0,0,1.192.1,5.987,5.987,0,0,0,4.211-1.73l0.259-.22a2.153,2.153,0,0,0,.674-1.07,3.363,3.363,0,0,1,1.82-2.01,5.541,5.541,0,0,0,2.768-3.04,6.029,6.029,0,0,0,2.619-2.04,4.582,4.582,0,0,1-.69,4.37l-0.455.6,0.784-.04a6.469,6.469,0,0,0,5.929-4.53c0.556,1.11,1.372,3.27.141,4.71l-0.635.78,0.972-.18,0.306-.05A20.406,20.406,0,0,1,820.2,4004.03Zm10.908-4.32a4.58,4.58,0,0,0-2.353-3.74l-0.557-.34v0.61c-0.109,2.17-1.7,2.85-2.9,3.24,1.074-2.35-.9-5.37-1-5.49l-0.518-.72-0.149.88a5.868,5.868,0,0,1-4.783,4.7,5.374,5.374,0,0,0,.063-5.09l-0.345-.6-0.283.63c-0.055.12-1.278,2.76-5.418,2.86,1.513-1.87,1.788-4.31.564-5.82l-0.306-.39-0.258.42a3.24,3.24,0,0,1-3.27,1.32c0.384-.79.941-2.43-0.3-3.53-0.228-.2-0.471-0.39-0.722-0.59-1.31-1.05-2.658-2.13-1.945-4.49a2.638,2.638,0,0,0,2.5-2.6,2.485,2.485,0,0,1,.353-1.04,3.073,3.073,0,0,0,1.654,2.11l0.463,0.19v-0.5a2.571,2.571,0,0,1,.392-0.99c0.188,1.23.745,3.14,2.353,3.34h0.258l0.1-.24c0.385-.88,1.569-3.14,2.863-3.31,0.58,0.44,3.2,2.35,5.222,2.15a11.271,11.271,0,0,0,3.921-1.24,3.167,3.167,0,0,1-1.819,3.33l-1,.48,1.09,0.18c3.137,0.57,5.082,2.3,5.152,4.63a7.587,7.587,0,0,0,.988,3.03,8.3,8.3,0,0,1,1.137,3.93A3.921,3.921,0,0,1,831.105,3999.71Zm12.547-.56a3.384,3.384,0,0,0-1.686-.86,4.345,4.345,0,0,1,1.85,2.69,2.542,2.542,0,0,0-1.937.35,2.991,2.991,0,0,1-1.842.45,6.065,6.065,0,0,1-3.38-1.19,2.441,2.441,0,0,0-1.278-.56,1.209,1.209,0,0,0-.894.39l-1.851-1.75a4.184,4.184,0,0,0,.337-1.61,7.244,7.244,0,0,0-.6-3c1.5,1.46,3.921,3.27,6.54,3.27a10.776,10.776,0,0,0,2.188-.34c1.961-.46,3.819-0.88,4.854,1.42a4.081,4.081,0,0,0-2.29.74h-0.015Zm-28.325-27.36a2.418,2.418,0,0,1-.651.86,3.07,3.07,0,0,1-1.435.49,1.908,1.908,0,0,0,2.18-.27,3.987,3.987,0,0,0,.784-1.49,3.224,3.224,0,0,0-.619-0.6,0.385,0.385,0,0,0-.544.01,0.394,0.394,0,0,0-.107.24c0,0.37-.251.23-0.337,0.12-0.4-.49-0.745-0.15-0.73.15a1.07,1.07,0,0,0,.063.33,17.558,17.558,0,0,1-1.757.41C813.3,3972.59,815.327,3971.79,815.327,3971.79Zm-0.792,34.43a10.36,10.36,0,0,1-2.439,4.85,6.575,6.575,0,0,0,3.137-4.22c0.494-2.83,3.983-6.23,3.983-6.23S815,4003.55,814.535,4006.22Zm-13.049,28.65a11.58,11.58,0,0,0-.055-1.37h4.047a1.853,1.853,0,0,0-.04.45c0,0.09,0,.17,0,0.26v0.21H803.1a9.17,9.17,0,0,1-.047,1.15,9.388,9.388,0,0,0,0,1.15h1.239l1.161-.2a1.22,1.22,0,0,1-.047.27,1.666,1.666,0,0,0,0,.2,1.351,1.351,0,0,0,0,.18,0.727,0.727,0,0,0,.039.26c-0.784-.07-1.568-0.1-2.4-0.1V4040h1.2a10.217,10.217,0,0,0,1.216-.1v0.21a2.255,2.255,0,0,0,0,.26,2.432,2.432,0,0,0,0,.27,0.627,0.627,0,0,0,0,.15h-4.039c0-.43.04-0.88,0.055-1.33s0-.97,0-1.57v-1.45A8.1,8.1,0,0,0,801.486,4034.87Zm5.348,4.92a1.382,1.382,0,0,0,.243.27,1.219,1.219,0,0,0,.839.27,0.779,0.779,0,0,0,.565-0.19,0.56,0.56,0,0,0,.2-0.41,0.487,0.487,0,0,0-.18-0.39,1.979,1.979,0,0,0-.447-0.27c-0.181-.08-0.377-0.17-0.589-0.25a2.731,2.731,0,0,1-.588-0.32,1.967,1.967,0,0,1-.447-0.49,1.466,1.466,0,0,1-.18-0.79,1.613,1.613,0,0,1,.165-0.78,1.474,1.474,0,0,1,.431-0.53,1.66,1.66,0,0,1,.6-0.3,2.113,2.113,0,0,1,.659-0.11,2.328,2.328,0,0,1,.784.13,3.115,3.115,0,0,1,.7.37,3.649,3.649,0,0,0-.157.45c-0.039.16-.071,0.32-0.094,0.47h-0.29a2.783,2.783,0,0,0-.11-0.27,1.194,1.194,0,0,0-.2-0.29,0.986,0.986,0,0,0-.306-0.23,0.949,0.949,0,0,0-.439-0.09,0.851,0.851,0,0,0-.533.17,0.529,0.529,0,0,0-.212.44,0.508,0.508,0,0,0,.18.41,2.04,2.04,0,0,0,.463.27l0.6,0.23a3.262,3.262,0,0,1,.6.3,1.65,1.65,0,0,1,.462.48,1.47,1.47,0,0,1,.181.79,1.751,1.751,0,0,1-.165.78,1.665,1.665,0,0,1-.455.55,1.785,1.785,0,0,1-.651.32,3.441,3.441,0,0,1-.784.09,2.269,2.269,0,0,1-.855-0.14,3.336,3.336,0,0,1-.6-0.28,5.007,5.007,0,0,0,.156-1.01h0.267A1.523,1.523,0,0,0,806.834,4039.79Zm6.509-3.77a1.522,1.522,0,0,0,0,.27h-0.925a2.884,2.884,0,0,1-.04.56,3.618,3.618,0,0,0,0,.65v2.03a2.159,2.159,0,0,0,.087.52,0.43,0.43,0,0,0,.18.24,0.614,0.614,0,0,0,.3.06,1.405,1.405,0,0,0,.29,0l0.2-.07v0.43a3.242,3.242,0,0,1-.533.16,2.6,2.6,0,0,1-.62.08c-0.894,0-1.341-.53-1.341-1.61v-2.99H810.2a1.522,1.522,0,0,0,0-.27,2.178,2.178,0,0,0,0-.28h0.737v-1.3c0.251-.1.5-0.2,0.73-0.31s0.478-.22.721-0.34l0.1,0.08a1.467,1.467,0,0,1-.039.39,1.975,1.975,0,0,0,0,.48v0.99h0.925C813.36,4035.87,813.349,4035.95,813.343,4036.02Zm1.066,3.43a0.88,0.88,0,0,1,1.224,0,0.831,0.831,0,0,1,.251.61,0.783,0.783,0,0,1-.251.6,0.9,0.9,0,0,1-1.224,0,0.786,0.786,0,0,1-.251-0.6A0.859,0.859,0,0,1,814.409,4039.45Zm5.945-5.1v5c0,0.37,0,.85.047,1.36a2.778,2.778,0,0,0-.408,0h-0.886a2.888,2.888,0,0,0-.416,0v-5.83l-0.22.11-0.321.16-0.361.18-0.321.16c-0.079-.11-0.173-0.22-0.275-0.34a2.6,2.6,0,0,0-.243-0.25c0.549-.2,1.067-0.4,1.569-0.61a14.057,14.057,0,0,0,1.568-.79l0.2,0.09A3.1,3.1,0,0,1,820.354,4034.35Zm3.364,6.01a1.36,1.36,0,0,0,.6.13,1.308,1.308,0,0,0,.611-0.18,1.688,1.688,0,0,0,.565-0.55,2.984,2.984,0,0,0,.423-0.92,5.752,5.752,0,0,0,.181-1.33h0a1.32,1.32,0,0,1-.212.24,1.085,1.085,0,0,1-.29.19,1.64,1.64,0,0,1-.377.12,2.167,2.167,0,0,1-.509,0,2.315,2.315,0,0,1-.784-0.12,1.8,1.8,0,0,1-.636-0.38,1.985,1.985,0,0,1-.439-0.63,2.184,2.184,0,0,1-.164-0.88,2.763,2.763,0,0,1,.164-0.97,2.024,2.024,0,0,1,.479-0.75,2.151,2.151,0,0,1,.784-0.48,3.078,3.078,0,0,1,2.046.01,2.126,2.126,0,0,1,.785.55,2.591,2.591,0,0,1,.525.92,4.115,4.115,0,0,1,.18,1.3,6.141,6.141,0,0,1-.243,1.82,3.982,3.982,0,0,1-.674,1.35,2.887,2.887,0,0,1-1.051.82,3.2,3.2,0,0,1-1.364.28,3,3,0,0,1-.424,0,1.14,1.14,0,0,1-.361-0.09l-0.117-.32-0.149-.31,0.07-.07A1.192,1.192,0,0,1,823.718,4040.36Zm2.125-5.83a0.748,0.748,0,0,0-.651-0.41,0.723,0.723,0,0,0-.667.45,2.886,2.886,0,0,0-.219,1.23,3.585,3.585,0,0,0,.07.79,1.67,1.67,0,0,0,.189.51,0.718,0.718,0,0,0,.282.27,0.73,0.73,0,0,0,.353.09,0.667,0.667,0,0,0,.337-0.09,0.7,0.7,0,0,0,.282-0.27,1.379,1.379,0,0,0,.2-0.47,3.139,3.139,0,0,0,.071-0.7A2.79,2.79,0,0,0,825.843,4034.53Zm4.391,2.34h0.134a1.035,1.035,0,0,0,.909-0.39,1.8,1.8,0,0,0,.283-1.09,1.554,1.554,0,0,0-.228-0.99,0.8,0.8,0,0,0-.635-0.32,0.769,0.769,0,0,0-.416.11,0.844,0.844,0,0,0-.29.28,1.383,1.383,0,0,0-.227.4,2.841,2.841,0,0,0-.1.49h-0.149c-0.106-.12-0.219-0.24-0.337-0.36l-0.369-.35a1.962,1.962,0,0,1,.737-0.79,2.7,2.7,0,0,1,1.341-.27,3.338,3.338,0,0,1,1.043.13,1.8,1.8,0,0,1,.682.36,1.285,1.285,0,0,1,.385.53,1.7,1.7,0,0,1,.117.63,1.385,1.385,0,0,1-.384,1.02,2.988,2.988,0,0,1-1.082.62v0.09a5.212,5.212,0,0,1,.784.18,1.6,1.6,0,0,1,.541.31,1.119,1.119,0,0,1,.329.49,2.239,2.239,0,0,1,.11.79,1.681,1.681,0,0,1-.227.88,2.039,2.039,0,0,1-.6.66,2.477,2.477,0,0,1-.855.41,3.493,3.493,0,0,1-.965.13,3.266,3.266,0,0,1-1.348-.22,1.968,1.968,0,0,1-.784-0.57c0.125-.16.235-0.3,0.345-0.45l0.313-.47h0.134a1.877,1.877,0,0,0,.125.47,1.528,1.528,0,0,0,.227.4,1.171,1.171,0,0,0,.338.27,1.023,1.023,0,0,0,.454.1,1.052,1.052,0,0,0,.463-0.11,1.229,1.229,0,0,0,.384-0.32,1.51,1.51,0,0,0,.251-0.48,1.92,1.92,0,0,0,.094-0.62,1.846,1.846,0,0,0-.321-1.13,1.027,1.027,0,0,0-.886-0.42h-0.471v-0.54Zm4.933-2.29a2.2,2.2,0,0,1,1.913-.93,2.132,2.132,0,0,1,1.8.86,4.192,4.192,0,0,1,.643,2.56,5.291,5.291,0,0,1-.62,2.81,2.088,2.088,0,0,1-1.9,1,2.453,2.453,0,0,1-1.13-.25,2.106,2.106,0,0,1-.784-0.72,3.441,3.441,0,0,1-.462-1.16,7.361,7.361,0,0,1-.165-1.53A4.41,4.41,0,0,1,835.167,4034.58Zm2.7,1.07a5.024,5.024,0,0,0-.164-0.95,0.862,0.862,0,0,0-.283-0.48,0.666,0.666,0,0,0-.784,0,1.029,1.029,0,0,0-.3.48,4.628,4.628,0,0,0-.164.94c0,0.39-.055.89-0.055,1.5v1.49a5.645,5.645,0,0,0,.117,1.03,1.287,1.287,0,0,0,.275.58,0.615,0.615,0,0,0,.478.19,0.7,0.7,0,0,0,.4-0.12,0.954,0.954,0,0,0,.29-0.48,5.254,5.254,0,0,0,.165-0.98c0-.41.063-0.95,0.063-1.61S837.9,4036.06,837.864,4035.65Zm4.447,0.95a1.229,1.229,0,0,1,.784-0.25,1.533,1.533,0,0,1,.6.12l0.627,0.25,0.581,0.26a1.325,1.325,0,0,0,.439.11,0.708,0.708,0,0,0,.494-0.2,2.159,2.159,0,0,0,.431-0.58l0.447,0.79a1.9,1.9,0,0,1-.525.67,1.181,1.181,0,0,1-.785.26,1.533,1.533,0,0,1-.6-0.12c-0.219-.08-0.423-0.16-0.635-0.25l-0.58-.26a0.964,0.964,0,0,0-.439-0.11,0.723,0.723,0,0,0-.486.19,2.284,2.284,0,0,0-.44.59l-0.447-.78A2.081,2.081,0,0,1,842.311,4036.6Zm-47.522,0a1.233,1.233,0,0,1,.784-0.25,1.572,1.572,0,0,1,.6.12l0.627,0.25,0.581,0.26a1.325,1.325,0,0,0,.439.11,0.686,0.686,0,0,0,.486-0.2,2.253,2.253,0,0,0,.439-0.58l0.439,0.79a1.887,1.887,0,0,1-.525.67,1.177,1.177,0,0,1-.784.26,1.533,1.533,0,0,1-.6-0.12l-0.628-.25-0.611-.27a1.325,1.325,0,0,0-.439-0.11,0.749,0.749,0,0,0-.494.19,2.886,2.886,0,0,0-.44.59l-0.439-.78A2.207,2.207,0,0,1,794.789,4036.6Zm90.9-6.35c-3.317,0-4.87-1.18-5.6-3.55a18.688,18.688,0,0,1-.314-4.28c0-4.14.047-7.29,0.086-11.43H877v-0.45a8.378,8.378,0,0,0,2.549-1.45,28.283,28.283,0,0,0,3.638-4.71h0.588v4.87h7.372v1.78h-7.372v11.84c0,3.28.5,5.49,4.235,5.49a6.931,6.931,0,0,0,2.87-.63l0.267,0.68S889.472,4030.25,885.692,4030.25Zm22.208-.09a2.689,2.689,0,0,1-3-2.83,6.855,6.855,0,0,1-5.732,2.88c-5.732,0-5.873-4.52-5.873-5.38a7.257,7.257,0,0,1,3.96-6.34c1.686-.75,4.916-0.83,7.551-0.83v-1.12a10.626,10.626,0,0,0-.274-3.18c-0.635-1.92-2.18-2.6-4.141-2.6a5.179,5.179,0,0,0-4.548,2.5l-0.635-.41c0.455-1.46,2.407-4.23,6.869-4.23,3.231,0,4.87,1.05,5.827,2.51,0.784,1.32.91,3.18,0.91,5.37,0,3.14-.142,6.88-0.142,8.38,0,1.32,0,2.91,1.828,2.91a1.482,1.482,0,0,0,1-.31l0.408,0.5A4.821,4.821,0,0,1,907.9,4030.16Zm-3.1-11.27c-3.089.13-4.54,0.3-5.411,0.78-1.678.95-2.14,3.49-2.14,4.81a3.332,3.332,0,0,0,3.685,3.59,6.045,6.045,0,0,0,3.866-1.22v-7.96Zm28.106,10.86q-2.481-.03-4.957.18v-0.63a3.616,3.616,0,0,0,2.047-.87c0.957-.95.863-2.46,0.957-4.33,0.039-.78.039-2.5,0.039-3.77a46.939,46.939,0,0,0-.18-5.01c-0.275-2.36-1.412-4.51-5.05-4.51a8.743,8.743,0,0,0-4.5,1.09v11.66c0,3.59.134,4.23,0.949,5.01a3.662,3.662,0,0,0,1.961.73v0.63c-1.773-.08-3.278-0.18-4.87-0.18q-2.505-.03-5,0.18v-0.63a3.337,3.337,0,0,0,2.227-1.06c0.784-.86.823-2.13,0.823-6.05v-6.16c0-2.87-.047-3.92-0.5-4.64a3.2,3.2,0,0,0-2.462-.96v-0.79a21.341,21.341,0,0,0,4.368-.4,10.1,10.1,0,0,0,2.235-.55l0.18,0.14v2.45a10.092,10.092,0,0,1,6.736-2.59c3.921,0,6.094,1.87,6.737,4.78a22.081,22.081,0,0,1,.266,3.78v6.33c0,3.6.141,4.23,0.957,5.01a3.583,3.583,0,0,0,1.96.73v0.64C936.044,4029.85,934.5,4029.75,932.908,4029.75Zm12.915,0c-1.568,0-3.278,0-5.238.18v-0.63a3.476,3.476,0,0,0,2.415-1.01c0.784-.86.784-2.18,0.784-6.1v-18.21c0-2.87-.039-3.93-0.494-4.65a3.113,3.113,0,0,0-2.415-.95v-0.73a35.365,35.365,0,0,0,4.6-.41,22.079,22.079,0,0,0,2.274-.55l0.141,0.09c-0.141,1.64-.18,5.01-0.18,8.47v18.31c0,3.59.133,4.23,0.949,5.01a4.484,4.484,0,0,0,2.188.73v0.63C949.124,4029.85,947.438,4029.75,945.823,4029.75Zm11.183-11.66v0.09a17.68,17.68,0,0,0,.227,3.14c1.043,6.01,5.277,6.56,7.552,6.56a10.346,10.346,0,0,0,5-1.13l0.368,0.58c-1.458,1.79-4.462,2.88-7.418,2.88-6.917,0-9.693-4.33-9.693-10.21,0-3.59,1.569-11.34,9.787-11.34,3.317,0,5.489,1.51,6.415,3.06a10.1,10.1,0,0,1,1.364,5.65v0.72H957.006Zm9.41-1.91c0-1.78-.094-5.96-4.705-5.96-4.407,0-4.705,4.71-4.705,6.32h9.41v-0.36Zm60.394,18.6a5.342,5.342,0,0,1-5.17-3.55c-1.34-3.51-5.31-14.13-9.72-14.13h-3.19v6.47c0,3.5.14,4.23,0.96,4.96a3.848,3.848,0,0,0,1.96.73v0.68c-1.77-.09-3.33-0.18-4.92-0.18s-3.09,0-5.05.18v-0.68a3.16,3.16,0,0,0,2.23-1.01c0.78-.86.82-2.13,0.82-6.05v-15.95c0-3.5-.14-4.23-0.96-4.96a3.677,3.677,0,0,0-1.96-.73v-0.69s2.36,0.19,3.56.19c3.23,0,4-.14,5.73-0.14a29.869,29.869,0,0,1,5.97.46c5.42,1.36,5.97,5.49,5.97,7.42,0,4.6-2.39,7.2-6.03,8.33,4.23,1.87,5.32,6.42,7.8,12.17,1.31,3.05,2.7,5.62,5.3,5.62v0.63A25.887,25.887,0,0,1,1026.81,4034.78Zm-15.84-33.27a14,14,0,0,0-2.24.18v13.56a20.592,20.592,0,0,0,3.14.17c0.54,0,1.83-.05,2.15-0.09,2.51-.41,4.71-2.46,4.71-7.15C1018.75,4002.24,1013.87,4001.51,1010.97,4001.51Zm25.53,28.83c-6.64,0-10.1-4.28-10.1-10.56,0-4.96,2.59-11.16,10.55-11.16,6.65,0,10.1,4.28,10.1,10.57C1047.05,4024.15,1044.47,4030.34,1036.5,4030.34Zm0.29-20.12a5.22,5.22,0,0,0-3.38,1.1c-1.41,1.19-2.78,3.47-2.78,8.24,0,2.51.73,9.2,6.05,9.2a5.184,5.184,0,0,0,3.37-1.09c1.41-1.18,2.78-3.46,2.78-8.24C1042.83,4016.91,1042.1,4010.22,1036.79,4010.22Zm38.7,7.87v0.09a17.406,17.406,0,0,0,.23,3.14c1.05,6.01,5.27,6.56,7.55,6.56a10.371,10.371,0,0,0,5.01-1.13l0.36,0.58c-1.45,1.79-4.46,2.88-7.41,2.88-6.92,0-9.69-4.33-9.69-10.21,0-3.59,1.56-11.34,9.77-11.34,3.33,0,5.49,1.51,6.42,3.06a10.069,10.069,0,0,1,1.36,5.65v0.72h-13.6Zm9.41-1.91c0-1.78-.1-5.96-4.71-5.96-4.41,0-4.7,4.71-4.7,6.32h9.41v-0.36Zm32.42-6.06c-3.65,0-3.65,2.46-3.63,3.19,0.07,1.82,1.57,2.64,2.62,3.28l2.97,1.73c2,1.14,4.62,2.46,4.71,5.69,0.18,5.19-4.78,6.15-8.01,6.15a16.066,16.066,0,0,1-5.45-.86v-0.91a28.019,28.019,0,0,0-.37-4.1h0.79a4.834,4.834,0,0,0,1.1,2.68c1.13,1.32,2.47,1.57,4.19,1.57,0.73,0,4.45.05,4.33-3.41-0.06-1.87-1.67-2.65-3.44-3.74l-3.14-1.91c-1.67-1-3.4-2.41-3.5-5.14a4.971,4.971,0,0,1,2.69-4.97,9.708,9.708,0,0,1,4.12-.73,19.819,19.819,0,0,1,4.67.49,43.891,43.891,0,0,0,.35,4.71h-0.78A3.879,3.879,0,0,0,1117.32,4010.12Zm-47.93,1.94a1.628,1.628,0,0,0,1.64-1.61v-0.03c0-1.57-1.64-2.13-2.93-2.13a8.288,8.288,0,0,0-4.77,2.05,7.274,7.274,0,0,0-1.24-.64,12.21,12.21,0,0,0-3.83-.64c-5.55,0-8.56,3.24-8.56,7.51a6.63,6.63,0,0,0,5.1,6.65c-2.77,1.74-3.59,3.33-3.59,4.83a2.725,2.725,0,0,0,1.82,2.73,6.466,6.466,0,0,0,2.35.37h5.58c2.46,0,5.32.09,5.32,3.51,0,3.64-3.22,5.78-8.41,5.78-2.28,0-6.46-.68-6.46-4.79a5.223,5.223,0,0,1,1.22-3.67l-0.14-.2c-1.7.07-4.59,0.57-4.59,4.6,0,4.65,5.1,5.88,9.61,5.88,7.6,0,12.19-3.92,12.19-8.93,0-5.42-4.78-5.69-7.33-5.69-1.5,0-3.27.09-4.78,0.09s-3-.09-3-1.82a2.941,2.941,0,0,1,1.46-2.35,13.52,13.52,0,0,0,1.91.13c5.64,0,8.74-3.14,8.74-7.42a6.67,6.67,0,0,0-2.19-5.01l-0.16-.14a3.378,3.378,0,0,1,1.84-.78C1067.7,4010.32,1067.85,4012.06,1069.39,4012.06Zm-11.22,10.25c-3.27,0-4.41-3.05-4.41-5.92,0-1.57.08-5.96,4.41-5.96,3.27,0,4.42,3.05,4.42,5.92C1062.59,4017.89,1062.49,4022.31,1058.17,4022.31ZM990,4009.26c-1.278,0-2.713-.14-3.983-0.18v0.68a4.163,4.163,0,0,1,2.148.59,1.2,1.2,0,0,1,.377.96,8.891,8.891,0,0,1-.73,2.6l-4.54,12.09c-0.188-.68-0.6-2.04-1.286-3.85l-3.09-8.24a9.112,9.112,0,0,1-.729-2.65,1.189,1.189,0,0,1,.408-0.96,3.358,3.358,0,0,1,1.866-.58v-0.64c-1.27,0-3.364.18-4.6,0.18s-3.137-.09-4.415-0.18v0.67a2.278,2.278,0,0,1,2.141,1.37c0.227,0.41.682,1.64,0.862,2.05l6.807,17.36-0.22.63-2.58,7.15a3.44,3.44,0,0,1-1.5,2c-1.317.84-2.07-.83-3.717,0.22a1.659,1.659,0,0,0-.56,2.27h0a2.94,2.94,0,0,0,4.085.65,8.568,8.568,0,0,0,3.059-4.38l1.568-3.93L990,4013.17a12.145,12.145,0,0,1,.933-2.05,3.793,3.793,0,0,1,2.6-1.37v-0.63C992.286,4009.17,991.227,4009.26,990,4009.26Zm111.714,1.7a19.5,19.5,0,0,1,5.15,1.37l1.41-2.71c-3.52-2.24-6.39-.78-9.2,1.31v-2.13l-0.18-.14a10.051,10.051,0,0,1-2.24.55,20.584,20.584,0,0,1-4.36.41v0.79a3.125,3.125,0,0,1,2.45.95c0.46,0.69.5,1.78,0.5,4.65v6.19c0,3.93,0,5.19-.78,6.05a3.329,3.329,0,0,1-2.23,1.05v0.64c1.95-.18,3.82-0.18,5.41-0.18s3.69,0.09,5.49.18v-0.73c-0.68,0-2.63-.09-3.36-1.19-0.46-.68-0.55-1.67-0.55-4.55l-0.06-9.71C1099.09,4011.76,1100.16,4010.85,1101.71,4010.96Zm-235.246.52c-2.722-1.14-5.835-2.35-5.835-5.8,0-2.81,2.267-4.64,5.027-4.64s6.822,0.19,7.489,4.85h0.847s-0.408-3.21-.408-5.14a43.991,43.991,0,0,0-7.842-.91h-0.149c-4.7.07-8.532,2.95-8.532,7.91s4.25,7.11,8.242,8.63c3.207,1.27,6.673,2.85,6.673,6.84,0,3.56-2.854,5.15-6.273,5.15-1.843,0-7.473-.31-7.936-5.64h-1s0.486,4.09.486,6.38a47.151,47.151,0,0,0,8.383.78c5.129,0,10.485-2.76,10.485-8.51S871.028,4013.36,866.464,4011.48Z" transform="translate(-726 -3842)"/>
</svg>
