<svg id="Ebene_1" data-name="Ebene 1" xmlns="http://www.w3.org/2000/svg" viewBox="0 0 1920 1920"><defs><style>.cls-1{fill:#f5f5f5;}.cls-2{fill:#ddd;}.cls-3{fill:#737373;fill-rule:evenodd;}</style></defs><g id="stripes-brand-grey"><rect class="cls-1" width="1920" height="1920"/><polygon class="cls-2" points="1267.67 0 939.37 0 0 939.37 0 1267.67 1267.67 0"/><polygon class="cls-2" points="0 285.92 0 614.22 614.22 0 285.92 0 0 285.92"/><polygon class="cls-2" points="1920 0 1592.82 0 0 1592.82 0 1920 1.12 1920 1920 1.12 1920 0"/><polygon class="cls-2" points="1920 1308.01 1920 979.71 979.71 1920 1308.01 1920 1920 1308.01"/><polygon class="cls-2" points="1920 1633.16 1633.16 1920 1920 1920 1920 1633.16"/><polygon class="cls-2" points="1920 654.56 1920 326.26 326.26 1920 654.56 1920 1920 654.56"/><path id="Sorry_ich_bin_gerade_noch_beim_Shooting._Der_Fotograf_meinte_" data-name="Sorry ich bin gerade noch beim Shooting. Der Fotograf meinte " class="cls-3" d="M173.65,1175.28a8.7,8.7,0,0,1,3.3,7.27,8.87,8.87,0,0,1-3.56,7.43q-3.55,2.73-10.24,2.73-7.17,0-11.45-3.37a11,11,0,0,1-4.28-9.16h-8.48a16.83,16.83,0,0,0,3.1,10,20.73,20.73,0,0,0,8.81,6.92,30.27,30.27,0,0,0,12.3,2.52q10.15,0,16.22-4.68a14.94,14.94,0,0,0,6.06-12.45,16.2,16.2,0,0,0-2.17-8.49,18.93,18.93,0,0,0-6.68-6.3,52.65,52.65,0,0,0-12.48-5q-8-2.25-11.3-5a8.27,8.27,0,0,1-3.32-6.63,9.2,9.2,0,0,1,3.5-7.64q3.5-2.74,9.73-2.75,6.72,0,10.42,3.33a11.7,11.7,0,0,1,3.69,9.15h8.48a18,18,0,0,0-2.83-9.8,19.36,19.36,0,0,0-8-7,26.28,26.28,0,0,0-11.76-2.55q-9.68,0-15.71,5a15.44,15.44,0,0,0-6,12.5,14.66,14.66,0,0,0,4.94,11.23q4.95,4.55,15.8,7.67C167.47,1171.87,171.45,1173.57,173.65,1175.28Zm18.76-.2q0,11.09,6,17.8t15.67,6.72a21.06,21.06,0,0,0,11.36-3.07,20.19,20.19,0,0,0,7.6-8.59,28.37,28.37,0,0,0,2.66-12.46v-.57q0-11.16-6-17.89T214,1150.3a20.76,20.76,0,0,0-11.18,3,20.48,20.48,0,0,0-7.65,8.61,28,28,0,0,0-2.75,12.57v.57Zm11.87-13.31A11.64,11.64,0,0,1,214,1157a11.83,11.83,0,0,1,9.87,4.85q3.7,4.86,3.71,12.68,0,8.74-3.65,13.6a12.43,12.43,0,0,1-17.43,2.29,12.66,12.66,0,0,1-2.23-2.22q-3.67-4.79-3.67-12.7Q200.59,1166.55,204.28,1161.77Zm64.27-10.86a8.22,8.22,0,0,0-3.6-.61,12.67,12.67,0,0,0-11.34,6.37l-.13-5.49h-7.91v47.55h8.13V1165q2.85-6.82,10.85-6.82a25.48,25.48,0,0,1,4,.31v-7.56Zm30,0a8.22,8.22,0,0,0-3.6-.61,12.67,12.67,0,0,0-11.34,6.37l-.13-5.49h-7.91v47.55h8.13V1165q2.85-6.82,10.85-6.82a25.48,25.48,0,0,1,4,.31v-7.56Zm11.71.27h-8.88l17,47-1.8,4.83q-1.5,4.44-3.8,6.11a10.84,10.84,0,0,1-6.44,1.67l-2.2-.18v6.6l3,.57,1.54.13q9.66,0,14.1-11.87l19.12-54.88h-8.7l-11.07,35.64Zm39.52,53.17a20,20,0,0,0,2.17-8.88v-6.37H344v7.34a21.23,21.23,0,0,1-4.31,11.87l4.62,3.16a20.94,20.94,0,0,0,5.47-7.12Zm43.62-53.17h-8.13v47.55h8.13Zm-7.58-9.32a4.59,4.59,0,0,0,3.58,1.32,4.4,4.4,0,0,0,4.82-3.94,5.1,5.1,0,0,0,0-.68,4.84,4.84,0,0,0-1.23-3.34,4.65,4.65,0,0,0-3.6-1.36,4.58,4.58,0,0,0-3.59,1.36,4.86,4.86,0,0,0-1.2,3.34,4.71,4.71,0,0,0,1.2,3.3ZM416,1188.53q-3.37-4.44-3.38-12.66v-1.53q0-8.44,3.4-12.9a11.34,11.34,0,0,1,9.6-4.46,10.88,10.88,0,0,1,7.76,3,11.17,11.17,0,0,1,3.49,7.58h7.7a17.14,17.14,0,0,0-5.65-12.43,19,19,0,0,0-13.3-4.79,20.73,20.73,0,0,0-11.27,3,19.38,19.38,0,0,0-7.31,8.39,28.6,28.6,0,0,0-2.55,12.35v1.36q0,11.25,5.73,17.73t15.45,6.48a20,20,0,0,0,9.16-2.19,18.5,18.5,0,0,0,6.92-5.89,14.78,14.78,0,0,0,2.82-7.78h-7.7a9.22,9.22,0,0,1-3.6,6.59,11.67,11.67,0,0,1-7.6,2.64q-6.28,0-9.67-4.44Zm45.73-57.3h-8.13v67.5h8.13v-33.89a14.18,14.18,0,0,1,4.66-5.53,11.7,11.7,0,0,1,6.94-2.11q4.88,0,7.19,2.46c1.53,1.64,2.32,4.17,2.35,7.6v31.47H491V1167.3q-.14-17-15.2-17a17.31,17.31,0,0,0-14.07,6.63v-25.7Zm104.12,43.55q0-11.38-4.94-17.93a16.11,16.11,0,0,0-13.6-6.55q-8.65,0-13.58,6.11v-25.18h-8.13v67.5H533l.4-5.5q4.92,6.38,13.93,6.37a16,16,0,0,0,13.44-6.61q5-6.62,5-17.51v-.7Zm-11.38,13.4a10.54,10.54,0,0,1-9.1,4.53q-7.9,0-11.64-7.48v-20.56q3.51-7.47,11.55-7.47a10.63,10.63,0,0,1,9.23,4.52q3.21,4.53,3.21,12.84,0,9.09-3.25,13.62Zm30-37h-8.13v47.55h8.13Zm-7.58-9.32a4.59,4.59,0,0,0,3.58,1.32,4.4,4.4,0,0,0,4.82-3.94,5.1,5.1,0,0,0,0-.68,4.84,4.84,0,0,0-1.23-3.34,4.65,4.65,0,0,0-3.6-1.36,4.58,4.58,0,0,0-3.59,1.36,4.86,4.86,0,0,0-1.2,3.34,4.71,4.71,0,0,0,1.2,3.3Zm20.75,9.32v47.55h8.13v-33.89a14.18,14.18,0,0,1,4.66-5.53,11.7,11.7,0,0,1,6.94-2.11c3.25,0,5.65.82,7.18,2.46s2.33,4.17,2.36,7.6v31.47H635V1167.3q-.13-17-15.21-17a17.33,17.33,0,0,0-14.24,6.85l-.26-6Zm75.23,41.7a16.25,16.25,0,0,0,13.51,6.72q8.45,0,13.32-5.62v4.09q0,6.06-3.32,9.4t-9.25,3.34q-7.56,0-12.79-6.46l-4.22,4.88a17.33,17.33,0,0,0,7.52,6,24.43,24.43,0,0,0,10.06,2.2q9.23,0,14.7-5.32t5.47-14.55v-46.4h-7.42l-.41,5.27q-4.87-6.15-13.57-6.15a16.47,16.47,0,0,0-13.63,6.57q-5.14,6.57-5.14,17.69,0,11.6,5.17,18.32Zm6.35-31.07a10.81,10.81,0,0,1,9.27-4.61q7.47,0,11.21,6.81v21.71a11.91,11.91,0,0,1-11.3,7,10.73,10.73,0,0,1-9.23-4.6q-3.3-4.59-3.3-12.63,0-9.06,3.35-13.67Zm78.08,28.61-5-3.87a18.08,18.08,0,0,1-5.23,4.66,14.18,14.18,0,0,1-7.29,1.76,12.91,12.91,0,0,1-10-4.33q-3.93-4.34-4.11-11.36h32.21v-3.38q0-11.39-5.14-17.49t-14.41-6.11a19.05,19.05,0,0,0-10.53,3.14,21.09,21.09,0,0,0-7.56,8.7,28.59,28.59,0,0,0-2.7,12.64v1.49q0,10.63,6.07,17t15.73,6.35q12,0,17.93-9.18Zm-10.86-30q3,3.4,3.34,9.61v.61H725.9q.79-6.46,4.13-10a10.83,10.83,0,0,1,8.26-3.58,10.23,10.23,0,0,1,8.09,3.4Zm44.18-9.47a8.22,8.22,0,0,0-3.6-.61,12.67,12.67,0,0,0-11.34,6.37l-.13-5.49h-7.91v47.55h8.13V1165q2.85-6.82,10.85-6.82a25.48,25.48,0,0,1,4,.31v-7.56Zm43.9,47.82V1198a26.75,26.75,0,0,1-1.67-10.41v-21.89q-.18-7.2-4.83-11.31t-12.88-4.11a23.06,23.06,0,0,0-9.51,1.93,17.29,17.29,0,0,0-6.86,5.25,11.23,11.23,0,0,0-2.52,6.88h8.17a6.49,6.49,0,0,1,2.94-5.32,11.9,11.9,0,0,1,7.3-2.19q5,0,7.51,2.52a9.16,9.16,0,0,1,2.55,6.79v3.74h-7.91q-10.25,0-15.88,4.11a13.42,13.42,0,0,0-5.65,11.53,12.89,12.89,0,0,0,4.5,10.09,16.8,16.8,0,0,0,11.53,4,18.15,18.15,0,0,0,13.54-5.88,17.21,17.21,0,0,0,1.14,5Zm-28.56-8.35a7.38,7.38,0,0,1-2.55-6q0-8.75,14.94-8.75h6.37v9.76a11.91,11.91,0,0,1-5,5.14,14.21,14.21,0,0,1-7.25,2,9.85,9.85,0,0,1-6.55-2.15Zm37.7-15.21q0,10.9,5.21,17.67a16.23,16.23,0,0,0,13.47,6.76q8.7,0,13.58-6l.4,5.1h7.47v-67.5h-8.13V1156q-4.87-5.71-13.23-5.71a16.41,16.41,0,0,0-13.58,6.66q-5.17,6.64-5.18,17.6v.61Zm11.47-13.36a10.85,10.85,0,0,1,9.32-4.61,12,12,0,0,1,11.2,6.72v21.84a11.85,11.85,0,0,1-11.29,7,10.81,10.81,0,0,1-9.23-4.58q-3.34-4.56-3.34-12.65,0-9.06,3.34-13.67Zm79.17,28.61-5-3.87a18.17,18.17,0,0,1-5.22,4.66,14.19,14.19,0,0,1-7.3,1.76,12.91,12.91,0,0,1-10-4.33q-3.93-4.34-4.11-11.36h32.21v-3.38q0-11.39-5.14-17.49t-14.41-6.11a19.05,19.05,0,0,0-10.53,3.14,21.16,21.16,0,0,0-7.56,8.7,28.73,28.73,0,0,0-2.7,12.64v1.49q0,10.63,6.07,17t15.73,6.35q12,0,17.93-9.18Zm-10.85-30q3,3.4,3.34,9.61v.61H902.9q.79-6.46,4.13-10a10.83,10.83,0,0,1,8.26-3.58,10.23,10.23,0,0,1,8.09,3.4Zm43.19-9.2v47.55h8.13v-33.89a14.27,14.27,0,0,1,4.66-5.53,11.7,11.7,0,0,1,6.94-2.11q4.88,0,7.19,2.46t2.35,7.6v31.47H1004V1167.3q-.13-17-15.21-17a17.33,17.33,0,0,0-14.24,6.85l-.26-6Zm47.84,23.9q0,11.09,6,17.8t15.67,6.72a21.06,21.06,0,0,0,11.36-3.07,20.19,20.19,0,0,0,7.6-8.59,28.37,28.37,0,0,0,2.66-12.46v-.57q0-11.16-6-17.89T1036,1150.3a20.78,20.78,0,0,0-11.18,3,20.48,20.48,0,0,0-7.65,8.61,28.15,28.15,0,0,0-2.75,12.57v.57Zm11.87-13.31A11.7,11.7,0,0,1,1036,1157a11.83,11.83,0,0,1,9.87,4.85q3.71,4.86,3.71,12.68,0,8.74-3.65,13.6a12.44,12.44,0,0,1-19.66.07q-3.68-4.79-3.67-12.7,0-8.93,3.69-13.71Zm50.69,26.76q-3.37-4.44-3.38-12.66v-1.53q0-8.44,3.4-12.9a11.37,11.37,0,0,1,9.61-4.46,10.87,10.87,0,0,1,7.75,3,11.22,11.22,0,0,1,3.5,7.58h7.69a17.11,17.11,0,0,0-5.65-12.43,19,19,0,0,0-13.29-4.79,20.74,20.74,0,0,0-11.28,3,19.5,19.5,0,0,0-7.31,8.39,28.57,28.57,0,0,0-2.55,12.35v1.36q0,11.25,5.73,17.73t15.45,6.48a20,20,0,0,0,9.16-2.19,18.5,18.5,0,0,0,6.92-5.89,14.78,14.78,0,0,0,2.82-7.78h-7.69a9.27,9.27,0,0,1-3.61,6.59,11.67,11.67,0,0,1-7.6,2.64q-6.29,0-9.67-4.44Zm45.73-57.3h-8.13v67.5h8.13v-33.89a14.27,14.27,0,0,1,4.66-5.53,11.7,11.7,0,0,1,6.94-2.11c3.25,0,5.65.82,7.18,2.46s2.33,4.17,2.36,7.6v31.47H1152V1167.3q-.13-17-15.21-17a17.29,17.29,0,0,0-14.06,6.63Zm104.12,43.55q0-11.38-4.94-17.93a16.1,16.1,0,0,0-13.6-6.55q-8.65,0-13.58,6.11v-25.18h-8.13v67.5H1194l.39-5.5q4.92,6.38,13.93,6.37a16,16,0,0,0,13.45-6.61q5-6.62,5-17.51v-.7Zm-11.38,13.4a10.56,10.56,0,0,1-9.1,4.53q-7.89,0-11.64-7.48v-20.56q3.51-7.47,11.56-7.47a10.61,10.61,0,0,1,9.22,4.52q3.21,4.53,3.21,12.84,0,9.09-3.25,13.62Zm58.79,2.24-5-3.87a18.08,18.08,0,0,1-5.23,4.66,14.15,14.15,0,0,1-7.29,1.76,12.91,12.91,0,0,1-10-4.33q-3.93-4.34-4.11-11.36h32.21v-3.38q0-11.39-5.14-17.49t-14.41-6.11a19.05,19.05,0,0,0-10.53,3.14,21.13,21.13,0,0,0-7.55,8.7,28.44,28.44,0,0,0-2.71,12.64v1.49q0,10.63,6.07,17t15.73,6.35q12,0,17.93-9.18Zm-10.86-30q3,3.4,3.34,9.61v.61H1242.9q.78-6.46,4.13-10a10.82,10.82,0,0,1,8.26-3.58,10.2,10.2,0,0,1,8.08,3.4Zm30-9.2h-8.13v47.55h8.13Zm-7.58-9.32a4.59,4.59,0,0,0,3.58,1.32,4.73,4.73,0,0,0,3.61-1.32,4.63,4.63,0,0,0,1.23-3.3,4.84,4.84,0,0,0-1.23-3.34,4.66,4.66,0,0,0-3.61-1.36,4.57,4.57,0,0,0-3.58,1.36,4.87,4.87,0,0,0-1.21,3.34,4.66,4.66,0,0,0,1.21,3.3Zm20.7,9.32v47.55h8.13V1164c2-4.54,5.61-6.81,10.95-6.81q10.14,0,10.15,10.37v31.16h8.17v-31.56a10.94,10.94,0,0,1,3.47-7.27,10.81,10.81,0,0,1,7.52-2.7q5.49,0,7.82,2.52t2.33,7.63v31.38h8.13v-31.86q-.27-16.57-15.91-16.57a18.27,18.27,0,0,0-9,2.11,18,18,0,0,0-6.17,5.53q-3.6-7.64-13.58-7.64-8.88,0-14.11,6.15l-.22-5.27Zm133.13,24.1a8.69,8.69,0,0,1,3.29,7.27,8.84,8.84,0,0,1-3.56,7.43q-3.56,2.73-10.23,2.73-7.17,0-11.45-3.37a11,11,0,0,1-4.29-9.16h-8.48a16.88,16.88,0,0,0,3.1,10,20.77,20.77,0,0,0,8.81,6.92,30.15,30.15,0,0,0,12.31,2.52q10.14,0,16.21-4.68a15,15,0,0,0,6.07-12.45,16.09,16.09,0,0,0-2.18-8.49,18.85,18.85,0,0,0-6.68-6.3,52.32,52.32,0,0,0-12.48-5q-8-2.25-11.29-5a8.27,8.27,0,0,1-3.32-6.63,9.17,9.17,0,0,1,3.49-7.64q3.49-2.74,9.74-2.75,6.72,0,10.41,3.33a11.7,11.7,0,0,1,3.69,9.15h8.48a18,18,0,0,0-2.83-9.8,19.3,19.3,0,0,0-8-7,26.21,26.21,0,0,0-11.75-2.55q-9.68,0-15.71,5a15.47,15.47,0,0,0-6,12.5,14.67,14.67,0,0,0,5,11.23q4.93,4.55,15.79,7.67c5.78,1.66,9.76,3.36,12,5.07Zm29-44h-8.13v67.5h8.13v-33.89a14.27,14.27,0,0,1,4.66-5.53,11.7,11.7,0,0,1,6.94-2.11c3.25,0,5.65.82,7.18,2.46s2.33,4.17,2.36,7.6v31.47H1498V1167.3q-.13-17-15.21-17a17.29,17.29,0,0,0-14.06,6.63Zm39.71,43.85q0,11.09,6,17.8t15.67,6.72a21.06,21.06,0,0,0,11.36-3.07,20.19,20.19,0,0,0,7.6-8.59,28.37,28.37,0,0,0,2.66-12.46v-.57q0-11.16-6-17.89T1530,1150.3a20.78,20.78,0,0,0-11.18,3,20.48,20.48,0,0,0-7.65,8.61,28.15,28.15,0,0,0-2.75,12.57v.57Zm11.87-13.31A11.7,11.7,0,0,1,1530,1157a11.83,11.83,0,0,1,9.87,4.85q3.71,4.86,3.71,12.68,0,8.74-3.65,13.6a12.44,12.44,0,0,1-19.66.07q-3.67-4.79-3.67-12.7,0-8.93,3.69-13.71Zm39.13,13.31q0,11.09,6,17.8t15.67,6.72a21.06,21.06,0,0,0,11.36-3.07,20.19,20.19,0,0,0,7.6-8.59,28.37,28.37,0,0,0,2.66-12.46v-.57q0-11.16-6-17.89T1581,1150.3a20.78,20.78,0,0,0-11.18,3,20.48,20.48,0,0,0-7.65,8.61,28.15,28.15,0,0,0-2.75,12.57v.57Zm11.87-13.31A11.7,11.7,0,0,1,1581,1157a11.83,11.83,0,0,1,9.87,4.85q3.71,4.86,3.71,12.68,0,8.74-3.65,13.6a12.44,12.44,0,0,1-19.66.07q-3.67-4.79-3.67-12.7,0-8.93,3.69-13.71Zm44.19-22.11v11.52h-8.66v6.28h8.66V1187q0,6.06,2.77,9.36c1.84,2.2,4.58,3.29,8.21,3.29a23.5,23.5,0,0,0,6.24-.87v-6.55a20,20,0,0,1-3.86.53c-1.91,0-3.25-.48-4-1.43a6.68,6.68,0,0,1-1.18-4.29v-29.53h8.88v-6.28h-8.88v-11.52Zm34.93,11.52h-8.13v47.55h8.13Zm-7.58-9.32a4.59,4.59,0,0,0,3.58,1.32,4.73,4.73,0,0,0,3.61-1.32,4.63,4.63,0,0,0,1.23-3.3,4.84,4.84,0,0,0-1.23-3.34,4.66,4.66,0,0,0-3.61-1.36,4.57,4.57,0,0,0-3.58,1.36,4.87,4.87,0,0,0-1.21,3.34,4.66,4.66,0,0,0,1.21,3.3Zm20.75,9.32v47.55h8.13v-33.89a14.27,14.27,0,0,1,4.66-5.53,11.7,11.7,0,0,1,6.94-2.11c3.25,0,5.65.82,7.18,2.46s2.33,4.17,2.36,7.6v31.47H1701V1167.3q-.13-17-15.21-17a17.33,17.33,0,0,0-14.24,6.85l-.26-6Zm53.23,41.7a16.25,16.25,0,0,0,13.51,6.72q8.45,0,13.32-5.62v4.09q0,6.06-3.32,9.4t-9.25,3.34q-7.56,0-12.79-6.46l-4.22,4.88a17.38,17.38,0,0,0,7.52,6,24.43,24.43,0,0,0,10.06,2.2q9.22,0,14.7-5.32t5.47-14.55v-46.4h-7.43l-.39,5.27q-4.87-6.15-13.58-6.15a16.42,16.42,0,0,0-13.62,6.57q-5.15,6.57-5.15,17.69,0,11.6,5.17,18.32Zm6.35-31.07a10.82,10.82,0,0,1,9.27-4.61q7.47,0,11.21,6.81v21.71q-3.62,7-11.3,7a10.73,10.73,0,0,1-9.23-4.6q-3.28-4.59-3.29-12.63,0-9.06,3.34-13.67Zm41.85,36a4.87,4.87,0,0,0,3.75,1.36,5,5,0,0,0,3.8-1.36,4.69,4.69,0,0,0,1.3-3.39,5,5,0,0,0-1.3-3.51,4.88,4.88,0,0,0-3.8-1.41A4.73,4.73,0,0,0,1765,1191a5.08,5.08,0,0,0-1.26,3.51,4.82,4.82,0,0,0,1.26,3.39ZM467.55,1298.73a31,31,0,0,0,15.1-3.74,24.57,24.57,0,0,0,10-10.46,34.41,34.41,0,0,0,3.49-15.86v-4.09a34.06,34.06,0,0,0-3.54-15.64,24.93,24.93,0,0,0-9.91-10.51,29.06,29.06,0,0,0-14.76-3.69H449.84v64Zm.57-57.09q9.4.09,14.53,6.14t5.12,17v3.74q0,11.22-5.43,17.29t-15.18,6.07h-8.88v-50.19Zm77.11,48.78-5-3.87a18.08,18.08,0,0,1-5.23,4.66,14.18,14.18,0,0,1-7.29,1.76,12.91,12.91,0,0,1-10-4.33q-3.93-4.34-4.11-11.36h32.21v-3.38q0-11.39-5.14-17.49t-14.41-6.11a19.05,19.05,0,0,0-10.53,3.14,21.09,21.09,0,0,0-7.56,8.7,28.73,28.73,0,0,0-2.7,12.64v1.49q0,10.63,6.07,17t15.73,6.35q12,0,17.93-9.18Zm-10.85-30q3,3.4,3.34,9.61v.61H513.9q.79-6.46,4.13-10a10.83,10.83,0,0,1,8.26-3.58A10.23,10.23,0,0,1,534.38,1260.38Zm44.17-9.47a8.22,8.22,0,0,0-3.6-.61,12.67,12.67,0,0,0-11.34,6.37l-.13-5.49h-7.91v47.55h8.13V1265c1.91-4.55,5.52-6.82,10.86-6.82a25.67,25.67,0,0,1,4,.31v-7.56Zm65.58,12.66H617.28v-21.93h31.2v-6.9H608.84v64h8.44v-28.26h26.85v-6.9Zm10.29,11.51q0,11.09,6,17.8t15.66,6.72a21.06,21.06,0,0,0,11.36-3.07,20.19,20.19,0,0,0,7.6-8.59,28.37,28.37,0,0,0,2.66-12.46v-.57q0-11.16-6-17.89T676,1250.3a20.76,20.76,0,0,0-11.18,3,20.48,20.48,0,0,0-7.65,8.61,28,28,0,0,0-2.75,12.57v.57Zm11.86-13.31A11.64,11.64,0,0,1,676,1257a11.83,11.83,0,0,1,9.87,4.85q3.71,4.86,3.71,12.68,0,8.74-3.65,13.6a12.43,12.43,0,0,1-17.43,2.29,12.66,12.66,0,0,1-2.23-2.22q-3.68-4.79-3.67-12.7Q662.59,1266.55,666.28,1261.77Zm44.19-22.11v11.52h-8.66v6.28h8.66V1287q0,6.06,2.77,9.36c1.84,2.2,4.58,3.29,8.22,3.29a23.61,23.61,0,0,0,6.24-.87v-6.55a20.25,20.25,0,0,1-3.87.53c-1.9,0-3.25-.48-4.05-1.43a6.68,6.68,0,0,1-1.18-4.29v-29.53h8.87v-6.28H718.6v-11.52Zm23.95,35.42q0,11.09,6,17.8t15.66,6.72a21.06,21.06,0,0,0,11.36-3.07,20.19,20.19,0,0,0,7.6-8.59,28.37,28.37,0,0,0,2.66-12.46v-.57q0-11.16-6-17.89T756,1250.3a20.76,20.76,0,0,0-11.18,3,20.48,20.48,0,0,0-7.65,8.61,28,28,0,0,0-2.75,12.57v.57Zm11.86-13.31A11.64,11.64,0,0,1,756,1257a11.83,11.83,0,0,1,9.87,4.85q3.71,4.86,3.71,12.68,0,8.74-3.65,13.6a12.43,12.43,0,0,1-17.43,2.29,12.66,12.66,0,0,1-2.23-2.22q-3.68-4.79-3.67-12.7Q742.59,1266.55,746.28,1261.77Zm44.52,31.11a16.25,16.25,0,0,0,13.51,6.72q8.45,0,13.32-5.62v4.09q0,6.06-3.32,9.4t-9.25,3.34q-7.56,0-12.79-6.46l-4.22,4.88a17.33,17.33,0,0,0,7.52,6,24.43,24.43,0,0,0,10.06,2.2q9.23,0,14.7-5.32t5.47-14.55v-46.4h-7.42l-.4,5.27q-4.89-6.15-13.58-6.15a16.47,16.47,0,0,0-13.63,6.57q-5.13,6.57-5.14,17.69,0,11.6,5.17,18.32Zm6.35-31.07a10.81,10.81,0,0,1,9.27-4.61q7.47,0,11.21,6.81v21.71a11.91,11.91,0,0,1-11.3,7,10.73,10.73,0,0,1-9.23-4.6q-3.3-4.59-3.3-12.63Q793.82,1266.42,797.15,1261.81Zm63.4-10.9a8.22,8.22,0,0,0-3.6-.61,12.66,12.66,0,0,0-11.34,6.37l-.13-5.49h-7.91v47.55h8.13V1265q2.85-6.82,10.85-6.82a25.48,25.48,0,0,1,4,.31v-7.56Zm43.9,47.82V1298a26.75,26.75,0,0,1-1.67-10.41v-21.89q-.18-7.2-4.84-11.31t-12.87-4.11a23.1,23.1,0,0,0-9.52,1.93,17.26,17.26,0,0,0-6.85,5.25,11.24,11.24,0,0,0-2.53,6.88h8.18a6.47,6.47,0,0,1,2.94-5.32,11.9,11.9,0,0,1,7.3-2.19q5,0,7.51,2.52a9.16,9.16,0,0,1,2.55,6.79v3.74h-7.91q-10.25,0-15.89,4.11a13.44,13.44,0,0,0-5.64,11.53,12.86,12.86,0,0,0,4.5,10.09,16.78,16.78,0,0,0,11.53,4,18.15,18.15,0,0,0,13.54-5.88,16.89,16.89,0,0,0,1.14,5h8.53Zm-28.57-8.35a7.4,7.4,0,0,1-2.54-6q0-8.75,14.94-8.75h6.37v9.76a12,12,0,0,1-5,5.14,14.21,14.21,0,0,1-7.25,2,9.85,9.85,0,0,1-6.55-2.15Zm51.82,8.35v-41.27h10.15v-6.28H927.7v-5q0-4.32,2.15-6.63a7.93,7.93,0,0,1,6.11-2.32,23.16,23.16,0,0,1,4.4.4l.44-6.56a21.49,21.49,0,0,0-5.58-.74q-7.49,0-11.56,4.18t-4.09,11.82v4.88h-7.51v6.28h7.51v41.27Zm40.82-47.55v47.55h8.13V1264c2-4.54,5.61-6.81,11-6.81q10.14,0,10.15,10.37v31.16h8.17v-31.56a10.94,10.94,0,0,1,3.47-7.27,10.81,10.81,0,0,1,7.52-2.7q5.49,0,7.82,2.52t2.33,7.63v31.38h8.13v-31.86q-.27-16.57-15.91-16.57a18.24,18.24,0,0,0-9,2.11,18,18,0,0,0-6.17,5.53q-3.6-7.64-13.58-7.64-8.88,0-14.11,6.15l-.22-5.27Zm116.71,39.24-5-3.87a18.08,18.08,0,0,1-5.23,4.66,14.18,14.18,0,0,1-7.29,1.76,12.91,12.91,0,0,1-10-4.33q-3.93-4.34-4.11-11.36h32.21v-3.38q0-11.39-5.14-17.49t-14.41-6.11a19,19,0,0,0-10.53,3.14,21.06,21.06,0,0,0-7.55,8.7,28.44,28.44,0,0,0-2.71,12.64v1.49q0,10.63,6.07,17t15.73,6.35q12,0,17.93-9.18Zm-10.86-30q3,3.4,3.34,9.61v.61H1053.9q.78-6.46,4.13-10a10.82,10.82,0,0,1,8.26-3.58,10.2,10.2,0,0,1,8.08,3.4Zm30-9.2h-8.13v47.55h8.13Zm-7.58-9.32a4.59,4.59,0,0,0,3.58,1.32,4.73,4.73,0,0,0,3.61-1.32,4.63,4.63,0,0,0,1.23-3.3,4.84,4.84,0,0,0-1.23-3.34,4.67,4.67,0,0,0-3.61-1.36,4.56,4.56,0,0,0-3.58,1.36,4.87,4.87,0,0,0-1.21,3.34,4.66,4.66,0,0,0,1.21,3.3Zm20.75,9.32v47.55h8.13v-33.89a14.18,14.18,0,0,1,4.66-5.53,11.7,11.7,0,0,1,6.94-2.11c3.25,0,5.65.82,7.18,2.46s2.33,4.17,2.36,7.6v31.47H1155V1267.3q-.13-17-15.21-17a17.33,17.33,0,0,0-14.24,6.85l-.26-6Zm52.9-11.52v11.52h-8.66v6.28h8.66V1287q0,6.06,2.77,9.36c1.84,2.2,4.58,3.29,8.21,3.29a23.5,23.5,0,0,0,6.24-.87v-6.55a20.15,20.15,0,0,1-3.86.53c-1.91,0-3.25-.48-4-1.43a6.62,6.62,0,0,1-1.18-4.29v-29.53h8.88v-6.28h-8.88v-11.52Zm63.76,50.76-5-3.87a18.08,18.08,0,0,1-5.23,4.66,14.18,14.18,0,0,1-7.29,1.76,12.91,12.91,0,0,1-10-4.33q-3.93-4.34-4.11-11.36h32.21v-3.38q0-11.39-5.14-17.49t-14.41-6.11a19,19,0,0,0-10.53,3.14,21.06,21.06,0,0,0-7.55,8.7,28.44,28.44,0,0,0-2.71,12.64v1.49q0,10.63,6.07,17t15.73,6.35q12,0,17.93-9.18Zm-10.86-30q3,3.4,3.34,9.61v.61H1202.9q.78-6.46,4.13-10a10.82,10.82,0,0,1,8.26-3.58,10.2,10.2,0,0,1,8.08,3.4Zm80.86,30-5-3.87a18.08,18.08,0,0,1-5.23,4.66,14.18,14.18,0,0,1-7.29,1.76,12.91,12.91,0,0,1-10-4.33q-3.93-4.34-4.11-11.36h32.21v-3.38q0-11.39-5.14-17.49t-14.41-6.11a19,19,0,0,0-10.53,3.14,21.06,21.06,0,0,0-7.55,8.7,28.44,28.44,0,0,0-2.71,12.64v1.49q0,10.63,6.07,17t15.73,6.35q12,0,17.93-9.18Zm-10.86-30q3,3.4,3.34,9.61v.61H1272.9q.78-6.46,4.13-10a10.82,10.82,0,0,1,8.26-3.58,10.2,10.2,0,0,1,8.08,3.4Zm61.45,14.4q0-11.38-4.94-17.93a16.09,16.09,0,0,0-13.6-6.55q-8.65,0-13.58,6.11v-25.18h-8.13v67.5H1322l.39-5.5q4.92,6.38,13.93,6.37a16,16,0,0,0,13.45-6.61q5-6.62,5-17.51v-.7Zm-11.38,13.4a10.56,10.56,0,0,1-9.1,4.53q-7.9,0-11.64-7.48v-20.56q3.51-7.47,11.56-7.47a10.61,10.61,0,0,1,9.22,4.52q3.21,4.53,3.21,12.84,0,9.09-3.25,13.62Zm58.79,2.24-5-3.87a18.08,18.08,0,0,1-5.23,4.66,14.18,14.18,0,0,1-7.29,1.76,12.91,12.91,0,0,1-10-4.33q-3.93-4.34-4.11-11.36h32.21v-3.38q0-11.39-5.14-17.49t-14.41-6.11a19,19,0,0,0-10.53,3.14,21.06,21.06,0,0,0-7.55,8.7,28.44,28.44,0,0,0-2.71,12.64v1.49q0,10.63,6.07,17t15.73,6.35q12,0,17.93-9.18Zm-10.86-30q3,3.4,3.34,9.61v.61H1370.9q.78-6.46,4.13-10a10.82,10.82,0,0,1,8.26-3.58,10.2,10.2,0,0,1,8.08,3.4Zm21.2-9.2v47.55h8.13v-33.89a14.18,14.18,0,0,1,4.66-5.53,11.7,11.7,0,0,1,6.94-2.11c3.25,0,5.65.82,7.18,2.46s2.33,4.17,2.36,7.6v31.47H1450V1267.3q-.13-17-15.21-17a17.33,17.33,0,0,0-14.24,6.85l-.26-6Zm55.21,53.17a20,20,0,0,0,2.17-8.88v-6.37h-8v7.34a21.3,21.3,0,0,1-4.31,11.87l4.61,3.16a21,21,0,0,0,5.48-7.12Zm-954.55,86.07-5-3.87a18.08,18.08,0,0,1-5.23,4.66,14.19,14.19,0,0,1-7.3,1.76,12.91,12.91,0,0,1-10-4.33q-3.93-4.34-4.11-11.36h32.22v-3.38q0-11.39-5.14-17.49t-14.42-6.11a19,19,0,0,0-10.52,3.14,21,21,0,0,0-7.56,8.7,28.46,28.46,0,0,0-2.7,12.64v1.49q0,10.63,6.06,17t15.73,6.35q12,0,17.93-9.18h0Zm-10.86-30q3,3.4,3.34,9.61v.61H481.9q.8-6.46,4.13-10a10.83,10.83,0,0,1,8.26-3.58,10.23,10.23,0,0,1,8.09,3.4Zm44.18-9.47a8.22,8.22,0,0,0-3.6-.61,12.67,12.67,0,0,0-11.34,6.37l-.13-5.49h-7.91v47.55h8.13V1365q2.85-6.82,10.85-6.82a25.48,25.48,0,0,1,4,.31v-7.56Zm69.27,23.87q0-11.38-4.94-17.93a16.09,16.09,0,0,0-13.6-6.55q-8.65,0-13.58,6.11v-25.18h-8.13v67.5H583l.39-5.5q4.94,6.38,13.94,6.37a16,16,0,0,0,13.44-6.61q5-6.62,5-17.51v-.7Zm-11.38,13.4a10.54,10.54,0,0,1-9.1,4.53q-7.9,0-11.65-7.48v-20.56q3.52-7.47,11.56-7.47a10.64,10.64,0,0,1,9.23,4.52q3.21,4.53,3.21,12.84,0,9.09-3.25,13.62Zm44.11-37.27a8.22,8.22,0,0,0-3.6-.61,12.67,12.67,0,0,0-11.34,6.37l-.13-5.49h-7.91v47.55h8.13V1365q2.85-6.82,10.85-6.82a25.48,25.48,0,0,1,4,.31v-7.56Zm15.85.27h-8.13v47.55h8.13Zm-7.58-9.32a4.59,4.59,0,0,0,3.58,1.32,4.4,4.4,0,0,0,4.82-3.94,5.1,5.1,0,0,0,0-.68,4.84,4.84,0,0,0-1.23-3.34,4.65,4.65,0,0,0-3.6-1.36,4.58,4.58,0,0,0-3.59,1.36,4.81,4.81,0,0,0-1.2,3.34,4.71,4.71,0,0,0,1.2,3.3Zm20.75,9.32v47.55h8.13v-33.89a14.18,14.18,0,0,1,4.66-5.53,11.7,11.7,0,0,1,6.94-2.11c3.25,0,5.65.82,7.18,2.46s2.33,4.17,2.36,7.6v31.47H715V1367.3q-.12-17-15.2-17a17.33,17.33,0,0,0-14.24,6.85l-.26-6Zm53.23,41.7a16.23,16.23,0,0,0,13.51,6.72q8.45,0,13.32-5.62v4.09q0,6.06-3.32,9.4t-9.25,3.34q-7.56,0-12.79-6.46l-4.22,4.88a17.33,17.33,0,0,0,7.52,6,24.43,24.43,0,0,0,10.06,2.2q9.23,0,14.7-5.32t5.47-14.55v-46.4h-7.43l-.4,5.27q-4.87-6.15-13.57-6.15a16.47,16.47,0,0,0-13.63,6.57q-5.14,6.57-5.14,17.69,0,11.6,5.17,18.32Zm6.35-31.07a10.81,10.81,0,0,1,9.27-4.61q7.47,0,11.21,6.81v21.71a11.91,11.91,0,0,1-11.3,7,10.73,10.73,0,0,1-9.23-4.6q-3.3-4.59-3.3-12.63,0-9.06,3.35-13.67Zm43.32-22.15v11.52h-8.66v6.28h8.66V1387q0,6.06,2.77,9.36c1.84,2.2,4.58,3.29,8.21,3.29a23.5,23.5,0,0,0,6.24-.87v-6.55a20,20,0,0,1-3.86.53c-1.9,0-3.25-.48-4.05-1.43a6.68,6.68,0,0,1-1.18-4.29v-29.53h8.87v-6.28H788.6v-11.52Zm48,11.52v47.55h8.13V1364c2-4.54,5.61-6.81,11-6.81q10.14,0,10.15,10.37v31.16h8.17v-31.56a10.94,10.94,0,0,1,3.47-7.27,10.81,10.81,0,0,1,7.52-2.7q5.49,0,7.82,2.52t2.33,7.63v31.38h8.13v-31.86q-.27-16.57-15.91-16.57a18.27,18.27,0,0,0-9,2.11,18,18,0,0,0-6.17,5.53q-3.6-7.64-13.58-7.64-8.88,0-14.11,6.15l-.22-5.27Zm87.88,0h-8.13v47.55h8.13Zm-7.58-9.32a4.59,4.59,0,0,0,3.58,1.32,4.4,4.4,0,0,0,4.82-3.94,5.1,5.1,0,0,0,0-.68,4.84,4.84,0,0,0-1.23-3.34,4.65,4.65,0,0,0-3.6-1.36,4.58,4.58,0,0,0-3.59,1.36,4.81,4.81,0,0,0-1.2,3.34,4.71,4.71,0,0,0,1.2,3.3ZM939,1388.53q-3.37-4.44-3.38-12.66v-1.53q0-8.44,3.4-12.9a11.34,11.34,0,0,1,9.6-4.46,10.91,10.91,0,0,1,7.76,3,11.25,11.25,0,0,1,3.49,7.58h7.69a17.11,17.11,0,0,0-5.65-12.43,19,19,0,0,0-13.29-4.79,20.68,20.68,0,0,0-11.27,3,19.4,19.4,0,0,0-7.32,8.39,28.57,28.57,0,0,0-2.55,12.35v1.36q0,11.25,5.74,17.73t15.44,6.48a20,20,0,0,0,9.17-2.19,18.66,18.66,0,0,0,6.92-5.89,14.77,14.77,0,0,0,2.81-7.78h-7.69a9.29,9.29,0,0,1-3.6,6.59,11.69,11.69,0,0,1-7.6,2.64q-6.28,0-9.67-4.44Zm45.73-57.3h-8.13v67.5h8.13v-33.89a14.18,14.18,0,0,1,4.66-5.53,11.7,11.7,0,0,1,6.94-2.11q4.88,0,7.18,2.46t2.36,7.6v31.47H1014V1367.3q-.13-17-15.21-17a17.29,17.29,0,0,0-14.06,6.63v-25.7Zm67.1,61.65a16.22,16.22,0,0,0,13.51,6.72q8.45,0,13.32-5.62v4.09q0,6.06-3.32,9.4t-9.25,3.34q-7.56,0-12.79-6.46l-4.22,4.88a17.27,17.27,0,0,0,7.52,6,24.43,24.43,0,0,0,10.06,2.2q9.22,0,14.7-5.32t5.47-14.55v-46.4h-7.43l-.39,5.27q-4.87-6.15-13.58-6.15a16.42,16.42,0,0,0-13.62,6.57q-5.15,6.57-5.15,17.69,0,11.6,5.17,18.32Zm6.35-31.07a10.8,10.8,0,0,1,9.27-4.61q7.47,0,11.21,6.81v21.71q-3.62,7-11.3,7a10.73,10.73,0,0,1-9.23-4.6q-3.28-4.59-3.29-12.63,0-9.06,3.34-13.67Zm63.4-10.9a8.22,8.22,0,0,0-3.6-.61,12.65,12.65,0,0,0-11.34,6.37l-.13-5.49h-7.91v47.55h8.13V1365q2.85-6.82,10.85-6.82a25.57,25.57,0,0,1,4,.31v-7.56Zm4.86,24.17q0,11.09,6,17.8t15.67,6.72a21.06,21.06,0,0,0,11.36-3.07,20.19,20.19,0,0,0,7.6-8.59,28.37,28.37,0,0,0,2.66-12.46v-.57q0-11.16-6-17.89T1148,1350.3a20.76,20.76,0,0,0-11.18,3,20.42,20.42,0,0,0-7.65,8.61,28,28,0,0,0-2.75,12.57v.57Zm11.87-13.31A11.67,11.67,0,0,1,1148,1357a11.86,11.86,0,0,1,9.87,4.85q3.71,4.86,3.71,12.68,0,8.74-3.65,13.6a12.44,12.44,0,0,1-17.43,2.29,12.66,12.66,0,0,1-2.23-2.22q-3.67-4.79-3.67-12.7,0-8.93,3.69-13.71Zm49.37-11.78q0-12.87,9.58-12.88a8.23,8.23,0,0,1,6.16,2.36,8.92,8.92,0,0,1,2.28,6.48c0,2.46-1,5.2-3.05,8.24s-3.06,5.85-3.06,8.46a12.14,12.14,0,0,0,1.91,6.59,25.6,25.6,0,0,0,6.07,6.26,34,34,0,0,1,5.78,5.34,7.13,7.13,0,0,1,1.62,4.39,7,7,0,0,1-2.48,5.67c-1.65,1.38-4,2.07-7.18,2.07a17.06,17.06,0,0,1-5.3-1,21.28,21.28,0,0,1-5.12-2.37l-1.89,6.81a16.68,16.68,0,0,0,5.65,2.2,31.85,31.85,0,0,0,7.53,1q8,0,12.46-3.91t4.46-10.9a11.7,11.7,0,0,0-1.89-6.32,24.81,24.81,0,0,0-6-6.16,33.5,33.5,0,0,1-5.78-5.25,6.88,6.88,0,0,1-1.64-4.33c0-2,.93-4.51,2.81-7.49a18.32,18.32,0,0,0,2.81-10q0-7-4.33-10.92t-12.24-3.94c-5.44,0-9.69,1.73-12.72,5.17s-4.55,8.21-4.55,14.3v48.83h8.13V1350Zm90.9.92a8.22,8.22,0,0,0-3.6-.61,12.65,12.65,0,0,0-11.34,6.37l-.13-5.49h-7.91v47.55h8.13V1365q2.85-6.82,10.85-6.82a25.57,25.57,0,0,1,4,.31v-7.56Zm43.9,47.82V1398a26.78,26.78,0,0,1-1.67-10.41v-21.89q-.18-7.2-4.84-11.31t-12.87-4.11a23.07,23.07,0,0,0-9.52,1.93,17.26,17.26,0,0,0-6.85,5.25,11.24,11.24,0,0,0-2.53,6.88h8.18a6.48,6.48,0,0,1,2.94-5.32,11.88,11.88,0,0,1,7.3-2.19q5,0,7.51,2.52a9.14,9.14,0,0,1,2.55,6.79v3.74h-7.91q-10.24,0-15.89,4.11a13.41,13.41,0,0,0-5.64,11.53,12.89,12.89,0,0,0,4.5,10.09,16.81,16.81,0,0,0,11.54,4,18.16,18.16,0,0,0,13.53-5.88,16.89,16.89,0,0,0,1.14,5Zm-28.57-8.35a7.38,7.38,0,0,1-2.54-6q0-8.75,14.94-8.75h6.37v9.76a12,12,0,0,1-5,5.14,14.24,14.24,0,0,1-7.25,2,9.84,9.84,0,0,1-6.55-2.15Zm69.22,8.35h7.73v-47.55h-8.13v34.58q-3.08,6.95-12.39,7-8.79,0-8.79-10.82v-30.71h-8.13v30.93c0,5.78,1.37,10.13,4,13.08s6.51,4.41,11.58,4.41q9.19,0,13.93-5.58Zm45.36-7.63a13,13,0,0,1-7.4,1.87,12.72,12.72,0,0,1-8.07-2.4,8.39,8.39,0,0,1-3.27-6.48h-8.13a13.62,13.62,0,0,0,2.48,7.85,16.38,16.38,0,0,0,6.88,5.64,23.9,23.9,0,0,0,10.11,2q8.13,0,13.23-3.84a12.21,12.21,0,0,0,5.09-10.22,11.18,11.18,0,0,0-1.82-6.48,14.42,14.42,0,0,0-5.6-4.55,44.1,44.1,0,0,0-9.87-3.25c-4.06-.91-6.87-1.86-8.41-2.86a4.89,4.89,0,0,1-2.33-4.44,6.06,6.06,0,0,1,2.5-5,11.1,11.1,0,0,1,6.94-1.93,10.62,10.62,0,0,1,7.15,2.41,7.41,7.41,0,0,1,2.83,5.76h8.17a13.31,13.31,0,0,0-5-10.68q-5-4.17-13.12-4.17-7.68,0-12.63,4a12.3,12.3,0,0,0-4.94,9.89,10.42,10.42,0,0,0,1.73,6.06,14,14,0,0,0,5.36,4.4,41.1,41.1,0,0,0,9.8,3.16c4.12.88,7,1.93,8.66,3.14a6,6,0,0,1,2.48,5.12,5.75,5.75,0,0,1-2.79,5Zm22.54,6.75a4.86,4.86,0,0,0,3.75,1.36,5,5,0,0,0,3.8-1.36,4.73,4.73,0,0,0,1.3-3.39,5,5,0,0,0-1.3-3.51,4.9,4.9,0,0,0-3.8-1.41A4.73,4.73,0,0,0,1431,1391a5.08,5.08,0,0,0-1.26,3.51,4.77,4.77,0,0,0,1.26,3.39Z"/><path id="Ich_habe_heute_leider_kein_Foto_für_dich._" data-name="Ich habe heute leider kein Foto für dich. " class="cls-3" d="M425.18,576.72s7.5-51,7.5-100.64c0-39.75-9.3-43.2-14.7-43.2-11.55,0-12.75,9.15-12.75,18.75,0,12.45,1.5,21,1.5,37.35,0,10.79-.15,22.79-.15,34.19,0,24.15.75,46.05,4.95,50s7.35,4.65,9.75,4.65A6.64,6.64,0,0,0,425.18,576.72Zm55.25-5.7c24.15,0,34.05-10,34.05-15.75,0-2.25-1.5-3.75-4.2-3.75-8.85,0-7.5,9.3-17.55,9.3-9.3,0-14.85-35-14.85-65.24,0-23.25,3.3-43.95,11.1-43.95,12.9,0,8.4,14.1,15.3,14.1,2.85,0,9-1.35,9-6.15,0-3.9-1.2-19.8-21.9-19.8-40.2,0-45.15,34.05-45.15,63S451.18,571,480.43,571ZM587,438.88s-2.85,20.25-4.5,60.14c-8.1,3.6-18.15,5-25.95,5.4.3-17.4,1-30.3,1-39.9,0-10.65-1.65-28.94-16.5-28.94a18.17,18.17,0,0,0-10.8,4.05s-2,39.9-2,76.94c0,32.25,1.5,62.4,7,62.4,16.8,0,20.55-25.8,21-56.4a70.87,70.87,0,0,0,25.65-5.4c0,3-.15,6-.15,8.7,0,34.8,4.5,44.4,11.4,44.4,7.8,0,12.9-9.9,12.9-28.65s-7.05-15.9-7.05-101.4c0-7.05-3.6-8.55-6.45-8.55-5.4,0-5.7,7.21-5.7,7.21Zm144,0s-2.85,20.25-4.5,60.14c-8.1,3.6-18.15,5-25.95,5.4.3-17.4,1-30.3,1-39.9,0-10.65-1.65-28.94-16.5-28.94a18.17,18.17,0,0,0-10.8,4.05s-2,39.9-2,76.94c0,32.25,1.5,62.4,7,62.4,16.8,0,20.55-25.8,21-56.4a70.87,70.87,0,0,0,25.65-5.4c0,3-.15,6-.15,8.7,0,34.8,4.5,44.4,11.4,44.4,7.8,0,12.9-9.9,12.9-28.65s-7.05-15.9-7.05-101.4c0-7.05-3.6-8.55-6.45-8.55-5.4,0-5.7,7.21-5.7,7.21Zm64.25,29.4c.6,13.35,1.8,29.7,3,45.15,0,0-1.35-.15-3.75-.15a59.87,59.87,0,0,0-10.35.9c5.85-25.5,8.85-37.2,11.1-45.9Zm-32.4,92.4c0,2.1.6,6.3,5.4,6.3,4.35,0,4.5-1.05,6-7.65l7.05-32.25c6.75.45,14.4.45,18.9.45,6.45,43.2,16,47.85,22,47.85,8,0,10.35-4,10.35-11.4a38.36,38.36,0,0,0-1.8-11.1c-7.65-25.2-11.55-107.25-21.45-114-4.35-2.85-7.65-3.6-10-3.6-4.2,0-7.35.75-9.9,3.15-6.15,5.7-12,20.7-17.55,52.65-4.2,23.55-9,49-9,69.59Zm108.6-111.3c6,.15,17.55,1.35,17.55,15.3,0,14.25-6.45,24.3-15,26.7-1.35-18.6-2.4-34.65-2.55-42Zm4,64.65c7.5,0,19.8,2.25,19.8,19.65,0,15.3-10.5,22.05-17.55,24.9-.45-13.36-1.2-29.11-2.25-44.55Zm19.8-17.85C903,491.08,909,482.23,909,466.93c0-26.4-19.5-31.5-34.35-31.5-10.35,0-26.4,1.65-26.4,14.55,0,22.95-3,105.75-3,113.1s5.55,12.15,16.2,12.15h1.5c37.05-.6,53.55-21.9,53.55-45.45,0-15.3-5.7-30.45-21.15-33.6Zm90.5,9.75c1.5-.6,2.25-2.4,2.25-4.2s-.75-3.45-2.1-3.9c-4.65-1.8-17.7-2.25-26.7-2.25h-.75c.15-12,1.5-23.7,4.05-32.4,22.8-.6,31.8-3.6,31.8-3.6s6.15-1.8,6.15-7.65v-.15c-.15-2.85-1.35-4.65-7-5.4-17-2.25-31.64-4.5-46.34-4.5-2.85,0-3.75.9-3.75,4.8-12.9,10.8-16.65,46.5-16.65,59.25,0,28.95,5.55,63,50.24,63,12.75,0,18.9-2.85,21.6-7a10.74,10.74,0,0,0,1.65-5.55c0-3.15-1.8-5.85-6-5.85-7.65,0-5.7,6.6-19.5,6.6-9.45,0-14.85-22.2-16.05-46.65H960a72.5,72.5,0,0,0,25.8-4.5ZM1122,438.88s-2.85,20.25-4.5,60.15c-8.1,3.6-18.15,5-26,5.4.3-17.4,1.05-30.3,1.05-39.9,0-10.65-1.65-28.95-16.5-28.95a18.23,18.23,0,0,0-10.8,4.05s-1.95,39.9-1.95,77c0,32.25,1.5,62.4,7,62.4,16.8,0,20.55-25.8,21-56.4a70.83,70.83,0,0,0,25.65-5.4c0,3-.15,6-.15,8.7,0,34.8,4.5,44.4,11.4,44.4,7.8,0,12.9-9.9,12.9-28.65s-7-15.9-7-101.4c0-7.05-3.6-8.55-6.45-8.55-5.4,0-5.7,7.2-5.7,7.2Zm90.8,67.05c1.5-.6,2.25-2.4,2.25-4.2s-.75-3.45-2.1-3.9c-4.65-1.8-17.7-2.25-26.7-2.25h-.75c.15-12,1.5-23.7,4-32.4,22.8-.6,31.8-3.6,31.8-3.6s6.15-1.8,6.15-7.65v-.15c-.15-2.85-1.35-4.65-7-5.4-17-2.25-31.65-4.5-46.35-4.5-2.85,0-3.75.9-3.75,4.8-12.9,10.8-16.65,46.5-16.65,59.25,0,28.95,5.55,63,50.25,63,12.75,0,18.9-2.85,21.6-7a10.74,10.74,0,0,0,1.65-5.55c0-3.15-1.8-5.85-6-5.85-7.65,0-5.7,6.6-19.5,6.6-9.45,0-14.85-22.2-16-46.65H1187a72.5,72.5,0,0,0,25.8-4.5ZM1321.33,567c2.85-2.85,8.85-43.65,10.2-87,0-1.8.15-3.3.15-5,0-32.1-11.25-33.6-16.2-33.6-5.25,0-9.9,3.75-9.9,13.5a31.11,31.11,0,0,0,.3,5.1,93.57,93.57,0,0,1,.6,12.3c0,6.3-.3,13.65-.75,21.45-8.55,41.1-22.8,55.8-33,58h-.45c-2.7,0-3.6-4.94-3.6-12.74,0-22.65,8.25-69.9,8.25-92.1,0-3.61-12-5.11-18.45-5.11-8,0-10.8,15.45-10.8,15.45s-8.4,33.6-8.4,63.75c0,24.45,5.55,46.65,25.65,46.65,19.65,0,31.5-15.6,38.7-33.15v7c0,10.8.75,18.75,3.3,21,5.1,4.5,8.4,6.15,10.65,6.15a5.25,5.25,0,0,0,3.75-1.8Zm16.55-107.1c0,4.65,3.75,6.45,7.8,6.45h.3c6.6,0,22-2.7,38-5.55-.3,7.5-.9,21.3-.9,38.1,0,12.6.3,26.85,1.35,40.8,2.4,31.05,10.65,35,15.9,35,7.8,0,11.55-4.65,11.55-13.35a56,56,0,0,0-1.2-11.1c-4.2-20.7-5-80.1-11.85-92.1,13-2.4,24.45-4.35,29.4-4.35h.15c13.05,0,19.35-2.1,19.35-5.55V448c0-3.45-.9-12.45-20-12.45-37,0-79.5,18.15-89.85,23.55v.75Zm168.95,46.05c1.5-.6,2.25-2.4,2.25-4.2s-.75-3.45-2.1-3.9c-4.65-1.8-17.7-2.25-26.7-2.25h-.75c.15-12,1.5-23.7,4-32.4,22.8-.6,31.8-3.6,31.8-3.6s6.15-1.8,6.15-7.65v-.15c-.15-2.85-1.35-4.65-7-5.4-17-2.25-31.65-4.5-46.35-4.5-2.85,0-3.75.9-3.75,4.8-12.9,10.8-16.65,46.5-16.65,59.24,0,28.95,5.55,63,50.25,63,12.75,0,18.9-2.85,21.6-7a10.68,10.68,0,0,0,1.65-5.55c0-3.15-1.8-5.85-6-5.85-7.65,0-5.7,6.6-19.5,6.6-9.45,0-14.85-22.2-16-46.64H1481a72.54,72.54,0,0,0,25.8-4.5ZM339.38,620.58c-5.55,0-6.9,17.4-6.9,39.15,0,19.65.9,42.9,1,60.3.15,20.4-.15,40.2,22.65,40.2,43.8,0,48.15-3.15,48.15-13.65,0-5.1-12.15-6.45-24.9-6.45-6.75,0-13.5.45-18.9.75.6-7,.75-15.45.75-23.85,0-17.7-.9-35.55-.9-41.55,0-16.5-3-41.4-7.2-47.85C349.58,622.08,344.48,620.58,339.38,620.58Zm124.45,70.35c1.5-.6,2.25-2.4,2.25-4.2s-.75-3.45-2.1-3.9c-4.65-1.8-17.7-2.25-26.7-2.25h-.75c.15-12,1.5-23.7,4.05-32.4,22.8-.6,31.8-3.6,31.8-3.6s6.15-1.8,6.15-7.65v-.15c-.15-2.85-1.35-4.65-7-5.4-17-2.25-31.65-4.5-46.35-4.5-2.85,0-3.75.9-3.75,4.8-12.9,10.8-16.65,46.5-16.65,59.24,0,29,5.55,63,50.25,63,12.75,0,18.9-2.85,21.6-7a10.68,10.68,0,0,0,1.65-5.55c0-3.15-1.8-5.85-6-5.85-7.65,0-5.7,6.6-19.5,6.6-9.45,0-14.85-22.2-16.05-46.65H438a72.27,72.27,0,0,0,25.8-4.49Zm48.35,70.8s7.5-51,7.5-100.65c0-39.75-9.3-43.2-14.7-43.2-11.55,0-12.75,9.15-12.75,18.75,0,12.45,1.5,21,1.5,37.35,0,10.8-.15,22.8-.15,34.2,0,24.15.75,46.05,4.95,49.94s7.35,4.66,9.75,4.66a6.64,6.64,0,0,0,3.9-1.06Zm56.6-71.4c0-23,0-39.9-2.1-51.3h2.4c23.4,0,27.9,26.84,27.9,47.54,0,22.8-2,52.65-28.8,57a142.08,142.08,0,0,0,.9-19.35c0-9.3-.3-20.69-.3-33.89Zm-18.9-69.15a6.31,6.31,0,0,0-5.4,2.25l-6,.75a7,7,0,0,0-.6,2.85,7.68,7.68,0,0,0,2.85,5.85c-2.7,12.15-4.35,36.9-4.35,87v.45c0,4.35.6,39.3,17.85,39.3a12.69,12.69,0,0,0,8.1-2.4c1.5.15,3.3.15,5.1.15,21.3,0,58.5-10,58.5-80.25,0-47.1-42-54.3-68.55-54.3a16.21,16.21,0,0,0-7.5-1.65Zm144,69.75c1.5-.6,2.25-2.4,2.25-4.2s-.75-3.45-2.1-3.9c-4.65-1.8-17.7-2.25-26.7-2.25h-.75c.15-12,1.5-23.7,4.05-32.4,22.8-.6,31.8-3.6,31.8-3.6s6.15-1.8,6.15-7.65v-.15c-.15-2.85-1.35-4.65-7-5.4-17-2.25-31.65-4.5-46.35-4.5-2.85,0-3.75.9-3.75,4.8-12.9,10.8-16.65,46.5-16.65,59.24,0,29,5.55,63,50.25,63,12.75,0,18.9-2.85,21.6-7a10.68,10.68,0,0,0,1.65-5.55c0-3.15-1.8-5.85-6-5.85-7.65,0-5.7,6.6-19.5,6.6-9.45,0-14.85-22.2-16.05-46.65H668a72.27,72.27,0,0,0,25.8-4.49Zm55.85-5.1c0-22.05-.6-39.6-2.25-50.7a17.15,17.15,0,0,1,9.45-2.4c8.85,0,13.8,16.2,13.8,31.2,0,12.75-3.6,24.6-11.25,24.6s-9-1.5-9.75-2.7Zm8.4-62.55a84,84,0,0,0-13.8,1.05,2.26,2.26,0,0,0-1.65-1.05c-18.45,0-20,6.75-21,62.25-.3,20-1.35,34.2-1.35,44.4,0,10.94,1.8,26.85,16.8,26.85a18.71,18.71,0,0,0,10.65-3.6s1.35-26.25,1.8-55.2a48.77,48.77,0,0,0,8.7.6H760c2.25,8.25,7.5,25,15.3,40.2,6,12,11.7,14.84,15.9,14.84,4,0,11.25-3,11.25-8.09,0-2.25-.9-5.1-3.9-8.85-6.15-7.95-15.45-30.75-23-40.95,14.55-6,16.65-20.4,16.65-33.3,0-16.65-11.25-39.15-34.2-39.15ZM923.58,635c-8.4,11.25-22.05,25.35-34.8,44.1-.15-31.5-1.5-60.45-6.3-60.45-16.5,0-18.9,30.45-18.9,64.35,0,23.25-.9,39.3-.9,50.85,0,10.5,1.05,28.34,14.55,28.34,5.55,0,9.75-4.2,9.75-4.2s.9-20.84,1.5-46.5a266.18,266.18,0,0,0,20.4,32.1c7.8,10.5,13.8,13.5,18.15,13.5,5.25,0,12.15-5.85,12.15-11,0-2.85-1.5-6.45-6.45-11.1-8.7-8.1-24.9-33.6-35.4-43,13.8-15.6,32.4-39,36-53.55a20.23,20.23,0,0,0,.6-4.65c0-2.55-.9-4.8-3.45-4.8-2.85,0-6.9,6-6.9,6Zm79.25,55.95c1.5-.6,2.25-2.4,2.25-4.2s-.75-3.45-2.1-3.9c-4.65-1.8-17.7-2.25-26.7-2.25h-.75c.15-12,1.5-23.7,4.05-32.4,22.8-.6,31.8-3.6,31.8-3.6s6.15-1.8,6.15-7.65v-.15c-.15-2.85-1.35-4.65-7-5.4-17-2.25-31.65-4.5-46.35-4.5-2.85,0-3.75.9-3.75,4.8-12.9,10.8-16.65,46.5-16.65,59.24,0,29,5.55,63,50.25,63,12.75,0,18.9-2.85,21.6-7a10.68,10.68,0,0,0,1.65-5.55c0-3.15-1.8-5.85-6-5.85-7.65,0-5.7,6.6-19.5,6.6-9.45,0-14.85-22.2-16.05-46.64H977a72.54,72.54,0,0,0,25.8-4.5Zm48.35,70.8s7.5-51,7.5-100.65c0-39.75-9.3-43.2-14.7-43.2-11.55,0-12.75,9.15-12.75,18.75,0,12.45,1.5,21,1.5,37.35,0,10.8-.15,22.8-.15,34.2,0,24.15.75,46.05,5,50,4,3.75,7.35,4.65,9.75,4.65a6.64,6.64,0,0,0,3.9-1.06Zm37.25-138.6c-5,2.4-14.1,79.8-14.1,119.25a115.44,115.44,0,0,0,.9,16.2c.15,1.5,2,2.55,4.5,2.55a11.89,11.89,0,0,0,4.2-.9c9.3-3.9,9.6-27.15,9.6-69.6,0,0,28.35,63.9,36.75,69.45a11.82,11.82,0,0,0,6,1.34,10.89,10.89,0,0,0,6.15-1.5c4.5-2.7,16.35-58.94,16.35-136.79,0-1.8-3.6-3.9-7.35-3.9-4.35,0-9,2.7-9,11.7,0,20.85-8.1,59.55-8.1,79.8a34.19,34.19,0,0,0,.15,4s-32.85-91-36.6-91a5.89,5.89,0,0,0-4.65-2.1,10.33,10.33,0,0,0-4.8,1.5Zm199.1,71.55a12.37,12.37,0,0,0,1.35-4.8,3.6,3.6,0,0,0-2.1-3.45c-5.1-1.95-26.25-1-37.5-1.65.3-15.75,1-27.6,1-36.6,0-2.7,0-5.1-.15-7.35,5.55-2,15-4.05,34.65-4.05,3.15,0,3.75-3.9,3.75-7,0-6.15-3.15-6.45-3.15-6.45-12-4-26.1-5.7-39.6-5.7-6.45,0-10.95.9-14.1,2.25a17.72,17.72,0,0,0-8.55,3.9s-2,39.6-2,76.5c0,32.4,1.5,62.85,7,62.85,17.55,0,20.7-27.75,21-59.7h.15c15.3,0,32.25-6,38.1-8.7Zm57.25,49.65c-15.9,0-18-25.05-18-35.55,0-68.55,11.25-72.45,20.55-72.45,6,0,13.35,6.15,13.35,37,0,51.29-6.75,70.94-15.9,70.94ZM1296.93,711c0,38,20.55,45.45,37,45.45,14,0,27.45-4.05,36.3-14,9.9-10.8,20.4-32.4,20.4-74.85,0-41.4-41.1-43.35-48.9-43.35-26.1,0-44.85,22.8-44.85,86.7Zm99-66.15c0,4.65,3.75,6.45,7.8,6.45h.3c6.6,0,22-2.7,38-5.55-.3,7.5-.9,21.3-.9,38.1,0,12.6.3,26.85,1.35,40.8,2.4,31.05,10.65,35,15.9,35,7.8,0,11.55-4.65,11.55-13.35a56,56,0,0,0-1.2-11.1c-4.2-20.7-5-80.1-11.85-92.1,13-2.4,24.45-4.35,29.4-4.35h.15c13.05,0,19.35-2.1,19.35-5.55V633c0-3.45-.9-12.45-20-12.45-37,0-79.5,18.15-89.85,23.55v.75Zm152.9,99.45c-15.9,0-18-25.05-18-35.55,0-68.55,11.25-72.45,20.55-72.45,6,0,13.35,6.15,13.35,37,0,51.29-6.75,70.94-15.9,70.94ZM1500.93,711c0,38,20.55,45.45,37,45.45,14,0,27.45-4.05,36.3-14,9.9-10.8,20.4-32.4,20.4-74.85,0-41.4-41.1-43.35-48.9-43.35-26.1,0-44.85,22.8-44.85,86.7ZM697.53,879.68a12.41,12.41,0,0,0,1.35-4.8,3.6,3.6,0,0,0-2.1-3.45c-5.1-1.95-26.25-1-37.5-1.65.3-15.75,1.05-27.6,1.05-36.6,0-2.7,0-5.1-.15-7.35,5.55-2,15-4.05,34.65-4.05,3.15,0,3.75-3.9,3.75-7,0-6.15-3.15-6.45-3.15-6.45-12-4-26.1-5.7-39.6-5.7-6.45,0-11,.9-14.1,2.25a17.63,17.63,0,0,0-8.55,3.9s-1.95,39.6-1.95,76.5c0,32.4,1.5,62.85,7,62.85,17.55,0,20.7-27.75,21-59.7h.15c15.3,0,32.25-6,38.1-8.7Zm91.8,57.3c2.85-2.85,8.85-43.65,10.2-87,0-1.8.15-3.3.15-5,0-32.1-11.25-33.6-16.2-33.6-5.25,0-9.9,3.75-9.9,13.5a31.11,31.11,0,0,0,.3,5.1,97.15,97.15,0,0,1,.6,12.3c0,6.3-.3,13.65-.75,21.45-8.55,41.1-22.8,55.8-33,58h-.45c-2.7,0-3.6-5-3.6-12.75,0-22.64,8.25-69.9,8.25-92.1,0-3.6-12-5.1-18.45-5.1-8,0-10.8,15.45-10.8,15.45s-8.4,33.6-8.4,63.75c0,24.45,5.55,46.65,25.65,46.65,19.65,0,31.5-15.6,38.7-33.15v7c0,10.8.75,18.75,3.3,21,5.1,4.5,8.4,6.15,10.65,6.15a5.27,5.27,0,0,0,3.75-1.8ZM729.18,799.13c0,3.9,3.45,5.55,8.85,5.55,4.8,0,10.2-3.3,10.2-11.25,0-3.45-1.65-6.3-6.45-6.3C735.18,787.13,729.18,792.68,729.18,799.13ZM774.63,787c-6.45,0-10.35,4.8-10.35,10.65,0,3.6,2.55,6.45,7.65,6.45,6.45,0,12.45-5.1,12.45-9.75s-6-7.35-9.75-7.35Zm66,83.85c0-22.05-.6-39.6-2.25-50.7a17.15,17.15,0,0,1,9.45-2.4c8.85,0,13.8,16.2,13.8,31.2,0,12.75-3.6,24.6-11.25,24.6s-9-1.5-9.75-2.7Zm8.4-62.55a84,84,0,0,0-13.8,1.05,2.26,2.26,0,0,0-1.65-1.05c-18.45,0-20,6.75-21,62.25-.3,20-1.35,34.2-1.35,44.4,0,11,1.8,26.85,16.8,26.85a18.71,18.71,0,0,0,10.65-3.6s1.35-26.25,1.8-55.2a48.77,48.77,0,0,0,8.7.6H851c2.25,8.25,7.5,25,15.3,40.2,6,12,11.7,14.85,15.9,14.85,4,0,11.25-3,11.25-8.1,0-2.25-.9-5.1-3.9-8.85-6.15-7.95-15.45-30.75-23-40.95,14.55-6,16.65-20.4,16.65-33.3,0-16.65-11.25-39.15-34.2-39.15Zm136.7,67.05c0-23,0-39.9-2.1-51.3h2.4c23.4,0,27.9,26.85,27.9,47.54,0,22.8-2,52.65-28.8,57a142,142,0,0,0,.9-19.34c0-9.31-.3-20.7-.3-33.9Zm-18.9-69.15a6.31,6.31,0,0,0-5.4,2.25l-6,.75a7,7,0,0,0-.6,2.85,7.68,7.68,0,0,0,2.85,5.85c-2.7,12.15-4.35,36.9-4.35,87v.45c0,4.35.6,39.3,17.85,39.3a12.69,12.69,0,0,0,8.1-2.4c1.5.15,3.3.15,5.1.15,21.3,0,58.5-10,58.5-80.25,0-47.1-42-54.3-68.55-54.3a16.21,16.21,0,0,0-7.5-1.65Zm109.3,140.54s7.5-51,7.5-100.64c0-39.75-9.3-43.2-14.7-43.2-11.55,0-12.75,9.15-12.75,18.75,0,12.45,1.5,21,1.5,37.35,0,10.8-.15,22.8-.15,34.2,0,24.14.75,46,5,49.94,4,3.75,7.35,4.65,9.75,4.65a6.64,6.64,0,0,0,3.9-1Zm55.25-5.7c24.15,0,34-10,34-15.75,0-2.25-1.5-3.75-4.2-3.75-8.85,0-7.5,9.3-17.55,9.3-9.3,0-14.85-35-14.85-65.24,0-23.25,3.3-44,11.1-44,12.9,0,8.4,14.1,15.3,14.1,2.85,0,9-1.35,9-6.15,0-3.9-1.2-19.8-21.9-19.8-40.2,0-45.15,34.05-45.15,63s5,68.24,34.2,68.24ZM1238,808.88s-2.85,20.25-4.5,60.15c-8.1,3.59-18.15,5-26,5.4.3-17.4,1.05-30.3,1.05-39.9,0-10.66-1.65-28.95-16.5-28.95a18.17,18.17,0,0,0-10.8,4s-1.95,39.9-1.95,76.94c0,32.25,1.5,62.4,7,62.4,16.8,0,20.55-25.8,21-56.4a70.87,70.87,0,0,0,25.65-5.4c0,3-.15,6-.15,8.7,0,34.8,4.5,44.4,11.4,44.4,7.8,0,12.9-9.9,12.9-28.65s-7-15.9-7-101.4c0-7.05-3.6-8.55-6.45-8.55-5.4,0-5.7,7.21-5.7,7.21Zm50,114.6a15.82,15.82,0,0,0-5.1-.9c-10.2,0-15.6,9.15-15.6,11.7s4.8,9.6,10.8,9.6c5.4,0,14.85-7.8,14.85-14.25,0-2.41-1.35-4.66-5-6.16Z"/></g></svg>