<svg version="1.1" xmlns="http://www.w3.org/2000/svg" xmlns:xlink="http://www.w3.org/1999/xlink" x="0px" y="0px" width="138px" height="138px" viewBox="0 0 138 138" style="enable-background:new 0 0 138 138;" xml:space="preserve">
                            <path d="M66.5,21.3L29,43c-1.5,0.9-2.5,2.5-2.5,4.3v43.3c0,1.8,1,3.4,2.5,4.3l37.5,21.7c1.5,0.9,3.5,0.9,5,0L109,95
                        c1.5-0.9,2.5-2.5,2.5-4.3V46.5c0-1.3-0.7-2.4-1.8-3.1L71.5,21.3C70,20.5,68,20.5,66.5,21.3z M106.3,51v39.1c0,0.3-0.2,0.6-0.4,0.7
                        l-33.1,19.1c-0.5,0.3-1.2-0.1-1.2-0.7V70.1c0-0.3,0.2-0.6,0.4-0.7l33.1-19.1C105.6,50,106.3,50.4,106.3,51z M82.6,57.3l-13.2,7.6
                        c-0.2,0.1-0.5,0.1-0.8,0L36.3,46.2c-0.5-0.3-0.5-1.1,0-1.4l13.2-7.6c0.2-0.1,0.5-0.1,0.8,0l32.3,18.7C83.2,56.2,83.2,56.9,82.6,57.3
                        z M88.4,53.2L55.1,34l13.5-7.8c0.2-0.1,0.5-0.1,0.8,0l32.3,18.7c0.5,0.3,0.5,1.1,0,1.4l-12.5,7C89,53.3,88.7,53.3,88.4,53.2z
                        M66.4,70.1v39.1c0,0.6-0.7,1-1.2,0.7L32.1,90.8c-0.2-0.1-0.4-0.4-0.4-0.7V51c0-0.6,0.7-1,1.2-0.7L66,69.4
                        C66.2,69.6,66.4,69.8,66.4,70.1z"></path>
                            </svg>