<svg version="1.1" xmlns="http://www.w3.org/2000/svg" xmlns:xlink="http://www.w3.org/1999/xlink" x="0px" y="0px" width="138px" height="138px" viewBox="0 0 138 138" style="enable-background:new 0 0 138 138;" xml:space="preserve">
                                <path d="M112.2,25.8c-1.9-1.9-4.5-3-7.3-3H75.2c-3.4,0.1-6.5,1.5-8.6,3.8L27.3,66c-2.9,2.9-4.5,6.8-4.5,10.8c0,3.8,1.5,7.3,4.1,9.8
                                l24.6,24.6c2.6,2.6,6.1,4,9.9,4c4.1,0,7.9-1.6,10.7-4.5l39.3-39.3c2.3-2.3,3.6-5.4,3.8-8.7V33.1C115.2,30.3,114.1,27.7,112.2,25.8z
                                M109.9,62.7c0,1.8-0.8,3.6-2.2,5L68.3,107c-1.8,1.8-4.1,2.8-6.6,2.9h-0.2c-2.3,0-4.5-0.9-6.1-2.5L30.7,82.8
                                c-1.7-1.7-2.6-3.9-2.5-6.4s1.1-4.8,2.9-6.6l39.3-39.3c1.4-1.4,3.2-2.2,4.9-2.2H105c1.2,0,2.4,0.5,3.5,1.4c0.9,0.8,1.4,2,1.4,3.4
                                V62.7z M88.6,36.7c-3.4,0-6.6,1.3-9,3.7s-3.7,5.6-3.7,9c0,3.4,1.3,6.6,3.7,9c2.3,2.4,5.6,3.8,9.1,3.8s6.8-1.4,9-3.8
                                c5-5,5-13.1,0-18.1C95.2,38,92,36.7,88.6,36.7z M93.8,54.7c-2.8,2.8-7.6,2.8-10.5,0c-2.8-2.8-2.8-7.6,0-10.5
                                c1.4-1.4,3.2-2.2,5.2-2.2s3.8,0.7,5.2,2.2C96.7,47.1,96.7,51.9,93.8,54.7z"></path>
                                </svg>