<svg version="1.1" xmlns="http://www.w3.org/2000/svg" xmlns:xlink="http://www.w3.org/1999/xlink" x="0px" y="0px" width="138px" height="138px" viewBox="0 0 138 138" style="enable-background:new 0 0 138 138;" xml:space="preserve">
                            <path d="M69.2,118.5c-6.7,0-14.8-14.9-20.5-27.4c-5.4-12-11.8-29.5-11.8-39.2c0-17.9,14.5-32.4,32.3-32.4c13.5,0,25.7,8.5,30.3,21.2
                            c0.5,1.4-0.2,2.9-1.6,3.4c-0.3,0.1-0.6,0.2-0.9,0.2c-1.1,0-2.1-0.7-2.5-1.8c-3.8-10.5-14-17.7-25.3-17.7c-14.9,0-27,12.1-27,27
                            c0,7.1,4.5,21.8,11.1,36.5c8.2,18.3,14.2,24.6,15.9,24.9c5-0.7,22.8-34.8,26.4-56.3c0.1-0.6,0.1-1.4-0.2-1.8
                            c-0.1-0.2-0.7-0.7-2.6-0.7h-3.3c-0.7,0-1.3,0-2,0c-5.3,0-7.4-4-8.7-6.7l-0.1-0.2c-1.9-3.8-5.5-6.1-9.5-6.1
                            c-5.7,0-10.4,4.6-10.4,10.4c0,5.7,4.6,10.4,10.4,10.4c2.7,0,5.2-1,7.1-2.8c0.1,0,0.1-0.1,0.2-0.1c0.4-0.4,0.8-0.9,1.1-1.3
                            c0.5-0.7,1.3-1.1,2.2-1.1c0.6,0,1.1,0.2,1.5,0.5c1.2,0.9,1.5,2.5,0.6,3.7c-0.6,0.8-1.2,1.5-1.9,2.2c-0.1,0.1-0.2,0.1-0.2,0.2
                            c-2.9,2.6-6.6,4.1-10.5,4.1c-8.6,0-15.7-7-15.7-15.7s7-15.7,15.7-15.7c5.9,0,11.4,3.5,14.2,9.1l0.1,0.2c1.4,2.7,2.1,3.7,3.9,3.7
                            c0.7,0,1.4,0,2,0h3.4c3.7,0,5.7,1.4,6.7,2.6c0.9,1.1,1.9,3,1.4,6.1c-1.6,9.6-6.8,24.2-13.1,37.3C80.3,110.6,74.1,118.5,69.2,118.5z"></path>
                            </svg>