<svg version="1.1" xmlns="http://www.w3.org/2000/svg" xmlns:xlink="http://www.w3.org/1999/xlink" x="0px" y="0px" width="138px" height="138px" viewBox="0 0 138 138" style="enable-background:new 0 0 138 138;" xml:space="preserve">
                            <path d="M77.8,120.2c-0.4,0-0.9,0-1.4-0.2c-1.2-0.3-2.3-1.2-2.9-2.3l-1.1-2h-0.3c-0.9,0.1-1.9,0.2-2.9,0.2c-1.2,0-2.5-0.1-3.7-0.3
                            h-0.3l-1.2,2c-0.7,1.1-1.8,2-3,2.3c-0.4,0.1-0.8,0.2-1.2,0.2c-0.9,0-1.7-0.2-2.4-0.6l-3.7-2.2c-1.2-0.7-2-1.8-2.3-3.1
                            c-0.3-1.2-0.1-2.6,0.5-3.7l1.2-2l-0.2-0.2c-1.4-1.7-2.5-3.7-3.3-5.8l-0.1-0.3h-2.2c-1.5,0-2.7-0.6-3.5-1.6c-0.9-0.9-1.4-2.1-1.4-3.5
                            v-4.3c0-2.8,2.2-4.9,4.9-4.9h2.2l0.1-0.3c0.8-2.1,1.9-4,3.4-5.7l0.2-0.2l-1.1-1.8c-0.6-1.1-0.8-2.4-0.5-3.7c0.3-1.2,1.2-2.3,2.3-3
                            l3.7-2.2c0.7-0.4,1.6-0.6,2.5-0.6c0.4,0,0.8,0.1,1.2,0.2c1.2,0.3,2.3,1.2,3,2.3l1.1,2h0.3c0.9-0.1,1.9-0.2,2.9-0.2
                            c1.2,0,2.5,0.1,3.7,0.3h0.3l1.2-2c0.7-1.1,1.8-1.9,3-2.2c0.4-0.1,0.8-0.2,1.2-0.2c0.9,0,1.8,0.2,2.5,0.7l3.7,2.2
                            c1.1,0.7,1.9,1.8,2.2,3c0.3,1.3,0.1,2.6-0.5,3.7l-1.2,2l0.2,0.2c1.4,1.7,2.5,3.7,3.3,5.8l0.1,0.3h2.2c2.7,0,4.9,2.2,4.9,4.9v4.3
                            c0,1.5-0.6,2.7-1.6,3.5c-0.9,0.9-2.1,1.4-3.5,1.4h-2.2l-0.1,0.3c-0.8,2.1-1.9,4-3.4,5.7l-0.2,0.2l1.1,2c0.6,1.1,0.8,2.4,0.5,3.7
                            c-0.4,1.3-1.2,2.4-2.3,3l-3.6,2.1C79.3,120.2,78.4,120.2,77.8,120.2z M77.4,115.4c0.1,0.1,0.2,0.2,0.3,0.2l0.1,0.1h0.1
                            c0.1,0,0.1,0,0.3-0.1l3.7-2.1c0.3-0.2,0.2-0.6,0.2-0.6v-0.1l-2.8-4.7l1.2-1.2c1.9-1.8,3.3-4.2,4.2-7.1l0.5-1.6H91l0.1-0.2
                            c0,0,0.1-0.1,0.1-0.2v-4.3c0-0.3-0.2-0.5-0.4-0.5h-5.5l-0.5-1.6c-0.7-2.6-2.1-5.1-4.1-7.2L79.5,83l2.9-4.9v-0.2
                            c0-0.1-0.1-0.3-0.3-0.3L78,75.2l-0.2,0.1c-0.2,0.1-0.3,0.2-0.4,0.3l-2.8,4.8L73,79.8c-1.4-0.4-2.8-0.6-4.3-0.6
                            c-1.3,0-2.6,0.2-3.9,0.5l-1.7,0.5c0,0-2.5-4.8-2.5-4.9c-0.1-0.1-0.2-0.3-0.5-0.3c0,0-0.1,0-0.2,0.1s-3.6,2.1-3.7,2.2
                            c-0.2,0.1-0.4,0.2-0.3,0.5c0,0.1,2.7,4.9,2.7,4.9L57.5,84c-1.9,1.8-3.3,4.1-4.1,7l0,0.1l-0.6,1.5h-5.4c-0.3,0-0.4,0.2-0.5,0.4v4.6
                            l0.2,0.1c0,0,0.1,0.1,0.2,0.1h5.5l0.5,1.6c0.7,2.6,2.1,5.1,4.1,7.2l1.2,1.2l-2.9,4.9l0.1,0.2c0.1,0.2,0.2,0.3,0.3,0.4l3.8,2.2
                            l0.2-0.1c0.2-0.1,0.3-0.2,0.4-0.3l2.8-4.8l1.6,0.5c1.4,0.4,2.8,0.6,4.3,0.6c1.3,0,2.6-0.2,3.9-0.5l1.6-0.5L77.4,115.4z M69,85.7
                            c-5.3,0-9.6,4.3-9.6,9.6s4.3,9.6,9.6,9.6s9.6-4.3,9.6-9.6S74.3,85.7,69,85.7z M69,91.1c2.4,0,4.4,2,4.4,4.4s-2,4.4-4.4,4.4
                            s-4.4-2-4.4-4.4S66.6,91.1,69,91.1z M112.3,49.1l-2.8-26.6c-0.3-2.5-2.4-4.5-5-4.5h-5c-2.6,0-4.7,1.9-5,4.5l-2.9,26.7h-0.8
                            c-1.7,0-3.1,1.4-3.1,3.1v5.5h-4.5v-5.5c0-1.7-1.4-3.1-3.1-3.1h-0.6l-2.9-26.9c-0.3-2.5-2.4-4.5-5-4.5h-5c-2.6,0-4.7,1.9-5,4.5
                            l-2.9,26.8H58c-1.7,0-3.1,1.4-3.1,3.1v5.5h-4.5v-5.5c0-1.7-1.4-3.1-3.1-3.1h-0.5l-3-26.6c-0.3-2.5-2.4-4.5-5-4.5h-5
                            c-2.6,0-4.7,1.9-5,4.5l-2.7,24.7c-0.1,1.1-1,1.9-2.1,1.9l0,0c-1.7,0-3.1,1.4-3.1,3.1v36.6c0,2.8,2.2,5,5,5h9.6
                            c1.2,0,2.3-0.7,2.6-1.9c0.4-1.7-0.8-3.2-2.5-3.2h-8.1c-0.6,0-1-0.5-1-1V55.3c0-0.6,0.4-1,1-1h17.9c0.6,0,1,0.4,1,1v4.9
                            c0,1.5,1.3,2.8,2.8,2.8h7.3c1.5,0,2.8-1.3,2.8-2.8v-4.9c0-0.6,0.4-1,1-1h17.9c0.6,0,1,0.4,1,1v4.9c0,1.5,1.3,2.8,2.8,2.8h7.3
                            c1.5,0,2.8-1.3,2.8-2.8v-4.9c0-0.6,0.4-1,1-1H111c0.6,0,1,0.4,1,1v32.5c0,0.6-0.5,1-1,1h-8.3c-1.2,0-2.4,0.8-2.6,1.9
                            c-0.4,1.7,0.9,3.2,2.5,3.2h9.6c2.8,0,5-2.2,5-5V52.3c0-1.7-1.4-3.1-3.1-3.1h-1.8V49.1z M104.3,24.2l2.6,23.9c0.1,0.6-0.4,1.1-1,1.1
                            H98c-0.6,0-1.1-0.5-1-1.1l2.6-23.9c0.1-0.5,0.5-0.9,1-0.9h2.8C103.8,23.2,104.2,23.7,104.3,24.2z M71.4,24.1L74,48
                            c0.1,0.6-0.4,1.1-1,1.1h-8c-0.6,0-1.1-0.5-1-1.1l2.6-24c0.1-0.5,0.5-0.9,1-0.9h2.8C70.9,23.2,71.3,23.6,71.4,24.1z M38.6,24.2
                            L41.1,48c0.1,0.6-0.4,1.1-1,1.1h-7.9c-0.6,0-1.1-0.5-1-1.1l2.6-23.9c0.1-0.5,0.5-0.9,1-0.9h2.8C38.1,23.2,38.5,23.7,38.6,24.2z"></path>
                            </svg>