<?xml version="1.0" encoding="utf-8"?>
<!-- Generator: Adobe Illustrator 24.1.0, SVG Export Plug-In . SVG Version: 6.00 Build 0)  -->
<svg version="1.1" id="Ebene_1" xmlns="http://www.w3.org/2000/svg" xmlns:xlink="http://www.w3.org/1999/xlink" x="0px" y="0px"
	 viewBox="0 0 1920 1920" style="enable-background:new 0 0 1920 1920;" xml:space="preserve">
<style type="text/css">
	.st0{fill:#F5F5F5;}
	.st1{fill:#DDDDDD;}
	.st2{fill:#737373;}
</style>
<g id="stripes-brand-grey">
	<rect y="0" class="st0" width="1920" height="1920"/>
	<polygon class="st1" points="1267.67,0 939.37,0 0,939.37 0,1267.67 	"/>
	<polygon class="st1" points="0,285.92 0,614.22 614.22,0 285.92,0 	"/>
	<polygon class="st1" points="1920,0 1592.82,0 0,1592.82 0,1920 1.12,1920 1920,1.12 	"/>
	<polygon class="st1" points="1920,1308.01 1920,979.71 979.71,1920 1308.01,1920 	"/>
	<polygon class="st1" points="1920,1633.16 1633.16,1920 1920,1920 	"/>
	<polygon class="st1" points="1920,654.56 1920,326.26 326.26,1920 654.56,1920 	"/>
</g>
<g>
	<path class="st2" d="M299.97,888.16c7.55-43.45,15.5-63.85,23.87-71.6c3.47-3.26,7.75-4.28,13.46-4.28c3.26,0,7.75,1.02,13.67,4.9
		c13.46,9.18,18.77,120.77,29.17,155.04c1.84,6.12,2.45,11.02,2.45,15.1c0,10-3.26,15.5-14.08,15.5c-8.16,0-21.22-6.32-29.99-65.07
		c-6.12,0-16.52,0-25.7-0.61l-9.59,43.86c-2.04,8.98-2.24,10.4-8.16,10.4c-6.53,0-7.34-5.71-7.34-8.57
		C287.73,954.86,294.26,920.18,299.97,888.16z M316.7,919.57c5.92-1.02,10.81-1.22,14.08-1.22c3.26,0,5.1,0.2,5.1,0.2
		c-1.63-21.01-3.26-43.25-4.08-61.4C328.74,868.98,324.66,884.89,316.7,919.57z"/>
	<path class="st2" d="M504.99,993.83c-3.06,0-7.55-2.24-14.48-8.36c-3.47-3.06-4.49-13.87-4.49-28.56v-9.59
		c-9.79,23.87-25.91,45.08-52.63,45.08c-27.33,0-34.88-30.19-34.88-63.44c0-41,11.42-86.7,11.42-86.7s3.88-21.01,14.69-21.01
		c8.77,0,25.09,2.04,25.09,6.94c0,30.19-11.22,94.45-11.22,125.25c0,10.61,1.22,17.34,4.9,17.34h0.61
		c13.87-3.06,33.25-23.05,44.88-78.95c0.61-10.61,1.02-20.6,1.02-29.17c0-6.53-0.2-12.24-0.82-16.73c-0.41-2.45-0.41-4.9-0.41-6.94
		c0-13.26,6.32-18.36,13.46-18.36c6.73,0,22.03,2.04,22.03,45.69c0,2.24-0.2,4.28-0.2,6.73c-1.84,58.95-10,114.44-13.87,118.32
		C508.66,992.81,507.03,993.83,504.99,993.83z"/>
	<path class="st2" d="M617.39,831.45c0,2.04-2.04,8.16-7.55,8.16c-4.28,0-6.32-8.77-14.28-8.77c-7.34,0-17.75,4.28-17.75,30.4
		c0,51.81,32.03,60.59,32.03,95.47c0,28.56-20.4,41.82-48.35,41.82c-18.16,0-26.52-12.24-26.52-21.01c0-4.9,2.65-8.77,7.55-8.77
		c9.38,0,5.1,13.87,16.52,13.87c9.38,0,11.63-5.92,11.63-16.32c0-18.16-28.56-49.57-28.56-81.19c0-59.97,38.96-69.15,54.06-69.15
		C613.52,815.94,617.39,829.41,617.39,831.45z"/>
	<path class="st2" d="M638,822.27c3.06,0,7.14,1.43,13.87,5.3c12.24,7.34,16.32,92,24.68,128.92c5.3-17.14,8.98-33.66,37.54-120.36
		c2.24-6.53,7.75-8.36,11.22-8.36c3.67,0,5.92,2.45,5.92,6.53c0,2.04-0.41,3.67-0.41,3.67s-6.12,28.97-23.05,85.47
		c-15.71,52.84-24.89,67.73-32.64,67.73h-0.61c-0.41,0-0.82,0.2-1.22,0.2c-1.22,0-3.47,0.82-6.53,0.82
		c-8.16,0-20.81-5.92-27.13-48.14c-6.32-41-9.79-80.99-9.79-102.61c0-8.98,0.61-14.89,1.84-16.12
		C633.31,823.69,635.14,822.27,638,822.27z"/>
	<path class="st2" d="M782.02,914.47h-1.84c1.63,33.25,8.98,63.44,21.83,63.44c18.77,0,16.12-8.98,26.52-8.98
		c5.71,0,8.16,3.67,8.16,7.96c0,2.45-0.82,5.3-2.24,7.55c-3.67,5.71-12.04,9.59-29.38,9.59c-60.79,0-68.34-46.31-68.34-85.68
		c0-17.34,5.1-65.89,22.64-80.58c0-5.3,1.22-6.53,5.1-6.53c19.99,0,39.98,3.06,63.03,6.12c7.75,1.02,9.38,3.47,9.59,7.34v0.2
		c0,7.96-8.36,10.4-8.36,10.4s-12.24,4.08-43.25,4.9c-3.47,11.83-5.3,27.74-5.51,44.06H781c12.24,0,29.99,0.61,36.31,3.06
		c1.84,0.61,2.86,2.86,2.86,5.3c0,2.45-1.02,4.9-3.06,5.71C800.79,914.27,788.35,914.47,782.02,914.47z"/>
	<path class="st2" d="M948.89,869.59c0,17.54-2.86,37.13-22.64,45.29c10.2,13.87,22.85,44.88,31.21,55.69
		c4.08,5.1,5.3,8.98,5.3,12.04c0,6.94-9.79,11.02-15.3,11.02c-5.71,0-13.46-3.88-21.62-20.2c-10.61-20.6-17.75-43.45-20.81-54.67
		h-2.45c-4.69,0-8.57-0.2-11.83-0.82c-0.61,39.37-2.45,75.07-2.45,75.07s-6.12,4.9-14.48,4.9c-20.4,0-22.85-21.62-22.85-36.51
		c0-13.87,1.43-33.25,1.84-60.38c1.43-75.48,3.47-84.66,28.56-84.66c0.82,0,1.63,0.61,2.24,1.43c4.9-0.82,11.22-1.43,18.77-1.43
		C933.59,816.35,948.89,846.95,948.89,869.59z M904.22,905.09c10.4,0,15.3-16.12,15.3-33.46c0-20.4-6.73-42.43-18.77-42.43
		c-6.73,0-9.79,1.63-12.85,3.26c2.24,15.1,3.06,38.96,3.06,68.95C891.98,903.05,893.81,905.09,904.22,905.09z"/>
	<path class="st2" d="M1068.84,824.1c3.47,0,4.69,3.06,4.69,6.53c0,3.26-0.82,6.32-0.82,6.32c-4.9,19.79-30.19,51.61-48.96,72.83
		c14.28,12.85,36.31,47.53,48.14,58.55c6.73,6.32,8.77,11.22,8.77,15.1c0,6.94-9.38,14.89-16.52,14.89
		c-5.92,0-14.08-4.08-24.68-18.36c-11.02-14.69-20.81-30.8-27.74-43.66c-0.82,34.88-2.04,63.24-2.04,63.24s-5.71,5.71-13.26,5.71
		c-18.36,0-19.79-24.28-19.79-38.55c0-15.71,1.22-37.54,1.22-69.15c0-46.1,3.26-87.51,25.7-87.51c6.53,0,8.36,39.37,8.57,82.21
		c17.34-25.5,35.9-44.67,47.33-59.97C1059.46,832.26,1064.97,824.1,1068.84,824.1z"/>
	<path class="st2" d="M1097,888.16c7.55-43.45,15.5-63.85,23.87-71.6c3.47-3.26,7.75-4.28,13.46-4.28c3.26,0,7.75,1.02,13.67,4.9
		c13.46,9.18,18.77,120.77,29.17,155.04c1.84,6.12,2.45,11.02,2.45,15.1c0,10-3.26,15.5-14.08,15.5c-8.16,0-21.21-6.32-29.99-65.07
		c-6.12,0-16.52,0-25.7-0.61l-9.59,43.86c-2.04,8.98-2.24,10.4-8.16,10.4c-6.53,0-7.34-5.71-7.34-8.57
		C1084.76,954.86,1091.28,920.18,1097,888.16z M1113.72,919.57c5.92-1.02,10.81-1.22,14.08-1.22c3.26,0,5.1,0.2,5.1,0.2
		c-1.63-21.01-3.26-43.25-4.08-61.4C1125.76,868.98,1121.68,884.89,1113.72,919.57z"/>
	<path class="st2" d="M1302.01,993.83c-3.06,0-7.55-2.24-14.48-8.36c-3.47-3.06-4.49-13.87-4.49-28.56v-9.59
		c-9.79,23.87-25.91,45.08-52.63,45.08c-27.33,0-34.88-30.19-34.88-63.44c0-41,11.42-86.7,11.42-86.7s3.88-21.01,14.69-21.01
		c8.77,0,25.09,2.04,25.09,6.94c0,30.19-11.22,94.45-11.22,125.25c0,10.61,1.22,17.34,4.9,17.34h0.61
		c13.87-3.06,33.25-23.05,44.88-78.95c0.61-10.61,1.02-20.6,1.02-29.17c0-6.53-0.2-12.24-0.82-16.73c-0.41-2.45-0.41-4.9-0.41-6.94
		c0-13.26,6.32-18.36,13.46-18.36c6.73,0,22.03,2.04,22.03,45.69c0,2.24-0.2,4.28-0.2,6.73c-1.84,58.95-10,114.44-13.87,118.32
		C1305.68,992.81,1304.05,993.83,1302.01,993.83z"/>
	<path class="st2" d="M1375.45,925.28h-0.2c-0.41,43.45-4.69,81.19-28.56,81.19c-7.55,0-9.59-41.41-9.59-85.47
		c0-50.18,2.65-104.04,2.65-104.04s4.69-4.28,11.63-5.3c4.28-1.84,10.4-3.06,19.17-3.06c18.36,0,37.54,2.24,53.86,7.75
		c0,0,4.28,0.41,4.28,8.77c0,4.28-0.82,9.59-5.1,9.59c-26.72,0-39.58,2.86-47.12,5.51c0.2,3.06,0.2,6.32,0.2,10
		c0,12.24-1.02,28.35-1.43,49.77c15.3,0.82,44.06-0.41,51,2.24c1.63,0.82,2.86,2.24,2.86,4.69c0,1.63-0.61,3.88-1.84,6.53
		C1419.31,917.12,1396.26,925.28,1375.45,925.28z"/>
	<path class="st2" d="M1425.03,844.71c14.08-7.34,71.81-32.03,122.19-32.03c25.91,0,27.13,12.24,27.13,16.93v0.2
		c0,4.69-8.57,7.55-26.32,7.55h-0.2c-6.73,0-22.24,2.65-39.98,5.92c9.38,16.32,10.4,97.1,16.12,125.25
		c1.22,6.12,1.63,11.02,1.63,15.1c0,11.83-5.1,18.16-15.71,18.16c-7.14,0-18.36-5.3-21.62-47.53c-1.43-18.97-1.84-38.35-1.84-55.49
		c0-22.85,0.82-41.62,1.22-51.81c-21.62,3.88-42.63,7.55-51.61,7.55h-0.41c-5.51,0-10.61-2.45-10.61-8.77V844.71z"/>
	<path class="st2" d="M1597.81,1018.31c-6.53,0-12.44-5.71-12.44-12.65c0-5.1,5.1-8.98,10.4-8.98c6.73,0,13.26,5.71,13.26,11.63
		C1609.03,1014.02,1603.32,1018.31,1597.81,1018.31z M1603.52,973.63c14.48,0,17.95-45.29,24.48-110.97
		c0.61-6.53,0.82-12.04,0.82-16.93c0-31.42-11.63-33.46-17.54-33.46c-8.16,0-16.73,2.86-16.73,25.91c0,3.47,0.41,7.14,0.41,14.08
		c0,31.01-3.26,62.22-3.26,94.45C1591.69,957.52,1592.92,972.61,1603.52,973.63z"/>
</g>
<g>
	<path class="st2" d="M609.12,609.22h-8.44v-63.98h8.44V609.22z"/>
	<path class="st2" d="M642.35,603.46c2.9,0,5.43-0.88,7.6-2.64c2.17-1.76,3.37-3.96,3.6-6.59h7.69c-0.15,2.72-1.08,5.32-2.81,7.78
		c-1.73,2.46-4.04,4.42-6.92,5.89c-2.89,1.46-5.94,2.2-9.16,2.2c-6.48,0-11.62-2.16-15.45-6.48c-3.82-4.32-5.73-10.23-5.73-17.73
		v-1.36c0-4.63,0.85-8.75,2.55-12.35c1.7-3.6,4.14-6.4,7.32-8.39c3.18-1.99,6.94-2.99,11.27-2.99c5.33,0,9.76,1.6,13.29,4.79
		c3.53,3.19,5.41,7.34,5.65,12.44h-7.69c-0.23-3.08-1.4-5.6-3.49-7.58c-2.09-1.98-4.68-2.97-7.76-2.97c-4.13,0-7.33,1.49-9.6,4.46
		c-2.27,2.97-3.41,7.27-3.41,12.9v1.54c0,5.48,1.13,9.7,3.38,12.66C634.93,601.98,638.16,603.46,642.35,603.46z"/>
	<path class="st2" d="M678.51,567.43c3.6-4.42,8.29-6.64,14.06-6.64c10.05,0,15.12,5.67,15.21,17.01v31.42h-8.13v-31.46
		c-0.03-3.43-0.81-5.96-2.35-7.6c-1.54-1.64-3.93-2.46-7.19-2.46c-2.64,0-4.95,0.7-6.94,2.11c-1.99,1.41-3.54,3.25-4.66,5.54v33.88
		h-8.13v-67.5h8.13V567.43z"/>
	<path class="st2" d="M749.88,561.67l0.22,5.27c3.49-4.1,8.19-6.15,14.11-6.15c6.65,0,11.18,2.55,13.58,7.65
		c1.58-2.29,3.64-4.13,6.17-5.54c2.53-1.41,5.53-2.11,8.99-2.11c10.43,0,15.73,5.52,15.91,16.57v31.86h-8.13v-31.38
		c0-3.4-0.78-5.94-2.33-7.62c-1.55-1.68-4.16-2.53-7.82-2.53c-3.02,0-5.52,0.9-7.51,2.7c-1.99,1.8-3.15,4.23-3.47,7.27v31.55h-8.17
		v-31.16c0-6.91-3.38-10.37-10.15-10.37c-5.33,0-8.98,2.27-10.94,6.81v34.72h-8.13v-47.55H749.88z"/>
	<path class="st2" d="M850.47,604.52c-3.16,3.72-7.81,5.58-13.93,5.58c-5.07,0-8.93-1.47-11.58-4.42c-2.65-2.94-3.99-7.3-4.02-13.07
		v-30.94h8.13v30.72c0,7.21,2.93,10.81,8.79,10.81c6.21,0,10.34-2.31,12.39-6.94v-34.58h8.13v47.55h-7.73L850.47,604.52z"/>
	<path class="st2" d="M898.42,596.61c0-2.2-0.83-3.9-2.48-5.12c-1.66-1.22-4.54-2.26-8.66-3.14c-4.12-0.88-7.38-1.93-9.8-3.16
		s-4.2-2.7-5.36-4.39c-1.16-1.7-1.74-3.72-1.74-6.06c0-3.9,1.65-7.19,4.94-9.89c3.3-2.7,7.51-4.04,12.63-4.04
		c5.39,0,9.76,1.39,13.12,4.17c3.35,2.78,5.03,6.34,5.03,10.68h-8.17c0-2.23-0.94-4.15-2.83-5.76c-1.89-1.61-4.27-2.42-7.14-2.42
		c-2.96,0-5.27,0.64-6.94,1.93c-1.67,1.29-2.5,2.97-2.5,5.05c0,1.96,0.78,3.44,2.33,4.44c1.55,1,4.36,1.95,8.42,2.86
		c4.06,0.91,7.35,1.99,9.87,3.25c2.52,1.26,4.39,2.78,5.6,4.55c1.22,1.77,1.82,3.93,1.82,6.48c0,4.25-1.7,7.65-5.1,10.22
		c-3.4,2.56-7.81,3.85-13.23,3.85c-3.81,0-7.18-0.67-10.11-2.02c-2.93-1.35-5.22-3.23-6.88-5.65c-1.66-2.42-2.48-5.03-2.48-7.84
		h8.13c0.15,2.72,1.24,4.89,3.27,6.48c2.04,1.6,4.72,2.4,8.06,2.4c3.08,0,5.54-0.62,7.4-1.87
		C897.48,600.35,898.42,598.69,898.42,596.61z"/>
	<path class="st2" d="M944.82,596.61c0-2.2-0.83-3.9-2.48-5.12c-1.66-1.22-4.54-2.26-8.66-3.14c-4.12-0.88-7.38-1.93-9.8-3.16
		s-4.2-2.7-5.36-4.39c-1.16-1.7-1.74-3.72-1.74-6.06c0-3.9,1.65-7.19,4.94-9.89c3.3-2.7,7.51-4.04,12.63-4.04
		c5.39,0,9.76,1.39,13.12,4.17c3.35,2.78,5.03,6.34,5.03,10.68h-8.17c0-2.23-0.94-4.15-2.83-5.76c-1.89-1.61-4.27-2.42-7.14-2.42
		c-2.96,0-5.27,0.64-6.94,1.93c-1.67,1.29-2.5,2.97-2.5,5.05c0,1.96,0.78,3.44,2.33,4.44c1.55,1,4.36,1.95,8.42,2.86
		c4.06,0.91,7.35,1.99,9.87,3.25c2.52,1.26,4.39,2.78,5.6,4.55c1.22,1.77,1.82,3.93,1.82,6.48c0,4.25-1.7,7.65-5.1,10.22
		c-3.4,2.56-7.81,3.85-13.23,3.85c-3.81,0-7.18-0.67-10.11-2.02c-2.93-1.35-5.22-3.23-6.88-5.65c-1.66-2.42-2.48-5.03-2.48-7.84
		h8.13c0.15,2.72,1.24,4.89,3.27,6.48c2.04,1.6,4.72,2.4,8.06,2.4c3.08,0,5.54-0.62,7.4-1.87
		C943.89,600.35,944.82,598.69,944.82,596.61z"/>
	<path class="st2" d="M983.84,585.05c0-7.29,1.73-13.16,5.19-17.6c3.46-4.44,7.98-6.66,13.58-6.66c5.57,0,9.98,1.9,13.23,5.71
		v-24.79h8.13v67.5h-7.47l-0.4-5.1c-3.25,3.98-7.78,5.98-13.58,5.98c-5.51,0-10-2.26-13.47-6.77c-3.47-4.51-5.21-10.4-5.21-17.67
		V585.05z M991.97,585.97c0,5.39,1.11,9.61,3.34,12.66c2.23,3.05,5.3,4.57,9.23,4.57c5.16,0,8.92-2.31,11.29-6.94v-21.84
		c-2.43-4.48-6.17-6.72-11.21-6.72c-3.98,0-7.09,1.54-9.32,4.61C993.09,575.38,991.97,579.94,991.97,585.97z"/>
	<path class="st2" d="M1036.62,549.06c0-1.32,0.4-2.43,1.21-3.34c0.81-0.91,2-1.36,3.58-1.36s2.78,0.45,3.6,1.36
		c0.82,0.91,1.23,2.02,1.23,3.34s-0.41,2.42-1.23,3.3c-0.82,0.88-2.02,1.32-3.6,1.32s-2.78-0.44-3.58-1.32
		S1036.62,550.38,1036.62,549.06z M1045.41,609.22h-8.13v-47.55h8.13V609.22z"/>
	<path class="st2" d="M1081.4,568.97c-1.23-0.2-2.56-0.31-4-0.31c-5.33,0-8.95,2.27-10.85,6.81v33.75h-8.13v-47.55h7.91l0.13,5.49
		c2.67-4.25,6.45-6.37,11.34-6.37c1.58,0,2.78,0.21,3.6,0.62V568.97z"/>
	<path class="st2" d="M1119.99,609.22h-8.13v-67.5h8.13V609.22z"/>
	<path class="st2" d="M1152.73,610.1c-6.45,0-11.69-2.12-15.73-6.35c-4.04-4.23-6.06-9.89-6.06-16.98v-1.49
		c0-4.72,0.9-8.93,2.7-12.63c1.8-3.71,4.32-6.61,7.56-8.7c3.24-2.09,6.75-3.14,10.53-3.14c6.18,0,10.99,2.04,14.41,6.11
		c3.43,4.07,5.14,9.9,5.14,17.49v3.38h-32.21c0.12,4.69,1.49,8.47,4.11,11.36c2.62,2.89,5.95,4.33,10,4.33
		c2.87,0,5.3-0.59,7.29-1.76c1.99-1.17,3.74-2.72,5.23-4.66l4.97,3.87C1166.67,607.04,1160.7,610.1,1152.73,610.1z M1151.72,567.47
		c-3.28,0-6.04,1.19-8.26,3.58c-2.23,2.39-3.6,5.73-4.13,10.04h23.82v-0.62c-0.23-4.13-1.35-7.33-3.34-9.6
		C1157.81,568.61,1155.11,567.47,1151.72,567.47z"/>
	<path class="st2" d="M1180.72,549.06c0-1.32,0.4-2.43,1.21-3.34c0.81-0.91,2-1.36,3.58-1.36s2.78,0.45,3.6,1.36
		c0.82,0.91,1.23,2.02,1.23,3.34s-0.41,2.42-1.23,3.3s-2.02,1.32-3.6,1.32s-2.78-0.44-3.58-1.32S1180.72,550.38,1180.72,549.06z
		 M1189.51,609.22h-8.13v-47.55h8.13V609.22z"/>
	<path class="st2" d="M1200.54,585.05c0-7.29,1.73-13.16,5.19-17.6s7.98-6.66,13.58-6.66c5.57,0,9.98,1.9,13.23,5.71v-24.79h8.13
		v67.5h-7.47l-0.4-5.1c-3.25,3.98-7.78,5.98-13.58,5.98c-5.51,0-10-2.26-13.47-6.77c-3.47-4.51-5.21-10.4-5.21-17.67V585.05z
		 M1208.67,585.97c0,5.39,1.11,9.61,3.34,12.66c2.23,3.05,5.3,4.57,9.23,4.57c5.16,0,8.92-2.31,11.29-6.94v-21.84
		c-2.43-4.48-6.17-6.72-11.21-6.72c-3.98,0-7.09,1.54-9.32,4.61S1208.67,579.94,1208.67,585.97z"/>
	<path class="st2" d="M1273,610.1c-6.45,0-11.69-2.12-15.73-6.35c-4.04-4.23-6.06-9.89-6.06-16.98v-1.49c0-4.72,0.9-8.93,2.7-12.63
		c1.8-3.71,4.32-6.61,7.56-8.7c3.24-2.09,6.75-3.14,10.53-3.14c6.18,0,10.99,2.04,14.41,6.11c3.43,4.07,5.14,9.9,5.14,17.49v3.38
		h-32.21c0.12,4.69,1.49,8.47,4.11,11.36c2.62,2.89,5.95,4.33,10,4.33c2.87,0,5.3-0.59,7.29-1.76c1.99-1.17,3.74-2.72,5.23-4.66
		l4.97,3.87C1286.95,607.04,1280.97,610.1,1273,610.1z M1271.99,567.47c-3.28,0-6.04,1.19-8.26,3.58c-2.23,2.39-3.6,5.73-4.13,10.04
		h23.82v-0.62c-0.23-4.13-1.35-7.33-3.34-9.6C1278.09,568.61,1275.39,567.47,1271.99,567.47z"/>
	<path class="st2" d="M1323.94,568.97c-1.23-0.2-2.56-0.31-4-0.31c-5.33,0-8.95,2.27-10.85,6.81v33.75h-8.13v-47.55h7.91l0.13,5.49
		c2.67-4.25,6.45-6.37,11.34-6.37c1.58,0,2.78,0.21,3.6,0.62V568.97z"/>
	<path class="st2" d="M273.47,685.05c0-7.29,1.73-13.16,5.19-17.6c3.46-4.44,7.98-6.66,13.58-6.66c5.57,0,9.98,1.9,13.23,5.71
		v-24.79h8.13v67.5h-7.47l-0.4-5.1c-3.25,3.98-7.78,5.98-13.58,5.98c-5.51,0-10-2.26-13.47-6.77c-3.47-4.51-5.21-10.4-5.21-17.67
		V685.05z M281.6,685.97c0,5.39,1.11,9.61,3.34,12.66c2.23,3.05,5.3,4.57,9.23,4.57c5.16,0,8.92-2.31,11.29-6.94v-21.84
		c-2.43-4.48-6.17-6.72-11.21-6.72c-3.98,0-7.09,1.54-9.32,4.61C282.71,675.38,281.6,679.94,281.6,685.97z"/>
	<path class="st2" d="M326.25,649.06c0-1.32,0.4-2.43,1.21-3.34c0.81-0.91,2-1.36,3.58-1.36s2.78,0.45,3.6,1.36
		c0.82,0.91,1.23,2.02,1.23,3.34s-0.41,2.42-1.23,3.3c-0.82,0.88-2.02,1.32-3.6,1.32s-2.78-0.44-3.58-1.32
		C326.65,651.48,326.25,650.38,326.25,649.06z M335.04,709.22h-8.13v-47.55h8.13V709.22z"/>
	<path class="st2" d="M367.78,710.1c-6.45,0-11.69-2.12-15.73-6.35c-4.04-4.23-6.06-9.89-6.06-16.98v-1.49
		c0-4.72,0.9-8.93,2.7-12.63c1.8-3.71,4.32-6.61,7.56-8.7c3.24-2.09,6.75-3.14,10.52-3.14c6.18,0,10.99,2.04,14.41,6.11
		c3.43,4.07,5.14,9.9,5.14,17.49v3.38h-32.21c0.12,4.69,1.49,8.47,4.11,11.36c2.62,2.89,5.95,4.33,10,4.33
		c2.87,0,5.3-0.59,7.29-1.76c1.99-1.17,3.74-2.72,5.23-4.66l4.97,3.87C381.72,707.04,375.74,710.1,367.78,710.1z M366.76,667.47
		c-3.28,0-6.04,1.19-8.26,3.58c-2.23,2.39-3.6,5.73-4.13,10.04h23.82v-0.62c-0.23-4.13-1.35-7.33-3.34-9.6
		C372.86,668.61,370.16,667.47,366.76,667.47z"/>
	<path class="st2" d="M431.28,687.2l-5.1,5.32v16.7h-8.13v-67.5h8.13v40.83l4.35-5.23l14.81-15.64h9.89l-18.5,19.86l20.65,27.69
		h-9.54L431.28,687.2z"/>
	<path class="st2" d="M492.98,704.52c-3.16,3.72-7.81,5.58-13.93,5.58c-5.07,0-8.93-1.47-11.58-4.42c-2.65-2.94-3.99-7.3-4.02-13.07
		v-30.94h8.13v30.72c0,7.21,2.93,10.81,8.79,10.81c6.21,0,10.34-2.31,12.39-6.94v-34.58h8.13v47.55h-7.73L492.98,704.52z
		 M468.23,648.95c0-1.32,0.4-2.44,1.21-3.33c0.81-0.9,2-1.35,3.58-1.35s2.78,0.45,3.6,1.35c0.82,0.9,1.23,2.01,1.23,3.33
		c0,1.32-0.41,2.43-1.23,3.31c-0.82,0.88-2.02,1.32-3.6,1.32s-2.78-0.44-3.58-1.32C468.64,651.38,468.23,650.27,468.23,648.95z
		 M487.13,649.04c0-1.32,0.4-2.44,1.21-3.35c0.81-0.91,2-1.37,3.58-1.37s2.78,0.46,3.6,1.37c0.82,0.91,1.23,2.03,1.23,3.36
		c0,1.32-0.41,2.43-1.23,3.31c-0.82,0.88-2.02,1.32-3.6,1.32s-2.78-0.44-3.58-1.32C487.53,651.47,487.13,650.36,487.13,649.04z"/>
	<path class="st2" d="M536.22,668.97c-1.23-0.2-2.56-0.31-4-0.31c-5.33,0-8.95,2.27-10.85,6.81v33.75h-8.13v-47.55h7.91l0.13,5.49
		c2.67-4.25,6.44-6.37,11.34-6.37c1.58,0,2.78,0.21,3.6,0.62V668.97z"/>
	<path class="st2" d="M551.33,702.58h27.82v6.64H541.4v-5.98l26.24-34.85H541.8v-6.72h36.04v5.76L551.33,702.58z"/>
	<path class="st2" d="M607.32,710.1c-6.45,0-11.69-2.12-15.73-6.35c-4.04-4.23-6.06-9.89-6.06-16.98v-1.49
		c0-4.72,0.9-8.93,2.7-12.63c1.8-3.71,4.32-6.61,7.56-8.7c3.24-2.09,6.75-3.14,10.52-3.14c6.18,0,10.99,2.04,14.41,6.11
		c3.43,4.07,5.14,9.9,5.14,17.49v3.38h-32.21c0.12,4.69,1.49,8.47,4.11,11.36c2.62,2.89,5.95,4.33,10,4.33
		c2.87,0,5.3-0.59,7.29-1.76c1.99-1.17,3.74-2.72,5.23-4.66l4.97,3.87C621.27,707.04,615.29,710.1,607.32,710.1z M606.31,667.47
		c-3.28,0-6.04,1.19-8.26,3.58c-2.23,2.39-3.6,5.73-4.13,10.04h23.82v-0.62c-0.23-4.13-1.35-7.33-3.34-9.6
		C612.4,668.61,609.71,667.47,606.31,667.47z"/>
	<path class="st2" d="M662.96,696.61c0-2.2-0.83-3.9-2.48-5.12c-1.66-1.22-4.54-2.26-8.66-3.14c-4.12-0.88-7.38-1.93-9.8-3.16
		s-4.2-2.7-5.36-4.39c-1.16-1.7-1.74-3.72-1.74-6.06c0-3.9,1.65-7.19,4.94-9.89c3.3-2.7,7.51-4.04,12.63-4.04
		c5.39,0,9.76,1.39,13.12,4.17c3.35,2.78,5.03,6.34,5.03,10.68h-8.17c0-2.23-0.94-4.15-2.83-5.76c-1.89-1.61-4.27-2.42-7.14-2.42
		c-2.96,0-5.27,0.64-6.94,1.93c-1.67,1.29-2.5,2.97-2.5,5.05c0,1.96,0.78,3.44,2.33,4.44c1.55,1,4.36,1.95,8.42,2.86
		c4.06,0.91,7.35,1.99,9.87,3.25c2.52,1.26,4.39,2.78,5.6,4.55c1.22,1.77,1.82,3.93,1.82,6.48c0,4.25-1.7,7.65-5.1,10.22
		c-3.4,2.56-7.81,3.85-13.23,3.85c-3.81,0-7.18-0.67-10.11-2.02c-2.93-1.35-5.22-3.23-6.88-5.65c-1.66-2.42-2.48-5.03-2.48-7.84
		h8.13c0.15,2.72,1.24,4.89,3.27,6.48c2.04,1.6,4.72,2.4,8.06,2.4c3.08,0,5.54-0.62,7.4-1.87
		C662.03,700.35,662.96,698.69,662.96,696.61z"/>
	<path class="st2" d="M692.71,650.16v11.51h8.88v6.28h-8.88v29.52c0,1.91,0.4,3.34,1.19,4.29s2.14,1.43,4.04,1.43
		c0.94,0,2.23-0.18,3.87-0.53v6.55c-2.14,0.58-4.22,0.87-6.24,0.87c-3.63,0-6.37-1.1-8.22-3.3s-2.77-5.32-2.77-9.36v-29.49h-8.66
		v-6.28h8.66v-11.51H692.71z"/>
	<path class="st2" d="M730.81,710.1c-6.45,0-11.69-2.12-15.73-6.35c-4.04-4.23-6.06-9.89-6.06-16.98v-1.49
		c0-4.72,0.9-8.93,2.7-12.63c1.8-3.71,4.32-6.61,7.56-8.7c3.24-2.09,6.75-3.14,10.52-3.14c6.18,0,10.99,2.04,14.41,6.11
		c3.43,4.07,5.14,9.9,5.14,17.49v3.38h-32.21c0.12,4.69,1.49,8.47,4.11,11.36c2.62,2.89,5.95,4.33,10,4.33
		c2.87,0,5.3-0.59,7.29-1.76c1.99-1.17,3.74-2.72,5.23-4.66l4.97,3.87C744.75,707.04,738.78,710.1,730.81,710.1z M729.8,667.47
		c-3.28,0-6.04,1.19-8.26,3.58c-2.23,2.39-3.6,5.73-4.13,10.04h23.82v-0.62c-0.23-4.13-1.35-7.33-3.34-9.6
		C735.89,668.61,733.2,667.47,729.8,667.47z"/>
	<path class="st2" d="M831.49,709.22H823v-29.58h-32.26v29.58h-8.44v-63.98h8.44v27.51H823v-27.51h8.48V709.22z"/>
	<path class="st2" d="M843.04,685.01c0-4.66,0.92-8.85,2.75-12.57c1.83-3.72,4.38-6.59,7.65-8.61c3.27-2.02,6.99-3.03,11.18-3.03
		c6.47,0,11.71,2.24,15.71,6.72s6,10.44,6,17.89v0.57c0,4.63-0.89,8.78-2.66,12.46c-1.77,3.68-4.31,6.54-7.6,8.59
		c-3.3,2.05-7.08,3.08-11.36,3.08c-6.45,0-11.67-2.24-15.67-6.72s-6-10.42-6-17.8V685.01z M851.22,685.97
		c0,5.27,1.22,9.51,3.67,12.7c2.45,3.19,5.72,4.79,9.82,4.79c4.13,0,7.41-1.62,9.84-4.86c2.43-3.24,3.65-7.77,3.65-13.6
		c0-5.21-1.24-9.44-3.71-12.68c-2.48-3.24-5.76-4.86-9.87-4.86c-4.01,0-7.25,1.6-9.71,4.79
		C852.45,675.46,851.22,680.03,851.22,685.97z"/>
	<path class="st2" d="M919.51,668.97c-1.23-0.2-2.56-0.31-4-0.31c-5.33,0-8.95,2.27-10.85,6.81v33.75h-8.13v-47.55h7.91l0.13,5.49
		c2.67-4.25,6.44-6.37,11.34-6.37c1.58,0,2.78,0.21,3.6,0.62V668.97z"/>
	<path class="st2" d="M949.96,668.97c-1.23-0.2-2.56-0.31-4-0.31c-5.33,0-8.95,2.27-10.85,6.81v33.75h-8.13v-47.55h7.91l0.13,5.49
		c2.67-4.25,6.44-6.37,11.34-6.37c1.58,0,2.78,0.21,3.6,0.62V668.97z"/>
	<path class="st2" d="M954.4,685.01c0-4.66,0.92-8.85,2.75-12.57c1.83-3.72,4.38-6.59,7.65-8.61s6.99-3.03,11.18-3.03
		c6.47,0,11.71,2.24,15.71,6.72s6,10.44,6,17.89v0.57c0,4.63-0.89,8.78-2.66,12.46c-1.77,3.68-4.31,6.54-7.6,8.59
		c-3.3,2.05-7.08,3.08-11.36,3.08c-6.45,0-11.67-2.24-15.67-6.72c-4-4.48-6-10.42-6-17.8V685.01z M962.58,685.97
		c0,5.27,1.22,9.51,3.67,12.7c2.45,3.19,5.72,4.79,9.82,4.79c4.13,0,7.41-1.62,9.84-4.86c2.43-3.24,3.65-7.77,3.65-13.6
		c0-5.21-1.24-9.44-3.71-12.68c-2.48-3.24-5.76-4.86-9.87-4.86c-4.01,0-7.25,1.6-9.71,4.79
		C963.81,675.46,962.58,680.03,962.58,685.97z"/>
	<path class="st2" d="M1030.87,668.97c-1.23-0.2-2.56-0.31-4-0.31c-5.33,0-8.95,2.27-10.85,6.81v33.75h-8.13v-47.55h7.91l0.13,5.49
		c2.67-4.25,6.44-6.37,11.34-6.37c1.58,0,2.78,0.21,3.6,0.62V668.97z"/>
	<path class="st2" d="M1055.26,685.36h-21.45v-6.64h21.45V685.36z"/>
	<path class="st2" d="M1083.29,680.7c-7.24-2.08-12.5-4.64-15.8-7.67c-3.29-3.03-4.94-6.77-4.94-11.23c0-5.04,2.01-9.21,6.04-12.5
		c4.03-3.3,9.26-4.94,15.71-4.94c4.39,0,8.31,0.85,11.75,2.55c3.44,1.7,6.11,4.04,8,7.03c1.89,2.99,2.83,6.26,2.83,9.8h-8.48
		c0-3.88-1.23-6.93-3.69-9.15c-2.46-2.22-5.93-3.33-10.42-3.33c-4.16,0-7.41,0.92-9.73,2.75c-2.33,1.83-3.49,4.38-3.49,7.64
		c0,2.61,1.11,4.82,3.32,6.63c2.21,1.81,5.98,3.46,11.29,4.95c5.32,1.5,9.48,3.15,12.48,4.95s5.23,3.9,6.68,6.31
		c1.45,2.4,2.18,5.23,2.18,8.48c0,5.19-2.02,9.34-6.06,12.46s-9.45,4.68-16.22,4.68c-4.39,0-8.5-0.84-12.3-2.53
		s-6.75-3.99-8.81-6.92c-2.06-2.93-3.1-6.25-3.1-9.98h8.48c0,3.87,1.43,6.92,4.28,9.16c2.86,2.24,6.67,3.36,11.45,3.36
		c4.45,0,7.87-0.91,10.24-2.72c2.37-1.82,3.56-4.29,3.56-7.43c0-3.13-1.1-5.56-3.3-7.27S1089.06,682.37,1083.29,680.7z"/>
	<path class="st2" d="M1127.59,650.16v11.51h8.88v6.28h-8.88v29.52c0,1.91,0.4,3.34,1.19,4.29s2.14,1.43,4.04,1.43
		c0.94,0,2.23-0.18,3.87-0.53v6.55c-2.14,0.58-4.22,0.87-6.24,0.87c-3.63,0-6.37-1.1-8.22-3.3s-2.77-5.32-2.77-9.36v-29.49h-8.66
		v-6.28h8.66v-11.51H1127.59z"/>
	<path class="st2" d="M1142.93,685.01c0-4.66,0.92-8.85,2.75-12.57c1.83-3.72,4.38-6.59,7.65-8.61c3.27-2.02,6.99-3.03,11.18-3.03
		c6.47,0,11.71,2.24,15.71,6.72c4,4.48,6,10.44,6,17.89v0.57c0,4.63-0.89,8.78-2.66,12.46c-1.77,3.68-4.31,6.54-7.6,8.59
		c-3.29,2.05-7.08,3.08-11.36,3.08c-6.45,0-11.67-2.24-15.67-6.72c-4-4.48-6-10.42-6-17.8V685.01z M1151.1,685.97
		c0,5.27,1.22,9.51,3.67,12.7c2.45,3.19,5.72,4.79,9.82,4.79c4.13,0,7.41-1.62,9.84-4.86c2.43-3.24,3.65-7.77,3.65-13.6
		c0-5.21-1.24-9.44-3.71-12.68c-2.48-3.24-5.76-4.86-9.87-4.86c-4.01,0-7.25,1.6-9.71,4.79
		C1152.33,675.46,1151.1,680.03,1151.1,685.97z"/>
	<path class="st2" d="M1219.39,668.97c-1.23-0.2-2.56-0.31-4-0.31c-5.33,0-8.95,2.27-10.85,6.81v33.75h-8.13v-47.55h7.91l0.13,5.49
		c2.67-4.25,6.45-6.37,11.34-6.37c1.58,0,2.78,0.21,3.6,0.62V668.97z"/>
	<path class="st2" d="M1243.21,697.31l11.07-35.64h8.7l-19.12,54.89c-2.96,7.91-7.66,11.87-14.11,11.87l-1.54-0.13l-3.03-0.57v-6.59
		l2.2,0.18c2.75,0,4.9-0.56,6.44-1.67c1.54-1.11,2.81-3.15,3.8-6.11l1.8-4.83l-16.96-47.02h8.88L1243.21,697.31z"/>
	<path class="st2" d="M1312.25,710.1c-6.45,0-11.69-2.12-15.73-6.35c-4.04-4.23-6.06-9.89-6.06-16.98v-1.49
		c0-4.72,0.9-8.93,2.7-12.63c1.8-3.71,4.32-6.61,7.56-8.7c3.24-2.09,6.75-3.14,10.53-3.14c6.18,0,10.99,2.04,14.41,6.11
		c3.43,4.07,5.14,9.9,5.14,17.49v3.38h-32.21c0.12,4.69,1.49,8.47,4.11,11.36c2.62,2.89,5.95,4.33,10,4.33
		c2.87,0,5.3-0.59,7.29-1.76c1.99-1.17,3.74-2.72,5.23-4.66l4.97,3.87C1326.19,707.04,1320.22,710.1,1312.25,710.1z M1311.24,667.47
		c-3.28,0-6.04,1.19-8.26,3.58c-2.23,2.39-3.6,5.73-4.13,10.04h23.82v-0.62c-0.23-4.13-1.35-7.33-3.34-9.6
		C1317.33,668.61,1314.64,667.47,1311.24,667.47z"/>
	<path class="st2" d="M1363.18,668.97c-1.23-0.2-2.56-0.31-4-0.31c-5.33,0-8.95,2.27-10.85,6.81v33.75h-8.13v-47.55h7.91l0.13,5.49
		c2.67-4.25,6.45-6.37,11.34-6.37c1.58,0,2.78,0.21,3.6,0.62V668.97z"/>
	<path class="st2" d="M1378.3,702.58h27.82v6.64h-37.75v-5.98l26.24-34.85h-25.84v-6.72h36.04v5.76L1378.3,702.58z"/>
	<path class="st2" d="M1444.61,709.22c-0.47-0.94-0.85-2.61-1.14-5.01c-3.78,3.93-8.29,5.89-13.54,5.89
		c-4.69,0-8.53-1.33-11.54-3.98c-3-2.65-4.5-6.01-4.5-10.09c0-4.95,1.88-8.8,5.65-11.54c3.76-2.74,9.06-4.11,15.89-4.11h7.91v-3.74
		c0-2.84-0.85-5.1-2.55-6.79c-1.7-1.68-4.2-2.53-7.51-2.53c-2.9,0-5.33,0.73-7.29,2.2c-1.96,1.47-2.94,3.24-2.94,5.32h-8.17
		c0-2.37,0.84-4.67,2.53-6.88c1.68-2.21,3.97-3.96,6.86-5.25c2.89-1.29,6.06-1.93,9.51-1.93c5.48,0,9.77,1.37,12.88,4.11
		c3.11,2.74,4.72,6.51,4.83,11.32v21.88c0,4.37,0.56,7.84,1.67,10.42v0.7H1444.61z M1420.49,648.95c0-1.32,0.4-2.44,1.21-3.33
		s2-1.35,3.58-1.35s2.78,0.45,3.6,1.35s1.23,2.01,1.23,3.33c0,1.32-0.41,2.43-1.23,3.31c-0.82,0.88-2.02,1.32-3.6,1.32
		s-2.78-0.44-3.58-1.32C1420.89,651.38,1420.49,650.27,1420.49,648.95z M1431.12,703.02c2.55,0,4.97-0.66,7.25-1.98
		s3.94-3.03,4.97-5.14v-9.76h-6.37c-9.96,0-14.94,2.92-14.94,8.75c0,2.55,0.85,4.54,2.55,5.98
		C1426.27,702.31,1428.45,703.02,1431.12,703.02z M1439.38,649.04c0-1.32,0.4-2.44,1.21-3.35s2-1.37,3.58-1.37s2.78,0.46,3.6,1.37
		s1.23,2.03,1.23,3.36c0,1.32-0.41,2.43-1.23,3.31c-0.82,0.88-2.02,1.32-3.6,1.32s-2.78-0.44-3.58-1.32
		C1439.78,651.47,1439.38,650.36,1439.38,649.04z"/>
	<path class="st2" d="M1472.34,667.43c3.6-4.42,8.29-6.64,14.06-6.64c10.05,0,15.12,5.67,15.21,17.01v31.42h-8.13v-31.46
		c-0.03-3.43-0.81-5.96-2.35-7.6c-1.54-1.64-3.93-2.46-7.18-2.46c-2.64,0-4.95,0.7-6.94,2.11s-3.54,3.25-4.66,5.54v33.88h-8.13
		v-67.5h8.13V667.43z"/>
	<path class="st2" d="M1522.61,709.22h-8.13v-67.5h8.13V709.22z"/>
	<path class="st2" d="M1555.35,710.1c-6.45,0-11.69-2.12-15.73-6.35c-4.04-4.23-6.06-9.89-6.06-16.98v-1.49
		c0-4.72,0.9-8.93,2.7-12.63c1.8-3.71,4.32-6.61,7.56-8.7c3.24-2.09,6.75-3.14,10.53-3.14c6.18,0,10.99,2.04,14.41,6.11
		c3.43,4.07,5.14,9.9,5.14,17.49v3.38h-32.21c0.12,4.69,1.49,8.47,4.11,11.36c2.62,2.89,5.95,4.33,10,4.33
		c2.87,0,5.3-0.59,7.29-1.76c1.99-1.17,3.74-2.72,5.23-4.66l4.97,3.87C1569.3,707.04,1563.32,710.1,1555.35,710.1z M1554.34,667.47
		c-3.28,0-6.04,1.19-8.26,3.58c-2.23,2.39-3.6,5.73-4.13,10.04h23.82v-0.62c-0.23-4.13-1.35-7.33-3.34-9.6
		C1560.44,668.61,1557.74,667.47,1554.34,667.47z"/>
	<path class="st2" d="M1590.99,661.67l0.26,5.98c3.63-4.57,8.38-6.86,14.24-6.86c10.05,0,15.12,5.67,15.21,17.01v31.42h-8.13v-31.46
		c-0.03-3.43-0.81-5.96-2.35-7.6c-1.54-1.64-3.93-2.46-7.18-2.46c-2.64,0-4.95,0.7-6.94,2.11s-3.54,3.25-4.66,5.54v33.88h-8.13
		v-47.55H1590.99z"/>
	<path class="st2" d="M1632.7,704.96c0-1.41,0.42-2.58,1.25-3.52c0.84-0.94,2.09-1.41,3.76-1.41s2.94,0.47,3.8,1.41
		c0.86,0.94,1.3,2.11,1.3,3.52c0,1.35-0.43,2.48-1.3,3.38s-2.13,1.36-3.8,1.36s-2.92-0.45-3.76-1.36
		C1633.12,707.43,1632.7,706.31,1632.7,704.96z M1632.74,666.15c0-1.41,0.42-2.58,1.25-3.52c0.83-0.94,2.09-1.41,3.76-1.41
		s2.94,0.47,3.8,1.41c0.86,0.94,1.3,2.11,1.3,3.52c0,1.35-0.43,2.48-1.3,3.38c-0.87,0.91-2.13,1.36-3.8,1.36s-2.92-0.45-3.76-1.36
		C1633.16,668.63,1632.74,667.5,1632.74,666.15z"/>
</g>
<g>
	<path class="st2" d="M251.13,1133.69l-7.82,8.13v21.62h-8.44v-63.98h8.44v31.64l28.43-31.64h10.2l-25.18,28.26l27.16,35.73h-10.11
		L251.13,1133.69z"/>
	<path class="st2" d="M308.61,1164.32c-6.45,0-11.69-2.12-15.73-6.35s-6.06-9.89-6.06-16.99v-1.49c0-4.72,0.9-8.93,2.7-12.63
		s4.32-6.61,7.56-8.7c3.24-2.09,6.75-3.14,10.52-3.14c6.18,0,10.99,2.04,14.41,6.11c3.43,4.07,5.14,9.9,5.14,17.49v3.38h-32.21
		c0.12,4.69,1.49,8.47,4.11,11.36c2.62,2.89,5.95,4.33,10,4.33c2.87,0,5.3-0.59,7.29-1.76c1.99-1.17,3.74-2.72,5.23-4.66l4.97,3.87
		C322.56,1161.26,316.58,1164.32,308.61,1164.32z M307.6,1121.7c-3.28,0-6.04,1.19-8.26,3.58c-2.23,2.39-3.6,5.73-4.13,10.04h23.82
		v-0.62c-0.23-4.13-1.35-7.33-3.34-9.6C313.7,1122.83,311,1121.7,307.6,1121.7z"/>
	<path class="st2" d="M336.61,1103.28c0-1.32,0.4-2.43,1.21-3.34c0.81-0.91,2-1.36,3.58-1.36s2.78,0.46,3.6,1.36
		c0.82,0.91,1.23,2.02,1.23,3.34s-0.41,2.42-1.23,3.3c-0.82,0.88-2.02,1.32-3.6,1.32s-2.78-0.44-3.58-1.32
		C337.01,1105.7,336.61,1104.6,336.61,1103.28z M345.4,1163.45h-8.13v-47.55h8.13V1163.45z"/>
	<path class="st2" d="M366.09,1115.9l0.26,5.98c3.63-4.57,8.38-6.86,14.24-6.86c10.05,0,15.12,5.67,15.21,17.01v31.42h-8.13v-31.46
		c-0.03-3.43-0.81-5.96-2.35-7.6c-1.54-1.64-3.93-2.46-7.19-2.46c-2.64,0-4.95,0.7-6.94,2.11c-1.99,1.41-3.54,3.25-4.66,5.54v33.88
		h-8.13v-47.55H366.09z"/>
	<path class="st2" d="M427.79,1164.32c-6.45,0-11.69-2.12-15.73-6.35s-6.06-9.89-6.06-16.99v-1.49c0-4.72,0.9-8.93,2.7-12.63
		s4.32-6.61,7.56-8.7c3.24-2.09,6.75-3.14,10.52-3.14c6.18,0,10.99,2.04,14.41,6.11c3.43,4.07,5.14,9.9,5.14,17.49v3.38h-32.21
		c0.12,4.69,1.49,8.47,4.11,11.36c2.62,2.89,5.95,4.33,10,4.33c2.87,0,5.3-0.59,7.29-1.76c1.99-1.17,3.74-2.72,5.23-4.66l4.97,3.87
		C441.74,1161.26,435.76,1164.32,427.79,1164.32z M426.78,1121.7c-3.28,0-6.04,1.19-8.26,3.58c-2.23,2.39-3.6,5.73-4.13,10.04h23.82
		v-0.62c-0.23-4.13-1.35-7.33-3.34-9.6C432.88,1122.83,430.18,1121.7,426.78,1121.7z"/>
	<path class="st2" d="M498.15,1134.92c-7.24-2.08-12.5-4.64-15.8-7.67s-4.94-6.77-4.94-11.23c0-5.04,2.01-9.21,6.04-12.5
		c4.03-3.3,9.27-4.94,15.71-4.94c4.39,0,8.31,0.85,11.76,2.55c3.44,1.7,6.11,4.04,8,7.03s2.83,6.26,2.83,9.8h-8.48
		c0-3.88-1.23-6.93-3.69-9.15s-5.93-3.33-10.42-3.33c-4.16,0-7.4,0.92-9.73,2.75c-2.33,1.83-3.49,4.38-3.49,7.64
		c0,2.61,1.11,4.82,3.32,6.63c2.21,1.81,5.98,3.46,11.29,4.95s9.48,3.15,12.48,4.95c3,1.8,5.23,3.9,6.68,6.31
		c1.45,2.4,2.18,5.23,2.18,8.48c0,5.19-2.02,9.34-6.06,12.46s-9.45,4.68-16.22,4.68c-4.39,0-8.5-0.84-12.3-2.53
		c-3.81-1.68-6.75-3.99-8.81-6.92c-2.07-2.93-3.1-6.25-3.1-9.98h8.48c0,3.87,1.43,6.92,4.28,9.16s6.67,3.36,11.45,3.36
		c4.45,0,7.87-0.91,10.24-2.72c2.37-1.82,3.56-4.29,3.56-7.43c0-3.13-1.1-5.56-3.3-7.27S503.92,1136.59,498.15,1134.92z"/>
	<path class="st2" d="M529.26,1139.23c0-4.66,0.92-8.85,2.75-12.57c1.83-3.72,4.38-6.59,7.65-8.61c3.27-2.02,6.99-3.03,11.18-3.03
		c6.47,0,11.71,2.24,15.71,6.72s6,10.44,6,17.89v0.57c0,4.63-0.89,8.78-2.66,12.46c-1.77,3.68-4.31,6.54-7.6,8.59
		c-3.3,2.05-7.08,3.08-11.36,3.08c-6.45,0-11.67-2.24-15.67-6.72s-6-10.42-6-17.8V1139.23z M537.44,1140.2
		c0,5.27,1.22,9.51,3.67,12.7c2.45,3.19,5.72,4.79,9.82,4.79c4.13,0,7.41-1.62,9.84-4.86c2.43-3.24,3.65-7.77,3.65-13.6
		c0-5.21-1.24-9.44-3.71-12.68c-2.48-3.24-5.76-4.86-9.87-4.86c-4.01,0-7.25,1.6-9.71,4.79
		C538.67,1129.68,537.44,1134.25,537.44,1140.2z"/>
	<path class="st2" d="M605.73,1123.19c-1.23-0.2-2.56-0.31-4-0.31c-5.33,0-8.95,2.27-10.85,6.81v33.75h-8.13v-47.55h7.91l0.13,5.49
		c2.67-4.25,6.44-6.37,11.34-6.37c1.58,0,2.78,0.21,3.6,0.62V1123.19z"/>
	<path class="st2" d="M610.43,1139.28c0-7.41,1.71-13.31,5.14-17.69s7.97-6.57,13.62-6.57c5.8,0,10.33,2.05,13.58,6.15l0.4-5.27
		h7.43v46.41c0,6.15-1.82,11-5.47,14.55s-8.55,5.32-14.7,5.32c-3.43,0-6.78-0.73-10.06-2.2c-3.28-1.46-5.79-3.47-7.51-6.02
		l4.22-4.88c3.49,4.31,7.75,6.46,12.79,6.46c3.96,0,7.04-1.11,9.25-3.34c2.21-2.23,3.32-5.36,3.32-9.4v-4.09
		c-3.25,3.75-7.69,5.62-13.32,5.62c-5.57,0-10.07-2.24-13.51-6.72C612.15,1153.12,610.43,1147.01,610.43,1139.28z M618.6,1140.2
		c0,5.36,1.1,9.57,3.3,12.63s5.27,4.59,9.23,4.59c5.13,0,8.89-2.33,11.29-6.99v-21.71c-2.49-4.54-6.23-6.81-11.21-6.81
		c-3.96,0-7.05,1.54-9.27,4.61C619.72,1129.61,618.6,1134.16,618.6,1140.2z"/>
	<path class="st2" d="M682.59,1164.32c-6.45,0-11.69-2.12-15.73-6.35s-6.06-9.89-6.06-16.99v-1.49c0-4.72,0.9-8.93,2.7-12.63
		s4.32-6.61,7.56-8.7c3.24-2.09,6.75-3.14,10.52-3.14c6.18,0,10.99,2.04,14.41,6.11c3.43,4.07,5.14,9.9,5.14,17.49v3.38h-32.21
		c0.12,4.69,1.49,8.47,4.11,11.36c2.62,2.89,5.95,4.33,10,4.33c2.87,0,5.3-0.59,7.29-1.76c1.99-1.17,3.74-2.72,5.23-4.66l4.97,3.87
		C696.53,1161.26,690.56,1164.32,682.59,1164.32z M681.58,1121.7c-3.28,0-6.04,1.19-8.26,3.58c-2.23,2.39-3.6,5.73-4.13,10.04H693
		v-0.62c-0.23-4.13-1.35-7.33-3.34-9.6C687.67,1122.83,684.98,1121.7,681.58,1121.7z"/>
	<path class="st2" d="M710.27,1176.19l-4.61-3.16c2.75-3.84,4.19-7.79,4.31-11.87v-7.34h7.95v6.37c0,2.96-0.73,5.92-2.18,8.88
		S712.47,1174.4,710.27,1176.19z"/>
	<path class="st2" d="M750.53,1103.28c0-1.32,0.4-2.43,1.21-3.34c0.81-0.91,2-1.36,3.58-1.36s2.78,0.46,3.6,1.36
		c0.82,0.91,1.23,2.02,1.23,3.34s-0.41,2.42-1.23,3.3c-0.82,0.88-2.02,1.32-3.6,1.32s-2.78-0.44-3.58-1.32
		C750.93,1105.7,750.53,1104.6,750.53,1103.28z M759.32,1163.45h-8.13v-47.55h8.13V1163.45z"/>
	<path class="st2" d="M791.4,1157.69c2.9,0,5.43-0.88,7.6-2.64c2.17-1.76,3.37-3.96,3.6-6.59h7.69c-0.15,2.72-1.08,5.32-2.81,7.78
		c-1.73,2.46-4.04,4.42-6.92,5.89c-2.89,1.46-5.94,2.2-9.16,2.2c-6.48,0-11.62-2.16-15.45-6.48s-5.73-10.23-5.73-17.73v-1.36
		c0-4.63,0.85-8.75,2.55-12.35c1.7-3.6,4.14-6.4,7.32-8.39c3.18-1.99,6.94-2.99,11.27-2.99c5.33,0,9.76,1.6,13.29,4.79
		c3.53,3.19,5.41,7.34,5.65,12.44h-7.69c-0.23-3.08-1.4-5.6-3.49-7.58c-2.09-1.98-4.68-2.97-7.76-2.97c-4.13,0-7.33,1.49-9.6,4.46
		c-2.27,2.97-3.41,7.27-3.41,12.9v1.54c0,5.48,1.13,9.7,3.38,12.66C783.98,1156.21,787.21,1157.69,791.4,1157.69z"/>
	<path class="st2" d="M827.56,1121.65c3.6-4.42,8.29-6.64,14.06-6.64c10.05,0,15.12,5.67,15.21,17.01v31.42h-8.13v-31.46
		c-0.03-3.43-0.81-5.96-2.35-7.6c-1.54-1.64-3.93-2.46-7.19-2.46c-2.64,0-4.95,0.7-6.94,2.11c-1.99,1.41-3.54,3.25-4.66,5.54v33.88
		h-8.13v-67.5h8.13V1121.65z"/>
	<path class="st2" d="M904.56,1141.43l-5.1,5.32v16.7h-8.13v-67.5h8.13v40.83l4.35-5.23l14.81-15.64h9.89l-18.5,19.86l20.65,27.69
		h-9.54L904.56,1141.43z"/>
	<path class="st2" d="M934.75,1139.23c0-4.66,0.92-8.85,2.75-12.57c1.83-3.72,4.38-6.59,7.65-8.61c3.27-2.02,6.99-3.03,11.18-3.03
		c6.47,0,11.71,2.24,15.71,6.72s6,10.44,6,17.89v0.57c0,4.63-0.89,8.78-2.66,12.46c-1.77,3.68-4.31,6.54-7.6,8.59
		c-3.3,2.05-7.08,3.08-11.36,3.08c-6.45,0-11.67-2.24-15.67-6.72s-6-10.42-6-17.8V1139.23z M942.92,1140.2
		c0,5.27,1.22,9.51,3.67,12.7c2.45,3.19,5.72,4.79,9.82,4.79c4.13,0,7.41-1.62,9.84-4.86s3.65-7.77,3.65-13.6
		c0-5.21-1.24-9.44-3.71-12.68c-2.48-3.24-5.76-4.86-9.87-4.86c-4.01,0-7.25,1.6-9.71,4.79
		C944.15,1129.68,942.92,1134.25,942.92,1140.2z"/>
	<path class="st2" d="M995.87,1115.9l0.22,5.27c3.49-4.1,8.19-6.15,14.11-6.15c6.65,0,11.18,2.55,13.58,7.65
		c1.58-2.29,3.64-4.13,6.17-5.54c2.53-1.41,5.53-2.11,8.99-2.11c10.43,0,15.73,5.52,15.91,16.57v31.86h-8.13v-31.38
		c0-3.4-0.78-5.94-2.33-7.62s-4.16-2.53-7.82-2.53c-3.02,0-5.52,0.9-7.51,2.7s-3.15,4.23-3.47,7.27v31.55h-8.17v-31.16
		c0-6.91-3.38-10.37-10.15-10.37c-5.33,0-8.98,2.27-10.94,6.81v34.72h-8.13v-47.55H995.87z"/>
	<path class="st2" d="M1074.76,1115.9l0.22,5.27c3.49-4.1,8.19-6.15,14.11-6.15c6.65,0,11.18,2.55,13.58,7.65
		c1.58-2.29,3.64-4.13,6.17-5.54c2.53-1.41,5.53-2.11,8.99-2.11c10.43,0,15.73,5.52,15.91,16.57v31.86h-8.13v-31.38
		c0-3.4-0.78-5.94-2.33-7.62s-4.16-2.53-7.82-2.53c-3.02,0-5.52,0.9-7.51,2.7s-3.15,4.23-3.47,7.27v31.55h-8.17v-31.16
		c0-6.91-3.38-10.37-10.15-10.37c-5.33,0-8.98,2.27-10.94,6.81v34.72h-8.13v-47.55H1074.76z"/>
	<path class="st2" d="M1165.72,1164.32c-6.45,0-11.69-2.12-15.73-6.35s-6.06-9.89-6.06-16.99v-1.49c0-4.72,0.9-8.93,2.7-12.63
		c1.8-3.71,4.32-6.61,7.56-8.7s6.75-3.14,10.53-3.14c6.18,0,10.99,2.04,14.41,6.11c3.43,4.07,5.14,9.9,5.14,17.49v3.38h-32.21
		c0.12,4.69,1.49,8.47,4.11,11.36c2.62,2.89,5.95,4.33,10,4.33c2.87,0,5.3-0.59,7.29-1.76c1.99-1.17,3.74-2.72,5.23-4.66l4.97,3.87
		C1179.67,1161.26,1173.69,1164.32,1165.72,1164.32z M1164.71,1121.7c-3.28,0-6.04,1.19-8.26,3.58s-3.6,5.73-4.13,10.04h23.82v-0.62
		c-0.23-4.13-1.35-7.33-3.34-9.6S1168.11,1121.7,1164.71,1121.7z"/>
	<path class="st2" d="M1256.21,1140.2c0,7.27-1.67,13.1-5.01,17.51s-7.82,6.61-13.45,6.61c-6.01,0-10.65-2.12-13.93-6.37l-0.4,5.49
		h-7.47v-67.5h8.13v25.18c3.28-4.07,7.81-6.11,13.58-6.11s10.3,2.18,13.6,6.55c3.29,4.37,4.94,10.34,4.94,17.93V1140.2z
		 M1248.08,1139.28c0-5.54-1.07-9.81-3.21-12.83c-2.14-3.02-5.21-4.53-9.23-4.53c-5.36,0-9.21,2.49-11.56,7.47v20.57
		c2.49,4.98,6.37,7.47,11.65,7.47c3.9,0,6.93-1.51,9.1-4.53C1246.99,1149.88,1248.08,1145.34,1248.08,1139.28z"/>
	<path class="st2" d="M1295.8,1163.45c-0.47-0.94-0.85-2.61-1.14-5.01c-3.78,3.93-8.29,5.89-13.54,5.89
		c-4.69,0-8.53-1.33-11.54-3.98c-3-2.65-4.5-6.01-4.5-10.09c0-4.95,1.88-8.8,5.65-11.54c3.76-2.74,9.06-4.11,15.89-4.11h7.91v-3.74
		c0-2.84-0.85-5.1-2.55-6.79s-4.2-2.53-7.51-2.53c-2.9,0-5.33,0.73-7.29,2.2c-1.96,1.47-2.94,3.24-2.94,5.32h-8.17
		c0-2.37,0.84-4.67,2.53-6.88s3.97-3.96,6.86-5.25c2.89-1.29,6.06-1.93,9.51-1.93c5.48,0,9.77,1.37,12.88,4.11s4.72,6.51,4.83,11.32
		v21.88c0,4.37,0.56,7.84,1.67,10.42v0.7H1295.8z M1282.31,1157.25c2.55,0,4.97-0.66,7.25-1.98s3.94-3.03,4.97-5.14v-9.76h-6.37
		c-9.96,0-14.94,2.92-14.94,8.75c0,2.55,0.85,4.54,2.55,5.98C1277.46,1156.53,1279.64,1157.25,1282.31,1157.25z"/>
	<path class="st2" d="M1324.23,1163.45h-8.13v-67.5h8.13V1163.45z"/>
	<path class="st2" d="M1335.26,1139.28c0-7.29,1.73-13.16,5.19-17.6s7.98-6.66,13.58-6.66c5.57,0,9.98,1.91,13.23,5.71v-24.79h8.13
		v67.5h-7.47l-0.4-5.1c-3.25,3.98-7.78,5.98-13.58,5.98c-5.51,0-10-2.26-13.47-6.77c-3.47-4.51-5.21-10.4-5.21-17.67V1139.28z
		 M1343.39,1140.2c0,5.39,1.11,9.61,3.34,12.66c2.23,3.05,5.3,4.57,9.23,4.57c5.16,0,8.92-2.31,11.29-6.94v-21.84
		c-2.43-4.48-6.17-6.72-11.21-6.72c-3.98,0-7.09,1.54-9.32,4.61S1343.39,1134.16,1343.39,1140.2z"/>
	<path class="st2" d="M1452.38,1152.24l9.14-36.34h8.13l-13.84,47.55h-6.59l-11.56-36.04l-11.25,36.04h-6.59l-13.8-47.55h8.09
		l9.36,35.6l11.07-35.6h6.55L1452.38,1152.24z"/>
	<path class="st2" d="M1477.95,1103.28c0-1.32,0.4-2.43,1.21-3.34c0.81-0.91,2-1.36,3.58-1.36s2.78,0.46,3.6,1.36
		c0.82,0.91,1.23,2.02,1.23,3.34s-0.41,2.42-1.23,3.3s-2.02,1.32-3.6,1.32s-2.78-0.44-3.58-1.32S1477.95,1104.6,1477.95,1103.28z
		 M1486.74,1163.45h-8.13v-47.55h8.13V1163.45z"/>
	<path class="st2" d="M1519.48,1164.32c-6.45,0-11.69-2.12-15.73-6.35s-6.06-9.89-6.06-16.99v-1.49c0-4.72,0.9-8.93,2.7-12.63
		c1.8-3.71,4.32-6.61,7.56-8.7s6.75-3.14,10.53-3.14c6.18,0,10.99,2.04,14.41,6.11c3.43,4.07,5.14,9.9,5.14,17.49v3.38h-32.21
		c0.12,4.69,1.49,8.47,4.11,11.36c2.62,2.89,5.95,4.33,10,4.33c2.87,0,5.3-0.59,7.29-1.76c1.99-1.17,3.74-2.72,5.23-4.66l4.97,3.87
		C1533.43,1161.26,1527.45,1164.32,1519.48,1164.32z M1518.47,1121.7c-3.28,0-6.04,1.19-8.26,3.58s-3.6,5.73-4.13,10.04h23.82v-0.62
		c-0.23-4.13-1.35-7.33-3.34-9.6S1521.87,1121.7,1518.47,1121.7z"/>
	<path class="st2" d="M1545.45,1139.28c0-7.29,1.73-13.16,5.19-17.6s7.98-6.66,13.58-6.66c5.57,0,9.98,1.91,13.23,5.71v-24.79h8.13
		v67.5h-7.47l-0.4-5.1c-3.25,3.98-7.78,5.98-13.58,5.98c-5.51,0-10-2.26-13.47-6.77c-3.47-4.51-5.21-10.4-5.21-17.67V1139.28z
		 M1553.58,1140.2c0,5.39,1.11,9.61,3.34,12.66c2.23,3.05,5.3,4.57,9.23,4.57c5.16,0,8.92-2.31,11.29-6.94v-21.84
		c-2.43-4.48-6.17-6.72-11.21-6.72c-3.98,0-7.09,1.54-9.32,4.61S1553.58,1134.16,1553.58,1140.2z"/>
	<path class="st2" d="M1617.92,1164.32c-6.45,0-11.69-2.12-15.73-6.35s-6.06-9.89-6.06-16.99v-1.49c0-4.72,0.9-8.93,2.7-12.63
		c1.8-3.71,4.32-6.61,7.56-8.7s6.75-3.14,10.53-3.14c6.18,0,10.99,2.04,14.41,6.11c3.43,4.07,5.14,9.9,5.14,17.49v3.38h-32.21
		c0.12,4.69,1.49,8.47,4.11,11.36c2.62,2.89,5.95,4.33,10,4.33c2.87,0,5.3-0.59,7.29-1.76c1.99-1.17,3.74-2.72,5.23-4.66l4.97,3.87
		C1631.87,1161.26,1625.89,1164.32,1617.92,1164.32z M1616.91,1121.7c-3.28,0-6.04,1.19-8.26,3.58s-3.6,5.73-4.13,10.04h23.82v-0.62
		c-0.23-4.13-1.35-7.33-3.34-9.6S1620.31,1121.7,1616.91,1121.7z"/>
	<path class="st2" d="M1668.85,1123.19c-1.23-0.2-2.56-0.31-4-0.31c-5.33,0-8.95,2.27-10.85,6.81v33.75h-8.13v-47.55h7.91l0.13,5.49
		c2.67-4.25,6.45-6.37,11.34-6.37c1.58,0,2.78,0.21,3.6,0.62V1123.19z"/>
	<path class="st2" d="M1671.09,1159.18c0-1.41,0.42-2.58,1.25-3.52c0.84-0.94,2.09-1.41,3.76-1.41s2.94,0.47,3.8,1.41
		c0.86,0.94,1.3,2.11,1.3,3.52c0,1.35-0.43,2.48-1.3,3.38c-0.86,0.91-2.13,1.36-3.8,1.36s-2.92-0.45-3.76-1.36
		C1671.51,1161.66,1671.09,1160.53,1671.09,1159.18z"/>
</g>
</svg>
