<svg id="brands-rocco-logo2" xmlns="http://www.w3.org/2000/svg" width="468" height="334" viewBox="0 0 468 334">
  <defs>
    <style>
      .cls-1 {
        fill: #eee;
      }

      .cls-2 {
        fill: #fff;
        fill-rule: evenodd;
      }
    </style>
  </defs>
  <path id="rocco" class="cls-2" d="M1030.6,6038.63v-3.87h4.04v3.89h-4.04v-0.02Zm0.23,22.81v-18.43h3.58v22.88h-3.58v-4.45Zm2,14.36a7.069,7.069,0,0,1,1.63,2.51c0.06,0.15.08,0.31,0.13,0.45a8.112,8.112,0,0,1,.67,2.6l-0.09.11a7.89,7.89,0,0,1-.62,3.14,7.292,7.292,0,0,1-1.72,2.53,6.9,6.9,0,0,1-2.23,1.36,7.015,7.015,0,0,1-2.65.46,7.568,7.568,0,0,1-2.63-.44,7,7,0,0,1-2.23-1.36,6.919,6.919,0,0,1-1.71-2.53,8.9,8.9,0,0,1-.61-3.18c0-.02.01-0.04,0.01-0.06s-0.01-.03-0.01-0.05a7.985,7.985,0,0,1,.54-2.98,6.762,6.762,0,0,1,1.6-2.45,6.389,6.389,0,0,1,2.23-1.51,7.049,7.049,0,0,1,2.72-.53,7.507,7.507,0,0,1,2.74.49A6.345,6.345,0,0,1,1032.83,6075.8Zm-9.07,2.96a7.8,7.8,0,0,0,.02,5.11,4.967,4.967,0,0,0,1.45,2.05,4.19,4.19,0,0,0,1.32.78,4.7,4.7,0,0,0,1.58.24,4.227,4.227,0,0,0,1.69-.31,4.166,4.166,0,0,0,1.41-.89,5.746,5.746,0,0,0,1.27-1.98,7.468,7.468,0,0,0,.44-2.35h0a8.058,8.058,0,0,0-.13-1.29,9.21,9.21,0,0,0-.33-1.25,5.543,5.543,0,0,0-1.36-2.22,4.7,4.7,0,0,0-2.99-1.11,4.471,4.471,0,0,0-1.74.31,3.957,3.957,0,0,0-1.38.98A5.273,5.273,0,0,0,1023.76,6078.76Zm-3.66-19.54V6032.8h3.62v33.09h-3.62v-6.67Zm-3.58,29.32h-0.83a18.035,18.035,0,0,1-3.59-.33,12.955,12.955,0,0,1-2.98-1.02,7.361,7.361,0,0,1-2.81-2.47,6.063,6.063,0,0,1-1.03-3.43,5.494,5.494,0,0,1,.94-3.11,7.42,7.42,0,0,1,2.41-2.22,10.465,10.465,0,0,1,3.21-1.25,17.157,17.157,0,0,1,3.85-.44h0.6l0.14,1.91h-0.49a18.856,18.856,0,0,0-2.81.18,10.112,10.112,0,0,0-2.23.62,5.093,5.093,0,0,0-2.34,1.78,4.448,4.448,0,0,0-.87,2.58,4.522,4.522,0,0,0,.82,2.78,4.958,4.958,0,0,0,2.23,1.71,8.3,8.3,0,0,0,2.34.69,16.087,16.087,0,0,0,2.77.22l0.84-.09,0.12,0.09h-0.12Zm-6.13-24.97a10.755,10.755,0,0,1-1.63,1.31,11.646,11.646,0,0,1-1.83,1.01,10.562,10.562,0,0,1-4.12.75,11.5,11.5,0,0,1-4.1-.73,10.709,10.709,0,0,1-3.388-2.22,11.1,11.1,0,0,1-2.675-4.1,13.854,13.854,0,0,1-.936-5.09,13.43,13.43,0,0,1,.8-4.75,11.013,11.013,0,0,1,2.519-3.96,9.586,9.586,0,0,1,1.713-1.44,10.108,10.108,0,0,1,1.942-1.05,10.675,10.675,0,0,1,4.276-.87,10.9,10.9,0,0,1,4.26.8,9.766,9.766,0,0,1,3.41,2.22,11.486,11.486,0,0,1,2.56,4.03,13.62,13.62,0,0,1,.76,4.98h0.09a13.261,13.261,0,0,1-.96,5.02A11.007,11.007,0,0,1,1010.39,6063.57Zm-0.67-13.09a8.8,8.8,0,0,0-2.23-3.4,6,6,0,0,0-2.1-1.29,6.394,6.394,0,0,0-2.52-.49,6.615,6.615,0,0,0-2.71.49,7.176,7.176,0,0,0-2.233,1.55,8.953,8.953,0,0,0-1.917,3.14,11.726,11.726,0,0,0-.669,3.93,12.973,12.973,0,0,0,.691,4.25,8.549,8.549,0,0,0,2.229,3.34,5.981,5.981,0,0,0,2.049,1.2,7.511,7.511,0,0,0,5.08,0,6.021,6.021,0,0,0,2.23-1.45,9.157,9.157,0,0,0,1.99-3.16,11.4,11.4,0,0,0,.66-3.89l0.14-.09A12.649,12.649,0,0,0,1009.72,6050.48Zm-13.42,24.23a17.252,17.252,0,0,1,3.86-.44h0.62v1.91h-0.47a18.842,18.842,0,0,0-2.807.18,10.149,10.149,0,0,0-2.229.62,5.023,5.023,0,0,0-2.229,1.78,4.447,4.447,0,0,0-.869,2.58,4.667,4.667,0,0,0,.8,2.78,5.059,5.059,0,0,0,2.229,1.71,8.838,8.838,0,0,0,2.363.69,15.98,15.98,0,0,0,2.76.22l0.83-.09,0.11,0.09h-0.12l-0.17,1.8h-0.82a17.806,17.806,0,0,1-3.571-.33,12.6,12.6,0,0,1-2.987-1.02,7.749,7.749,0,0,1-2.83-2.47,6.155,6.155,0,0,1-1-3.43,5.505,5.505,0,0,1,.936-3.11,7.311,7.311,0,0,1,2.407-2.22A10.48,10.48,0,0,1,996.3,6074.71Zm-13.954-36.08v-3.87h0.4v-1.62h1.85v1.62h1.76v3.89h-4.012v-0.02Zm0.2,22.81v-18.43h3.611v22.88h-3.611v-4.45Zm2.274,16.99a8.375,8.375,0,0,1,.579,2.93v0.11a7.981,7.981,0,0,1-.624,3.14,6.819,6.819,0,0,1-3.4,3.65c-0.215.1-.435,0.2-0.661,0.28a6.873,6.873,0,0,1-2.652.47,7.6,7.6,0,0,1-2.586-.45,6.68,6.68,0,0,1-3.923-3.89,8.852,8.852,0,0,1,0-6.15,7.269,7.269,0,0,1,1.605-2.45,6.686,6.686,0,0,1,1.688-1.26q0.308-.165.63-0.3a7.351,7.351,0,0,1,2.742-.53,7.546,7.546,0,0,1,2.741.49,6.441,6.441,0,0,1,2.229,1.44A7.117,7.117,0,0,1,984.821,6078.43Zm-2.207.44a5.156,5.156,0,0,0-1.382-2.22,3.932,3.932,0,0,0-1.337-.8,4.654,4.654,0,0,0-3.366,0,4.32,4.32,0,0,0-1.4.98,5.2,5.2,0,0,0-1.226,1.93,7.172,7.172,0,0,0-.446,2.47,7.41,7.41,0,0,0,.379,2.8,4.951,4.951,0,0,0,1.449,2.04,4.018,4.018,0,0,0,1.315.78,4.946,4.946,0,0,0,3.276-.06,4.314,4.314,0,0,0,1.405-.89,5.766,5.766,0,0,0,1.27-1.98,7.255,7.255,0,0,0,.423-2.4l0.09-.05A8.036,8.036,0,0,0,982.614,6078.87Zm-7.088-12.98h-3.254v-15.46a5.483,5.483,0,0,0-1.092-3.75,4.178,4.178,0,0,0-3.1-1.03,9.269,9.269,0,0,0-2.987.61,23.635,23.635,0,0,0-3.833,1.88v17.75h-3.567v-15.41a10.648,10.648,0,0,0-.178-1.91,4.367,4.367,0,0,0-.579-1.51,3.266,3.266,0,0,0-1.226-1.07,5.466,5.466,0,0,0-2.229-.34,7.812,7.812,0,0,0-2.965.74,27.856,27.856,0,0,0-3.9,2.22V6066h-3.589v-22.86h3.522v2.63a24.465,24.465,0,0,1,3.811-2.23,9.979,9.979,0,0,1,4.079-1.06,6.761,6.761,0,0,1,3.7.93,5.641,5.641,0,0,1,2.229,2.33,31.692,31.692,0,0,1,4.792-2.42,10.614,10.614,0,0,1,3.723-.84,6.381,6.381,0,0,1,4.881,1.84,6.662,6.662,0,0,1,1.761,4.91v13.9a11.512,11.512,0,0,0,.312,2.76l-0.312.04v-0.04Zm-45.559-16.26V6066H926.4v-22.88h3.5v3.65a14.445,14.445,0,0,1,5.148-2.76,28.612,28.612,0,0,1,3.812-1.38l0.669,3.05c-0.825.2-1.806,0.42-3.544,1A16.332,16.332,0,0,0,929.967,6049.63Zm-12.327,14.03a10.026,10.026,0,0,1-7.444,2.98,11.142,11.142,0,0,1-4.079-.73,10.123,10.123,0,0,1-3.41-2.22,11.362,11.362,0,0,1-2.675-4.1,13.813,13.813,0,0,1-.914-5.09,14.006,14.006,0,0,1,.758-4.75,11.307,11.307,0,0,1,2.541-3.96,10.081,10.081,0,0,1,3.522-2.4,10.562,10.562,0,0,1,4.257-.87,11.005,11.005,0,0,1,4.28.8,10.1,10.1,0,0,1,3.41,2.22,11.563,11.563,0,0,1,2.452,4.03,13.793,13.793,0,0,1,.847,4.89,13.318,13.318,0,0,1-.847,5.11A11.038,11.038,0,0,1,917.64,6063.66Zm-0.8-13.18a8.355,8.355,0,0,0-2.229-3.4,5.743,5.743,0,0,0-2.117-1.29,6.4,6.4,0,0,0-2.519-.49,6.728,6.728,0,0,0-2.7.49,7.217,7.217,0,0,0-2.229,1.55,8.953,8.953,0,0,0-1.917,3.14,12.441,12.441,0,0,0,0,8.18,8.29,8.29,0,0,0,2.229,3.34,6.028,6.028,0,0,0,2.051,1.2,7.559,7.559,0,0,0,5.1-.09,6.221,6.221,0,0,0,2.229-1.45,8.871,8.871,0,0,0,1.984-3.15,11.553,11.553,0,0,0,.668-3.9h0.156A12.414,12.414,0,0,0,916.838,6050.48Zm-27.081,13.65a15.391,15.391,0,0,1-4.325,1.49,28.1,28.1,0,0,1-5.416.47h-7.244v-0.23h-0.223v-30.17l2.5-.11h4.48a25.829,25.829,0,0,1,4.3.34,16.011,16.011,0,0,1,3.343.82,7.432,7.432,0,0,1,3.232,2.36,5.761,5.761,0,0,1,1.181,3.73,6.485,6.485,0,0,1-1.493,4.14,7.406,7.406,0,0,1-3.366,2.42v0.22a11.329,11.329,0,0,1,3.032.76,7.7,7.7,0,0,1,2.585,1.71,6.624,6.624,0,0,1,1.471,2.22,7.387,7.387,0,0,1,.491,2.69v0.11a7.317,7.317,0,0,1-1.182,4.07A8.278,8.278,0,0,1,889.757,6064.13Zm0.267-9.07a6.361,6.361,0,0,0-1.226-1.78,5.346,5.346,0,0,0-2.229-1.22,8.174,8.174,0,0,0-2.9-.49H879.66l-0.357-2.71a22.676,22.676,0,0,0,3.856-.38,7.4,7.4,0,0,0,2.229-1.07,5.458,5.458,0,0,0,1.582-1.71,4.786,4.786,0,0,0,.6-2.38,4.082,4.082,0,0,0-.668-2.36,4.6,4.6,0,0,0-1.873-1.62,9.472,9.472,0,0,0-2.452-.69,16.922,16.922,0,0,0-3.1-.24h-3.1c0,2.22,0,4.44-.111,7v17.36h2.674a40.767,40.767,0,0,0,4.815-.28,10.5,10.5,0,0,0,3.789-1.12,5.393,5.393,0,0,0,1.961-1.84,4.849,4.849,0,0,0,.691-2.65l0.223,0.22A4.889,4.889,0,0,0,890.024,6055.06Zm67.559,14.81a21.5,21.5,0,0,1,2.407.13,8.634,8.634,0,0,1,2.229.6,4.933,4.933,0,0,1,2.229,1.73,4.185,4.185,0,0,1,.825,2.63,4.567,4.567,0,0,1-1.271,3.27,10.271,10.271,0,0,1-2.34,1.93c1.293,1.44,2.742,3,4.3,4.45l2.63,2.55-1.783,1.45-2.229-2.4-5.907-6.49v-0.14a8.4,8.4,0,0,0,1.449-.58,6.452,6.452,0,0,0,1.493-1.02,4.25,4.25,0,0,0,.937-1.13,4.107,4.107,0,0,0,.4-1.87,2.938,2.938,0,0,0-.58-1.82,3.6,3.6,0,0,0-1.605-1.16,7.523,7.523,0,0,0-1.76-.33h-2.853v16.67h-2.385v-18.47h3.811Zm-104.6-62.25,107.033-34.24-30.982-9.25,36.555,5.47-11.97-62.57h0.424l14.822,55.65,9.25-28.83-6.062,35.77,82.981-22.77v0.38l-77.81,26.35,31.56,8.11-36.2-4.85,10.364,55.41-14.176-51.05-10.186,34.57,6.2-38.5-111.8,30.75v-0.4Z" transform="translate(-724 -5840)"/>
</svg>
