<svg id="brands-fueri-logo" xmlns="http://www.w3.org/2000/svg" width="468" height="334" viewBox="0 0 468 334">
  <defs>
    <style>
      .cls-1 {
        fill: #eee;
      }

      .cls-2 {
        fill: #fff;
        fill-rule: evenodd;
      }
    </style>
  </defs>
  <path id="fueri" class="cls-2" d="M1406.6,4003.61v17.73h-23.2v26.77h-20.38v-50.33c0-14.38,6.99-24.14,22.32-24.14h21.31v17.82h-17.93c-3.74,0-5.37,1.01-5.37,4.47v7.68h23.25Zm28.21,22.29a3.762,3.762,0,1,0,7.49.71,4.208,4.208,0,0,0,0-.71v-29.08h20.4v25.1c0,6.66-.81,12.02-4.46,17.11a24.426,24.426,0,0,1-39.46-.1c-3.54-4.89-4.45-10.18-4.45-17.01v-25.1h20.48v29.08Zm35.54-29.1h18.23v6.98c3.32-5.4,8.12-8.11,15.41-8.11h4.66v17.78c-14.6,0-19.26,4.89-19.26,16.3v18.31h-19.04V3996.8Zm43.52,0.02h20.38v51.29h-20.38v-51.29ZM1424.62,3969a11.911,11.911,0,1,1-.32,0h0.32m27.9,0a11.916,11.916,0,1,1-.33,0h0.33m71.59,0a11.906,11.906,0,1,1-.31,0h0.31" transform="translate(-1212 -3842)"/>
</svg>
