<svg id="brands-badmoebel-logo" xmlns="http://www.w3.org/2000/svg" width="468" height="334" viewBox="0 0 468 334">
  <defs>
    <style>
      .cls-1 {
        fill: #eee;
      }

      .cls-2 {
        fill: #fff;
        fill-rule: evenodd;
      }
    </style>
  </defs>
  <path id="badmoeble" class="cls-2" d="M1113.85,3623.63a4.08,4.08,0,1,0-4.14-4.08A4.079,4.079,0,0,0,1113.85,3623.63Zm0-7.5a3.42,3.42,0,1,1-3.46,3.42A3.436,3.436,0,0,1,1113.85,3616.13Zm0.72,3.63a1.178,1.178,0,0,0,1.24-1.26c0-.97-0.76-1.22-1.6-1.22h-1.95v4.6h0.67v-2.12h0.86l1.19,2.12h0.76Zm-0.49-1.81c0.56,0,1.05.04,1.05,0.62,0,0.63-.86.52-1.49,0.52h-0.71v-1.14h1.15Zm-209.128,26.33-8.641-13.25,0.26,13.25h-8.863v-28.81h8.864l-0.261,13.8,8.417-13.8h9.8l-8.837,14.01,9.789,14.8H904.952Zm-30.222.48a14.328,14.328,0,0,1-14.366-14.6,14.828,14.828,0,0,1,14.8-15.17A21.483,21.483,0,0,1,881.6,3616v8.88a9.036,9.036,0,0,0-5.194-1.85,6.829,6.829,0,0,0-6.8,6.84,6.911,6.911,0,0,0,6.959,6.85,8.706,8.706,0,0,0,5.035-1.6v8.72A26.509,26.509,0,0,1,874.73,3644.76ZM812,3650.13h294.34v6.46H812v-6.46Zm132.708-5.85v-28.81h9.158v20.77h9.058l-1.276,8.04h-16.94Zm54.99-28.81h-9.817l-4.788,16.55h-0.259l-0.352-1.22-4.436-15.33h-9.817l-4.572,28.81h8.751l2.409-16.09,0.239-1.56h0.193l5.061,17.65h5.306l5.062-17.65h0.19l0.242,1.56,2.408,16.09h8.752Zm62.412,0v17.07h-0.27l-10.62-17.07h-8.94v28.81h8.5v-17.07h0.27l10.58,17.07h8.98v-28.81h-8.5Zm35.29,0v17.07h-0.27l-10.62-17.07h-8.94v28.81h8.49v-17.07h0.28l10.58,17.07h8.98v-28.81h-8.5Zm-168.635,22.46v-5.24h8.395v-5.68h-8.395v-5.23h9.19v-6.31H919.527v28.81h18.746v-6.35h-9.508Zm-107.529-10.31v-5.39h7.8l2.34-6.76H812v28.81h9.236v-10.71h3.9l2.066-5.95h-5.963Zm27.962-12.15H838.377l-9.818,28.81h9.129l1.1-3.81h0l0.141-.49,0.271-.93h9.451l0.272,0.93,0.141,0.49h0l1.1,3.81h9.1Zm-5.151,7.71,2.878,9.92h-6.007l2.879-9.92h0.25Zm183.663-7.71h-10.82l-9.82,28.81h9.13l1.1-3.81h0l0.14-.49,0.27-.93h9.46l0.27,0.93,0.14,0.49h0l1.11,3.81h9.1Zm-5.15,7.71,2.88,9.92h-6.01l2.88-9.92h0.25Zm-210.339,46.87a55.366,55.366,0,0,1,8.813-.62c4.16,0,6.71.4,8.9,1.68a6.5,6.5,0,0,1,3.624,5.84c0,2.66-1.566,5.14-4.965,6.38v0.09c3.443,0.93,5.994,3.49,5.994,7.34a7.915,7.915,0,0,1-3.131,6.33c-2.193,1.73-5.861,2.7-11.855,2.7a53.623,53.623,0,0,1-7.382-.44v-29.3Zm6.755,11.42h2.236c3.58,0,5.5-1.46,5.5-3.67,0-2.26-1.744-3.46-4.831-3.46a18.5,18.5,0,0,0-2.908.18v6.95Zm0,13.23a21.388,21.388,0,0,0,2.639.09c3.087,0,5.816-1.19,5.816-4.29,0-3.01-2.729-4.21-6.128-4.21h-2.327v8.41Zm36.962-2.87-2.148,7.65h-7.067l9.215-29.83h8.948l9.348,29.83H866.9l-2.326-7.65h-8.634Zm7.649-5.05-1.878-6.33c-0.537-1.77-1.074-3.98-1.521-5.75H860.1c-0.447,1.77-.894,4.03-1.387,5.75l-1.788,6.33h6.664Zm25.422-16.73a61.3,61.3,0,0,1,9.215-.62c5.727,0,9.44,1.02,12.348,3.19,3.131,2.3,5.1,5.97,5.1,11.24,0,5.71-2.1,9.65-5.011,12.08-3.176,2.62-8.008,3.85-13.913,3.85a60.039,60.039,0,0,1-7.739-.44v-29.3Zm6.845,24.34a12.032,12.032,0,0,0,2.37.14c6.175,0.04,10.2-3.32,10.2-10.45,0.046-6.19-3.623-9.47-9.483-9.47a14.628,14.628,0,0,0-3.087.26v19.52Zm59.2-6.32c-0.134-3.59-.268-7.93-0.268-12.27h-0.134c-0.939,3.81-2.193,8.06-3.355,11.56L947.626,3699H942.3l-3.221-11.51c-0.984-3.54-2.013-7.79-2.728-11.69h-0.091c-0.179,4.03-.312,8.64-0.536,12.35l-0.537,11.33h-6.308l1.924-29.83h9.081l2.952,9.96c0.94,3.41,1.88,7.17,2.551,10.67h0.134c0.85-3.45,1.879-7.39,2.864-10.71l3.22-9.92h8.9l1.655,29.83H955.5Zm48.909-3.81c0,9.78-5.994,15.71-14.808,15.71-8.945,0-14.18-6.68-14.18-15.18,0-8.94,5.771-15.63,14.674-15.63C998.905,3669.16,1003.96,3676.03,1003.96,3684.26Zm-19.146-16.33a3.036,3.036,0,1,1,.089-6.07,3.037,3.037,0,0,1-.044,6.07h-0.045Zm-2.64,16.73c0,5.84,2.774,9.96,7.336,9.96,4.609,0,7.248-4.34,7.248-10.14,0-5.36-2.594-9.96-7.292-9.96C984.859,3674.52,982.174,3678.86,982.174,3684.66Zm11.945-16.73a3.02,3.02,0,1,1,.045,0h-0.045Zm22.831,2.12a55.333,55.333,0,0,1,8.81-.62c4.16,0,6.71.4,8.9,1.68a6.491,6.491,0,0,1,3.63,5.84c0,2.66-1.57,5.14-4.97,6.38v0.09c3.45,0.93,6,3.49,6,7.34a7.917,7.917,0,0,1-3.14,6.33c-2.19,1.73-5.86,2.7-11.85,2.7a53.53,53.53,0,0,1-7.38-.44v-29.3Zm6.75,11.42h2.24c3.58,0,5.5-1.46,5.5-3.67,0-2.26-1.74-3.46-4.83-3.46a18.491,18.491,0,0,0-2.91.18v6.95Zm0,13.23a21.415,21.415,0,0,0,2.64.09c3.09,0,5.82-1.19,5.82-4.29,0-3.01-2.73-4.21-6.13-4.21h-2.33v8.41Zm48.06-7.83h-11.09v7.08h12.39v5.53h-19.24v-29.83h18.61v5.53h-11.76v6.2h11.09v5.49Zm15.8-17.22h6.85v24.17h11.98v5.66h-18.83v-29.83Z" transform="translate(-726 -3488)"/>
</svg>
