<svg id="brands-zenker-logo" xmlns="http://www.w3.org/2000/svg" width="468" height="334" viewBox="0 0 468 334">
  <defs>
    <style>
      .cls-1 {
        fill: #eee;
      }

      .cls-2 {
        fill: #fff;
        fill-rule: evenodd;
      }
    </style>
  </defs>
  <path id="zenker" class="cls-2" d="M566.934,3979.15a0.82,0.82,0,0,0-.932-1.04h-0.474v1.71h0.445A0.866,0.866,0,0,0,566.934,3979.15Zm2.094,3.84a4.15,4.15,0,0,0,0-5.85,4.038,4.038,0,0,0-5.7-.04,0.146,0.146,0,0,0-.037.04,4.15,4.15,0,0,0,0,5.85,4.016,4.016,0,0,0,5.659.08C568.976,3983.04,569,3983.02,569.028,3982.99Zm-4.662-5.83h1.793a2.12,2.12,0,0,1,1.363.35,1.566,1.566,0,0,1,.574.93,1.521,1.521,0,0,1-.984,1.92l-0.106.03,1.434,2.46h-1.363l-1.606-2.57v2.57h-1.162Zm-72.891-10.15v38.01l14.888-16.43,5.622,5.07-9.61,10.75c6.111,3.35,9.51,9.42,9.51,16.92v2.25h-8.391a18.781,18.781,0,0,0-.158-2.97,16.759,16.759,0,0,0-2.208-6.86,14.345,14.345,0,0,0-7.172-6.02,12.4,12.4,0,0,0-2.41-.52v16.37h-8.132v-56.57H369v69.58H580v-69.58H491.475Zm-84.18,56.57H380.143l14.63-26.84h-13.5v-7.14H407.6l-14.544,26.89h14.214Zm34.925-13.55H418.267v-6.89h15.706a9.613,9.613,0,0,0-8.907-5.97,9.72,9.72,0,1,0,0,19.44c3.284,0,5.278-1.25,7.587-3.48l5.795,4.9a17,17,0,1,1,4.1-11.14A20.763,20.763,0,0,1,442.22,4010.03Zm35.586,13.55h-7.832v-17.23a18.074,18.074,0,0,0-.3-3.26,7.612,7.612,0,0,0-7.544-6.48,7.988,7.988,0,0,0-6.053,2.86c-1.435,1.81-1.779,2.77-1.779,6.85v17.26h-7.96v-33.92h7.96v2.85a12.481,12.481,0,0,1,9.036-3.39,14.1,14.1,0,0,1,11.69,5.81c2.108,2.85,2.869,5.71,2.869,10.52Zm88.368-48.54a4.945,4.945,0,1,0,0,.05v-0.05Zm-18.216,34.99H524.005v-6.89h15.777a9.626,9.626,0,0,0-9.036-5.97,9.721,9.721,0,0,0,0,19.43c3.285,0,5.278-1.26,7.588-3.48l5.809,4.91a17.4,17.4,0,1,1,4.116-11.18A20.875,20.875,0,0,1,547.958,4010.03Zm22.146-13.06a11.743,11.743,0,0,0-5.58,1.93c-3.256,2.34-4.3,4.96-4.3,11.42v13.26h-8.075v-33.92h8.075v3.87a11.46,11.46,0,0,1,9.237-4.41,14.532,14.532,0,0,1,1.865.15Zm-176.149,47.46-1.434,6.92h0a4.685,4.685,0,0,1,3.772-1.94c2.453,0,3.471,1.99,3.471,4.03a7.59,7.59,0,0,1-7.276,7.9,0.524,0.524,0,0,1-.125.01c-2.409,0-3.844-1.02-3.829-3.07a11.173,11.173,0,0,1,.215-1.97l2.41-11.88h2.8Zm-2.423,12.02a5.494,5.494,0,0,0-.115,1.43,1.338,1.338,0,0,0,1.215,1.44c0.1,0,.2,0,0.305-0.01,2.41,0,3.988-3.07,3.988-5.32,0-1.25-.546-2.31-1.808-2.31s-2.868,1.43-3.356,3.76Zm16.867,4.64c0-.68.115-1.6,0.215-2.58h0a4.6,4.6,0,0,1-4.1,2.85,3.471,3.471,0,0,1-3.411-3.54c0-.12.011-0.24,0.026-0.36a7.813,7.813,0,0,1,7.609-8.03,3.623,3.623,0,0,1,.466,0,12,12,0,0,1,3.471.51l-1.19,5.95a25.759,25.759,0,0,0-.459,5.22Zm1.133-9.45a4.8,4.8,0,0,0-1.133-.12c-2.539,0-4.5,2.86-4.5,5.44,0,1.2.459,2.19,1.65,2.19s2.868-1.6,3.37-4.51Zm4.016,9.45,3.184-16.66h2.711l-1.936,10.18h0l1.047-1.21,3.442-3.73h3.385l-4.948,4.71,3.3,6.71h-3l-2.352-5.22-1.348,1.25-0.746,3.97h-2.74Zm11.676,0,2.165-11.42h2.754l-2.194,11.42h-2.725Zm2.61-14.51a1.64,1.64,0,0,1,1.592-1.67h0.057a1.432,1.432,0,0,1,1.435,1.43,1.623,1.623,0,0,1-1.62,1.64,0.179,0.179,0,0,1-.073,0A1.424,1.424,0,0,1,427.834,4046.58Zm3.156,14.51,1.434-7.88c0.287-1.43.444-2.56,0.588-3.54h2.424l-0.23,2.05h0a4.94,4.94,0,0,1,4.131-2.31,2.864,2.864,0,0,1,2.883,2.84,2.738,2.738,0,0,1-.014.3,11.337,11.337,0,0,1-.2,1.9l-1.276,6.64h-2.74l1.233-6.45a8.558,8.558,0,0,0,.144-1.43,1.376,1.376,0,0,0-1.434-1.64c-1.076,0-2.869,1.43-3.342,4.17l-0.99,5.28Zm13.238,2.04a6.818,6.818,0,0,0,3.041.69c1.793,0,3.17-.86,3.729-3.5l0.287-1.3h0a4.2,4.2,0,0,1-3.6,2.03,3.709,3.709,0,0,1-3.615-3.8q0-.12.015-0.24a7.412,7.412,0,0,1,7.225-7.6H451.6a10.22,10.22,0,0,1,3.973.8l-1.736,9.42a8.652,8.652,0,0,1-2.352,5.1,6.748,6.748,0,0,1-4.3,1.26,7.419,7.419,0,0,1-3.586-.77Zm8.305-11.31a3.877,3.877,0,0,0-1.506-.28c-2.41,0-4.1,2.58-4.1,5.04,0,1.2.473,2.33,1.836,2.33s2.725-1.62,3.126-3.69Zm8.649,6.72a6.461,6.461,0,0,0,2.754.77,1.558,1.558,0,0,0,1.764-1.43c0-.77-0.373-1.17-1.506-1.76a3.5,3.5,0,0,1-2.266-2.97c0-2.21,1.936-3.75,4.647-3.75a5.533,5.533,0,0,1,2.711.58l-0.7,1.97a4.594,4.594,0,0,0-2.152-.51,1.505,1.505,0,0,0-1.735,1.33c0,0.77.516,1.08,1.434,1.57a3.731,3.731,0,0,1,2.381,3.08c0,2.5-2.123,3.89-4.876,3.89a5.98,5.98,0,0,1-3.2-.82Zm8.821,2.55,2.166-11.42h2.754l-2.195,11.42H470Zm2.61-14.51a1.641,1.641,0,0,1,1.592-1.67h0.058a1.432,1.432,0,0,1,1.434,1.43,1.623,1.623,0,0,1-1.62,1.64,0.175,0.175,0,0,1-.072,0A1.424,1.424,0,0,1,472.613,4046.58Zm3.156,14.51,1.434-7.88c0.287-1.43.445-2.56,0.588-3.54h2.424l-0.229,2.05h0a4.939,4.939,0,0,1,4.131-2.31,2.865,2.865,0,0,1,2.883,2.84q0,0.15-.015.3a10.137,10.137,0,0,1-.215,1.9l-1.262,6.64h-2.74l1.234-6.45a8.453,8.453,0,0,0,.143-1.43,1.375,1.375,0,0,0-1.434-1.64c-1.076,0-2.869,1.43-3.342,4.17l-0.99,5.28Zm21.013-.4a7.947,7.947,0,0,1-3.3.63,4.287,4.287,0,0,1-4.648-4.54,7.244,7.244,0,0,1,7.113-7.37h0.188a6.439,6.439,0,0,1,2.338.44l-0.7,2.13a4.234,4.234,0,0,0-1.721-.34,4.586,4.586,0,0,0-4.3,4.81,2.388,2.388,0,0,0,2.086,2.66,2.147,2.147,0,0,0,.439.01,5.927,5.927,0,0,0,2.452-.54Zm10.441-.26a9.33,9.33,0,0,1-4.059.89,4.3,4.3,0,0,1-4.707-3.84,4.216,4.216,0,0,1,0-.87c0-3.44,2.538-7.14,6.5-7.14a3.281,3.281,0,0,1,3.674,2.83,3.034,3.034,0,0,1,.027.38c0,2.86-3.084,3.87-7.516,3.77a3.262,3.262,0,0,0,.3,1.63,2.544,2.544,0,0,0,2.352,1.17,6.723,6.723,0,0,0,3.17-.76Zm-2.624-8.98a3.508,3.508,0,0,0-3.17,2.86c2.868,0,4.633-.34,4.633-1.71A1.255,1.255,0,0,0,504.6,4051.45Zm15.447-2.98h0l-2.868,1.31-0.158-2.14,3.9-1.8h2.295l-2.869,15.25H517.68Zm16.108,0.7a4.282,4.282,0,0,1-2.869,3.78v0.07a3.94,3.94,0,0,1,2.18,3.47c0,3.19-3,4.86-5.823,4.86-3.084,0-4.877-1.64-4.877-3.87a4.853,4.853,0,0,1,3.414-4.44h0a3.524,3.524,0,0,1-1.578-2.86c0-2.68,2.467-4.48,5.293-4.48C534.318,4045.59,536.154,4046.9,536.154,4049.17Zm-3.558,7.58c0-1.34-.846-2.16-2.309-2.67a3.3,3.3,0,0,0-2.668,3.07,2.132,2.132,0,0,0,2.073,2.19,1.65,1.65,0,0,0,.222-0.01,2.551,2.551,0,0,0,2.68-2.43c0-.05,0-0.1,0-0.15h0Zm-3.284-6.87c0,1.07.746,1.8,1.979,2.23a3.02,3.02,0,0,0,2.281-2.63,1.755,1.755,0,0,0-1.624-1.88,1.348,1.348,0,0,0-.284,0A2.33,2.33,0,0,0,529.312,4049.88Zm19.048-.71a4.282,4.282,0,0,1-2.869,3.78v0.07a3.933,3.933,0,0,1,2.166,3.47c0,3.19-3,4.86-5.824,4.86-3.083,0-4.876-1.64-4.876-3.87a4.853,4.853,0,0,1,3.413-4.44h0a3.523,3.523,0,0,1-1.577-2.86c0-2.68,2.481-4.48,5.307-4.48C546.524,4045.59,548.36,4046.9,548.36,4049.17Zm-3.558,7.58c0-1.34-.86-2.16-2.309-2.67a3.3,3.3,0,0,0-2.668,3.07,2.14,2.14,0,0,0,2.074,2.19,1.435,1.435,0,0,0,.207-0.01,2.553,2.553,0,0,0,2.693-2.42C544.8,4056.86,544.8,4056.8,544.8,4056.75Zm-3.356-6.87c0,1.07.76,1.8,1.979,2.23a3.037,3.037,0,0,0,2.3-2.63,1.767,1.767,0,0,0-1.654-1.88,1.071,1.071,0,0,0-.253,0A2.347,2.347,0,0,0,541.446,4049.88Zm18.5-1.7h-5.336l-0.932,3.06a4.126,4.126,0,0,1,.7,0,5.121,5.121,0,0,1,2.868.84,3.827,3.827,0,0,1,1.75,3.37c0,3.76-3.112,5.94-6.712,5.94a6.878,6.878,0,0,1-3.687-.87l0.761-2.18a6.206,6.206,0,0,0,3.012.75,3.525,3.525,0,0,0,3.772-3.14c0-1.43-.846-2.61-3.744-2.61a10.605,10.605,0,0,0-1.821.1l2.18-7.55h7.587Z" transform="translate(-240 -3842)"/>
</svg>
