<svg id="brands-lanzet-logo" xmlns="http://www.w3.org/2000/svg" width="468" height="334" viewBox="0 0 468 334">
  <defs>
    <style>
      .cls-1 {
        fill: #eee;
      }

      .cls-2 {
        fill: #fff;
        fill-rule: evenodd;
      }
    </style>
  </defs>
  <path id="lanzet" class="cls-2" d="M1316.23,4318h18.12l-9.06,43.68h26.03l-3.13,15.05h-44.16Zm57.91,50.18c5.52,0,7.75-4.03,8.74-10.37a23.47,23.47,0,0,1-8.65,1.89c-2.72.25-5.28,1.65-5.28,4.77,0,2.96,2.56,3.71,5.19,3.71m-15.81-21.23c2.55-11.35,11.36-13.98,21.83-13.98,7.74,0,20.76.98,20.76,11.35,0,6.66-5.19,25.83-5.19,28.63,0.33,3.29,0,1.81.66,3.78H1380.4a11.656,11.656,0,0,1-.57-4.11h-0.17c-2.88,3.45-8.4,5.18-13.18,5.18-7.33,0-13.84-3.21-13.84-11.35,0-11.27,8.4-14.31,20.68-15.22,4.61-.33,11.94.33,11.94-4.94,0-2.96-2.63-3.7-5.1-3.7-3.3,0-5.61,1.16-6.51,4.36h-15.32Zm52.96-12.91h15.74l-1.24,5.43h0.17a17.411,17.411,0,0,1,13.26-6.5c7.5,0,13.92,3.12,13.92,11.51a46.307,46.307,0,0,1-1.15,8.15l-5.19,24.1h-16.31l4.2-19.58c0.49-2.47,1.32-5.35,1.32-7.07,0-2.72-1.98-4.11-4.62-4.11-5.19,0-6.92,3.7-7.9,8.14l-4.78,22.62H1402.4Zm42.85,30.84,23.64-18.83v-0.17h-17.96l2.56-11.84h38.72l-2.64,12.42-23.07,18.26v0.16h20.93l-2.47,11.85h-42.26Zm77.6-14.31a7.437,7.437,0,0,0,.17-1.4c0-3.2-2.06-5.75-6.18-5.75-4.37,0-7.25,2.63-8.49,7.15h14.5Zm12.85,13.74c-1.07,2.88-4.28,13.49-22.73,13.49-15.16,0-21.26-8.48-21.26-18.84,0-19.58,15-25.99,25.62-25.99,9.47,0,20.93,5.26,20.93,18.67a26.5,26.5,0,0,1-.83,7.4h-30.48c0,4.53,1.57,8.31,6.68,8.31,3.54,0,5.6-1.56,6.42-3.04h15.65Zm31.63-30.27h8.82l-2.31,10.03h-8.65l-2.88,13.74a19.421,19.421,0,0,0-.75,4.28c0,1.4.75,2.55,3.3,2.55,2.64,0,4.04-.17,5.36-0.25l-2.48,11.77a80.271,80.271,0,0,1-8.81,1.07c-3.46,0-7.17,0-10.3-1.73a9.433,9.433,0,0,1-4.45-8.07,25.509,25.509,0,0,1,.91-5.83l3.79-17.53h-7.25l2.3-10.03h7.09l2.88-12.92h16.32Zm19.11,34.36a5.366,5.366,0,0,0-2.49-.43h-1.76v4.24h1.86a5.659,5.659,0,0,0,1.96-.26,2.111,2.111,0,0,0,.43-3.55m-2.22-1.84a9,9,0,0,1,3.2.42,2.919,2.919,0,0,1,1.81,2.97,2.536,2.536,0,0,1-1.15,2.31,4.505,4.505,0,0,1-1.69.57,2.858,2.858,0,0,1,2.03,1.14,3.168,3.168,0,0,1,.64,1.81v0.85q0,0.4.03,0.87a1.956,1.956,0,0,0,.1.61l0.07,0.14h-1.92l-0.03-.12a1.3,1.3,0,0,1-.03-0.13l-0.04-.37v-0.92a2.833,2.833,0,0,0-1.11-2.67,5.065,5.065,0,0,0-2.31-.37h-1.63v4.58h-2.07v-11.69h4.1Zm-6.3-.58a9.2,9.2,0,1,0,6.5-2.69,8.825,8.825,0,0,0-6.5,2.69m14.06,14.01a10.635,10.635,0,1,1,0-15.05,10.134,10.134,0,0,1,3.13,7.5,10.276,10.276,0,0,1-3.13,7.55m-286.68,11.74h-0.04l-3.64,10.93h-2.16l-4.35-13.18h2.13l3.38,10.71h0.04l3.53-10.71h2.33l3.63,10.71h0.03l3.37-10.71h2.04l-4.48,13.18h-2.15Zm20.56,2.47a3.62,3.62,0,1,0,3.66,3.62,3.395,3.395,0,0,0-3.66-3.62m0-1.55c3.77,0,5.62,2.39,5.62,5.17s-1.85,5.17-5.62,5.17-5.63-2.38-5.63-5.17,1.85-5.17,5.63-5.17m11.85-3.29h1.85v5.08h0.04a4.339,4.339,0,0,1,3.79-1.79c2.33,0,4.07,1,4.07,3.42v6.59h-1.85v-6.22c0-1.42-.89-2.24-2.87-2.24a2.9,2.9,0,0,0-3.18,2.88v5.58h-1.85v-13.3Zm16.41,3.63h1.85v1.45h0.03a4.339,4.339,0,0,1,3.79-1.79c2.34,0,4.07,1,4.07,3.42v6.59h-1.85v-6.22c0-1.42-.88-2.24-2.86-2.24a2.9,2.9,0,0,0-3.18,2.88v5.58h-1.85v-9.67Zm16.4,0h1.85v9.67h-1.85v-9.67Zm0-3.63h1.85v2.04h-1.85v-2.04Zm13.59,12.08a3.565,3.565,0,1,0-3.55-3.56,3.338,3.338,0,0,0,3.55,3.56m3.48-.01h-0.04a4.643,4.643,0,0,1-3.68,1.56,5.117,5.117,0,1,1,0-10.23,4.527,4.527,0,0,1,3.68,1.57h0.04v-4.97h1.85v13.3h-1.85v-1.23Zm17.01-4.5a3.2,3.2,0,0,0-3.39-2.73,3.365,3.365,0,0,0-3.51,2.73h6.9Zm-6.96,1.45a3.434,3.434,0,0,0,3.57,3.06,3.275,3.275,0,0,0,3.13-1.72h1.96a5.238,5.238,0,0,1-5,3.27c-3.77,0-5.62-2.38-5.62-5.17s1.85-5.17,5.62-5.17c2.56,0,5.26,1.48,5.26,5.49v0.24h-8.92Zm23.68-1.45a3.182,3.182,0,0,0-3.38-2.73,3.358,3.358,0,0,0-3.51,2.73h6.89Zm-6.95,1.45a3.428,3.428,0,0,0,3.57,3.06,3.284,3.284,0,0,0,3.13-1.72h1.96a5.238,5.238,0,0,1-5,3.27c-3.77,0-5.62-2.38-5.62-5.17s1.85-5.17,5.62-5.17c2.56,0,5.26,1.48,5.26,5.49v0.24h-8.92Zm15.21-5.39h1.85v1.45h0.03a4.345,4.345,0,0,1,3.8-1.79c2.33,0,4.07,1,4.07,3.42v6.59h-1.85v-6.22c0-1.42-.89-2.24-2.87-2.24a2.9,2.9,0,0,0-3.18,2.88v5.58h-1.85v-9.67Zm27.55-1.45c0-1.79,1.11-2.4,2.98-2.4,0.58,0,1.07.1,1.61,0.15v1.44c-0.35-.02-0.7-0.04-1.03-0.04-1.21,0-1.7.15-1.7,0.95v1.35h2.73v1.44h-2.73v8.23h-1.86v-8.23h-1.97v-1.44h1.97v-1.45Zm16.18-1.88h1.85v1.92h-1.85v-1.92Zm-4.44,0h1.85v1.92h-1.85v-1.92Zm8.01,13h-1.85v-1.46h-0.04a4.328,4.328,0,0,1-3.79,1.79c-2.33,0-4.07-.99-4.07-3.41v-6.59h1.85v6.22c0,1.42.89,2.23,2.86,2.23a2.9,2.9,0,0,0,3.19-2.88v-5.57h1.85v9.67Zm6.66-9.67h1.85v1.77h0.03a3.893,3.893,0,0,1,4.39-2v2a5.182,5.182,0,0,0-1.31-.19,2.884,2.884,0,0,0-3.11,3.18v4.91h-1.85v-9.67Zm13.21,6.63c0,0.86.7,1.94,3.06,1.94,2.38,0,2.95-.84,2.95-1.52s-0.35-1.09-1.83-1.29l-3.05-.41a2.71,2.71,0,0,1-2.63-2.56c0-1.97,1.71-3.13,4.43-3.13,3.18,0,4.56,1.37,4.73,3.25h-1.85c-0.06-.98-0.98-1.81-2.9-1.81-1.19,0-2.56.33-2.56,1.48,0,0.65.3,1.02,1.61,1.2l2.63,0.35c2.44,0.33,3.38,1.2,3.38,2.57,0,2.25-1.9,3.3-4.86,3.3-2.22,0-4.76-.57-4.96-3.37h1.85Zm32.22,1.34c2.19,0,2.76-1.1,2.76-2.23,0-1.04-.59-2.11-2.59-2.11h-5.48v4.34h5.31Zm0.04-6.04a1.853,1.853,0,0,0,2.15-1.84c0-1.2-.65-1.9-2.26-1.9h-5.24v3.74h5.35Zm-7.31-5.44h7.35c2.81,0,4.07,1.23,4.07,3.3a2.718,2.718,0,0,1-1.93,2.79v0.04a3,3,0,0,1,2.5,3.25c0,1.88-1.32,3.8-4.18,3.8h-7.81v-13.18Zm26.01,8.12a2.78,2.78,0,0,1-1.81.57l-2.09.26c-1.45.19-2.2,0.58-2.2,1.59,0,0.91.9,1.54,2.25,1.54,2.09,0,3.85-1.12,3.85-2.72v-1.24Zm-7.53-1.59c0.24-2.41,1.91-3.36,4.81-3.36,1.98,0,4.46.5,4.46,2.76v5.2a0.721,0.721,0,0,0,.83.83,3.5,3.5,0,0,0,.65-0.07v1.29a8.814,8.814,0,0,1-1.44.11,1.384,1.384,0,0,1-1.67-1.34c-0.74.99-2.55,1.56-4.12,1.56-3.22,0-3.94-1.66-3.94-2.91,0-1.78,1.05-2.68,4.16-3.01l2.11-.23c1.03-.11,1.68-0.29,1.68-1.16,0-1.33-1.29-1.59-2.79-1.59-1.59,0-2.95.43-3,1.92h-1.74Zm21.5,5.43a3.565,3.565,0,1,0-3.55-3.56,3.338,3.338,0,0,0,3.55,3.56m3.48-.01h-0.04a4.629,4.629,0,0,1-3.68,1.56,5.117,5.117,0,1,1,0-10.23,4.527,4.527,0,0,1,3.68,1.57h0.04v-4.97h1.85v13.3h-1.85v-1.23Z" transform="translate(-1212 -4196)"/>
</svg>
