<svg id="brands-luigi-logo" xmlns="http://www.w3.org/2000/svg" width="468" height="334" viewBox="0 0 468 334">
  <defs>
    <style>
      .cls-1 {
        fill: #eee;
      }

      .cls-2 {
        fill: #fff;
        fill-rule: evenodd;
      }
    </style>
  </defs>
  <path id="luigi-bormioli" class="cls-2" d="M1301.79,5673.94c0,0.28-3.51,1.55-6.59,1.55-2.6-.09-4.89-0.54-4.89-1.11s2.71-1.12,5.59-1.12a24.03,24.03,0,0,1,5.85.66m187.65-16.86h0.54a2.356,2.356,0,0,0,.75-0.12,1.361,1.361,0,0,1,.63-0.15,2.079,2.079,0,0,1,1.87,2.25,0.688,0.688,0,0,1-.02.13c0,1.36-1.11,3.15-2.23,4.74s-2.45,3.1-3.09,3.89-2.34,2.59-3.44,4.05a7.489,7.489,0,0,0-1.12,1.86c-0.11.41,0,.51,0.23,0.56a6.179,6.179,0,0,0,2.36-.44,17.8,17.8,0,0,0,6.82-4.29c0.45-.54,1.95-2.23,3.53-4.05s3.19-3.7,3.8-4.63c0.81-1.02,3.21-4.14,3.21-4.14h4.47l-0.72,1.01a10.413,10.413,0,0,1,3.35-1.11,2.959,2.959,0,0,1,3.33,2.55,3.5,3.5,0,0,1,.02.56,13.171,13.171,0,0,1,2.24-1.37c0.78-.42,1.37-0.66,1.48-0.74a5.869,5.869,0,0,1,2.24-.38c1.56,0.17,2.3,1.18,2.23,2.87a6.743,6.743,0,0,1-.88,2.82,10.2,10.2,0,0,1-.8,1.35c-1.12,1.51-2.24,2.84-2.87,3.59-0.73.91-2.35,2.49-3.47,3.87a6.374,6.374,0,0,0-1.12,1.69c-0.1.29,0,.38,0.29,0.44,1.18,0.16,3.96-2.07,7.04-5.09s6.03-6.32,7.68-8.07c0.79-1.04,2.94-3.35,2.94-3.35h5.22l-0.64.68c-2.58,2.71-6.84,6.98-8.94,9.57a49.177,49.177,0,0,0-3.13,4.27,4.784,4.784,0,0,0-.38.61,1.952,1.952,0,0,0-.32.91,0.686,0.686,0,0,0,.63.75,0.757,0.757,0,0,0,.15-0.01h0.61a3.333,3.333,0,0,0,.94-0.24,73.554,73.554,0,0,0,10.89-8.44,29.632,29.632,0,0,1,2.12-2.23c4.7-4.69,10.79-7.41,12.97-5.22a3.076,3.076,0,0,1,.76,1.18h0s0.07,0.43.13,0.87a5.241,5.241,0,0,1,0,1.48,5.794,5.794,0,0,1-2.01,3.71,1.417,1.417,0,0,0,1.32,1.01,5.6,5.6,0,0,0,4.31-2.23c2.12-2.94,16.27-19.55,19.32-22.8,8.89-9.51,18.33-16.36,20.79-14.08,0.85,0.78.62,2.35,0,4.17h0c-2.34,4.07-8.74,10.63-16.83,17.2a111.33,111.33,0,0,1-13.85,9.75,113.142,113.142,0,0,0-9.61,11.68,13.251,13.251,0,0,0-1.73,3.07c-0.22,1.24.65,1.32,1.47,1.2,1.39-.21,6.24-3.49,7.83-4.78a55.559,55.559,0,0,0,4.59-3.95c1.22-1.2,2.37-2.53,3.74-3.98,0.82-1.04,3.58-4.17,3.58-4.17h4.84l-0.56.64c-3.1,3.58-5.21,6.24-7.82,9.2l-2.46,2.66a9.236,9.236,0,0,0-1.72,2.43,1.358,1.358,0,0,0,0,1.52,1.653,1.653,0,0,0,1.93-.11c3-1.59,7.75-5.99,9.97-8.21,0.38-.47,3.07-3.19,5.68-5.88s5.5-5.74,5.5-5.74h0.98l-10.76,12.27c-5.35,5.73-8.56,8.31-10.54,9.46a6.124,6.124,0,0,1-2.24.83,1.83,1.83,0,0,1-.66,0c-0.11-.03-0.23-0.06-0.34-0.1-2.89-.49-2.77-3.76-2.52-4.46a31.382,31.382,0,0,1,1.37-3.35,41.178,41.178,0,0,1-4.3,4.26c-2.41,1.84-5.19,3.66-7.02,3.54a3.274,3.274,0,0,1-3.14-3.62,9.611,9.611,0,0,1,2.48-5.76,5.113,5.113,0,0,1-2,.68,4.227,4.227,0,0,1-2.24-.67c-0.19-.15-0.37-0.32-0.55-0.49l-0.57.75a39.252,39.252,0,0,1-3.24,3.34,25.079,25.079,0,0,1-5.74,4.46c-2.61,1.36-5.13,1.81-6.42.53-0.88-.93-0.76-4.04.65-6.69-0.13.11-1.45,1.61-1.6,1.73-0.57.53-1.11,1.21-1.78,1.8a18.287,18.287,0,0,1-4.15,3.34,6.173,6.173,0,0,1-2.93.57c-3.03,0-3.02-3.05-2.73-4,0-.21.86-2.39,1.12-3.2-1.05,1.27-2.99,3.35-3.35,3.71a22.286,22.286,0,0,1-1.77,1.59,15.366,15.366,0,0,1-1.53.99,5.456,5.456,0,0,1-2.81.97h0a2.075,2.075,0,0,1-2.12-2.02v-0.02a5.143,5.143,0,0,1,.35-2.42,11.353,11.353,0,0,1,1.84-3.11c0.89-1.12,1.86-2.16,2.59-2.98,1.46-1.83,3.01-3.34,4.32-5.19a2,2,0,0,1,.16-0.24c0.05-.09.12-0.17,0.19-0.28a0.927,0.927,0,0,0,.11-0.51,0.743,0.743,0,0,0-.27-0.44,1.233,1.233,0,0,0-.76,0,4.212,4.212,0,0,0-.75.34,15.849,15.849,0,0,0-4.02,3.12c-0.84.93-1.39,1.8-2.42,2.93-0.58.63-5.37,6.46-8.46,10.64l-0.12.17h-4.88l0.55-.63c3.11-3.69,11.45-13.69,12.65-15.61a1.128,1.128,0,0,0-.26-1.46,1.372,1.372,0,0,0-.85,0,1.65,1.65,0,0,0-.49.21c-0.23.12-.44,0.25-0.71,0.4a21.637,21.637,0,0,0-3.95,2.91c-1.26,1.11-2.46,2.33-3.53,3.43-3.81,4.73-8.94,10.75-8.94,10.75h-5.19l0.62-.64,2.23-2.31c-1.01.6-2.55,1.58-3.54,2.02a8.72,8.72,0,0,1-3.05.72,2.46,2.46,0,0,1-2.8-2.04c-0.01-.07-0.01-0.13-0.02-0.19a4.356,4.356,0,0,1,.06-1.3c0.09-.35.18-0.61,0.21-0.71a14.809,14.809,0,0,1,3.54-5.35c1.58-1.76,3.5-3.58,5.09-5.58a7.685,7.685,0,0,0,1.11-1.95,2.374,2.374,0,0,0-1.11-.22,3.16,3.16,0,0,0-2.48,1.11c-2.75,3.26-6.81,7.03-11.18,7.03h-0.08c-0.93,1.11-2.14,2.44-3.35,3.64a24.7,24.7,0,0,1-5.71,4.46c-2.59,1.34-5.13,1.83-6.43.55-0.89-.93-1.01-2.43-0.52-4.13-1.12.76-2.66,1.73-4.05,2.6-1.95,1.2-3.89,2.32-3.89,2.32l-0.82-.48s1.84-1.36,2.51-1.82a65.408,65.408,0,0,0,10.06-8.66,29.757,29.757,0,0,1,2.14-2.23c4.69-4.68,10.78-7.4,12.98-5.22a3.489,3.489,0,0,1,.75,1.18h0s0.08,0.43.13,0.87a7.419,7.419,0,0,1,0,1.49,6.1,6.1,0,0,1-1.74,3.48,6.32,6.32,0,0,0,1.12-.35c1.52-.59,3.84-2.05,6.89-5.57a1.461,1.461,0,0,1-.23-0.73v-0.04s0.06-.3.18-0.74a7.838,7.838,0,0,1,.7-1.46,3.66,3.66,0,0,1,3.47-2.01h0a1.247,1.247,0,0,1,1.12,1.24,0.544,0.544,0,0,1,0,.18,0.375,0.375,0,0,1,0,.21,0.956,0.956,0,0,1-.31.48,2.207,2.207,0,0,0-.36.23,2.832,2.832,0,0,0-.28.2,1.684,1.684,0,0,0-.22.42m-110.64,16.08h0l-0.08.1-0.27.31-0.98,1.19c-0.85,1.02-1.98,2.35-3.2,3.76-2.42,2.9-5.19,6.08-6.53,7.47-7.83,8.09-16.33,13.8-18.66,11.57-1.11-1.11-.68-3.41,1.12-6.13a44.594,44.594,0,0,1,9.01-8.72,31.622,31.622,0,0,1,11.34-5.86l1.12-1.3c-2.08.75-3.93,0.85-5.13,0.07s-1.28-2.81-.65-4.79a26.787,26.787,0,0,1-6.86,4.98,8.62,8.62,0,0,1-2.35.7c-2.61,0-4.38-1.3-2.07-5.46a29.158,29.158,0,0,1-2.97,3.12,20.019,20.019,0,0,1-1.9,1.38,4.415,4.415,0,0,1-3.27.75,3.453,3.453,0,0,1-3.25-2.82,6.69,6.69,0,0,1,.13-1.67,23.834,23.834,0,0,1-4.99,4.07,4.939,4.939,0,0,1-2.6.42c-3.27-.42-3.48-2.6-2.12-5.57-0.42.3-1.47,1.11-2.02,1.42a25.793,25.793,0,0,1-5.07,2.79,26.142,26.142,0,0,1-10.05,1.79,27.759,27.759,0,0,1-9.74-1.37,5.07,5.07,0,0,0-1.55-.24,3.829,3.829,0,0,0-1.49.28,29.771,29.771,0,0,1-8.56,1.69,18.154,18.154,0,0,1-4.91-.76c-1.12-.4-2.24-1.03-2.24-1.93a1.967,1.967,0,0,1,1.39-1.55,11.537,11.537,0,0,1,3.11-.83,26.251,26.251,0,0,1,6.13-.35,62.1,62.1,0,0,1,7.06.73c7.35-3.54,14.12-9.91,20.74-18.39,0.36-.46.74-0.95,1.12-1.4h-2.85a56.083,56.083,0,0,1-6.47-.43c-10.86-.95-18.13-6.89-18.13-14.34a13.921,13.921,0,0,1,3.36-8.37c5.04-5.69,12.29-9.68,24.21-10.5a37.13,37.13,0,0,1,6.5-.09,49.7,49.7,0,0,1,5.58.68,36.524,36.524,0,0,1,6.02,1.97l-0.17,1-0.3-.1a34.908,34.908,0,0,0-12.95-2.23c-10.41,0-18.86,3.24-25.11,8.51a12.723,12.723,0,0,0-4.9,9.42c0,4,2.3,6.85,6.2,9.18,3.58,2.23,10.06,3.13,16.87,3.13,1.18,0,2.45-.12,3.6-0.2a152.289,152.289,0,0,1,15.81-17.67,103.186,103.186,0,0,1,9.27-7.81c6.33-4.03,14.46-7.21,17.03-4.56,3.59,2.91-5.35,14.71-17.33,22.76a70.759,70.759,0,0,1-20.56,9.13c-1.06,1.39-1.97,2.85-3.16,4.25a83.893,83.893,0,0,1-21.12,16.73,26.753,26.753,0,0,0,8.65,1.27,24.957,24.957,0,0,0,9.3-1.52,30.348,30.348,0,0,0,7.95-4.46,128.864,128.864,0,0,0,9.25-10.71l0.1-.15h4.62s-7.98,9.22-11.94,13.95c-1,1.03-1.05,2.23-.69,2.58a1.9,1.9,0,0,0,2.23-.21,40.688,40.688,0,0,0,6.71-5.57c3.62-3.47,9.62-10.63,9.62-10.63l0.14-.12h4.63s-8.15,9.09-12.12,13.83a2.215,2.215,0,0,0-.49,2.72,1.918,1.918,0,0,0,2.23-.23,38.692,38.692,0,0,0,6.57-5.33c3.36-3.96,9.51-10.93,9.51-10.93h4.84l-0.56.62c-4.47,4.77-11.17,12.56-12.59,14.33l-0.1.16c-0.06.1-.11,0.24-0.17,0.37a1.727,1.727,0,0,0-.26.85c0.19,0.65.46,0.61,1.12,0.51a12.906,12.906,0,0,0,1.74-.64c2.89-1.32,8.21-6.05,10.43-8.29,0.68-.78,1.4-1.52,2.15-2.23,4.74-4.74,10.71-7.14,12.95-4.91a2.664,2.664,0,0,1,.57.96c0.67-.63,1.52-1.63,1.54-1.63l0.12-.16h5.17s-6.63,8.13-9.74,11.97a25.312,25.312,0,0,0,10.83-7.81c0.8-.89,3.55-4.17,3.55-4.17h4.88l-0.58.64c-3.24,3.65-5.49,6.08-8.1,9.03-0.78.87-1.61,1.81-2.32,2.72a13.425,13.425,0,0,0-1.67,2.54,1.419,1.419,0,0,0,.09,1.52c0.3,0.32,1.02.39,1.94-.12,2.98-1.58,7.63-5.85,9.86-8.09,0.4-.46,3.22-3.35,5.79-6.1s5.45-5.57,5.45-5.57h1.02l-10.75,12.26c-5.35,5.73-8.59,8.32-10.55,9.47a6.435,6.435,0,0,1-2.24.82,1.83,1.83,0,0,1-.66,0,1.191,1.191,0,0,1-.32-0.1c-2.9-.49-2.77-3.76-2.53-4.46a18.123,18.123,0,0,1,1.48-3.27c-0.62.34-1.34,0.71-2.12,1.12l-3.9,2.02a14.69,14.69,0,0,0-1.63.83c-0.31.18-.6,0.35-0.85,0.47a2,2,0,0,1-.24.16Zm-3.84-27.1a1.974,1.974,0,0,1,2.75-.42,0.01,0.01,0,0,0,.01.01,2,2,0,0,1-.39,2.76,1.768,1.768,0,0,1-2.37.76,1.746,1.746,0,0,1,0-3.11m31.88,0a1.99,1.99,0,0,1,2.77-.42v0.01a2,2,0,0,1-.41,2.76,1.742,1.742,0,0,1-3.08-1.63,1.669,1.669,0,0,1,.72-0.72m177.88,0a1.753,1.753,0,0,1,3.12,1.6,1.684,1.684,0,0,1-.73.74,1.755,1.755,0,1,1-2.39-2.34m-44.03.16a1.751,1.751,0,1,1-.41,2.8,2.044,2.044,0,0,1,.41-2.8m9.49,13.57a1.275,1.275,0,0,0-.33-0.69c-1.01-1.02-4.47.8-7.68,4.04l-2.34,2.33c-3.76,3.75-6.43,7.81-5.39,8.92s5.84-1.58,9.56-5.33c0.7-.71,2.23-2.01,2.86-2.68,0.09-.14.17-0.39,0.26-0.51,0.59-2.01,2.07-5.18,3.06-6.08m-72.72,0a1.074,1.074,0,0,0-.35-0.69c-0.98-1.02-4.47.8-7.68,4.04l-2.34,2.33c-3.75,3.75-6.44,7.81-5.37,8.92s5.84-1.58,9.58-5.33c0.67-.71,2.24-2.01,2.82-2.68,0.11-.14.19-0.39,0.29-0.51,0.57-2.01,2.04-5.18,3.05-6.08m-103.68,5.68,2.33-2.33c3.24-3.24,6.64-4.85,7.64-3.83s-1.61,5.28-6.19,9.93c-3.73,3.78-7.82,6.22-8.94,5.21-1.59-1.51,1.4-5.23,5.14-8.92m219.43-36.12c1.55,1.91-5.58,10.32-16.02,18.69a112.29,112.29,0,0,1-10.93,7.55c2.1-3.12,5.18-6.69,8.28-10.4,8.59-10.21,17-17.26,18.67-15.84m-123.2-6.23a9.251,9.251,0,0,1,2.24,6,8.811,8.811,0,0,1-.62,3.21c-0.98,3.51-3.8,6.88-7.57,9.32a8.32,8.32,0,0,1-4.21,1.2c-1.05,0-7.02-1.46-7.02-1.46,3.57-4.65,6.96-10.46,12-14.68a49.721,49.721,0,0,1,5.14-3.59m-119.58,73.3c-1.18-1.24,1.43-4.96,5.38-9.05s14.62-10.49,14.62-9.13c0,0.06-7.2,8.46-11.17,12.52s-7.7,6.92-8.89,5.66m18.61-70.95a49.225,49.225,0,0,1-8.94,10.27c-3.06,2.73-11.84,8.13-14.59,9.73a104.676,104.676,0,0,1-10.68,4.13,123.375,123.375,0,0,1,10.06-13.38c2.24-2.63,3.52-4.04,5.87-6.5,7.82-7.04,16.88-10.72,19-8.39,0.76,0.83.27,2.44-.77,4.19m41.35,41.64a6.305,6.305,0,0,1,1.92.88,1.314,1.314,0,0,1-.58,2.54,5.187,5.187,0,0,1-2.35-.12,4.415,4.415,0,0,1-2.76-1.57c-1.69.1-2.85,0.85-3.09,1.8-0.31,1.34,1.22,3.07,3.85,3.7a7.527,7.527,0,0,1,.98.11,16.462,16.462,0,0,0,2.53.08,17.094,17.094,0,0,0,8.94-2.53c7.12-4.63,14.83-12.82,21.08-21.96,2.31-3.01,4.47-5.95,6.63-8.72a101.266,101.266,0,0,1,6.63-7.71,57.817,57.817,0,0,1,10.13-9.39,41.267,41.267,0,0,1,3.7-2.36,22.79,22.79,0,0,0-12.97-3.78,41.836,41.836,0,0,0-16.93,3.27c-7.97,3.23-14.23,8.05-17.42,12.82a20.18,20.18,0,0,0-3.73,7.5,5.513,5.513,0,0,0-.09,2.85,4.3,4.3,0,0,0,.88,1.79,5.3,5.3,0,0,0,1.62,1.2c3.65,1.91,12.59.56,21.07-5.75a52.623,52.623,0,0,0,5.19-4.23c2.67-2.65,3.41-4.87,2.56-6.37-1.17-2.15-6.7-1.51-12.77,1.68-0.19.13-2.75,1.65-4.23,2.82a28.8,28.8,0,0,0-6,6.32l-0.14.18-1.39-.18,0.41-.49c0.91-1.11,1.65-2.12,2.24-2.95a15.843,15.843,0,0,1,1.94-2.23,29.835,29.835,0,0,1,5.5-4.46,25.5,25.5,0,0,1,8.78-3.43c0.32,0,1.77-.15,2.12-0.15,3.05,0,5.79.54,6.07,3.87a10,10,0,0,1-.48,2.54c-2.08,4.54-5.22,6.81-10.39,10.17-7.72,5.05-16.4,6.8-21.33,4.46a7.662,7.662,0,0,1-2.5-2.02,7.185,7.185,0,0,1-1.26-5.2c2.18-13.52,20.21-24.45,35.69-25.83,0,0,1.47-.11,2.68-0.11,6.71,0,12.63,1.77,16.59,4.59a117.881,117.881,0,0,1,13.01-4.8v1.61l-0.25.08s-8.56,3.13-10.94,4.82a12.785,12.785,0,0,1,3.35,8.64c0,6.58-5.59,12.17-12.84,13.8,4.41,3.35,1.12,12.43,1.12,12.43a36.083,36.083,0,0,1-15.28,17.4c-0.24.09-.66,0.33-1.2,0.57a11.338,11.338,0,0,1-1.95.7,10.429,10.429,0,0,1-1.12.17h-0.9a4.712,4.712,0,0,1-4.72-4.7v-0.2c0.2-3.25,2.58-7.66,6.11-11.51a47.049,47.049,0,0,1,10.98-7.66l0.85,0.58-0.44.22c-3.97,2.1-6.93,3.83-9.7,6.86a23.136,23.136,0,0,0-5.45,8.71,10.585,10.585,0,0,0-.36,2.23,4.416,4.416,0,0,0,.08,1.36,2.373,2.373,0,0,0,2.48,1.74c2.3,0.17,7.24-3.46,11.8-9.3a28.9,28.9,0,0,0,2.03-2.64c0.28-.33.91-1.11,1.2-1.55a12.742,12.742,0,0,0,.77-1.23c3.35-5.46,3.58-7.48,3.43-10.03a3.947,3.947,0,0,0-2.79-3.89l-6.87-1.91c-8.47,12.56-22.08,25.94-28.76,29.66-1.99,1.02-3.29,1.7-4.63,2.23a20.605,20.605,0,0,1-5.15,1.12,7.35,7.35,0,0,1-1.62.15h-1.67a11.136,11.136,0,0,1-7.14-2.23,4.371,4.371,0,0,1-1.24-3.82c0.67-2.9,4.67-4.24,8.66-3.35Z" transform="translate(-1212 -5486)"/>
</svg>
