<svg id="brands-elo-logo" xmlns="http://www.w3.org/2000/svg" width="468" height="334" viewBox="0 0 468 334">
  <defs>
    <style>
      .cls-1 {
        fill: #eee;
      }

      .cls-2 {
        fill: #fff;
        fill-rule: evenodd;
      }
    </style>
  </defs>
  <path id="elo" class="cls-2" d="M565.567,5618.53a5.625,5.625,0,1,0-5.388-5.62,5.518,5.518,0,0,0,5.388,5.62m0-13.04a7.42,7.42,0,1,1-7.427,7.42,7.434,7.434,0,0,1,7.427-7.42m1.06,11.07c-0.361-.58-0.481-0.8-0.8-1.3a9.539,9.539,0,0,0-1.078-1.72v3.02h-1.937v-7.62h3.054a2.256,2.256,0,0,1,2.456,2.33,1.989,1.989,0,0,1-1.756,2.08,2.6,2.6,0,0,1,1.019,1.03c0.535,0.84,1.337,2.18,1.337,2.18h-2.3Zm-0.361-5.27c0-.55-0.32-0.78-0.979-0.78h-0.538v1.54h0.521c0.756,0,1-.24,1-0.76m-37.755-.37a37.535,37.535,0,1,1-37.575,37.54,37.559,37.559,0,0,1,37.575-37.54m0,54.13a16.6,16.6,0,1,0-16.61-16.59,16.62,16.62,0,0,0,16.61,16.59m-124.165,18.57h40.045l5.351-17.83H431.878l2.927-9.9h17.583l5.3-17.28H439.829l2.372-8.51h18l5.021-17.28H424.759Zm64.885-70.8H492.11l-15.629,53.25H494.2l-5.162,17.55H448.577Zm-5.44-22.48c-6.852-.03-13.911-0.05-20.931-0.04v-10.13c0-.87.783-3.87,12.351-3.87,1.837,0,3.46.06,4.9,0.16v-0.01a0.14,0.14,0,0,0,.035.01,31.742,31.742,0,0,1,6.93,1.12,8.976,8.976,0,0,1,2.207.81c1.1,0.65,1.8,3.35,2.226,6.09l0.08-.03,0.735-5.49a1.963,1.963,0,0,0-.638-1.45c-0.692-.64-3.921-3.52-16.473-3.52s-15.784,2.88-16.473,3.52a1.961,1.961,0,0,0-.64,1.45v11.35c-15.24.05-29.994,0.22-41.6,0.62-0.417.02-.807,0.04-1.174,0.08l-7.284-.08a2.052,2.052,0,0,0-2.048,2.05v2.1a2.031,2.031,0,0,0,.944,1.72l7.434,4.75,1.686,14.73-27.991-7.99a2.054,2.054,0,0,0-2.064,2.04v6.06c0,1.03.776,2.85,1.808,2.97,8.164,0.95,24.386,10.4,26.389,10.82l1.562,38.24,0.009,0.23H396s3.1-31.32,3.1-40.35c0-.69-1.16-1.65-1.731-2.03-0.47-.31-9.391-5.29-27.273-10.91v-2.98l26.284,7.01c1.13,0,3.683-.92,3.683-2.05v-16.93a2.022,2.022,0,0,0-.943-1.72l-5.724-3.67s12.309-1.28,58.383-1.98c0.014,0,.026-0.01.042-0.01,11.724-.29,26.29-0.32,37.834-0.36l6.526-.03c7.908-.05,13.24-0.13,13.173-0.39-0.325-1.26-34.188-1.78-45.564-1.91m-74.054,113.03c1.222,0.28,1.478,1.53,1.411,3.3a1.348,1.348,0,0,1-2.622.55,4.4,4.4,0,0,1,.022-2.82,1.258,1.258,0,0,1,1.189-1.03m5.7,18.34a14.528,14.528,0,0,1-1.074,1.99,1.271,1.271,0,0,1-.844.67,2.211,2.211,0,0,1-.814-1.61,10.609,10.609,0,0,1-.226-1.18c-0.066-.39-0.181-0.97-0.206-1.27a27.112,27.112,0,0,1,.144-2.81c0.038-.95-0.108-1.91,0-2.45a3.021,3.021,0,0,1,1.294-1.92,0.74,0.74,0,0,1,.863.17,1.57,1.57,0,0,1,.432.88c0.244,1.31-.735,3.59-0.432,5.6,0.135,0.89.944,1.24,0.863,1.93m-19.611-.13c0.422,0.4,2.064-2.36,2.244-2.56,0.348-.4,2.572-4.39,3.307-4.14,2.32,0.19-.073,4.25,1.583,5.25a4.581,4.581,0,0,0,1.827-1.73s2.813-4.33,3.6-4.21c1.452,0.57,1.178,3.24,1.725,4.91,0.192,0.58,1.124,2.44,1.308,3.04a1.94,1.94,0,0,1-.853,1.48,1.786,1.786,0,0,1-1.162.62c-0.959-.82-1.5-4.33-2.026-5.67-0.5-.36-0.817.47-1.151,0.88-0.618.75-1.025,1.69-1.683,2.43-0.233.29-1.38,1.62-1.87,2.1a0.993,0.993,0,0,1-1.3.18,5.914,5.914,0,0,1-1.293-4.03c-0.082-.47-0.538.48-0.72,0.7-0.048.06-1.416,1.91-1.7,2.25-0.274.32-1.073,1.66-1.259,1.85-0.334.33-.592,1.02-1.3,0.85s-1.04-.87-1.294-2.1a5.332,5.332,0,0,1-.145-1.93c0.007-.14.513-2.93,0.145-3.33s-1.4,1.1-2.363,2.48a9.454,9.454,0,0,1-1.727,2.28c-0.8.28-.656-1.35-0.575-1.58,0.031-.08.225-0.57,0.289-0.7s1.236-1.88,2.074-3c0.746-1,2.6-3.31,2.734-3.5a2.032,2.032,0,0,1,1.15-.88,0.838,0.838,0,0,1,.863.88c0.289,2.94-1.13,5.9-.432,7.18m188.57,1.68a0.554,0.554,0,0,1-.669.1,2.047,2.047,0,0,1,.234-2.94,4.432,4.432,0,0,1,.719-0.76,1.042,1.042,0,0,1,.628-0.33,1.55,1.55,0,0,1,1.44,1.22c0.111,0.96-.358,1.1-0.864,1.58a4.607,4.607,0,0,1-1.488,1.13m0.991-6.96c-0.01-2.43,1.517-7.73,2.029-9.72s0.783-3.46,1.343-5.53a10.3,10.3,0,0,1,.385-1.47c0.212-.73,2.553-2.54,3.02-0.7,0.264,1.04-1,3.31-1.439,4.38-0.7,1.7-1.966,7.36-2.606,9.54a7.5,7.5,0,0,1-.4,1.43,9.075,9.075,0,0,1-.607.85c-0.385.54-1.752,2.03-1.725,1.22m-27.221-2.55a2.823,2.823,0,0,0,1.437-2.63c-0.074-.53-0.642-1.53-1.149-1.22-0.372.29-1.1,2.78-.288,3.85m-10.932.52a4.982,4.982,0,0,0,2.158-1.4,15.565,15.565,0,0,0,1.581-1.57c0.164-.23,1.711-1.55,2.158-0.88,0.73,1.45.664,3.86,2.014,4.55a15.41,15.41,0,0,1,.864-4.37,10.637,10.637,0,0,1,2.587-3.51c1.131-.88,1.718-0.95,2.59.53a5.544,5.544,0,0,1,.288,4.73,9.641,9.641,0,0,1-1.871,2.62c0.172,0.47.777,0.26,1.295,0.18a3.266,3.266,0,0,1,1.438-.35,0.791,0.791,0,0,1,0,1.05,8.82,8.82,0,0,1-.851.86c-0.339.25-1.973,1.32-2.123,1.43a3.6,3.6,0,0,1-2.2.51,4.815,4.815,0,0,1-1.44-.87c-0.894.22-1.279,1.06-2.012,1.05a1.526,1.526,0,0,1-1.007-.53,6.342,6.342,0,0,1-1.008-1.57c-0.224-.48-0.8-1.69-1-2.28-0.737,0-3.082,2.17-3.082,2.17s-1.8,1.6-2.24,1.51a2.394,2.394,0,0,1-.864-1.4,4.844,4.844,0,0,0-1.094,1.41,11.242,11.242,0,0,1-1.493,1.04c-0.667.32-3.508,1.8-4.172,0a6.7,6.7,0,0,1-.289-3.33c0.071-.46,1.395-3.75,2.8-4.94a7.166,7.166,0,0,1,1.949-1.36,1.14,1.14,0,0,1,1.151,0,2.425,2.425,0,0,1-.575,2.8c-1.885.52-3.768,3.63-2.014,4.55,1.623,0.34,2.474-1,3.739-.52a13.5,13.5,0,0,1,.433-4.91,32.636,32.636,0,0,1,1.581-4.2,23,23,0,0,1,1.582-3.33,2.9,2.9,0,0,1,1.295-1.23,1,1,0,0,1,.719,1.06c-0.661,1.53-1.5,3.19-2.158,4.9-0.63,1.63-1.465,3.53-.719,5.6m-16.4,1.23a1.758,1.758,0,0,0,1.3,1.4c1.175,0.21,3.171-1.69,3.6-3.15a1.8,1.8,0,0,0-.576-2.28,4.274,4.274,0,0,0-1.871-.17c0.116,2.45-2.578,2.34-2.444,4.2m7.336-4.9a6.283,6.283,0,0,1-.288,3.15c-0.478,1.51-3.072,4.51-4.716,5.67a4.6,4.6,0,0,1-2.475.96,2.244,2.244,0,0,1-1.68-.6,4.224,4.224,0,0,1-1.054-3.05,9.675,9.675,0,0,1,1.583-3.68,15.916,15.916,0,0,1,1.294-1.4,2.916,2.916,0,0,1,1.007-.88,1.069,1.069,0,0,1,1.294.18c0.274,0.04.351-.4,0.719-0.7a4.184,4.184,0,0,1,2.157-.88,1.958,1.958,0,0,1,2.159,1.23m-118.708,1.12c3.023,0.29,5.6-1.6,8.629-1.57a9.682,9.682,0,0,1,2.015.17,0.863,0.863,0,0,1,.431,1.23,5.226,5.226,0,0,1-1.15.7,8.516,8.516,0,0,1-2.014.35c-1.141.27-1.806,0.42-2.734,0.7-0.866.26-4.124,2.17-4.745,2.28a1.206,1.206,0,0,0-.72.7,29.044,29.044,0,0,0,1.295,5.6,2.473,2.473,0,0,1-.715,1.38,2.93,2.93,0,0,1-1.012.72c-0.5.04-.658-0.73-0.828-1.12a9.843,9.843,0,0,1-.467-1.68,36.519,36.519,0,0,1-.43-4.38,2.565,2.565,0,0,1-.863-2.97,9.056,9.056,0,0,1,.431-1.06,1.976,1.976,0,0,1,.862-0.87c0-1.1.552-2.85,0.393-4.78a10,10,0,0,1-.1-1.17c0.095-.9.691-2.42,1.582-2.28a0.872,0.872,0,0,1,.863.87c0.108,2.82-.609,4.63-0.719,7.18m24.79-2.96a0.525,0.525,0,0,0-.3.31,10.18,10.18,0,0,0-.281,2.76c-0.09.88-.314,1.63-0.425,2.53-1.6.62-3.615,2.56-2.444,4.91,0.194,0.35.692-.91,1.437-0.88-0.368,1.96-1.572,5.94-.355,7.47a0.267,0.267,0,0,0,.388.07,3.656,3.656,0,0,0,.44-0.4c0.7-.84,1.32-1.43,1.254-2.23a10.411,10.411,0,0,1,0-5.26c0.4-1.04.538-1.26,1.581-1.4a4.577,4.577,0,0,1,4.748,1.4,5.916,5.916,0,0,1,1.007,1.05,14.005,14.005,0,0,1,.862,1.23c0.375,0.72.41,1.83,1.151,2.1,0.206-.21,2.067-3.21,1.725-4.03-0.629-.81-1.646-2.6-1.293-3.15,0.641-.73,1.372-0.38,2.3-0.17,1.611,0.35,3.392.65,4.748,1.05,0.052,0.43-.07.92,0,1.4a8.582,8.582,0,0,0,.632,2.06,2.649,2.649,0,0,0,.805,1.09,2.248,2.248,0,0,0,1.87.7,5.946,5.946,0,0,0,2.288-1.15c0.128-.1,1.981-1.83,2.171-2,0.723-.66,1.623-1.92,2.015-1.93a4.17,4.17,0,0,0,.43,1.93,4.726,4.726,0,0,0,1.151,1.4c0.951,0.52,2.174-.34,2.751-0.84,0.561-.48,2.055-1.83,2.2-1.95a5.242,5.242,0,0,1,.66-0.54c0.1,1.51.447,2.72,1.582,2.98a5.651,5.651,0,0,0,2.314-.81c0.532-.27,1.439-0.48,1.426-1.29-0.227-.79-1.3-0.46-2.024-0.94a4.6,4.6,0,0,1-.854-3.62,1.085,1.085,0,0,0-.862-0.87c-0.648-.12-0.846.48-1.3,1.05a20.728,20.728,0,0,1-1.346,1.84,5.375,5.375,0,0,1-1.531,1.14c-1.174.5-2.024-.62-2.157-1.58-0.168-1.22,1.111-3.15-.863-3.5a1.108,1.108,0,0,0-.72.52,13.231,13.231,0,0,0-.861,1.58,16.366,16.366,0,0,1-2.3,3.15c-0.471.4-1.134,1.04-1.437,1.23a2.607,2.607,0,0,1-2.3.35,1.972,1.972,0,0,1-1.151-1.58c0.687-.51,1.123-0.51,1.582-0.87,1.1-.6,2.812-2.45,2.781-3.72,0.061-.9-1.04-3.67-2.319-3.87a1.942,1.942,0,0,0-1.561.36,16.258,16.258,0,0,0-2.5,4.42c-0.633.26-1.087-.24-1.725-0.35,0.008,0-1.379-.43-1.726-0.52-0.319-.09-2.969-0.76-3.883-0.18a10.323,10.323,0,0,0-2.159,3.15c-1.08-.61-2.243-1.52-3.739-1.57a14.408,14.408,0,0,0-2.781.52,10.917,10.917,0,0,0,1.055-4.2,1.083,1.083,0,0,0-.864-0.88,7.119,7.119,0,0,0-1.293.53m20.711,3.33c-0.059.46-1.134,0.42-1.438,0.17-0.156-1.24,1.6-1.77,1.438-.17m-17.979-4.73c1.209-.32,5.934-1.22,6.052-1.23,1.189-.07,1.8-0.23,2.76-0.2a8.178,8.178,0,0,1,1.688.2c0.008-.07,1.054.37,1.182,0.35a5.156,5.156,0,0,0,1.264-2.1c0.059-2-2.546-1.8-3.6-1.75a35.382,35.382,0,0,0-4.891.53,37.39,37.39,0,0,0-10.653,3.2,6.626,6.626,0,0,0-.958.52c-0.4.2-1.042,2.36-.326,3.81,1.269-.29,1.86-1.03,2.965-1.58a20.923,20.923,0,0,1,1.925-.88,26.856,26.856,0,0,1,2.589-.87m53.206,6.82c0.382,0.45-.379,1.45-1.15,1.57-0.419-1.01.2-2.31,1.15-1.57m-13.949,2.62c-0.422-.38.463-2.57,0.865-2.62a0.753,0.753,0,0,1,.861.7c-0.153,1.15-1.229,2.14-1.726,1.92m21.573-1.4c-0.362-.45-4.47,1.63-6.9,1.23,0.5-.89,1.508-2.07,1.581-3.5,0.077-1.51-.6-3.05-1.726-3.16a2.908,2.908,0,0,0-1.726.88,10.692,10.692,0,0,0-1.871,2.45,9.422,9.422,0,0,0-.861,2.1,9.966,9.966,0,0,0-.145,2.28,1.45,1.45,0,0,1-.575.17c-2.354-.37-3.43-4.18-2.587-6.65a15.393,15.393,0,0,1,.861-1.93,16.731,16.731,0,0,1,.951-1.83c0.722-1.65,1.84-2.4,1.495-3.6a0.981,0.981,0,0,0-.864-0.52c-0.758.07-1.689,1.78-2.265,2.76-0.186.32-2.017,4.51-2.047,4.59a7.725,7.725,0,0,1-1.294,2.28,6.18,6.18,0,0,0-.288-1.4,1.549,1.549,0,0,0-1.3-.7c-0.477-.06-1.872.11-2.992,2.1a16.321,16.321,0,0,0-1.609,4.73c-0.106,1.3-.229,3.02.8,3.5a1.925,1.925,0,0,0,1.642-.8c0.933-.86,3.107-4.26,4.169-5.33a12.74,12.74,0,0,0,1.438,5.43,3.371,3.371,0,0,0,1.436,1.05,4.81,4.81,0,0,0,1.15.18,7.873,7.873,0,0,0,3.046-1,16.564,16.564,0,0,0,1.838.39c2.88-.32,5.679-2.6,6.239-2.99s3.033-2.29,2.4-2.71m19.249,3.09a24.927,24.927,0,0,1-2.688-1.62c-0.381-.35-1.769-1.74-2.1-2.16a6.718,6.718,0,0,1-1.206-1.67,15.641,15.641,0,0,0,4.68-1.99c1.28-1,1.182-1.7.553-2.3a1.547,1.547,0,0,0-2.224.11,5.565,5.565,0,0,1-3.84,2.46,40.608,40.608,0,0,1,1.263-4.54,16.207,16.207,0,0,0,.72-2.28,1.818,1.818,0,0,0-.433-1.57,1.062,1.062,0,0,0-1.149,0,2.514,2.514,0,0,0-1.3,1.92c-0.738,4.51-2.9,12.51-2.937,12.98-0.118,1.35-.189,2.11.921,2.21a2.024,2.024,0,0,0,1.2-.2,1.235,1.235,0,0,0,.419-1c0.2-1.68-.165-3.05.286-3.86a9.9,9.9,0,0,1,1.294,1.75c1.015,1.38,4.2,4.53,7.2,3.61C509.921,5719.14,507.474,5718.82,507.059,5718.49Zm53.106-3.28c-0.295-.26-2.294,1.18-4.028.53-1.361-.85-2.4-2.1-2.156-4.91a0.718,0.718,0,0,0-.864-0.7,2.258,2.258,0,0,0-1.294.88,12.989,12.989,0,0,1-1.726,1.57c-0.566.4-2.343,1.73-2.877,1.4-1.355-1.08.251-2.86,0-4.72-1.066-2.14-3.135,2.75-3.309,3.67-0.216,1.17-.179,4.63,1.152,4.91a8.02,8.02,0,0,0,1.97-.94,35.885,35.885,0,0,1,4.071-2.74,6.239,6.239,0,0,0,.693,3.19,3.082,3.082,0,0,0,3.334,1.75,16.4,16.4,0,0,0,3.74-1.96,3.258,3.258,0,0,0,1.151-.88,0.856,0.856,0,0,0,.143-1.05" transform="translate(-240 -5486)"/>
</svg>
