<?xml version="1.0" encoding="utf-8"?>
<!-- Generator: Adobe Illustrator 23.0.6, SVG Export Plug-In . SVG Version: 6.00 Build 0)  -->
<svg version="1.1" id="svg2" xmlns="http://www.w3.org/2000/svg" xmlns:xlink="http://www.w3.org/1999/xlink" x="0px" y="0px"
	 viewBox="0 0 600 400" style="enable-background:new 0 0 600 400;" xml:space="preserve">
<style type="text/css">
	.st0{fill:#21468B;}
	.st1{fill:#FFFFFF;}
	.st2{fill:#EF2B2D;}
	
		.st3{fill-rule:evenodd;clip-rule:evenodd;fill:#F8D80E;stroke:#000000;stroke-width:1.4417;stroke-linecap:round;stroke-linejoin:round;stroke-miterlimit:5.7667;}
	.st4{fill-rule:evenodd;clip-rule:evenodd;fill:#F8D80E;stroke:#000000;stroke-width:1.4417;stroke-miterlimit:3.9977;}
	.st5{fill-rule:evenodd;clip-rule:evenodd;fill:#FFFFFF;stroke:#000000;stroke-width:1.4417;stroke-miterlimit:3.9977;}
	.st6{fill:none;stroke:#000000;stroke-width:1.4417;stroke-linecap:round;stroke-linejoin:round;stroke-miterlimit:3.9977;}
	
		.st7{fill-rule:evenodd;clip-rule:evenodd;fill:#F8D80E;stroke:#000000;stroke-width:1.4417;stroke-linejoin:round;stroke-miterlimit:3.9977;}
	.st8{fill-rule:evenodd;clip-rule:evenodd;fill:#EF2B2D;stroke:#000000;stroke-width:1.4417;stroke-miterlimit:3.9977;}
	.st9{fill:none;stroke:#000000;stroke-width:1.4417;stroke-miterlimit:3.9977;}
	.st10{fill-rule:evenodd;clip-rule:evenodd;}
</style>
<g id="g4633" transform="translate(-6.470657,100.65285)">
	<g id="g4627" transform="translate(6.470657,-0.6528249)">
		<rect id="rect4" y="185.7" class="st0" width="600" height="114.3"/>
		<rect id="rect6" y="14.3" class="st1" width="600" height="171.4"/>
		<rect id="rect8" y="-100" class="st2" width="600" height="114.3"/>
		<rect id="rect2165" x="150" y="14.3" width="300" height="171.4"/>
	</g>
	<g id="g4539" transform="matrix(0.9994199,0,0,0.9994199,7.0180353,4.4606345)">
		<path id="path2499" class="st3" d="M362.3,235.3c0,3.3-2.7,5.9-5.9,5.9s-5.9-2.7-5.9-5.9c0-3.3,2.7-5.9,5.9-5.9
			S362.3,232,362.3,235.3z"/>
		<path id="path2412" class="st4" d="M224.5,55.1c-2.6,5.3-8.5,8.9-13.6,11.5c-10.4,5.5-18.3,11.4-24.5,17.3
			c-8.1-13.5-16.6-3.3-17.9-0.6c2.5-13.1-14.2-6.7-12.7-2.7c-7.6,2.7-4.6,10.3-0.6,15.4c0.8,1.4-4.7,13.4,9.8,12.4
			c4.2-0.3,10.7-6.3,15.7-10.4l-3.6,10.9c6-1.3,10-4,12.5-7.8c1.5-2.3,2-5.2,5.9-4.8c0.3,2.3,0.4,4.9-2,10.1
			c4.1-2.5,8.2-5.4,12.2-10.9c0.6,2.9,0.3,6.1-1.4,9.7c6-3.7,12-6.8,17.3-17v10.6c4.6-3.9,10.6-5.2,11.9-14.8
			c0.4-2.7,1.2-5.1,4.3-5.2v12.4c5.2-4.8,9.2-13,10.3-16.5c0,0,1.2,2.9,1.9,6.2c0.8,3.3,1.2,7,1.2,7c5.3-5.7,5.9-11.7,5-17.8
			c0,0,2.9,4,4.3,7.4s1.6,7.8,1.6,7.8l3.3-5.8l11.8-44.6l-21-16.7l-33.3,30.4L224.5,55.1z"/>
		<path id="path2397" class="st4" d="M237.1,2c0,0-11.3-11.3-22.9-19.8c-10.7-7.9-12.1-24.7-3.3-32.9c1.7-1.6,3.2-3.4,3.6-6.4
			c0.9-6-8.9-9.6-11.7,0.6c0.3-9-11.9-7.5-11.1,1.4c-9.4-14.6-17.5,5.4-10.3,10c-9,5.6-4.1,17.3,4.2,13.1c-2.7,7,3.5,6.2-2,12.8
			c1,0.7,1.8,1.6,6.4-1.4c-0.4,1.6-1.5,2.3-2.4,4.1c-0.9,1.9-1.6,4.8-2.4,7.3c2.6,0.6,4.5,0.4,6.4,0.3c-2.8,0.7-1.6,7.2-1.5,12.8
			c2.4-0.8,3.3-0.4,4.3,4.7c1.5,7.6,15.3,21.5,15.3,21.5C243,23.6,233.4,12,237.1,2z"/>
		<path id="path2389" class="st5" d="M171.2-58.3c4.9-3,8.5-2.5,12.3-0.1c-0.7,6.1-2.8,5.4-4.9,6.8
			C176.6-57.4,174.3-57.2,171.2-58.3z"/>
		<path id="path2395" class="st5" d="M208.6-69.4c0.3,3.8,0.3,7.4-3.2,9.2c1.6,3.5,4.3,3.5,7.8,1.2
			C214.1-64.6,211.1-66.7,208.6-69.4z"/>
		<path id="path2387" class="st5" d="M169.9-43.6c-0.5,12.7,8.7,11.6,9.7,8.8c1.1-3.3-1.2-4.8-5-5.9
			C171.5-41.6,169.9-43.6,169.9-43.6z"/>
		<path id="path2391" class="st5" d="M189.9-69.7c4.2,3.5,2.4,7,1.9,10.5c4,0.6,6.7-0.9,8.8-3.3C199.6-68.2,195-69.3,189.9-69.7z"/>
		<path id="path2400" class="st5" d="M173.2,70.3c1,3.5,1.7,7-0.5,9.1c2.8,2,5.5,1.5,8.3-0.2C180.6,75.4,178.1,72.4,173.2,70.3z"/>
		<path id="path2404" class="st5" d="M154.6,71.9c6.8-2.7,9.6-0.8,11.4,3.8c-2.9,2.9-5.8,3.7-8.6,2.4
			C158.1,75.6,159.6,73,154.6,71.9z"/>
		<path id="path2406" class="st5" d="M141.8,87.4c2.4-1.4,4.5-3.2,9.1-2.4c2.1,1.7,3.8,4.1,3.1,10.4
			C147.5,94.4,145.3,90.4,141.8,87.4z"/>
		<path id="path2408" class="st5" d="M149.9,109.8c0.1-3.1-1.4-4.8,4.3-10.5c5.1,1.8,4.9,4.6,5.5,7.2
			C154,105.8,151.4,107.4,149.9,109.8z"/>
		<path id="path2414" class="st6" d="M155.8,80.8c3.3,1.6,2.4,3,2.6,4.2"/>
		<path id="path2416" class="st6" d="M168.7,82.8c9.9,5.4,15.1,2.5,17.2,1.5"/>
		<path id="path2418" class="st6" d="M179.8,98.3c1.6-1.9,3.8-2.8,6-3.5"/>
		<path id="path2420" class="st6" d="M195.6,96.4c0.4-2.3-1-5.8,4.4-5.8"/>
		<path id="path2422" class="st6" d="M205.7,95.9c-0.2-3.9,2.1-4.7,4.4-5.3"/>
		<path id="path2426" class="st6" d="M221.6,89.1c-0.2-4.8,1.5-5,3.1-5.8"/>
		<path id="path2432" class="st6" d="M396.6,1.5c2.1-0.7,3-1.9,4.3-3"/>
		<path id="path2525" class="st7" d="M332.6,110c0,0-8.6-0.6-20.4,0.3c-15.8,1.1-27.1,0.8-36,6.2c-12.1,7.4-14.8,9-20.4,9
			c-3.1,0-4.3-1.5-7.5-1.5c-8,0-23.3,10.9-23.3,10.9c-10.1-5.2-10.4,8.6-10.4,12.3c0,6.8,1.3,10.2,1.3,14.7c0,7.5-4.4,10.1-4.4,12.6
			c2.4,0.9,3.9,4.4,10.4-8.8c-1.4,13.4-5.4,20.9-8.5,27.5c-1.5,3.2-2.5,5.9-3.9,8.4c-5.7,9.6-13.9,15.1-19,15.1
			c-5.4,0-8.2-3.5-8.2-3.5c6.5-4.4-6.7-16.1-10.2,0.2c-8.8,1.1-7.7,15.3-1.3,15.1c4.1,13.2,11.3,13.1,20.2,6c0,0,1.4,3.1,1.4,5.5
			c2.4,3.8,7.3-0.2,8.7-3.5c7.8,11.5,19.4,2.1,19.4-2.2c0-4.3-1.8-3.4-1.9-7.2c0-3.8,1.8-6.6,1.8-6.6c2.2,4.4,5.1,6,7,11.2
			c4.4-4.1,2.5-9.5,3-14.9c4.3,2.3,5.8,5.1,5.4,9.7c0,0,3.5-4.1,3.3-8.6c-0.2-4.4-3.8-8.7-3.8-8.7c11.2-1,9.1,1.7,10.8,3
			c4.7-6.2,1-12.9-4.9-17.4c8.8-1.6,11.2,1.9,13.9,6c4.4-3.1,3.4-11.6-2.4-17.2l4.4-0.9l2.4,2.4c2.9-4,0-8.9-1.9-13.6l5.9,3.4
			c-1.6-4.5-2.1-7.2-2-9.1c3,1.7,4.4,4.6,5.7,7.6c1.8-3.5,2-8,1.8-12.9c3.9,2.8,5.8,7.2,5,13.5c2-2.8,4.5-4.2,5.3-9.8
			c1.8,1.7,3,3,10.1,3.4c-4.4-4.1-5.5-8-4.6-11.3c1.9-6.6,13.8-7.7,26.1-7.9c12.3-0.2,16.4-4.8,25.1-7.7L332.6,110z"/>
		<path id="path2523" class="st4" d="M332.2,118h-9.8c2.1,3.9,4.7,7.2,5.9,12.5c-1.4,2.1-2.7,4.2-2,5.8c0.9,1.9,1.1,4.2,6,3.8
			l3.3-0.4L332.2,118z"/>
		<path id="path2430" class="st4" d="M418.5-17c-3.9,0.2-8.2,1.6-12.3,4.9c-1.1,0.9-7.2,6.9-9.7,4.1c-0.7-0.7-1.1-2.1-1.1-4.3
			c-5.9,3.8-7.8,9.1,1,13.7c-0.4,8-1,16.7,8.4,23.4c0-3.4-0.7-5.7,0.6-8.7c1.2-2.6,2.6-2.4,2.6-6.9c4.9,0.5,10.6-1.8,8.1-6.6
			c-9.6-1.7-3.2-9.6,2.9-10.1c3.1-0.3,7.8,0.4,7.8,10.1c0,7.3-1.2,9.8-11.5,19.9c-4.5,4.3-7.4,6.6-10.1,8.9c0.7,0.9,1.4,1.7,2.1,2.5
			c1.1,1.3,2.3,2.6,3.4,3.8c1-0.9,2.1-1.9,3.2-2.8c3.2-2.7,7.9-7.4,11-10.4c11-10.7,15.9-27.6,7.3-36.7
			C429.6-14.7,424.5-17.2,418.5-17z M408.6,217.9c1.7,6.4,1.6,11.9-0.6,14.6c-1.5-0.8-5.2-10.3-8.9-10.1c-0.7,6.6-7,11.6-13,16.7
			l8,7.7c-7.4,3.3-11.4,1.1-15.1-1.7c-2.5,9.7-4.7,11-9,11.7c1.1-4,2.7-8.4,0.9-10.9c-8.3,5.9-11.7,14.6-23.8,9l-5.3-3.5l-1.3-3.7
			l-1.8-6.4c1.9-3.4-7.8,0.8,6.3-10.5c5.1,4,9,11.1,20.5,3.8c4.3-2.7,3-7.6,3.4-11.1c0.5-4-0.6-8.1,3.4-12.1
			c2.2-2.1,3.6-3.1,3.6-7.1c0-4.7-3.1-8.4-8.7-8.4c-4,0-5.8-1.4-8.2-2.5c-1.6,5.6-4.9,6.7-8,8.2c-0.4-4.8-0.8-9.1-3.3-11.9
			c1.3,21.1-11.6,16.4-14.1,15.2c2.8-2.9,7.2-3.1,5.4-11.6c-1.1-5.6-7.1-15.1-9.9-22.6c-3.5-9.3-3.1-20.8,3.8-28.1
			c-0.3-9.4-1.2-20-9.1-28.9c-7.8-8.8-11.2-12.9-17.9-15.5c-11-0.2-34.3-5-40.1-17.9c-3.3-7.3-2.7-23,1.2-40.8l9.2-14.7l32.1,2.4
			l11.6,26.1c7.4,8,16,16.2,19.1,23.7c2.7,6.6,10.2,11.2,17.4,15.7c9.4,5.8,12.7,10.5,16,15.5c0.1,0.1,0.1,0.1,0.2,0.2
			c0,0,0.1,0.1,0.1,0.1c1.4,1.1,3.8,0.9,6.3,1.5c3.1,0.7,5.9,3.6,8.3,5c16,6.8,16.4-1.1,16.5-9.1c0.1-5-2.6-9.9-5.9-15.1
			c-9-14.4-9.2-20.7-9-27.5c0.2-6.3,1.3-16.2,8.8-24.7c0.2-0.2,0.4-0.4,0.5-0.6c2.1,2.5,4.2,4.8,6,6.8c0,0,0,0,0,0
			c-3.7,5-6.1,10.9-6.3,18.3c-0.1,7.3,2.4,14.9,7.5,22.8c9.6,14.9,10.4,24.8,4.9,30.1c8.5-4,16.5-10.8,16.5-27.2
			c0-15.1-5-23.9-22.7-44.1c-10.9-12.4-31.5-34.9-31.5-61c0-18,12.4-40.2,34.4-40.2c10,0,18.3,2.3,22.8,8.9c7.1-0.3,10.6,3,15.5,0.2
			c0.3,3.6-0.5,6.5-6.1,7.5c7.1,3.9,10,9.3,10,19.4c0,12.6,4.9,14.7,8.2,16.3c-15.8,0.9-26.2-5.4-27.9-24c-2.1,3.8-4.9,3.1-7.5,3.7
			c0-11.9-4.7-21-16.5-20.9c-20.9,0.2-23.1,21.7-23.1,27.3c0,21.2,15.6,41.6,24.6,52c15.1,17.3,30,32.7,30,55.4
			c0,11-8.4,40.7-31.9,40.7c-12.5,0-21.8-9-27-9c2.7,6.2,8.2,11.7,8.2,18.5c0,4.3,1.2,6.6,2.7,7.8c-3.5,0.8-5.9-0.2-8.8-2.1
			c0.8,1.4-1.7,9.2,17.3,4.8c0.3,3-1.1,4.7-2.8,6.1c7.2,2.9,8.5,4.7,11.7,6.9h-11.8c10.1,2.6,16.3,8.5,16.1,10.3
			c-0.2,2.6,2.6,4.5,5.5,7.2c2.6,2.9,6.4,4.2,6.4,10.1c0,1.8,0.2,3.5,1.3,5.8c-3.1-1.5-5.4-1.7-7.6-1.8c8.5,7.7,10.7,12.3,10.1,14.8
			c-0.4,1.5,0.3,3.4-1.4,5.6c-3.7-6.1-7.4-6.9-11.2-7.4c3.9,3.4,5.1,8.5,4.1,14.8C416.3,220.3,412.6,219.3,408.6,217.9z"/>
		<path id="path2377" class="st5" d="M271.4-32.2l3.8,6l0.1-7.2L271.4-32.2z"/>
		<path id="path2379" class="st5" d="M275.2-15.2l-0.2-7.7l5,8.3L275.2-15.2z"/>
		<path id="path2375" class="st8" d="M286.1-21.6c-5.9-2.7-8.8-6.1-25.3-5.9c-3.3-0.1-4.9-1.9-5.7-4.5c3.4,0.9,5-0.5,5-3.3
			c0-2.7-2.4-4-5.4-3.9c-3,0.1-5.4,1.6-5.4,4.9c0,1.7-0.6,11.1,15.2,10.9c9.5-0.1,15.9,1.9,21.9,5L286.1-21.6z"/>
		<path id="path2329" class="st4" d="M290.6-60.5c29.4-7.4,33.2-2.2,49,4.2c4.1,6.5,4.3,16,13.6,14.7c-0.8,3.8-2.3,6.9-5.2,6.9
			c1.4,2.6,3.4,5.1,3.5,7.8c0.1,6.4,2.4,5.1,4.6,6.3c0.8,4.4-2.1,6.6-7.5,7.2c1.1,1.7,0.6,4,6.1,4.3c-0.9,3.1-0.4,8-7.2,6.8
			c-0.3,3.8-1.5,4.6-2.3,10.5c-0.5,3.7-0.7,8-0.6,12.4c-5.7,1.8-8.9-0.1-11.5-2.9v13c-0.5,3.1,1.5,6.2,8.7,9.2
			c-6.2,5.6-9.2,2.9-13.3,2.9c0.4,2.7-1.9,4.2,4.9,9.7c-7.4,1.6-15,2.9-16.4-4.5c-1.3,3.4-4.2,5.2-8.7,5.5l-0.3-8.9
			c-1.5,4.3-3,7.4-9.1,9.4c2.5-8.9,0.6-10.1-0.6-13.8c-6.1,20-18.4,15.4-21.8,14.3c6.5-3.4,4.4-13.7,2.9-17
			c-2.6-5.5-1.4-7.8-1.4-7.8c-5.3,3.4-8.7,7.3-9.4,11.5c-2.6-2.8-5.6-5.3-4.5-11.8c-4.1,2.8-9.4,4.9-15,4.6
			c-5.8-0.3-10.6,3.3-15.6,8.4c-8.6,16.1-11.3,13.8-16.2,13.8c-3.9,0-6.5-3.9-7.2-5.8c6.5,0.1,11.5-1.3,11.1-5.8
			c-4.1,1.6-8.4,2.9-14-0.7c5-3.2,7.1-5.4,7.5-7.1c-6.6,0.5-8.2-3.2-10.4-6.3c8.1,1.4,16.2-11.4,24.2-19c-5.4-0.3-6.4-2.3-8.1-4
			C236,4.7,244.7-4.6,255.6-4.6l13,2.6l1.7-4c0.7-6,0.6-7.5,0.6-9.8c14.3,3.6,13.5-0.4,14.4-3.5v-13c-3.7-7-5.7,0.7-12.1,0.7
			c-3.3,0-6.9-4.8-7.2-8.9c-2.5-0.1-3.2-5.2-3.8-7.4c2.5-0.2,5.2-0.5,10,0c0.8-3.3,2.7-5.9,6.7-6.2
			C282.8-54.4,284.7-58.9,290.6-60.5z"/>
		<path id="path2331" class="st6" d="M347.4-2.3c-3.4-4.6-3.2-5.6-4.6-8.1"/>
		<path id="path2333" class="st6" d="M332.4,17.6c-3.7-4.5-2.4-6-2.6-8.4"/>
		<path id="path2335" class="st6" d="M328.3,42.9c0-2.3-2.9-4.5-3-7.3"/>
		<path id="path2337" class="st6" d="M316.9,47.2c-0.5-8.1-7.8-10.6-4.3-18.6"/>
		<path id="path2339" class="st6" d="M307.7,45.6c0.6-2.1-0.2-3.7-0.7-5.5"/>
		<path id="path2341" class="st6" d="M298.2,40.4c0.6-6-0.8-7.3-1.6-10.1"/>
		<path id="path2343" class="st6" d="M263.6,29.9c3.4-2.9,2.6-4.6,5.9-7.4"/>
		<path id="path2345" class="st6" d="M233.1,42.4c-2.2-14.1,5.7-17.2,11.5-22.5"/>
		<path id="path2347" class="st6" d="M221,44.7c0-4.2,1.7-8.5,7.1-12"/>
		<path id="path2349" class="st6" d="M214.8,36.8c0.8-2.8,3.2-4.6,7.1-5.5"/>
		<path id="path2351" class="st6" d="M228.5,11.5l9.4-3.3"/>
		<path id="path2353" class="st6" d="M268.6-2c8.1,2.8,11.7-0.7,21.3-1c6.4-0.2,7.1-6,14.5-7.2"/>
		<path id="path2355" class="st6" d="M270.3-6.1c7.8-0.9,17.7,1.3,24.6-5.4c3.2-3.1,6.6-5.2,10.3-7.3"/>
		<path id="path2357" class="st6" d="M327.1-56.5l-1.8,7.1"/>
		<path id="path2359" class="st9" d="M314.6-57.8c0,0-0.8,5-2,3.8c-0.9-1-4.5-1.3-4.5-1.3"/>
		<path id="path2361" class="st6" d="M312.6-50.8c-0.1,1.2,0.1,1.8,1.2,2c0.5,0.1,1.3,0.8,2,1c1,0.3,1.1,0.2,0.7,1
			c-0.3,0.6-0.6,1.1-0.9,1.6c-0.3,0.7-0.5,1.1-1,1.6c-0.5,0.5-0.6,1.5-0.6,2.2c0,0.8-0.2,1.5,0,2.2c0.1,0.5,1.2,1.1,1.4,1.7
			c0.3,0.6,0.1,1.6,0.1,2.3c0,0.8-0.4,0.9-0.6,1.6c-0.2,0.6-0.7,1.2-0.9,1.9c-0.2,0.7-0.4,0.8-0.4,1.6"/>
		<path id="path2363" class="st6" d="M316.7-54.8l6.1-3l0.1,5.9C322.8-55.2,320.2-55.3,316.7-54.8z"/>
		<path id="path2365" class="st6" d="M283.5-45.2c-0.2,1.6,0.1,2.2,0.9,3.5c0.5,0.8,0.7,1.5,1.2,2.2c0.6,0.9,1.3,1,2.3,1.7
			c0.9,0.7,2.8,0.4,4,0.4c0.6,0,0.1,1.1,0.1,1.9c0,1.1,0.5,1.3,1,1.9c0.6,0.6,0.7,0.9,1.4,1.3c0.6,0.3,1.2,0.3,2,0.3
			c1.3,0,1.6,0.1,2.5,0.6c0.6,0.3,1,0.7,1.4,1.2c0.6,0.6,1.2,0.9,1.7,1.2c0.6,0.3,0.4,1.2,0.4,1.9c0,0.4,0,0.8,0,1.2"/>
		<path id="path2367" class="st6" d="M266-40.7l5-3"/>
		<path id="path2369" class="st6" d="M348-34.8c-5.2,0.5-3.9-1.9-5.3-3"/>
		<path id="path2371" class="st5" d="M289.4-53.6c-0.5,0-1.6-0.1-2.4,0.1c-0.5,0.1-0.8,0.5-1.1,0.8c-0.5,0.5-0.5,0.7-0.6,1.3
			c-0.1,0.6-0.2,1-0.2,1.7c0,0.5,0,1.1,0.1,1.5c0.1,0.6,0.3,0.8,0.7,1.1c0.5,0.4,0.2,0.6,0.9,0.7c0.6,0.1,1,0.1,1.8,0.1
			c0.6,0,1-0.1,1.5-0.2c0.4-0.1,0.7-0.5,1-0.6c0.5-0.2,0.7-0.2,1-0.5c0.2-0.2,0.8-0.4,1.1-0.6c0.4-0.3,0.5-0.6,1-0.6
			c0.1,0,0.6-0.8,0.7-0.9c0.5-0.5,0.1-0.4-0.4-0.5c-0.4-0.1-1.1-0.9-1.5-1c-1.3-0.6-1.7-0.8-2.6-1.7
			C290.2-53.4,289.7-53.5,289.4-53.6z"/>
		<path id="path2373" class="st10" d="M287.7-50.2c0,1.3-0.7,2.4-1.5,2.4c-0.8,0-1.5-1.1-1.5-2.4c0-1.3,0.7-2.4,1.5-2.4
			C287.1-52.6,287.7-51.5,287.7-50.2z"/>
		<path id="path2428" class="st6" d="M256.2,70.5l-1.2-1.7"/>
		<path id="path2483" class="st5" d="M348.7,224.7c4.5,0,8.8,0.4,10.7,5.9c-1.9,1.7-4.7,2.1-7.7,2
			C352.9,230.4,350.6,227.5,348.7,224.7z"/>
		<path id="path2485" class="st5" d="M341.5,233.5c-2.2-0.2-4.5-0.6-7,0c-2.7,0.7-3.8,4.2-3.9,4.2c3.3,0.2,5.8,0.3,8,2.7
			C341.9,238.5,341.4,236.2,341.5,233.5z"/>
		<path id="path2487" class="st5" d="M335.5,253.5c-5.4-4.7-2.8-8.5,3.1-11.3c2.1,0.6,3.5,2,4.5,4.1c0,0-2.5,1-4.6,2.4
			C335.3,250.7,336,252,335.5,253.5z"/>
		<path id="path2489" class="st5" d="M341.2,259.6c2.4-1.2,4.5-3,6.5-5.6c-0.9-2.5-2.5-3.6-6-3C340.7,254,340.6,256.6,341.2,259.6z"
			/>
		<path id="path2491" class="st6" d="M347.5,190c-6.5-10.6-12.1-19.8-10.4-31.9"/>
		<path id="path2493" class="st6" d="M342.7,246.1c1.1-0.4,2.5-0.7,5.9-1.1"/>
		<path id="path2495" class="st6" d="M358.9,193.4c-12.9-11.7-11.4-18.5-13.1-26.5"/>
		<path id="path2501" class="st6" d="M371,245.7c0.3-1.8,0.3-4.1,2.7-5.6"/>
		<path id="path2503" class="st6" d="M384.9,234.7c-0.5,0.3-1,1.1-1.3,1.7c-0.2,0.4,1.4,1.3,1.7,1.5c0.5,0.5,0.8,0.8,1.1,1.3"/>
		<path id="path2505" class="st6" d="M398.9,222.4c-0.9-0.5-0.8-1.7-0.8-3c0-1.2-0.6-1.9-0.6-3c0-0.2,0-0.4,0-0.6"/>
		<path id="path2507" class="st6" d="M408.5,217.8c-1.4-4.4-3.3-6.2-5.1-8.2"/>
		<path id="path2509" class="st9" d="M395.8,162.7c-13.8-2.1-10.6-4.1-14.1-6.2"/>
		<path id="path2515" class="st6" d="M385.6,168.4c0.7,0.3,1.6,1.2,2.4,2c0.6,0.6,1.2,1.1,1.9,1.6c1,0.7,1.6,1,2.9,1
			c1.6,0,1.5-0.5,2.4-1c0.9-0.4,1.9,0.8,2.6,1.1c1,0.5,2,0.4,3,0.4c1.1,0,1.7,0.3,2.3,0.6c0.5,0.3,1.4,0.3,2.2,0.3
			c0.6,0,1.6-0.8,1.9-1.1c0.4-0.4,1.3-0.7,1.9-0.9c0.1,0,1,0,1.1,0"/>
		<path id="path2517" class="st6" d="M387.4,174.2c4,3.8,8.5,7.5,28.6,6"/>
		<path id="path2519" class="st6" d="M406,190c0.6,0.1,1.2,1.2,1.9,1.6c0.3,0.2,0.7,0.4,1,0.6c0.8,0.4,2,0.7,2.9,1.1
			c0.6,0.3,2.2,0,2.9,0c0.8,0,1.2,0.6,1.7,1"/>
		<path id="path2521" class="st6" d="M406.2,200.1l7.6,7.3"/>
		<path id="path2527" class="st6" d="M224.9,135.4c-0.2,1-0.4,2.4-0.4,3.3"/>
		<path id="path2529" class="st5" d="M172.7,211.7c3.3,0.7,3.3-2.6,3.3-6c-2.7-1.7-6.3-0.8-10.5,2
			C171.3,209,171.5,210.3,172.7,211.7z"/>
		<path id="path2531" class="st5" d="M158.8,221c0.6-2.4,1.2-3.9,8.5-5.5c1.9,3,4.5,5.3-0.3,8.4C165,222,162.7,220.6,158.8,221z"/>
		<path id="path2533" class="st5" d="M171.3,230.4c3.2,1.7,5.2,3.9,4.3,7.5c-4.6-1.3-6.1,1.6-8.6,3
			C164.1,236.6,166.1,233.2,171.3,230.4z"/>
		<path id="path2535" class="st5" d="M210,241c-2.9-2.2,1.4-9.1,7.8-2.7c-0.6,4.7-3,8.1-7.8,9.8C212.1,245.3,211.9,242.5,210,241z"
			/>
		<path id="path2537" class="st6" d="M171,228.3l1.6-0.7"/>
		<path id="path2539" class="st6" d="M191.3,234.1c1.1-3.2,2.7-5.2,4.7-6.2"/>
		<path id="path2541" class="st6" d="M172.4,213.5l1.9,2.9"/>
		<path id="path2543" class="st6" d="M226.1,142.4c-2.6,2.8-3.6,6.2-3.1,12.8c0.4,6-0.4,8.4-1.1,11.2"/>
		<path id="path2545" class="st6" d="M202.7,231.7c-0.3-0.1-1,0-1.6,0.6c-0.4,0.4-0.6,0.5-0.9,1.1c-0.3,0.5,0,1.3,0.2,1.7
			c0.2,0.5,0.4,0.9,0.6,1.3"/>
		<path id="path2547" class="st6" d="M230.6,217.1c-2.8-3.2-4.3-6.4-1.8-10"/>
		<path id="path2549" class="st6" d="M233.2,201.8c-1.2,1.6-1.6,3.5,2,7.5"/>
		<path id="path2551" class="st6" d="M240.1,185.8c-1.1,5,4.7,6.6,1.4,8.6"/>
		<path id="path2553" class="st6" d="M245.7,173c0,0.7,0.1,1.4,0.1,2.1c0.1,1.1,0.5,1.5,0.9,2.2c0.3,0.6,0.4,0.8,0.9,1.3
			c0.6,0.6,1.4,1.3,1.9,2c0.3,0.4,1.3,1,1.7,1.5c0.4,0.4,1.1,1.5,1.5,1.7"/>
		<path id="path2555" class="st6" d="M250.7,178.5c0.1,0.2,1.5,1.1,1.9,1.3c0.7,0.5,1.5,0.6,2.4,0.9c0.6,0.2,1.1,0.7,1.6,1.1"/>
		<path id="path2557" class="st6" d="M257.9,171.4c-3.9-2.7-6.1-6.9-6.1-13"/>
		<path id="path2559" class="st6" d="M259.3,156.7c-0.6,0.4-1,3.7-0.8,4c0.4,0.8,0.8,1.4,1.1,2.1c0.4,0.7,0.7,1.3,1,1.9
			c0.2,0.4,0.8,0.8,1,1"/>
		<path id="path2561" class="st6" d="M267.8,153.8c-0.2,0.6-0.2,2.2-0.2,3.2c0,1.5,0.1,2.2,0.8,2.9c0.4,0.4,0.4,0.2,0.8,0.3"/>
		<path id="path2563" class="st6" d="M274.9,157.1c2.2,1.8,4.3,3.6,4.8,7.1"/>
		<path id="path2565" class="st6" d="M285.5,148.3c-0.2,1.2-0.3,2.4-0.5,3.6c-0.1,0.8-0.4,1.7-0.6,2.6c-0.2,0.9-0.2,2.2,0,3
			c0,0.1,0.2,0.1,0.2,0.1"/>
		<path id="path4359" class="st5" d="M191.8,235.4c3.6-0.3,6.5,0.4,7.7,4c-4.6,1.4-4.2,4.6-5.6,7.2
			C189.2,244.5,189,240.6,191.8,235.4z"/>
		<path id="path4361" class="st5" d="M368.2,258c4.5,0,8.8-0.4,10.7-5.9c-1.9-1.7-4.7-2.1-7.7-2C372.4,252.3,370.1,255.2,368.2,258z
			"/>
	</g>
</g>
</svg>
