<?xml version="1.0" encoding="utf-8"?>
<!-- Generator: Adobe Illustrator 25.2.1, SVG Export Plug-In . SVG Version: 6.00 Build 0)  -->
<svg version="1.1" id="icon-menschen" xmlns="http://www.w3.org/2000/svg" xmlns:xlink="http://www.w3.org/1999/xlink" x="0px"
	 y="0px" width="434.22px" height="108.43px" viewBox="0 0 434.22 108.43" style="enable-background:new 0 0 434.22 108.43;"
	 xml:space="preserve">
<style type="text/css">
	.st0{fill-rule:evenodd;clip-rule:evenodd;fill:#8BC7C0;}
</style>
<path id="MENSCHEN_SOZIALES_Kopie" class="st0" d="M174.12,25.74v28.44h5.75v-7.7l-0.53-11.85l5.68,19.55h3.91l5.68-19.55
	l-0.53,11.85v7.7h5.77V25.74h-7.5l-5.36,20.57l-5.37-20.57H174.12L174.12,25.74z M219.81,37.24h-8.95v-6.72h10.55v-4.78h-16.29
	v28.44h16.33v-4.77h-10.59v-7.54h8.95V37.24L219.81,37.24z M245.44,25.74h-5.72v18.67l-8.42-18.67h-5.74v28.44h5.74V35.52l8.4,18.66
	h5.74V25.74z M259.4,49.9c-1.15,0.11-2.29-0.3-3.12-1.11c-0.73-1.04-1.07-2.31-0.96-3.58h-5.76c-0.04,1.75,0.4,3.47,1.28,4.98
	c0.84,1.4,2.07,2.53,3.54,3.24c1.56,0.77,3.28,1.16,5.02,1.14c2.33,0.13,4.62-0.62,6.43-2.09c1.61-1.48,2.48-3.61,2.36-5.8
	c0.08-2.03-0.59-4.01-1.88-5.57c-1.67-1.72-3.75-2.99-6.05-3.69c-1.21-0.45-2.34-1.12-3.32-1.96c-0.58-0.55-0.92-1.32-0.93-2.12
	c-0.05-0.88,0.26-1.74,0.84-2.4c0.62-0.61,1.47-0.93,2.34-0.88c0.94-0.06,1.84,0.33,2.45,1.04c0.62,0.89,0.93,1.96,0.85,3.04h5.72
	c0.03-1.59-0.35-3.16-1.1-4.57c-0.72-1.32-1.82-2.41-3.15-3.12c-1.44-0.75-3.05-1.13-4.67-1.1c-2.35-0.09-4.66,0.68-6.48,2.18
	c-1.69,1.43-2.63,3.56-2.55,5.77c-0.03,1.89,0.64,3.72,1.88,5.14c1.71,1.75,3.82,3.05,6.15,3.8c1.18,0.42,2.27,1.04,3.23,1.85
	c0.64,0.72,0.96,1.67,0.89,2.63C262.41,48.84,261.41,49.9,259.4,49.9L259.4,49.9L259.4,49.9z M286.06,44.7
	c0.07,1.4-0.27,2.79-0.98,4c-0.81,0.83-1.97,1.23-3.12,1.1c-1.29,0.12-2.55-0.49-3.25-1.58c-0.63-1.06-0.95-3-0.95-5.82v-5.37
	c-0.1-1.82,0.25-3.64,1.02-5.3c0.69-1.11,1.95-1.74,3.26-1.62c1.16-0.14,2.32,0.29,3.11,1.15c0.7,1.27,1.02,2.71,0.93,4.15h5.76
	c-0.22-3.25-1.13-5.73-2.74-7.46s-3.96-2.6-7.06-2.6c-2.82-0.14-5.54,1.03-7.38,3.17c-1.78,2.12-2.66,5.13-2.66,9.04v4.78
	c0,3.92,0.85,6.94,2.57,9.05c1.82,2.17,4.56,3.35,7.39,3.18c2.61,0.16,5.17-0.74,7.11-2.5c1.68-1.67,2.59-4.12,2.73-7.37
	L286.06,44.7L286.06,44.7z M315.85,25.74h-5.72v11.5h-8.48v-11.5h-5.74v28.44h5.74V42.01h8.48v12.17h5.72V25.74z M335.8,37.24h-8.94
	v-6.72h10.55v-4.78h-16.29v28.44h16.33v-4.77h-10.59v-7.54h8.94V37.24L335.8,37.24z M361.44,25.74h-5.72v18.67l-8.42-18.67h-5.74
	v28.44h5.74V35.52l8.4,18.66h5.74V25.74z M377.92,52.34c1.5,1.52,3.58,2.33,5.71,2.23c1.13,0,2.24-0.23,3.28-0.67
	c1.01-0.42,1.92-1.03,2.69-1.81l1.45,2.09h4.14l-3.48-5c1.42-2.47,2.11-5.29,2-8.13h-3.09c0.03,1.79-0.29,3.57-0.92,5.24l-5-7.21
	l2.01-1.72c0.97-0.79,1.77-1.78,2.35-2.89c0.45-0.98,0.67-2.04,0.66-3.11c0.05-1.6-0.55-3.14-1.66-4.29
	c-1.11-1.15-2.65-1.77-4.24-1.72c-1.69-0.07-3.32,0.59-4.48,1.82c-1.18,1.42-1.78,3.24-1.67,5.09c0.01,0.99,0.21,1.97,0.6,2.88
	c0.59,1.31,1.33,2.55,2.19,3.7c-1.45,1.11-2.7,2.45-3.7,3.98c-0.64,1.14-0.97,2.42-0.96,3.72
	C375.71,48.68,376.47,50.76,377.92,52.34L377.92,52.34z M380.41,50.21c-0.82-1.04-1.24-2.34-1.18-3.67c0.07-1.86,0.93-3.61,2.37-4.8
	l0.58-0.49l5.65,8.22c-1.02,1.3-2.55,2.09-4.2,2.15C382.4,51.68,381.2,51.16,380.41,50.21L380.41,50.21z M381.82,29.41
	c0.42-0.69,1.17-1.11,1.98-1.09c0.76-0.02,1.49,0.3,1.98,0.88c0.53,0.59,0.8,1.37,0.78,2.16c0.02,0.75-0.13,1.49-0.43,2.18
	c-0.4,0.72-0.96,1.35-1.62,1.85L383,36.68c-0.51-0.75-0.97-1.55-1.36-2.37c-0.34-0.67-0.52-1.41-0.53-2.16
	C381.08,31.19,381.32,30.23,381.82,29.41L381.82,29.41z M242.62,95.9c-1.16,0.11-2.3-0.3-3.13-1.11c-0.73-1.04-1.07-2.31-0.96-3.58
	h-5.76c-0.04,1.75,0.4,3.47,1.28,4.98c0.84,1.4,2.08,2.53,3.55,3.24c1.56,0.77,3.28,1.16,5.02,1.14c2.33,0.13,4.61-0.62,6.42-2.09
	c1.62-1.48,2.49-3.61,2.37-5.8c0.08-2.03-0.59-4.01-1.89-5.57c-1.67-1.72-3.75-2.99-6.04-3.69c-1.22-0.45-2.34-1.11-3.32-1.96
	c-0.59-0.55-0.93-1.31-0.94-2.12c-0.05-0.88,0.26-1.74,0.84-2.4c0.62-0.61,1.47-0.93,2.34-0.88c0.94-0.06,1.84,0.32,2.45,1.04
	c0.62,0.89,0.93,1.96,0.85,3.04h5.72c0.03-1.59-0.35-3.17-1.1-4.57c-0.72-1.33-1.82-2.41-3.15-3.12c-1.44-0.75-3.05-1.13-4.67-1.1
	c-2.35-0.09-4.66,0.68-6.48,2.18c-1.69,1.43-2.62,3.56-2.54,5.77c-0.04,1.89,0.63,3.72,1.87,5.14c1.71,1.75,3.82,3.05,6.15,3.8
	c1.18,0.42,2.28,1.04,3.24,1.85c0.64,0.72,0.95,1.67,0.88,2.63C245.62,94.84,244.62,95.9,242.62,95.9L242.62,95.9L242.62,95.9z
	 M275.73,83.65c-0.02-3.89-0.95-6.91-2.77-9.07c-3.89-4.13-10.4-4.32-14.53-0.43c-0.17,0.16-0.33,0.32-0.49,0.49
	c-1.81,2.19-2.71,5.24-2.71,9.15v4.86c0.02,3.77,0.95,6.69,2.77,8.78c4.08,4.14,10.75,4.19,14.89,0.11
	c0.05-0.05,0.09-0.09,0.14-0.14c1.8-2.11,2.7-5.07,2.7-8.88V83.65L275.73,83.65z M269.97,88.69c0.12,1.85-0.26,3.71-1.11,5.36
	c-0.71,1.15-1.99,1.81-3.34,1.73c-1.38,0.09-2.71-0.59-3.44-1.77c-0.86-1.7-1.24-3.59-1.11-5.49v-5.06c-0.1-1.9,0.28-3.79,1.13-5.5
	c1.23-1.86,3.73-2.37,5.59-1.14c0.48,0.32,0.88,0.73,1.19,1.21c0.84,1.78,1.22,3.75,1.09,5.72L269.97,88.69L269.97,88.69z
	 M297.26,75.12v-3.38h-18.34v4.78h11.72l-11.6,20.2v3.46h18.44v-4.77h-11.72L297.26,75.12z M307.36,71.74h-5.74v28.44h5.74V71.74z
	 M328.06,100.18h6.14l-8.95-28.44H320l-8.89,28.44h6.07l1.53-5.82h7.83L328.06,100.18z M322.61,79.43l2.66,10.14h-5.31L322.61,79.43
	z M343.51,71.74h-5.74v28.44h15.82v-4.77h-10.08V71.74L343.51,71.74z M372.17,83.24h-8.95v-6.72h10.55v-4.78h-16.29v28.44h16.33
	v-4.77h-10.59v-7.54h8.95V83.24L372.17,83.24z M386.81,95.9c-1.16,0.11-2.3-0.3-3.13-1.11c-0.72-1.05-1.06-2.31-0.95-3.58h-5.76
	c-0.05,1.75,0.39,3.47,1.28,4.98c0.84,1.4,2.07,2.53,3.54,3.24c1.56,0.77,3.28,1.16,5.02,1.14c2.33,0.13,4.62-0.62,6.43-2.09
	c1.61-1.49,2.47-3.61,2.36-5.8c0.08-2.03-0.59-4.01-1.89-5.57c-1.67-1.72-3.75-2.99-6.04-3.69c-1.22-0.45-2.34-1.11-3.32-1.96
	c-0.59-0.55-0.93-1.31-0.94-2.12c-0.05-0.88,0.26-1.74,0.84-2.4c0.62-0.61,1.47-0.93,2.34-0.88c0.94-0.06,1.85,0.33,2.46,1.04
	c0.62,0.89,0.92,1.96,0.85,3.04h5.72c0.03-1.59-0.35-3.17-1.11-4.57c-0.72-1.33-1.81-2.41-3.15-3.12c-1.44-0.75-3.05-1.13-4.67-1.1
	c-2.35-0.09-4.65,0.68-6.47,2.18c-1.69,1.43-2.63,3.56-2.55,5.77c-0.04,1.89,0.63,3.72,1.87,5.14c1.71,1.75,3.83,3.06,6.16,3.8
	c1.18,0.42,2.27,1.04,3.23,1.85c0.64,0.72,0.96,1.67,0.89,2.63C389.82,94.84,388.81,95.9,386.81,95.9L386.81,95.9L386.81,95.9z"/>
<path id="Form_3_Kopie_2" class="st0" d="M41,3.6c-10.73,0-19.5,10.67-19.5,24.25S30.27,52.09,41,52.09c3.9,0,7.67-1.94,11.58-4.85
	c-1.17-3.1-1.79-6.38-1.83-9.7c0-8.72,2.8-15.64,6.7-22.43C54.53,8.32,47.83,3.59,41,3.59V3.6z M118.99,3.6
	c-6.82,0-13.52,4.72-16.45,11.52c3.9,6.79,6.7,13.7,6.7,22.43c-0.04,3.32-0.66,6.6-1.83,9.7c3.9,2.91,7.67,4.85,11.58,4.85
	c10.73,0,19.5-10.67,19.5-24.25s-8.77-24.24-19.5-24.24V3.6z M80,13.3c-10.78,0-19.5,10.85-19.5,24.24S69.22,61.79,80,61.79
	s19.49-10.85,19.49-24.25S90.77,13.3,80,13.3z M20.58,52.09C10.83,53.06,2,60.82,2,71.49v19.39h29.25v-9.7
	c-0.06-7.26,2.79-14.25,7.92-19.39c-6.82-0.97-13.7-3.88-18.58-9.7L20.58,52.09L20.58,52.09z M139.41,52.09
	c-4.88,5.82-11.76,8.73-18.58,9.7c5.13,5.14,7.98,12.13,7.92,19.39v9.7H158V71.49c0-10.67-8.83-18.43-18.58-19.4H139.41
	L139.41,52.09z M59.58,61.79C49.83,62.76,41,70.52,41,81.18v19.4h77.99v-19.4c0-10.66-8.83-18.42-18.58-19.39
	c-5.85,5.82-12.62,9.7-20.41,9.7S65.43,67.61,59.58,61.79z"/>
</svg>
