<?xml version="1.0" encoding="utf-8"?>
<!-- Generator: Adobe Illustrator 25.2.1, SVG Export Plug-In . SVG Version: 6.00 Build 0)  -->
<svg version="1.1" id="icon-produkte" xmlns="http://www.w3.org/2000/svg" xmlns:xlink="http://www.w3.org/1999/xlink" x="0px"
	 y="0px" width="434.22px" height="195.87px" viewBox="0 0 434.22 195.87" style="enable-background:new 0 0 434.22 195.87;"
	 xml:space="preserve">
<style type="text/css">
	.st0{fill-rule:evenodd;clip-rule:evenodd;fill:#8BC7C0;}
</style>
<path id="Form_5" class="st0" d="M252.08,30.88c-5.09-8.39-15.16-24.68-21.26-27.95l1.07-0.3c-3.74-0.66-12.38,5.99-15.85,7.87
	c-7.05,3.81-13.3,8.71-20.03,12.92c-9.34,5.84-12.38,7.18-21.79,12.91l-0.31-0.08c-1.25,5.16-2.53,34.62-4.42,38.72l0.51-0.04
	c-4.07,3.02-12.81,9.56-17.78,12.29c-6.9,3.78-13.2,8.73-19.85,12.99c-9.77,6.27-24.32,14.16-34.25,19.89l-5-7.36
	c-31.41,19.13-53.46,34.71-84.82,53.81L8.77,166c-17.6,17.44,3.76,28.01,11.62,23.58c12.76-7.19,28.23-15.87,40.3-24.1
	c15.55-10.61,31.11-20.78,46.7-31.42c-0.24-0.53-0.52-1.04-0.83-1.54l-3.36-4.95c6.92-4.98,12.09-7.66,16.6-10.4
	c6.86-4.18,13.72-8.36,20.59-12.55c11.22-6.87,24.2-14.29,35.09-22l0.42-0.34c6.11,1.31,10.68,1.99,16.5,5.04
	c5.5,2.84,11.15,5.38,16.93,7.58l-0.54-0.29c4.43-2.43,10.27-5.21,13.88-7.65c5.31-3.6,11.88-7.43,17.32-10.82
	c9.22-5.74,18.06-10.64,26.48-17.12L267,59.6C265.76,50.86,256.88,38.8,252.08,30.88 M27.99,174.07
	c-0.43,3.87-12.43,10.4-15.45,5.65l-0.14-0.01C7.55,171.46,28.7,167.59,27.99,174.07 M179.16,43.72l0.1-0.43
	c7.69-4.68,18.36-11.36,26.05-16.04c7.77-4.74,17.53-11.22,25.4-15.65l0.55,0.02c0.9,1.34,4.62,7.04,5.59,8.62
	c0.04-0.03,0.09-0.06,0.13-0.09l-0.06,0.21c-0.03-0.04-0.05-0.08-0.07-0.12c-6.97,5.13-43.7,27.64-52.32,32.93l0.37-0.58
	C183.23,49.84,180.51,45.94,179.16,43.72 M189.64,61l0.11-0.43c7.68-4.68,18.36-11.36,26.05-16.04c7.77-4.74,17.53-11.22,25.4-15.65
	l0.55,0.02c0.89,1.34,4.62,7.04,5.59,8.62l0.12-0.09l-0.05,0.21c-0.03-0.04-0.05-0.08-0.07-0.12c-6.97,5.13-43.7,27.64-52.32,32.93
	l0.37-0.58C193.72,67.12,190.99,63.22,189.64,61 M257.9,54.92c-0.02-0.03-0.05-0.08-0.08-0.12c-6.97,5.13-43.7,27.64-52.31,32.93
	l0.36-0.58c-1.66-2.75-4.39-6.65-5.74-8.87l0.1-0.43c7.69-4.68,18.37-11.36,26.06-16.04c7.77-4.74,17.53-11.22,25.39-15.65
	l0.56,0.02c0.89,1.34,4.62,7.04,5.58,8.62c0.04-0.03,0.09-0.06,0.13-0.09L257.9,54.92z"/>
<path id="PRODUKTE_MATERIALIEN_Kopie" class="st0" d="M221.62,134.18c2.53,0.15,5.01-0.73,6.88-2.43c1.71-1.76,2.61-4.15,2.48-6.6
	c0.1-2.51-0.8-4.95-2.51-6.79c-1.77-1.79-4.22-2.74-6.73-2.62h-9.69v28.44h5.74v-10L221.62,134.18L221.62,134.18z M217.79,120.52
	h4.01c0.98,0,1.9,0.47,2.46,1.28c0.66,1,0.97,2.19,0.91,3.39c0.08,1.12-0.24,2.22-0.89,3.13c-0.64,0.73-1.57,1.12-2.54,1.07h-3.95
	V120.52z M248.01,144.18h6.17v-0.28l-4.98-11.64c2.75-1.51,4.12-4.15,4.12-7.93c0.15-2.35-0.7-4.66-2.35-6.35
	c-1.84-1.59-4.24-2.4-6.67-2.24h-9.16v28.44h5.74v-10.39h2.85L248.01,144.18z M240.88,120.52h3.36c2.23,0,3.34,1.43,3.34,4.28
	c0.06,1.09-0.25,2.16-0.86,3.06c-0.62,0.78-1.58,1.21-2.58,1.14h-3.26V120.52L240.88,120.52z M277.75,127.65
	c-0.02-3.89-0.95-6.91-2.77-9.07c-3.89-4.13-10.4-4.32-14.53-0.43c-0.17,0.16-0.33,0.32-0.49,0.49c-1.81,2.19-2.72,5.24-2.72,9.15
	v4.86c0.03,3.77,0.95,6.69,2.78,8.78c4.08,4.14,10.75,4.19,14.89,0.11c0.05-0.05,0.09-0.09,0.14-0.14c1.8-2.11,2.7-5.07,2.7-8.88
	V127.65L277.75,127.65z M271.99,132.69c0.12,1.85-0.26,3.71-1.11,5.36c-0.71,1.15-1.99,1.81-3.34,1.73
	c-1.38,0.09-2.71-0.59-3.44-1.77c-0.86-1.7-1.24-3.59-1.11-5.49v-5.06c-0.1-1.9,0.28-3.79,1.13-5.5c1.23-1.86,3.73-2.37,5.59-1.14
	c0.48,0.32,0.88,0.73,1.19,1.21c0.84,1.78,1.22,3.75,1.09,5.72L271.99,132.69L271.99,132.69z M289.79,144.18
	c3.05,0.16,6.03-1,8.16-3.2c1.97-2.13,2.96-5.07,2.96-8.8v-4.61c-0.04-3.67-1.05-6.56-3.02-8.67c-2.07-2.15-4.96-3.3-7.94-3.16
	h-7.52v28.44L289.79,144.18L289.79,144.18z M290.26,120.52c1.45-0.09,2.86,0.52,3.79,1.65c0.74,1.05,1.11,2.91,1.11,5.56v4.94
	c-0.04,2.48-0.45,4.22-1.23,5.23c-0.78,1.01-2.13,1.51-4.04,1.51h-1.72v-18.89H290.26z M318.29,115.74v19.67
	c0.09,1.18-0.18,2.35-0.78,3.37c-1.63,1.36-4.01,1.36-5.64-0.01c-0.61-1.05-0.88-2.25-0.78-3.46v-19.57h-5.79v19.55
	c0,3.01,0.81,5.31,2.42,6.89c1.6,1.59,3.93,2.39,6.98,2.39c2.99,0,5.29-0.79,6.89-2.36c1.6-1.57,2.42-3.83,2.44-6.78v-19.69
	L318.29,115.74L318.29,115.74z M342.35,144.18h6.82l-8.28-15.94l8.14-12.5H342l-5.29,9.34l-1.82,3.06v-12.4h-5.74v28.44h5.74v-8.13
	l2.27-2.85L342.35,144.18z M371.53,115.74h-19.7v4.78h6.91v23.66h5.76v-23.66h7.03L371.53,115.74L371.53,115.74z M390.11,127.24
	h-8.95v-6.72h10.55v-4.78h-16.29v28.44h16.33v-4.77h-10.59v-7.54h8.95V127.24L390.11,127.24z M406.92,142.34
	c1.5,1.52,3.58,2.33,5.71,2.23c1.13,0,2.24-0.23,3.28-0.67c1.01-0.41,1.93-1.03,2.69-1.81l1.45,2.09h4.14l-3.48-5
	c1.42-2.47,2.11-5.29,2-8.13h-3.09c0.03,1.79-0.29,3.57-0.92,5.24l-5-7.21l2.01-1.72c0.97-0.79,1.77-1.78,2.35-2.89
	c0.45-0.98,0.67-2.04,0.66-3.11c0.05-1.6-0.55-3.14-1.66-4.29c-1.11-1.15-2.65-1.77-4.24-1.72c-1.69-0.07-3.32,0.59-4.48,1.82
	c-1.18,1.42-1.78,3.24-1.67,5.09c0.01,0.99,0.21,1.97,0.6,2.88c0.59,1.31,1.33,2.55,2.19,3.7c-1.45,1.11-2.7,2.45-3.7,3.98
	c-0.64,1.14-0.97,2.42-0.96,3.72C404.71,138.68,405.47,140.76,406.92,142.34L406.92,142.34z M409.41,140.21
	c-0.82-1.04-1.24-2.34-1.18-3.67c0.07-1.87,0.93-3.61,2.37-4.81l0.58-0.48l5.65,8.22c-1.02,1.3-2.55,2.09-4.2,2.15
	C411.4,141.68,410.2,141.16,409.41,140.21L409.41,140.21z M410.82,119.41c0.42-0.69,1.17-1.11,1.98-1.09
	c0.76-0.02,1.49,0.3,1.98,0.88c0.53,0.59,0.8,1.37,0.78,2.16c0.02,0.75-0.13,1.49-0.43,2.18c-0.4,0.72-0.96,1.35-1.62,1.85
	l-1.51,1.29c-0.51-0.75-0.97-1.55-1.36-2.37c-0.34-0.67-0.52-1.41-0.53-2.16C410.08,121.19,410.32,120.23,410.82,119.41
	L410.82,119.41z M197.55,161.74v28.44h5.74v-7.7l-0.52-11.85l5.68,19.55h3.91l5.68-19.55l-0.53,11.85v7.7h5.76v-28.44h-7.5
	l-5.35,20.57l-5.37-20.57H197.55L197.55,161.74z M243.87,190.18h6.14l-8.95-28.44h-5.25l-8.89,28.44h6.07l1.53-5.82h7.83
	L243.87,190.18z M238.42,169.43l2.66,10.14h-5.31L238.42,169.43z M269.07,161.74h-19.71v4.78h6.92v23.66h5.76v-23.66h7.03
	L269.07,161.74L269.07,161.74z M287.64,173.24h-8.94v-6.72h10.55v-4.78h-16.29v28.44h16.33v-4.77H278.7v-7.54h8.94L287.64,173.24
	L287.64,173.24z M306.29,190.18h6.17v-0.28l-4.98-11.64c2.75-1.51,4.12-4.15,4.12-7.93c0.15-2.35-0.7-4.66-2.35-6.35
	c-1.84-1.59-4.24-2.4-6.67-2.24h-9.16v28.44h5.74v-10.39h2.85L306.29,190.18z M299.16,166.52h3.36c2.23,0,3.34,1.43,3.34,4.28
	c0.06,1.09-0.25,2.16-0.86,3.06c-0.62,0.78-1.58,1.21-2.58,1.14h-3.26V166.52L299.16,166.52z M322.11,161.74h-5.74v28.44h5.74
	V161.74z M342.82,190.18h6.13L340,161.74h-5.25l-8.89,28.44h6.08l1.52-5.82h7.83L342.82,190.18z M337.37,169.43l2.65,10.14h-5.31
	L337.37,169.43z M358.26,161.74h-5.74v28.44h15.82v-4.77h-10.08V161.74L358.26,161.74z M378.11,161.74h-5.75v28.44h5.75V161.74z
	 M398.16,173.24h-8.94v-6.72h10.54v-4.78h-16.29v28.44h16.33v-4.77h-10.58v-7.54h8.94V173.24L398.16,173.24z M423.8,161.74h-5.72
	v18.67l-8.42-18.67h-5.74v28.44h5.74v-18.66l8.4,18.66h5.74V161.74z"/>
</svg>
