<?xml version="1.0" encoding="utf-8"?>
<!-- Generator: Adobe Illustrator 25.2.1, SVG Export Plug-In . SVG Version: 6.00 Build 0)  -->
<svg version="1.1" id="icon-umwelt" xmlns="http://www.w3.org/2000/svg" xmlns:xlink="http://www.w3.org/1999/xlink" x="0px"
	 y="0px" width="434.22px" height="187.81px" viewBox="0 0 434.22 187.81" style="enable-background:new 0 0 434.22 187.81;"
	 xml:space="preserve">
<style type="text/css">
	.st0{fill-rule:evenodd;clip-rule:evenodd;fill:#8BC7C0;}
</style>
<path id="UMWELT_RESSOURCEN_Kopie" class="st0" d="M96.61,104.74v19.67c0.08,1.18-0.19,2.35-0.78,3.37
	c-1.64,1.36-4.02,1.36-5.65-0.01c-0.61-1.05-0.88-2.25-0.78-3.46v-19.57h-5.78v19.55c0,3.01,0.8,5.31,2.41,6.89
	c1.61,1.58,3.93,2.38,6.98,2.39c3,0,5.3-0.79,6.9-2.36c1.6-1.57,2.41-3.83,2.44-6.78v-19.69L96.61,104.74L96.61,104.74z
	 M107.46,104.74v28.44h5.75v-7.7l-0.53-11.85l5.68,19.55h3.91l5.68-19.55l-0.52,11.85v7.7h5.76v-28.44h-7.5l-5.35,20.57l-5.38-20.57
	H107.46L107.46,104.74z M153.59,104.74h-4.82l-3.34,17.85l-2.68-17.85h-5.72l5.08,28.44h5.78l3.28-16.76l3.32,16.76h5.76l5.06-28.44
	h-5.68l-2.7,17.87L153.59,104.74z M183.79,116.24h-8.94v-6.72h10.55v-4.78h-16.29v28.44h16.32v-4.77h-10.58v-7.54h8.94V116.24
	L183.79,116.24z M195.29,104.74h-5.74v28.44h15.82v-4.77h-10.08V104.74L195.29,104.74z M224.75,104.74h-19.71v4.78h6.92v23.66h5.76
	v-23.66h7.03L224.75,104.74L224.75,104.74z M239.92,131.34c1.5,1.52,3.58,2.33,5.71,2.23c1.13,0,2.24-0.23,3.28-0.67
	c1.01-0.42,1.92-1.03,2.69-1.81l1.45,2.09h4.14l-3.48-5c1.42-2.47,2.11-5.29,2-8.13h-3.09c0.03,1.79-0.29,3.57-0.92,5.24l-5-7.21
	l2.01-1.72c0.97-0.79,1.77-1.78,2.35-2.89c0.45-0.98,0.67-2.04,0.66-3.11c0.05-1.6-0.55-3.14-1.66-4.29
	c-1.11-1.15-2.65-1.77-4.24-1.72c-1.69-0.07-3.32,0.59-4.48,1.82c-1.18,1.42-1.78,3.24-1.67,5.09c0.01,0.99,0.21,1.97,0.6,2.88
	c0.59,1.31,1.33,2.55,2.19,3.7c-1.45,1.11-2.7,2.45-3.7,3.98c-0.64,1.14-0.97,2.42-0.96,3.72
	C237.71,127.68,238.47,129.76,239.92,131.34L239.92,131.34z M242.4,129.21c-0.82-1.04-1.23-2.35-1.17-3.67
	c0.07-1.86,0.93-3.61,2.37-4.8l0.58-0.49l5.65,8.22c-1.02,1.3-2.55,2.09-4.2,2.15C244.39,130.68,243.2,130.16,242.4,129.21
	L242.4,129.21z M243.82,108.41c0.42-0.69,1.17-1.11,1.98-1.09c0.76-0.02,1.49,0.3,1.98,0.88c0.53,0.59,0.8,1.37,0.78,2.16
	c0.02,0.75-0.13,1.49-0.43,2.18c-0.4,0.72-0.96,1.35-1.62,1.85l-1.51,1.29c-0.51-0.75-0.97-1.55-1.36-2.37
	c-0.34-0.67-0.52-1.41-0.53-2.16C243.08,110.19,243.32,109.23,243.82,108.41z M47.38,179.18h6.18v-0.28l-4.99-11.64
	c2.75-1.51,4.13-4.15,4.13-7.93c0.15-2.36-0.71-4.66-2.36-6.35c-1.84-1.59-4.24-2.4-6.67-2.24h-9.16v28.44h5.74v-10.39h2.86
	L47.38,179.18z M40.25,155.52h3.36c2.23,0,3.34,1.43,3.34,4.28c0.06,1.09-0.24,2.16-0.86,3.06c-0.62,0.78-1.58,1.21-2.57,1.14h-3.27
	V155.52L40.25,155.52z M72.02,162.24h-8.94v-6.72h10.55v-4.78H57.34v28.44h16.33v-4.77H63.08v-7.54h8.94V162.24L72.02,162.24z
	 M86.67,174.9c-1.16,0.11-2.3-0.3-3.13-1.11c-0.73-1.04-1.07-2.31-0.96-3.58h-5.76c-0.04,1.75,0.4,3.47,1.28,4.98
	c0.84,1.4,2.08,2.53,3.55,3.24c1.56,0.77,3.28,1.16,5.02,1.14c2.33,0.13,4.61-0.62,6.42-2.09c1.61-1.48,2.48-3.61,2.36-5.8
	c0.08-2.03-0.59-4.01-1.88-5.57c-1.67-1.72-3.75-2.99-6.04-3.69c-1.22-0.45-2.34-1.12-3.33-1.96c-0.58-0.55-0.92-1.32-0.93-2.12
	c-0.05-0.88,0.26-1.74,0.84-2.4c0.62-0.61,1.47-0.93,2.34-0.88c0.94-0.06,1.84,0.32,2.45,1.04c0.62,0.89,0.93,1.96,0.85,3.04h5.72
	c0.03-1.59-0.35-3.17-1.1-4.57c-0.72-1.33-1.82-2.41-3.15-3.12c-1.44-0.75-3.05-1.13-4.67-1.1c-2.35-0.09-4.66,0.68-6.48,2.18
	c-1.69,1.43-2.63,3.56-2.54,5.77c-0.04,1.89,0.63,3.72,1.87,5.14c1.71,1.75,3.82,3.05,6.15,3.8c1.18,0.42,2.28,1.04,3.24,1.85
	c0.64,0.72,0.95,1.67,0.88,2.63C89.67,173.84,88.67,174.9,86.67,174.9L86.67,174.9L86.67,174.9z M109.02,174.9
	c-1.16,0.11-2.3-0.3-3.13-1.11c-0.72-1.05-1.06-2.31-0.95-3.58h-5.76c-0.05,1.75,0.39,3.47,1.27,4.98c0.85,1.4,2.08,2.52,3.55,3.24
	c1.56,0.77,3.28,1.16,5.02,1.14c2.33,0.13,4.62-0.62,6.43-2.09c1.61-1.49,2.47-3.61,2.36-5.8c0.08-2.03-0.59-4.01-1.89-5.57
	c-1.67-1.72-3.75-2.99-6.04-3.69c-1.22-0.45-2.34-1.11-3.32-1.96c-0.59-0.55-0.93-1.31-0.94-2.12c-0.05-0.88,0.26-1.74,0.84-2.4
	c0.62-0.61,1.47-0.93,2.34-0.88c0.94-0.06,1.85,0.33,2.46,1.04c0.62,0.89,0.92,1.96,0.85,3.04h5.72c0.03-1.59-0.35-3.17-1.11-4.57
	c-0.72-1.33-1.81-2.41-3.15-3.12c-1.44-0.75-3.05-1.13-4.67-1.1c-2.35-0.09-4.66,0.68-6.47,2.18c-1.69,1.43-2.63,3.56-2.55,5.77
	c-0.04,1.89,0.63,3.72,1.87,5.14c1.71,1.75,3.83,3.06,6.16,3.8c1.18,0.42,2.27,1.04,3.23,1.85c0.64,0.72,0.96,1.67,0.89,2.63
	C112.03,173.84,111.02,174.9,109.02,174.9L109.02,174.9L109.02,174.9z M142.14,162.65c-0.03-3.89-0.95-6.91-2.78-9.07
	c-3.89-4.13-10.4-4.32-14.53-0.43c-0.17,0.16-0.33,0.32-0.49,0.49c-1.81,2.19-2.71,5.24-2.71,9.15v4.86
	c0.02,3.77,0.95,6.69,2.77,8.78c1.91,2.13,4.67,3.28,7.52,3.14c2.86,0.15,5.62-1.02,7.51-3.17c1.8-2.11,2.71-5.07,2.71-8.88V162.65
	L142.14,162.65z M136.37,167.69c0.12,1.85-0.26,3.71-1.11,5.36c-0.71,1.15-1.99,1.81-3.34,1.73c-1.38,0.08-2.7-0.59-3.44-1.77
	c-0.86-1.7-1.24-3.59-1.11-5.49v-5.06c-0.1-1.9,0.29-3.79,1.13-5.5c1.23-1.86,3.73-2.37,5.59-1.14c0.48,0.32,0.88,0.73,1.19,1.21
	c0.84,1.78,1.22,3.75,1.09,5.72L136.37,167.69L136.37,167.69z M159.58,150.74v19.67c0.08,1.18-0.2,2.35-0.79,3.37
	c-0.72,0.77-1.76,1.15-2.81,1.02c-1.05,0.13-2.1-0.26-2.83-1.03c-0.61-1.05-0.88-2.25-0.78-3.46v-19.57h-5.78v19.55
	c0,3.01,0.8,5.31,2.41,6.89c1.61,1.59,3.93,2.39,6.98,2.39c3,0,5.29-0.79,6.9-2.36s2.41-3.83,2.44-6.78v-19.69L159.58,150.74
	L159.58,150.74z M183.32,179.18h6.18v-0.28l-4.98-11.64c2.74-1.51,4.11-4.15,4.12-7.93c0.15-2.36-0.71-4.66-2.36-6.35
	c-1.84-1.59-4.24-2.4-6.67-2.24h-9.16v28.44h5.74v-10.39h2.86L183.32,179.18z M176.19,155.52h3.36c2.23,0,3.34,1.43,3.34,4.28
	c0.06,1.09-0.24,2.16-0.86,3.06c-0.62,0.78-1.58,1.21-2.57,1.14h-3.27V155.52L176.19,155.52z M206.62,169.7
	c0.07,1.4-0.27,2.79-0.97,4c-0.82,0.83-1.97,1.23-3.13,1.1c-1.29,0.12-2.54-0.49-3.25-1.58c-0.63-1.06-0.95-3-0.95-5.82v-5.37
	c-0.1-1.82,0.25-3.64,1.02-5.3c0.69-1.11,1.95-1.74,3.26-1.62c1.16-0.14,2.32,0.29,3.12,1.15c0.69,1.27,1.01,2.71,0.92,4.15h5.77
	c-0.23-3.25-1.14-5.73-2.75-7.46s-3.96-2.6-7.06-2.6c-2.82-0.14-5.54,1.03-7.38,3.17c-1.77,2.12-2.66,5.13-2.66,9.04v4.78
	c0,3.92,0.86,6.94,2.57,9.05c1.82,2.17,4.56,3.35,7.39,3.18c2.61,0.16,5.17-0.74,7.11-2.5c1.68-1.67,2.59-4.12,2.74-7.37
	L206.62,169.7L206.62,169.7z M231.16,162.24h-8.94v-6.72h10.54v-4.78h-16.29v28.44h16.33v-4.77h-10.58v-7.54h8.94V162.24
	L231.16,162.24z M256.8,150.74h-5.72v18.67l-8.42-18.67h-5.74v28.44h5.74v-18.66l8.4,18.66h5.74V150.74z"/>
<path id="Form_4" class="st0" d="M113.86,16.09c-32.07-2.26-77.09,34.45-64.71,59.58c24.2-40.14,59.58-28.68,83.21-44.65
	c-22.44,23.72-65.2,24.77-88.27,51.93c-12.76,15.27-23.3,32.26-31.32,50.47c-4.55,12.62-10.16,25.62-9.76,46.63
	c0.11,6.2,14.07-0.92,14.07-0.92s-6.76-25.15,5.62-53.45s28.7-48.56,37.14-43.26s38.33,22.9,64.15-7.3S174,3.59,174,3.59
	S145.93,18.34,113.86,16.09"/>
</svg>
