
<svg version="1.1" xmlns="http://www.w3.org/2000/svg" xmlns:xlink="http://www.w3.org/1999/xlink" x="0px" y="0px"
	 width="396.34px" height="131.55px" viewBox="0 0 396.34 131.55" style="enable-background:new 0 0 396.34 131.55;"
	 xml:space="preserve">
<style type="text/css">
	.st0{fill-rule:evenodd;clip-rule:evenodd;fill:#BE1D28;}
	.st1{fill-rule:evenodd;clip-rule:evenodd;}
</style>
<path id="Brands" d="M231.7,82.17c-0.17-0.71-0.36-1.24-0.59-1.6l-0.68-1.27c-0.38-0.85-0.87-1.58-1.47-2.21l-1.33-1.25
	c-0.59-0.48-1.21-0.95-1.87-1.39c-0.66-0.44-1.28-0.87-1.87-1.29c-0.07,0-0.15,0-0.22,0.01c-0.29-0.06-0.58-0.16-0.87-0.3
	c-0.29-0.13-0.58-0.27-0.87-0.4c-0.29,0.01-0.58-0.09-0.87-0.3c-0.22-0.14-0.62-0.27-1.19-0.39c-0.65-0.2-1.28-0.34-1.9-0.42
	s-1.24-0.23-1.89-0.43c-1.58-0.24-2.77-0.34-3.56-0.32c-0.29,0.01-0.57,0.04-0.86,0.08c-0.28,0.05-0.57,0.07-0.86,0.08
	c-0.36,0.01-0.93,0.07-1.72,0.16c-0.21,0.08-0.41,0.14-0.58,0.18c-0.18,0.04-0.34,0.06-0.48,0.07c-0.22,0.01-0.32-0.03-0.33-0.1
	c-0.07-0.07-0.11-0.17-0.12-0.32c0.07,0,0.16-0.04,0.27-0.12c0.11-0.07,0.23-0.15,0.37-0.23c0.28-0.15,0.45-0.34,0.52-0.55
	c0.13-0.29,0.27-0.51,0.41-0.66l0.42-0.44l0.96-0.35l0.52-0.55c0.14-0.15,0.21-0.26,0.2-0.33c-0.04-0.07-0.04-0.11-0.06-0.16
	c0.04,0.03,0.09,0.05,0.16,0.05c0.14-0.07,0.25-0.11,0.32-0.12l0.52-0.55c0.78-0.38,1.33-0.9,1.67-1.56
	c0.21-0.22,0.35-0.37,0.42-0.44c0.42-0.37,0.8-0.76,1.15-1.16c0.35-0.4,0.76-0.79,1.25-1.17c0.21-0.29,0.58-0.73,1.14-1.32
	c0.28-0.29,0.52-0.48,0.73-0.56c0.14-0.08,0.25-0.15,0.32-0.23c0.2-0.36,0.46-0.71,0.78-1.04c0.31-0.33,0.57-0.72,0.77-1.15
	c0.2-0.51,0.43-1,0.71-1.47c0.27-0.47,0.54-0.97,0.82-1.48c0.26-0.72,0.6-1.45,1.01-2.18c0.06-0.29,0.15-0.79,0.28-1.51
	c0.13-0.43,0.32-1.16,0.58-2.17c0.13-0.51,0.15-1.08,0.05-1.72c0-0.14-0.04-0.25-0.12-0.32c-0.53-1.06-0.95-1.73-1.24-2
	c-0.08-0.07-0.17-0.17-0.28-0.31c-0.11-0.14-0.17-0.28-0.18-0.42c-0.23-0.42-0.56-0.74-0.99-0.94c-0.36-0.06-0.65-0.23-0.88-0.51
	c-0.36-0.13-0.76-0.26-1.19-0.39c-0.22-0.06-0.47-0.16-0.76-0.3c-0.29-0.21-0.62-0.37-0.98-0.51l-1.62-0.27
	c-0.65-0.19-1.19-0.25-1.62-0.16c-0.43,0.01-0.82,0.02-1.18,0.04c-0.36,0.01-0.72,0.02-1.07,0.03c-0.79,0.02-1.36,0.08-1.72,0.16
	c-0.36,0.08-0.69,0.16-1.02,0.25c-0.32,0.08-0.62,0.13-0.91,0.13c-0.42,0.23-0.85,0.37-1.28,0.42c-0.43,0.05-0.86,0.15-1.28,0.31
	c-0.35,0.16-0.71,0.29-1.06,0.41c-0.36,0.12-0.68,0.22-0.96,0.3c-0.71,0.31-1.24,0.5-1.59,0.59c-0.85,0.31-1.45,0.55-1.81,0.7
	c-0.78,0.38-1.55,0.75-2.33,1.09c-0.78,0.35-1.52,0.71-2.23,1.09c-2.68,1.3-5.01,2.59-6.98,3.87c-0.84,0.46-1.63,0.95-2.37,1.47
	c-0.74,0.52-1.49,1.01-2.27,1.47c-2.04,1.35-4.17,2.92-6.41,4.71c-0.42,0.37-0.8,0.71-1.15,1c-0.35,0.3-0.7,0.6-1.05,0.89
	c-0.7,0.6-1.67,1.56-2.92,2.88c-0.56,0.59-1.09,1.16-1.61,1.72c-0.52,0.55-1.02,1.09-1.51,1.61c-0.62,0.74-1.41,1.91-2.36,3.51
	c-0.34,0.51-0.51,1.02-0.49,1.52c0.03,0.86,0.01,1.54-0.04,2.04c-0.07,0.29-0.02,0.5,0.13,0.64c0.52,0.49,0.81,0.8,0.89,0.94
	c0,0.14,0.06,0.25,0.17,0.32c0.11,0.07,0.2,0.14,0.28,0.21c0.29,0.21,0.58,0.34,0.87,0.4c0.07,0,0.16,0.01,0.27,0.04
	c0.11,0.03,0.27,0.05,0.48,0.04c0.43-0.01,0.72-0.06,0.86-0.13c0.28-0.15,0.42-0.37,0.41-0.66c0.06-0.22,0.02-0.5-0.13-0.86
	l-0.01-0.43c0.11-1.15,0.23-1.83,0.37-2.05c0.07-0.15,0.13-0.26,0.2-0.33c0.4-1.16,1.14-2.61,2.23-4.37c0-0.14,0.06-0.22,0.21-0.22
	c0.69-0.88,1.24-1.54,1.66-1.98c1.53-1.62,3.13-3.07,4.81-4.34c1.05-0.89,2.1-1.64,3.15-2.25c0.42-0.3,0.9-0.58,1.43-0.85
	c0.53-0.27,1-0.62,1.42-1.07c0.98-0.6,1.76-0.98,2.33-1.15c-0.07,0,0.21-0.11,0.85-0.35c1.13-0.54,1.87-0.92,2.22-1.14
	c0.14-0.07,0.49-0.23,1.06-0.46c0.57-0.16,0.86,0.01,0.88,0.51c0.02,0.57-0.01,1.01-0.07,1.29c-0.13,0.43-0.23,0.85-0.28,1.24
	c-0.06,0.4-0.12,0.81-0.18,1.24c-0.26,0.94-0.5,1.88-0.72,2.82c-0.22,0.94-0.43,1.88-0.61,2.81c-0.37,1.88-0.69,3.28-0.95,4.22
	c-0.26,0.8-0.49,1.59-0.68,2.39c-0.19,0.79-0.38,1.55-0.57,2.27c-0.06,0.29-0.14,0.6-0.24,0.92c-0.1,0.33-0.14,0.6-0.14,0.81
	c-0.25,1.08-0.53,2.15-0.82,3.2c-0.29,1.05-0.53,2.08-0.71,3.08l-0.29,0.98c-0.07,0.07-0.17,0.22-0.31,0.44
	c-0.14,0.15-0.49,0.44-1.05,0.89c-1.25,1.26-2.4,2.58-3.43,3.97c-0.14,0.08-0.14,0.18,0.01,0.32c0.15,0.07,0.26,0.19,0.33,0.37
	c0.08,0.18,0.23,0.3,0.44,0.36c0.29,0.28,0.55,0.41,0.76,0.41c0.14,0,0.36,0.13,0.66,0.41c0,0.07,0.08,0.18,0.22,0.31
	c0.38,0.63,0.47,1.31,0.28,2.03c-0.12,0.79-0.25,1.37-0.38,1.73c0.01,0.22-0.06,0.54-0.18,0.97c-0.18,1.01-0.39,1.99-0.61,2.92
	c-0.22,0.94-0.43,1.88-0.61,2.81c-0.2,0.65-0.34,1.26-0.43,1.84c-0.09,0.58-0.2,1.15-0.32,1.73c-0.06,0.36-0.14,0.69-0.24,0.98
	c-0.1,0.29-0.14,0.54-0.14,0.76c-0.13,0.43-0.24,0.87-0.34,1.3c-0.09,0.43-0.17,0.87-0.23,1.3c-0.26,0.94-0.45,1.88-0.56,2.81
	c-0.12,0.94-0.27,1.84-0.46,2.7c-0.05,0.79-0.19,2.05-0.42,3.78c0.01,0.29-0.12,0.65-0.4,1.09c-0.14,0.22-0.34,0.62-0.61,1.2
	c-0.07,0.22-0.13,0.43-0.2,0.65c-0.07,0.22-0.1,0.43-0.09,0.65c-0.47,1.02-0.64,1.42-0.5,1.2c-0.34,0.73-0.53,1.34-0.59,1.85
	c-0.07,0.14-0.1,0.32-0.09,0.54c0.01,0.22-0.05,0.61-0.18,1.19c-0.06,0.36-0.14,0.68-0.24,0.97c-0.1,0.29-0.14,0.58-0.13,0.86
	c-0.07,0.22-0.09,0.47-0.08,0.76c0.1,1.14,0.49,2.1,1.16,2.87c0,0.07,0.04,0.12,0.11,0.16c0.07,0.03,0.15,0.05,0.22,0.05
	c0.23,0.42,0.63,0.66,1.2,0.72c0.22,0.06,0.43,0.13,0.65,0.2c0.22,0.06,0.43,0.09,0.65,0.09l0.97-0.03
	c0.35-0.08,0.93-0.14,1.72-0.16c0.07-0.08,0.25-0.12,0.53-0.12c1.07-0.32,1.77-0.63,2.12-0.92c0.28-0.15,0.53-0.23,0.75-0.24
	c0.21-0.01,0.39-0.05,0.53-0.12c1.42-0.47,2.58-1.12,3.49-1.94c0.14-0.15,0.38-0.3,0.74-0.45c0.21-0.08,0.53-0.27,0.95-0.57
	c0.28-0.22,0.56-0.43,0.84-0.62c0.28-0.19,0.59-0.39,0.95-0.62c0.77-0.52,1.93-1.39,3.47-2.58c0.21-0.15,0.7-0.52,1.47-1.12
	c0.14-0.08,0.26-0.17,0.37-0.28c0.1-0.11,0.26-0.24,0.47-0.39c0.42-0.37,0.85-0.74,1.31-1.11c0.45-0.37,0.89-0.78,1.31-1.22
	c0.35-0.22,0.67-0.48,0.94-0.78c0.28-0.29,0.59-0.59,0.94-0.89c1.26-1.04,2.2-1.86,2.83-2.45c0.21-0.22,0.43-0.46,0.68-0.72
	c0.24-0.26,0.54-0.5,0.89-0.73c0.07-0.07,0.17-0.17,0.32-0.28c0.14-0.11,0.28-0.24,0.42-0.39c0.2-0.36,0.48-0.7,0.83-0.99
	c0.35-0.3,0.7-0.63,1.05-1l1.14-1.22l1.25-1.33c0.21-0.22,0.45-0.5,0.73-0.83c0.28-0.33,0.55-0.64,0.83-0.94
	c0.21-0.22,0.43-0.5,0.67-0.83c0.24-0.33,0.53-0.64,0.88-0.94c0.28-0.22,0.54-0.52,0.78-0.88c0.24-0.37,0.53-0.7,0.88-0.99
	c0.14-0.15,0.24-0.26,0.31-0.33c-0.21,0.15,0.07-0.18,0.83-0.99c0.83-1.03,1.48-1.77,1.97-2.21c0.21-0.22,0.43-0.5,0.67-0.83
	c0.24-0.33,0.53-0.64,0.88-0.94c0.42-0.51,0.83-1.05,1.24-1.6c0.42-0.55,0.83-1.12,1.24-1.7c0.41-0.59,0.76-1.03,1.03-1.32
	c0.28-0.29,0.62-0.81,1.03-1.54c0.13-0.36,0.47-0.91,1.03-1.64c0.55-0.8,1.19-1.9,1.94-3.28c0.2-0.44,0.36-1.12,0.47-2.06
	c-0.08-0.36-0.11-0.71-0.09-1.07C231.71,82.99,231.71,82.6,231.7,82.17z M193.44,75.49c0.13-0.43,0.19-0.76,0.19-0.97
	c0.25-1.01,0.45-1.73,0.58-2.17c0.06-0.29,0.43-0.98,1.12-2.08c0.13-0.29,0.2-0.54,0.19-0.76c0.05-0.57,0.28-1.44,0.67-2.6
	c0.06-0.29,0.13-0.61,0.19-0.97c0.06-0.36,0.19-0.72,0.4-1.09c-0.13,0.29-0.07,0,0.19-0.87c-0.01-0.29,0.09-0.61,0.29-0.98
	c0.27-0.58,0.43-1.05,0.5-1.41c0.12-0.58,0.25-1.01,0.39-1.3c-0.01-0.22,0.06-0.47,0.19-0.76c0.06-0.5,0.15-1.01,0.28-1.51
	c0.13-0.5,0.25-1.05,0.38-1.62c0.18-0.94,0.12-1.79-0.19-2.57c-0.08-0.14-0.13-0.28-0.17-0.42c-0.04-0.14-0.06-0.32-0.07-0.54
	c-0.15-0.28-0.45-0.56-0.89-0.83c-0.07,0-0.16-0.03-0.27-0.1c-0.11-0.07-0.17-0.14-0.17-0.21c-0.43-0.13-0.48-0.38-0.13-0.75
	c0.07-0.22,0.27-0.47,0.62-0.77l0.11,0c1.69-0.91,3-1.56,3.92-1.95c0.14-0.08,0.25-0.15,0.32-0.22c0.56-0.38,1.62-0.76,3.19-1.17
	c0.07,0,0.16,0,0.27-0.01c0.11,0,0.2-0.01,0.27-0.01c0.22-0.01,0.61-0.09,1.18-0.25c0.07-0.07,0.88-0.42,2.44-1.04
	c0.42-0.16,0.74-0.24,0.96-0.24c0.22-0.01,0.45,0,0.7,0.03c0.25,0.03,0.52,0.04,0.81,0.03l1.61-0.05c0.28-0.01,0.61-0.02,0.97-0.03
	c0.36-0.01,0.75-0.02,1.18-0.04c0.43-0.01,1.33,0.1,2.7,0.35c0.22-0.01,0.33,0.13,0.33,0.42c0.07,0.07,0.11,0.17,0.12,0.32
	c0.02,0.57-0.04,1.13-0.16,1.67c-0.13,0.54-0.18,1.06-0.17,1.56c-0.13,0.58-0.25,1.08-0.38,1.52c-0.13,0.43-0.4,1.16-0.79,2.17
	c-0.41,0.66-0.8,1.33-1.17,2.03c-0.37,0.69-0.77,1.37-1.17,2.02c-0.13,0.29-0.3,0.55-0.51,0.77c-0.63,0.66-1.18,1.36-1.66,2.09
	l-0.42,0.44c-1.67,1.77-2.95,3.1-3.85,3.99c-0.42,0.44-0.83,0.85-1.25,1.22c-0.42,0.37-0.84,0.74-1.26,1.11
	c-0.56,0.45-1.1,0.89-1.62,1.34c-0.52,0.45-1.03,0.89-1.52,1.34c-0.56,0.45-1.1,0.88-1.63,1.28c-0.53,0.41-1,0.8-1.42,1.17
	c-0.98,0.75-1.94,1.48-2.89,2.19c-0.95,0.71-1.88,1.4-2.78,2.07c-0.07,0-0.18,0.04-0.32,0.12c-0.28,0.3-0.42,0.23-0.44-0.2
	C193.35,75.89,193.38,75.64,193.44,75.49z M225.63,83.96c-0.26,0.87-0.59,1.67-1,2.4c-0.41,0.73-0.78,1.46-1.12,2.18
	c-0.07,0.15-0.44,0.77-1.12,1.86c-0.61,1.09-0.95,1.71-1.02,1.86c-0.55,0.88-0.99,1.5-1.34,1.87c-0.56,0.59-0.9,1.07-1.03,1.43
	c-0.07,0.15-0.15,0.27-0.26,0.38c-0.1,0.11-0.15,0.2-0.15,0.27c-0.62,0.81-1.19,1.6-1.7,2.36c-0.52,0.77-1.05,1.52-1.6,2.25
	c-0.28,0.3-0.56,0.61-0.83,0.94c-0.28,0.33-0.52,0.61-0.73,0.83c-0.14,0.15-0.26,0.3-0.36,0.44c-0.1,0.15-0.19,0.26-0.26,0.33
	c-0.97,1.25-1.95,2.44-2.95,3.58c-1,1.14-2.03,2.27-3.07,3.37c-0.49,0.52-0.99,1.03-1.51,1.55c-0.52,0.52-0.99,1.03-1.4,1.55
	c-0.14,0.15-0.26,0.26-0.37,0.33c-0.1,0.08-0.19,0.15-0.26,0.22c-0.42,0.37-0.8,0.72-1.15,1.06c-0.35,0.33-0.7,0.65-1.05,0.94
	c-0.42,0.3-0.79,0.63-1.1,1c-0.31,0.37-0.64,0.66-0.99,0.89c-0.49,0.45-1.22,1.04-2.2,1.79c-0.07,0.07-0.21,0.18-0.42,0.33
	c-0.55,0.66-1.32,1.26-2.31,1.79c-0.7,0.38-1.27,0.79-1.68,1.23c-0.21,0.22-0.4,0.39-0.58,0.5c-0.18,0.11-0.33,0.24-0.47,0.39
	c-0.14,0.08-0.28,0.15-0.42,0.23c-0.14,0.08-0.25,0.12-0.32,0.12l-0.63,0.34c-0.63,0.59-1.26,1.04-1.89,1.35
	c-0.21,0.15-0.53,0.3-0.95,0.46c-0.28,0.01-0.57,0.12-0.85,0.35c-0.42,0.44-0.91,0.71-1.48,0.8c-0.22,0.01-0.39,0.08-0.53,0.23
	c-0.28,0.29-0.56,0.48-0.84,0.56c-0.29,0.01-0.57,0.09-0.85,0.24c-0.42,0.16-1.07,0.25-1.93,0.27c-0.57,0.02-0.97-0.18-1.2-0.61
	c-0.22-0.21-0.34-0.49-0.35-0.85c-0.02-0.57,0-1.01,0.07-1.29c-0.01-0.21,0-0.41,0.03-0.59c0.03-0.18,0.04-0.38,0.03-0.59
	c0.13-0.58,0.55-1.81,1.28-3.69c0-0.14,0.06-0.22,0.21-0.22l0.1-0.11c0.07-0.08,0.18-0.08,0.32-0.01c0.15,0.14,0.33,0.2,0.54,0.2
	c0.43,0.13,0.94,0.33,1.52,0.6c0.07,0.07,0.15,0.16,0.22,0.26c0.07,0.11,0.18,0.16,0.33,0.15c0.07,0.07,0.22,0.1,0.43,0.09
	c0.5-0.02,0.89-0.17,1.17-0.47c0.21-0.08,0.32-0.22,0.31-0.44c0-0.07,0.01-0.16,0.05-0.27c0.03-0.11,0.05-0.24,0.04-0.38
	c-0.09-0.57-0.09-1.18,0-1.83c0.09-0.65,0.19-1.3,0.32-1.95c0.2-0.65,0.28-1.33,0.26-2.05c-0.01-0.28,0.05-0.72,0.17-1.29
	c0.05-0.65,0.35-1.34,0.9-2.07c0.14-0.15,0.21-0.26,0.2-0.33c0.62-0.74,1.26-1.51,1.92-2.32c0.66-0.81,1.37-1.58,2.13-2.32
	c0.35-0.3,0.84-0.78,1.46-1.44c0.42-0.44,1.04-1.03,1.88-1.78c0.56-0.37,1.26-0.97,2.1-1.78c0.35-0.37,0.75-0.72,1.2-1.06
	c0.46-0.34,0.89-0.73,1.31-1.17c0.21-0.15,0.35-0.26,0.42-0.34c0.7-0.38,1.44-0.9,2.21-1.57l0.84-0.46
	c0.22-0.01,0.32-0.08,0.32-0.22c0.21-0.22,0.56-0.41,1.06-0.57c0.14,0,0.25-0.01,0.32-0.01c0.28-0.15,0.46-0.27,0.53-0.34
	c0.48-0.52,1.12-0.96,1.89-1.35c0.28-0.15,0.57-0.3,0.85-0.46c0.42-0.37,1.16-0.79,2.22-1.25c0.98-0.53,1.9-0.95,2.75-1.27
	c0.21-0.08,0.46-0.19,0.74-0.34c0.21-0.08,0.43-0.16,0.64-0.23c0.21-0.08,0.42-0.19,0.63-0.34c0.42-0.16,0.78-0.31,1.06-0.46
	c0.99-0.46,1.73-0.77,2.23-0.93c0.22-0.01,0.39-0.12,0.53-0.34c0.06-0.15,0.06-0.32-0.02-0.54c-0.15-0.28-0.37-0.42-0.66-0.41
	c-0.36-0.06-0.76-0.23-1.2-0.5c-0.22-0.21-0.51-0.31-0.87-0.3c-0.92,0.24-1.42,0.37-1.49,0.37c-1.77,0.63-3.23,1.17-4.36,1.64
	c-0.14,0.15-0.42,0.3-0.85,0.46c-1.34,0.62-2.68,1.37-4.01,2.27c-1.27,0.76-1.93,1.17-2,1.24c-1.12,0.82-2.73,2.06-4.83,3.7
	c-1.05,0.82-2.08,1.66-3.09,2.51c-1.01,0.86-2.01,1.73-2.98,2.62c-1.12,1.04-1.71,1.56-1.78,1.56c-0.14,0.15-0.26,0.29-0.36,0.44
	c-0.1,0.15-0.19,0.26-0.26,0.33c-0.42,0.37-0.8,0.72-1.15,1.06c-0.35,0.33-0.7,0.65-1.05,0.95c-0.07,0-0.18,0.01-0.32,0.01
	c-0.3-0.42-0.39-0.85-0.25-1.28c0.2-0.51,0.35-1.26,0.47-2.27c0.26-0.87,0.49-1.52,0.69-1.96c0.13-0.29,0.16-0.61,0.08-0.97
	l-0.35-0.96c-0.08-0.14-0.12-0.25-0.12-0.32c0-0.07,0-0.14-0.01-0.21c0-0.07,0-0.14-0.01-0.22c0.18-1.01,0.48-1.77,0.9-2.28
	c0.55-0.88,0.75-1.24,0.61-1.09c0.21-0.29,0.3-0.76,0.28-1.41c-0.07-0.07-0.13-0.17-0.17-0.32c-0.04-0.14-0.06-0.28-0.07-0.43
	c0-0.14-0.03-0.29-0.07-0.43c-0.04-0.14-0.06-0.28-0.07-0.43c-0.01-0.36,0.05-0.82,0.17-1.4c-0.01-0.22,0.04-0.45,0.14-0.7
	c0.1-0.25,0.18-0.49,0.25-0.71c0.07-0.14,0.21-0.29,0.42-0.44c0.14-0.15,0.24-0.29,0.31-0.44c0-0.14,0.03-0.29,0.1-0.43
	c0.07-0.14,0.13-0.33,0.2-0.54c0-0.07,0.01-0.2,0.04-0.38c0.03-0.18,0.08-0.34,0.15-0.49c0.06-0.22,0.17-0.42,0.3-0.6
	c0.14-0.18,0.27-0.38,0.41-0.6c0.07-0.07,0.16-0.18,0.26-0.33c0.1-0.15,0.22-0.29,0.36-0.44c0.27-0.37,0.62-0.73,1.04-1.11
	c0.14-0.08,0.28-0.17,0.42-0.28c0.14-0.11,0.32-0.24,0.52-0.39c0.42-0.23,0.86-0.53,1.32-0.9c0.45-0.37,0.89-0.74,1.31-1.12
	c0.77-0.67,1.47-1.12,2.11-1.35c0.77-0.45,1.59-0.86,2.43-1.2c0.85-0.35,1.7-0.71,2.55-1.1c0.57-0.16,0.92-0.31,1.06-0.46
	c0.21-0.15,0.74-0.34,1.6-0.59c0.92-0.31,2.03-0.49,3.31-0.53c0.36-0.01,1.08,0,2.15,0.04c0.14,0,0.34-0.01,0.59-0.02
	c0.25-0.01,0.55-0.02,0.91-0.03c0.29-0.01,0.58,0.06,0.87,0.19c0.58,0.13,1.01,0.18,1.29,0.17c0.43,0.13,0.9,0.22,1.41,0.28
	c0.5,0.06,1.01,0.15,1.51,0.28c0.36,0.13,0.72,0.23,1.08,0.29c0.36,0.06,0.72,0.12,1.08,0.18c0.36-0.01,0.72,0.09,1.08,0.29
	c0.29,0.28,0.55,0.45,0.77,0.51c0.29,0.21,0.59,0.41,0.88,0.62c0.29,0.21,0.62,0.38,0.98,0.51c0.29,0.28,0.52,0.52,0.67,0.73
	c0.22,0.21,0.34,0.46,0.35,0.74c0.16,0.5,0.21,1.07,0.16,1.72C225.92,83.03,225.69,83.82,225.63,83.96z M254.49,70.42
	c0.31-0.17,0.5-0.29,0.58-0.37c0.15-0.16,0.34-0.36,0.57-0.61l1.36-1.57c0.38-0.17,0.82-0.22,1.29-0.16
	c0.16,0.07,0.32,0.15,0.48,0.22c0.16,0.07,0.32,0.11,0.47,0.1c0.39,0.07,0.9,0.09,1.53,0.07c0.16,0,0.35-0.01,0.59-0.02
	c0.23-0.08,0.58-0.25,1.04-0.5c0.39-0.09,0.42-0.32,0.1-0.71c-1.28-0.82-2.78-1.21-4.51-1.16c-0.31,0.01-0.55,0.06-0.7,0.14
	c-0.31,0.17-0.66,0.18-1.06,0.03c-0.56-0.29-0.99-0.24-1.29,0.16c-0.08,0-0.12,0.04-0.11,0.12c-1.6,1.38-2.93,2.76-3.99,4.12
	c-0.22,0.32-0.34,0.52-0.33,0.6c-0.68,0.81-1.09,1.45-1.23,1.92c-0.22,0.4-0.39,0.66-0.5,0.78c-0.12,0.12-0.21,0.34-0.27,0.66
	c-0.6,0.96-0.9,1.52-0.89,1.67c-0.16,0.08-0.31,0.21-0.46,0.37c-0.9,1.36-1.46,2.36-1.67,2.99c-0.38,0.56-0.73,1.1-1.07,1.62
	c-0.34,0.52-0.69,1.06-1.07,1.62c-0.14,0.48-0.21,0.83-0.2,1.07c0.01,0.47-0.13,0.79-0.44,0.96c0.23-0.16,0.17,0.23-0.2,1.18
	l-0.11,0.24c-0.08,0-0.12-0.07-0.12-0.23c-0.01-0.31-0.22-0.62-0.62-0.92c-0.01-0.23-0.01-0.39-0.01-0.47c0-0.08,0.03-0.2,0.11-0.36
	c-0.15,0.32-0.01-0.16,0.43-1.43c-0.01-0.31,0.12-0.55,0.39-0.72c0.27-0.17,0.4-0.44,0.39-0.84c0.21-0.71,0.31-1.54,0.28-2.48
	c0-0.16,0.01-0.35,0.04-0.59c0.03-0.24,0.04-0.47,0.04-0.71l0.53-1.9c-0.02-0.71,0.09-1.45,0.34-2.25c0.25-0.79,0.36-1.66,0.33-2.6
	c0.07-0.16,0.11-0.28,0.11-0.36c0.07-0.24,0.1-0.47,0.1-0.71c-0.02-0.63-0.06-1.27-0.12-1.94c-0.06-0.66-0.1-1.31-0.12-1.94
	c-0.17-0.39-0.49-0.65-0.97-0.8l-2.12,0.07c-0.31,0.01-0.46,0.21-0.45,0.6c-0.35,1.58-0.52,2.41-0.51,2.49
	c0.03,1.02-0.04,1.98-0.21,2.89c-0.17,0.91-0.28,1.87-0.32,2.89c0,0.08,0.01,0.2,0.01,0.35c-0.28,1.26-0.61,3.19-1,5.79
	c-0.21,0.79-0.35,1.52-0.4,2.19c-0.06,0.67-0.15,1.36-0.29,2.07c-0.2,1.18-0.46,2.88-0.78,5.08c0.02,0.63-0.02,1.27-0.12,1.94
	c-0.1,0.67-0.13,1.4-0.11,2.18c-0.08,0.08-0.11,0.2-0.11,0.36c-0.13,0.94-0.32,2.24-0.59,3.9c-0.09,2.04-0.28,3.5-0.57,4.37
	c0.02,0.71,0.02,1.39,0,2.06c-0.02,0.67-0.06,1.32-0.12,1.94c0.02,0.63,0.12,1.45,0.31,2.46c0.24,0.23,0.41,0.38,0.48,0.46
	c0.47-0.01,0.79,0.21,0.96,0.68c0,0.16,0.08,0.23,0.24,0.23c0.16,0,0.33-0.01,0.53-0.02c0.2-0.01,0.41-0.01,0.65-0.02
	c0.23-0.08,0.39-0.13,0.47-0.13c0.23-0.08,0.46-0.33,0.68-0.73c0.06-0.63,0.31-1.5,0.74-2.61c0.22-0.48,0.33-0.79,0.32-0.95
	c0.05-0.94,0.07-1.69,0.05-2.24c-0.02-0.47,0.02-0.78,0.09-0.94c0.05-0.78,0.3-1.81,0.73-3.08c0.49-1.82,0.74-2.84,0.73-3.08
	c0.08-0.08,0.11-0.2,0.11-0.36c0.52-0.8,0.92-1.87,1.2-3.21c0-0.08,0.03-0.2,0.11-0.36c0.07-0.16,0.11-0.32,0.1-0.47
	c0.14-0.47,0.21-0.75,0.21-0.83c0.22-0.63,0.47-1.43,0.75-2.38c0.14-0.47,0.39-1.27,0.75-2.37c0.35-1.19,0.71-2.3,1.07-3.33
	c0.16,0,0.23-0.08,0.23-0.24c0.27-1.34,0.75-2.49,1.42-3.45c0.15-0.16,0.23-0.28,0.22-0.36c0.22-0.48,0.63-1.16,1.23-2.04
	c0.15-0.24,0.37-0.56,0.68-0.96c-0.01-0.24,0.1-0.51,0.33-0.83c0.39-0.17,0.58-0.33,0.57-0.49c0.45-0.64,0.96-1.24,1.53-1.81
	C253.89,71.89,254.28,71.22,254.49,70.42z M246.13,81.62l-0.33,0.72c-0.45,0.88-0.85,1.79-1.21,2.74c-0.37,0.95-0.73,1.9-1.09,2.86
	c-0.21,0.71-0.43,1.35-0.65,1.9c-0.22,0.56-0.43,1.11-0.65,1.67c-0.15,0.32-0.47,1.23-0.97,2.73c0,0.08-0.04,0.12-0.11,0.12
	l-0.12-0.11c-0.02-0.62,0.12-1.26,0.41-1.89c0.21-0.79,0.32-1.26,0.31-1.42c0.06-0.63,0.28-1.19,0.66-1.67
	c0.28-1.18,0.53-1.94,0.75-2.26l0.31-1.42l0.55-1.07c0.57-1.98,1.14-3.11,1.72-3.41C246.28,80.81,246.42,80.98,246.13,81.62z
	 M254.06,67.85c0.15-0.08,0.35-0.25,0.57-0.49l0.35-0.25l0.01,0.23c0.01,0.24-0.01,0.39-0.04,0.47c-0.04,0.08-0.05,0.2-0.05,0.35
	c-0.3,0.32-0.53,0.49-0.69,0.49c-0.08,0-0.2,0.01-0.35,0.01l-0.03,0.06C253.72,68.57,253.79,68.28,254.06,67.85z M252.84,70.24
	c-0.6,0.96-0.94,1.24-1.03,0.85c-0.09-0.39,0.36-1.07,1.35-2.04c0.07-0.23,0.28-0.31,0.64-0.26l-0.39,0.84
	C253.33,69.79,253.14,70,252.84,70.24z M370.2,56.47c0.3-0.52,0.56-1.06,0.77-1.61c0.29-0.87,0.5-1.39,0.66-1.55
	c0.15-0.24,0.22-0.59,0.2-1.06c0.05-1.02-0.19-2.47-0.72-4.33c-0.51-1.24-1.35-1.84-2.52-1.81c-0.08,0-0.24,0.01-0.47,0.01
	c-0.47,0.01-0.74,0.26-0.8,0.73c0.01,0.31-0.06,0.63-0.2,0.95c-0.44,1.19-0.87,2.32-1.31,3.39c-0.44,1.07-0.88,2.12-1.32,3.16
	c-0.36,0.95-0.73,1.87-1.09,2.74c-0.81,1.67-1.49,3.65-2.04,5.94c-0.28,0.87-0.62,2.18-1.03,3.91c-0.14,0.55-0.42,1.31-0.85,2.26
	c-0.37,0.56-0.86,0.73-1.48,0.52c-0.08,0-0.27-0.07-0.58-0.22c-0.15,0.01-0.31-0.03-0.46-0.1c-0.16-0.07-0.31-0.11-0.47-0.1
	c-2.12,0.07-3.52,0.23-4.22,0.48c-0.16,0-0.29,0.03-0.41,0.07c-0.12,0.04-0.22,0.07-0.29,0.07c-0.7,0.02-1.44,0.32-2.21,0.89
	c-0.23,0.24-0.46,0.47-0.69,0.67c-0.23,0.2-0.46,0.43-0.68,0.67c-0.15,0.16-0.28,0.3-0.4,0.42c-0.12,0.12-0.21,0.22-0.28,0.3
	c-0.91,0.81-1.74,1.94-2.48,3.37c-0.45,0.64-0.78,1.28-1,1.91c-0.22,0.64-0.43,1.23-0.65,1.78c-0.15,0.32-0.28,0.87-0.42,1.66
	c-0.03,0.1-0.05,0.17-0.08,0.26c-0.02,0-0.02-0.02-0.04-0.02c-0.08,0-0.16,0-0.23,0.01c-0.76,0.65-1.41,1.34-1.93,2.06
	c-1.28,1.92-2.52,3.57-3.73,4.94c-0.91,1.05-1.86,2-2.85,2.85c-0.99,0.86-1.99,1.69-2.98,2.5c-0.08,0.08-0.19,0.16-0.35,0.24
	c-0.31,0.09-1.12,0.43-2.44,1.02c-1.16,0.58-2.25,0.66-3.29,0.22c-0.16,0-0.31-0.01-0.47-0.04c-0.16-0.03-0.28-0.09-0.36-0.17
	c-0.39-0.07-0.63-0.25-0.72-0.57c-0.08-0.08-0.25-0.34-0.5-0.81c-0.85-2.01-1.3-3.96-1.35-5.84c-0.02-0.78,0-1.37,0.06-1.77
	c0.05-0.71,0.09-1.42,0.11-2.12c0.02-0.71,0.09-1.42,0.23-2.12c0-0.08-0.01-0.19-0.01-0.35c-0.01-0.16-0.01-0.31-0.02-0.47
	c0.14-0.63,0.22-1.26,0.23-1.89c0.02-0.63,0.06-1.3,0.12-2c-0.04-1.17,0.02-2.04,0.15-2.59c0.19-1.57,0.03-2.98-0.48-4.22
	c-0.17-0.23-0.27-0.5-0.32-0.81c-0.05-0.31-0.12-0.62-0.2-0.93c-0.18-0.62-0.58-0.88-1.2-0.79c-0.16,0.01-0.35,0.05-0.58,0.14
	c-0.46,0.17-0.78,0.06-0.95-0.32c-0.17-0.23-0.37-0.34-0.6-0.33c-0.55,0.02-1.01,0.23-1.39,0.63c-0.3,0.4-0.62,0.77-0.97,1.09
	c-0.35,0.33-0.63,0.65-0.85,0.97c-2.11,2.81-3.91,5.37-5.41,7.69c-1.65,2.56-2.85,4.44-3.59,5.64c-0.15,0.16-0.31,0.25-0.46,0.25
	c-0.16-0.15-0.24-0.27-0.25-0.35c-0.21-1.64-0.06-3.1,0.45-4.36c0.43-1.42,0.99-3.56,1.68-6.4c0.06-0.47,0.13-1,0.19-1.59
	c0.06-0.59,0.2-1.12,0.42-1.6c-0.01-0.23-0.02-0.51-0.03-0.82c-0.01-0.31-0.02-0.66-0.03-1.06c-0.25-0.38-0.45-0.61-0.61-0.69
	c-0.96-0.6-1.36-0.86-1.2-0.79c-0.16-0.07-0.43-0.1-0.83-0.09c-0.47,0.09-0.9,0.18-1.28,0.27c-0.39,0.09-0.78,0.14-1.17,0.15
	c-0.23,0.32-0.35,0.7-0.38,1.13c-0.03,0.43-0.11,0.81-0.26,1.13c-0.07,0.16-0.11,0.3-0.1,0.41c0,0.12,0.01,0.22,0.01,0.29
	c-0.14,0.47-0.27,0.97-0.37,1.48c-0.1,0.51-0.18,1-0.25,1.48c-0.28,1.18-0.7,2.88-1.26,5.1c-0.46,2.05-0.86,4.08-1.22,6.09
	c-0.09-0.02-0.17-0.05-0.28-0.05c-0.71,0.02-1.13,0.23-1.28,0.63l-0.8,0.85c-0.23,0.24-0.42,0.44-0.57,0.61
	c-0.15,0.16-0.3,0.32-0.46,0.48c-1.51,1.77-2.61,3.02-3.29,3.75c-0.61,0.65-1.2,1.23-1.77,1.76c-0.57,0.53-1.12,1.07-1.65,1.64
	c-0.23,0.16-0.4,0.31-0.52,0.43c-0.11,0.12-0.25,0.22-0.4,0.31c-0.85,0.58-1.37,1.26-1.58,2.05c-0.14,0.63-0.52,1-1.14,1.09
	c-0.39,0.01-0.74,0.18-1.05,0.5c-0.23,0.16-0.44,0.33-0.63,0.49c-0.19,0.16-0.4,0.29-0.64,0.37c-0.69,0.57-1.5,0.99-2.43,1.25
	c-0.16,0-0.28,0.01-0.35,0.01c-0.08,0-0.16,0-0.23,0.01c-0.55,0.18-0.94-0.05-1.2-0.67c-0.58-1.08-0.88-1.86-0.9-2.33
	c-0.18-0.7-0.26-1.42-0.24-2.17c0.02-0.74-0.07-1.51-0.25-2.29l0-0.12c0.13-0.71,0.21-1.42,0.23-2.12c0.02-0.71,0.13-1.42,0.35-2.13
	c0.2-0.95,0.39-1.95,0.55-3.02c0.16-1.07,0.38-2.07,0.67-3.02c0.28-1.11,0.54-2.8,0.78-5.08c0.06-0.55,0-1.1-0.17-1.64
	c-0.08-0.15-0.15-0.33-0.19-0.52c-0.05-0.19-0.07-0.41-0.08-0.64c-0.17-0.31-0.37-0.62-0.62-0.92c-0.4-0.38-0.84-0.68-1.32-0.9
	c-0.08,0-0.35-0.07-0.83-0.21l-1.07-0.32c-0.23,0.01-0.42,0.29-0.56,0.84l-0.23,0.24c-0.61,0.72-1.15,1.47-1.64,2.23
	c-0.49,0.76-1,1.5-1.52,2.22c-0.75,1.04-1.8,2.68-3.14,4.92c-0.89,1.6-1.64,2.68-2.25,3.24l-0.33,0.72
	c-0.21,0.71-0.63,1.31-1.24,1.8c-0.16,0.08-0.29,0.19-0.4,0.31c-0.12,0.12-0.21,0.18-0.29,0.18c-0.3,0.48-0.62,0.96-0.96,1.44
	c-0.34,0.48-0.62,0.96-0.84,1.44c-0.37,0.64-0.86,1.36-1.46,2.16l-0.57,0.61c-0.14,0.47-0.52,1.04-1.12,1.68
	c-0.08,0.08-0.27,0.21-0.58,0.37c-0.31,0.01-0.47-0.1-0.48-0.34c-0.19-1.17-0.14-2.11,0.15-2.83c0.43-1.42,1.15-3.56,2.16-6.42
	c0-0.16,0.07-0.31,0.22-0.48c0.96-1.99,1.89-3.51,2.8-4.56c0.15-0.24,0.28-0.48,0.39-0.72c0.11-0.24,0.28-0.48,0.51-0.72
	c0.23-0.24,0.47-0.52,0.74-0.85c0.26-0.32,0.55-0.64,0.85-0.97c0.68-0.88,1.72-1.31,3.13-1.27l0.12,0c0.39-0.01,0.58-0.17,0.57-0.49
	c-0.02-0.78-0.36-1.4-1-1.85c-0.88-0.68-1.64-1.01-2.27-0.99c-0.16,0-0.59-0.1-1.3-0.31c-0.55,0.02-0.86,0.07-0.93,0.15
	c-0.23,0.24-0.69,0.45-1.39,0.63l-1.39,0.75c-0.47,0.17-0.77,0.42-0.92,0.73l-0.46,0.48c-0.62,0.41-1.26,1.17-1.93,2.29
	c-0.52,0.8-1.01,1.64-1.45,2.51c-0.44,0.88-0.89,1.67-1.34,2.39c-0.67,1.12-1.18,2.51-1.52,4.16c-0.12,1.1-0.26,1.81-0.41,2.13
	c-0.2,1.03-0.25,1.85-0.16,2.48c0.01,0.23,0.01,0.43,0.02,0.59c-0.04,1.18,0.23,2.35,0.81,3.5c0.17,0.39,0.5,0.97,0.99,1.73
	c0.42,0.77,0.94,1.31,1.58,1.6c0.4,0.22,0.8,0.45,1.2,0.67c0.4,0.22,0.83,0.44,1.31,0.66c0.08,0,0.16,0.02,0.24,0.05
	c0.08,0.04,0.2,0.05,0.35,0.05c0.55,0.14,0.94,0.05,1.17-0.27c0.3-0.25,0.59-0.53,0.86-0.85c0.26-0.32,0.63-0.53,1.1-0.62
	c0.38-0.4,0.64-0.72,0.79-0.97c0.15-0.16,0.3-0.36,0.45-0.6c0.15-0.24,0.34-0.48,0.57-0.72c0.46-0.48,0.87-1.05,1.24-1.68
	c0.37-0.64,0.78-1.24,1.24-1.8c0.08,0,0.23-0.24,0.45-0.72c0.45-0.88,0.93-1.73,1.45-2.57c0.52-0.84,1-1.74,1.45-2.69
	c0.23-0.24,0.43-0.54,0.62-0.9c0.18-0.36,0.39-0.7,0.61-1.02c0.16,0,0.27-0.01,0.35-0.01c0.16,0,0.24,0.15,0.25,0.46
	c0.01,0.23,0.02,0.47,0.02,0.7s0.02,0.47,0.02,0.71c0.02,0.71,0.02,1.39,0,2.06c-0.02,0.67,0.02,1.35,0.12,2.06
	c0.04,1.25,0.39,2.61,1.07,4.08c0.17,0.47,0.38,0.89,0.63,1.28c0.25,0.39,0.5,0.81,0.75,1.27c0.17,0.54,0.58,1.08,1.23,1.61
	c1.05,1.22,2.14,2.05,3.25,2.49c0.88,0.44,1.39,0.7,1.55,0.78c0.48,0.22,0.93,0.34,1.36,0.37c0.43,0.03,0.88,0.03,1.35,0.02
	c0.15-0.08,0.27-0.13,0.35-0.13c1.15-0.82,1.88-1.27,2.19-1.36c0.15-0.16,0.3-0.32,0.45-0.48c0.84-0.65,1.63-1.38,2.35-2.19
	c0.72-0.81,1.46-1.61,2.22-2.42c0.53-0.57,1.17-1.43,1.92-2.59c0.75-1.16,1.28-1.88,1.58-2.17c0.3-0.28,0.68-0.82,1.13-1.62
	c0.29-0.79,0.69-1.63,1.22-2.51c0.59-0.47,1.06-0.95,1.44-1.43c-0.15,0.98-0.29,1.96-0.42,2.93c-0.1,1.73-0.22,2.95-0.36,3.66
	c-0.13,0.87-0.17,2.16-0.12,3.88c0.02,0.47,0.03,0.9,0.04,1.29c0.01,0.39,0.02,0.78,0.04,1.17c0.18,0.62,0.42,1.01,0.74,1.15
	c0.16,0.07,0.4,0.38,0.73,0.92c0.08,0.08,0.14,0.17,0.18,0.29c0.04,0.12,0.1,0.17,0.18,0.17c0.72,0.37,1.38,0.43,2.01,0.17
	c0.31-0.01,0.47-0.13,0.46-0.37c0.43-1.11,0.77-1.91,0.98-2.38c0.45-0.8,0.7-1.39,0.77-1.79c0.5-1.66,1.15-3.21,1.97-4.65
	c0.37-0.87,0.99-2.19,1.88-3.94c0.44-1.03,0.93-2.11,1.49-3.22c0.55-1.11,1.17-2.19,1.84-3.23c0.52-0.88,0.82-1.4,0.89-1.56
	c1.2-1.6,2.14-3.05,2.81-4.32c0.23-0.24,0.62-0.74,1.19-1.51c0.56-0.76,0.96-1.27,1.19-1.51l0.24-0.01c0,0.08,0.02,0.14,0.06,0.17
	c0.04,0.04,0.1,0.06,0.18,0.05c0.11,0.94,0.09,1.72-0.05,2.35c-0.14,0.63-0.22,1.22-0.24,1.77c-0.02,0.55-0.03,1.1-0.01,1.65
	c0.01,0.23,0.02,0.47,0.02,0.7s0.01,0.43,0.02,0.59c-0.2,1.03-0.27,2.6-0.21,4.71c0.05,1.72,0.25,3.25,0.61,4.57
	c0.09,0.47,0.22,0.92,0.39,1.34c0.17,0.43,0.34,0.83,0.51,1.22c0.94,2.64,2.8,4.58,5.59,5.83c0.64,0.29,1.15,0.47,1.55,0.54
	c1.65,0.26,3.18,0.18,4.58-0.26c2.02-0.53,3.64-1.6,4.84-3.21c0.3-0.48,0.72-0.92,1.25-1.33c0.99-0.89,2.05-2.06,3.18-3.51
	c0.68-0.96,1.25-1.96,1.73-2.99c0.17-0.38,0.36-0.76,0.54-1.13c-0.11,0.89-0.21,1.89-0.3,3.01c0.01,0.31,0,0.63-0.03,0.94
	c-0.03,0.32-0.08,0.59-0.15,0.83c0.02,0.78,0.08,1.37,0.17,1.76c0.46,2.03,1.13,3.73,2.04,5.11c0.08,0.23,0.29,0.42,0.6,0.57
	c0.24,0.15,0.56,0.42,0.97,0.79c0.16,0.15,0.28,0.23,0.36,0.22c0.25,0.31,0.52,0.3,0.82-0.02c0.45-0.48,1.07-0.93,1.84-1.35
	c0.62-0.26,1.04-0.7,1.25-1.33c0.3-0.56,0.52-0.88,0.68-0.96c0.3-0.32,0.53-0.6,0.68-0.85c0.22-0.47,0.44-0.93,0.67-1.37
	c0.22-0.44,0.44-0.97,0.65-1.61c0.29-0.79,0.66-1.59,1.1-2.39c0.67-1.27,1.33-2.59,2-3.94c0.67-1.35,1.29-2.74,1.87-4.17
	c0.07-0.16,0.15-0.32,0.22-0.48c0.07-0.16,0.18-0.36,0.33-0.6c0.07-0.08,0.19-0.12,0.34-0.13l0.01,0.24c0.02,0.78,0,1.37-0.06,1.77
	c-0.06,0.63-0.13,1.22-0.23,1.77c-0.1,0.55-0.14,1.1-0.12,1.65c0.02,0.63-0.03,1.49-0.16,2.59c-0.26,1.73-0.36,3.62-0.3,5.66
	c0.02,0.47,0.01,0.94-0.02,1.41c-0.03,0.47,0.01,0.94,0.1,1.41c0,0.08,0.01,0.2,0.01,0.35l0.05,1.76c0.1,0.86,0.19,1.72,0.25,2.58
	c0.06,0.86,0.15,1.68,0.25,2.46c0.03,0.86,0.08,1.53,0.18,2c0.18,0.93,0.29,1.68,0.3,2.22c0.02,0.7,0.1,1.41,0.23,2.11
	c0.13,0.7,0.25,1.4,0.35,2.11c0.1,0.86,0.43,1.59,0.99,2.2c0.32,0.62,0.92,1.15,1.77,1.59c0.07,0,0.42,0.18,1.05,0.56
	c0.39,0.22,0.58,0.14,0.57-0.25c0.07-0.16,0.11-0.28,0.11-0.36c-0.03-0.86-0.08-1.49-0.18-1.88c-0.17-0.54-0.15-1.06,0.07-1.53
	c-0.01-0.31-0.06-0.55-0.14-0.7c-0.09-0.39-0.15-0.94-0.17-1.64c-0.09-0.47-0.17-0.97-0.22-1.52c-0.06-0.55-0.09-1.09-0.11-1.64
	c-0.19-0.94-0.29-1.68-0.3-2.23c-0.03-1.02-0.08-2.04-0.15-3.05c-0.07-1.02-0.12-2.07-0.15-3.17c-0.2-1.25-0.19-2.42,0.01-3.53
	c-0.02-0.55-0.02-1.12,0.01-1.7c0.02-0.59,0.06-1.2,0.12-1.83c-0.01-0.23,0.02-0.49,0.09-0.77c0.07-0.28,0.1-0.53,0.1-0.77
	c-0.01-0.39,0.02-0.78,0.08-1.18c0.07-0.39,0.13-0.83,0.2-1.3l-0.06-1.88c0.14-0.63,0.2-1.1,0.19-1.42c-0.03-0.86,0-1.37,0.07-1.53
	c-0.25-0.38-0.18-0.93,0.18-1.65c-0.01-0.23,0.02-0.45,0.1-0.65c0.07-0.2,0.15-0.42,0.22-0.65c-0.01-0.47,0.12-1.26,0.4-2.37
	c0.22-0.55,0.32-1.15,0.3-1.77c-0.01-0.23-0.02-0.49-0.02-0.76c-0.01-0.27,0.1-0.57,0.32-0.89c0.07-0.08,0.11-0.32,0.1-0.71
	c0.07-0.24,0.1-0.59,0.08-1.06c0.21-0.71,0.45-1.78,0.72-3.2c0.13-0.79,0.27-1.3,0.42-1.54c0.29-0.87,0.47-1.42,0.54-1.66
	c-0.01-0.23,0.17-0.79,0.54-1.66c0.5-1.66,0.86-2.61,1.09-2.86c0.3-0.48,0.52-0.96,0.66-1.43c0.07-0.39,0.47-1.23,1.22-2.51
	C369.64,57.48,369.9,56.99,370.2,56.47z M293.69,90.27c-0.38,0.56-1.02,1.33-1.93,2.29l-1.48,1.57c-0.23,0.24-0.57,0.53-1.03,0.85
	c-0.07,0.08-0.27,0.13-0.58,0.14c0.02,0.63-0.17,0.99-0.55,1.08l-0.35,0.01c-0.16-0.15-0.2-0.27-0.13-0.35
	c0.3-0.56,0.6-0.84,0.91-0.85l0.22-0.48c1.97-2.25,3.49-3.91,4.55-4.96c0-0.08,0.12-0.12,0.35-0.13l0.12,0
	c0.08,0.08,0.12,0.23,0.13,0.47C293.91,90,293.84,90.11,293.69,90.27z M294.47,88.96c0.01,0.31-0.1,0.47-0.34,0.48
	c-0.08,0.08-0.16,0.08-0.23,0.01c-0.08-0.15-0.13-0.27-0.13-0.35c0.07-0.24,0.26-0.36,0.58-0.37c-0.01-0.39,0.1-0.59,0.33-0.6
	c0.23-0.24,0.35-0.21,0.36,0.11l0.12,0.23C295.01,88.78,294.78,88.95,294.47,88.96z M308.41,82.06c0-0.15,0.07-0.22,0.21-0.24
	c-0.01,0.12-0.04,0.23-0.09,0.35l0,0.12C308.3,82.3,308.26,82.22,308.41,82.06z M309.09,81.45c-0.07,0.07-0.2,0.15-0.39,0.22
	c0.16-0.36,0.22-0.52,0.15-0.45c0-0.08,0.12-0.12,0.35-0.13l0.01,0.23L309.09,81.45z M309.88,80.11c0,0.05,0,0.09,0,0.14
	C309.83,80.21,309.84,80.16,309.88,80.11z M310.32,79.18c0.01,0.4-0.1,0.65-0.32,0.77C310,79.6,310.1,79.34,310.32,79.18
	c0.06-0.2,0.19-0.31,0.38-0.34C310.57,79.06,310.45,79.18,310.32,79.18z M310.78,78.69c0-0.48,0.06-0.8,0.2-0.95
	c0.08-0.08,0.15-0.12,0.23-0.12c0.16,0.15,0.25,0.27,0.25,0.34C311.31,78.44,311.09,78.68,310.78,78.69z M311.89,76.72
	c0-0.03,0.06-0.05,0.14-0.06c-0.02,0.04-0.02,0.07-0.02,0.11C311.93,76.78,311.89,76.76,311.89,76.72z M312.14,76.52
	c0.02-0.06,0.04-0.1,0.09-0.1L312.14,76.52z M313.25,74.97c0.08,0,0.12-0.04,0.11-0.12l0.12,0l-0.11,0.12L313.25,74.97z
	 M314.72,73.16c-0.11,0.18-0.22,0.27-0.34,0.32C314.47,73.38,314.57,73.27,314.72,73.16c-0.01-0.33,0.1-0.58,0.33-0.75
	C315.04,72.83,314.94,73.09,314.72,73.16z M315.39,72.09C315.39,72.09,315.39,72.08,315.39,72.09
	C315.39,72.08,315.39,72.09,315.39,72.09z M316.25,71.17l-0.29,0.31C316.01,71.31,316.12,71.22,316.25,71.17z M316.49,70.97
	l0.04-0.1C316.53,70.92,316.52,70.95,316.49,70.97z M350.3,88.07c-0.18,0.4-0.39,0.76-0.61,1.08c-0.59,1.35-1.26,2.55-2.01,3.59
	c-0.08,0.08-0.27,0.4-0.56,0.96c-0.21,0.71-0.36,1.07-0.44,1.07c-0.23,0.24-0.46,0.43-0.69,0.55c-0.23,0.12-0.46,0.27-0.69,0.43
	c-0.23,0.24-0.35,0.21-0.35-0.11c-0.42-0.77-0.63-1.47-0.65-2.1c-0.02-0.62,0.13-1.96,0.46-4.01c0.13-0.71,0.29-1.44,0.47-2.19
	c0.17-0.75,0.37-1.48,0.58-2.19c0-0.16,0.03-0.33,0.1-0.53c0.07-0.2,0.14-0.42,0.21-0.65c0.64-2.21,1.55-4.28,2.75-6.2
	c0.3-0.48,0.64-0.98,1.01-1.5c0.38-0.52,0.75-1.06,1.13-1.62c0.37-0.56,0.83-0.97,1.37-1.22c0.15-0.08,0.3-0.19,0.46-0.31
	c0.15-0.12,0.35-0.27,0.58-0.43c0.92-0.5,1.62-0.91,2.08-1.24c-0.08,0.08,0.12,0,0.58-0.25c0.47-0.17,0.83,0.05,1.08,0.67
	c0,0.08,0.01,0.23,0.01,0.47c0.33,0.54,0.31,1.21-0.06,2c-0.3,0.56-0.57,1.12-0.83,1.67c-0.26,0.56-0.5,1.07-0.72,1.55
	c-0.88,1.83-1.7,3.42-2.44,4.78c-0.29,0.71-0.73,1.71-1.32,2.98c-0.52,0.96-0.82,1.48-0.89,1.56
	C350.68,87.27,350.48,87.67,350.3,88.07z M351.2,88.75c-0.08,0-0.12-0.03-0.12-0.11c0-0.08,0.03-0.12,0.12-0.12l0.11-0.12l0.01,0.23
	C351.32,88.7,351.28,88.74,351.2,88.75z M358.1,75.95c-0.37,0.72-0.72,1.41-1.05,2.09c-0.33,0.68-0.65,1.37-0.94,2.09
	c-0.22,0.48-0.44,0.96-0.66,1.43c-0.22,0.48-0.44,0.96-0.67,1.43c-0.37,0.8-1,1.99-1.89,3.59c-0.15,0.4-0.41,0.64-0.8,0.73
	c0.01,0.24-0.07,0.43-0.22,0.59c-0.14,0.39-0.33,0.51-0.56,0.37c0.02-0.42,0.19-0.78,0.54-1.08c0-0.08,0.01-0.16,0.05-0.24
	c0.04-0.08,0.05-0.2,0.05-0.36l0.88-1.91c0.37-0.79,0.73-1.61,1.1-2.45c0.37-0.83,0.77-1.69,1.22-2.57
	c0.44-0.87,0.88-1.77,1.33-2.69c0.44-0.91,0.88-1.85,1.33-2.81l0.67-1.08c0.08-0.08,0.15-0.08,0.23-0.01
	c0.08,0.16,0.16,0.23,0.24,0.23l0.01,0.23C358.76,74.36,358.47,75.16,358.1,75.95z M381.48,85.94c0-0.08,0.11-0.24,0.34-0.48
	c0.08-0.08,0.38-0.25,0.93-0.5c0.07-0.16,0.15-0.24,0.23-0.24l-0.11,0.35c-0.23,0.17-0.44,0.31-0.63,0.43
	c-0.19,0.12-0.4,0.23-0.64,0.31C381.6,85.89,381.56,85.93,381.48,85.94z M382.34,86.14c-0.01,0-0.02,0.01-0.03,0.01
	C382.33,86.14,382.34,86.13,382.34,86.14z M389.43,69.23c-1.22,1.21-2.84,3.11-4.88,5.68c-0.22,0.4-0.32,0.95-0.3,1.66
	c0.01,0.23,0.05,0.35,0.13,0.35c0.24,0.07,0.51,0.14,0.83,0.21c0.31,0.07,0.59,0.1,0.83,0.09c0.31-0.01,0.51-0.02,0.59-0.02
	c0.39-0.17,0.74-0.26,1.05-0.27c0.23-0.08,0.46-0.33,0.68-0.73c0.44-0.95,1.12-1.92,2.03-2.89c0.23-0.32,0.72-0.96,1.47-1.93
	c0.07-0.16,0.2-0.36,0.4-0.6c0.18-0.24,0.43-0.52,0.73-0.85c0.98-1.21,1.92-2.61,2.81-4.2c0.45-0.72,0.62-1.47,0.52-2.25
	c-0.18-0.62-0.43-1.12-0.75-1.51c-0.56-0.29-1.04-0.56-1.44-0.78c-1.35-0.51-3.35-0.41-5.99,0.3c-2.64,0.71-4.62,1.51-5.92,2.42
	c-1.16,0.58-2.22,1.26-3.17,2.04c-0.96,0.77-1.93,1.57-2.93,2.38c-1,0.82-1.8,1.6-2.4,2.37c-0.6,0.76-1.32,1.59-2.16,2.48
	c-0.23,0.17-0.45,0.51-0.67,1.02c-0.22,0.52-0.41,0.89-0.56,1.13c-0.95,2.31-1.34,4.75-1.18,7.33c0.01,0.24,0.1,0.49,0.26,0.76
	c0.17,0.27,0.25,0.56,0.26,0.87c0.02,0.55,0.35,1.11,0.99,1.67c0.65,0.57,1.13,1.04,1.46,1.43c0,0.08,0.06,0.16,0.18,0.23
	c0.12,0.08,0.22,0.11,0.3,0.11c0.01,0.31,0.33,0.66,0.97,1.03c0.32,0.15,0.6,0.3,0.84,0.44c0.24,0.15,0.52,0.26,0.83,0.33
	c0.17,0.31,0.21,0.58,0.14,0.82l-0.57,0.61c-0.91,0.97-1.63,2.01-2.14,3.12c-0.52,1.12-1.07,2.19-1.67,3.23
	c-0.21,0.71-0.39,1.35-0.53,1.9c-0.14,0.55-0.24,1.03-0.31,1.42c-0.02,1.81,0.02,3.33,0.14,4.58c0.02,0.71,0.23,1.17,0.63,1.39
	c0.57,0.61,1.17,1.02,1.8,1.24c0.16,0,0.3,0.01,0.41,0.05c0.12,0.04,0.22,0.05,0.3,0.05c0.63-0.02,0.98-0.07,1.06-0.15
	c0.07-0.32,0.34-0.48,0.8-0.5c0.39-0.01,0.78-0.22,1.16-0.62c0.85-0.42,1.98-1.39,3.38-2.93c1.3-1.41,1.68-2.33,1.17-2.75
	c0.09,0.02,0.19-0.02,0.33-0.12c0.31-0.09,0.65-0.37,1.03-0.86c0.67-1.35,1.32-2.9,1.97-4.65c0-0.16-0.01-0.31-0.02-0.47
	c-0.21-1.64-0.72-2.88-1.52-3.72c0-0.08-0.04-0.12-0.12-0.11c-0.81-0.76-1.65-1.48-2.54-2.16c0.08,0,0.23-0.08,0.46-0.25
	c0.08,0,0.15-0.04,0.23-0.12c0.08-0.08,0.23-0.2,0.46-0.37c0.38-0.32,0.69-0.57,0.92-0.73c0.31-0.17,0.6-0.35,0.87-0.56
	c0.27-0.2,0.55-0.47,0.86-0.79c0.92-0.5,1.23-0.66,0.92-0.5c0.3-0.32,0.72-0.69,1.26-1.1l1.27-0.86c0.15-0.08,0.31-0.21,0.46-0.37
	c0.16-0.01,0.31-0.09,0.46-0.25c0.38-0.17,0.62-0.33,0.69-0.49c0.39-0.17,0.89-0.46,1.5-0.87c0.31-0.17,0.65-0.35,1.04-0.56
	c0.38-0.21,0.81-0.48,1.27-0.8l1.16-0.62c0.15-0.01,0.35-0.09,0.58-0.25c0.08-0.08,0.11-0.24,0.1-0.47l-0.12-0.11l-0.48-0.34
	l-0.23,0.01c-0.32,0.01-0.94,0.11-1.87,0.29l-0.11,0.12c-0.39,0.25-0.71,0.45-0.98,0.62c-0.27,0.17-0.56,0.33-0.87,0.5
	c-0.39,0.17-0.62,0.29-0.7,0.37c-0.38,0.25-0.62,0.41-0.69,0.49c-0.77,0.42-1.27,0.71-1.5,0.87c-0.69,0.49-1.34,0.94-1.96,1.35
	c-0.62,0.41-1.19,0.82-1.72,1.23l-0.46,0.37l0.35-0.01l0.12,0.23c-0.08,0.08-0.15,0.16-0.23,0.24c-0.16,0.08-0.23,0.17-0.23,0.24
	l0.23-0.01l0.12,0l-0.35,0.01c0,0.16-0.07,0.32-0.22,0.48c-0.15,0.15-0.29,0.23-0.44,0.24c-0.01,0.04-0.52,0.45-1.52,1.23
	c-0.23,0.24-0.47,0.45-0.74,0.61c-0.27,0.17-0.52,0.33-0.75,0.49l0,0.12c-0.23,0.01-0.39-0.05-0.47-0.16
	c-0.08-0.11-0.17-0.21-0.25-0.29c0.23-0.16,0.42-0.29,0.58-0.37c0.15-0.16,0.3-0.3,0.46-0.42c0.15-0.12,0.34-0.3,0.57-0.55
	c0.39-0.09,0.77-0.34,1.15-0.74c0-0.08,0.04-0.12,0.12-0.12c-0.08,0-0.2,0.01-0.35,0.01c-1,0.58-1.73,1.07-2.19,1.48
	c-0.15,0.08-0.38,0.29-0.68,0.61c-0.32-0.15-0.66-0.29-1.02-0.44c-0.36-0.14-0.7-0.37-1.02-0.67c-0.08,0-0.2-0.07-0.36-0.22
	c-1.84-1.12-2.71-2.62-2.61-4.51c0-0.08-0.01-0.19-0.01-0.35c0-0.16-0.01-0.27-0.01-0.35c-0.02-0.55,0.09-0.94,0.32-1.19
	c0-0.08,0.01-0.22,0.05-0.41c0.03-0.2,0.08-0.37,0.16-0.53c0.73-1.82,1.73-3.39,3.03-4.68c0.15-0.16,0.32-0.36,0.51-0.6
	c0.19-0.24,0.43-0.52,0.74-0.85c0.23-0.16,0.52-0.41,0.86-0.73c0.34-0.32,0.63-0.61,0.86-0.85c0.61-0.49,1.22-0.98,1.84-1.47
	c0.61-0.49,1.26-1.06,1.95-1.71c0.84-0.65,1.3-1.02,1.38-1.1c0.3-0.24,0.5-0.41,0.57-0.49c1.32-0.51,2.47-1.25,3.46-2.22
	c0.07-0.31,0.34-0.48,0.81-0.49c0.23-0.01,0.41-0.07,0.52-0.19c0.12-0.12,0.33-0.22,0.64-0.31c0.54-0.33,1-0.5,1.4-0.51
	c0.39,0.15,0.6,0.33,0.6,0.57c-0.12,1.02-0.41,1.82-0.87,2.38C390.91,67.46,390.04,68.5,389.43,69.23z M384.26,84.67
	c-0.08,0-0.12,0.08-0.11,0.24l-0.12,0C384.11,84.76,384.18,84.68,384.26,84.67l0-0.12l0.23-0.01L384.26,84.67z M385.17,83.71l0-0.12
	c0.07-0.16,0.15-0.24,0.23-0.24c0,0.16-0.03,0.24-0.11,0.24L385.17,83.71c-0.16,0-0.27,0.01-0.35,0.01
	C384.9,83.64,385.01,83.63,385.17,83.71z M383.79,84.45l0.12,0c0.07-0.24,0.18-0.36,0.34-0.36l0.23-0.12l0.12,0l0,0.12
	c-0.08,0-0.2,0.01-0.35,0.01c0.01,0.23-0.11,0.36-0.34,0.36l-0.12,0.12C383.63,84.58,383.63,84.54,383.79,84.45z M376.26,92.21
	c0.3-0.32,0.53-0.55,0.69-0.67c0.15-0.12,0.34-0.34,0.57-0.67c0.23-0.16,0.75,0.09,1.55,0.78c0.73,0.76,1.07,1.65,1.02,2.67
	c-0.21,0.79-0.39,1.42-0.53,1.9c-1.1,2.23-1.88,3.66-2.34,4.31c0.15-0.24-0.04,0.12-0.56,1.07c-0.22,0.56-0.5,1.04-0.84,1.44
	c-0.34,0.4-0.62,0.8-0.84,1.2c-0.23,0.24-0.53,0.49-0.92,0.73c-1.4,0.36-2.16-0.01-2.27-1.11c-0.01-0.31,0-0.57,0.03-0.77
	c0.03-0.2,0.05-0.41,0.04-0.65c0.29-0.87,0.39-1.23,0.32-1.07c0.14-0.55,0.26-1.07,0.37-1.54c0.1-0.47,0.27-0.99,0.48-1.54l0.33-0.6
	l0.3-1.77c0.23-0.08,0.46-0.38,0.68-0.9c0.22-0.52,0.44-0.85,0.67-1.02L376.26,92.21z M382.8,67.55c-0.3,0.32-0.8,0.77-1.49,1.34
	c-0.38,0.33-1.03,0.78-1.96,1.35L379,70.25l-0.01-0.35c0-0.08,0.11-0.2,0.34-0.36c0.15-0.24,0.26-0.4,0.34-0.48
	c0.38-0.32,0.8-0.65,1.26-0.98c0.46-0.33,0.92-0.66,1.38-0.98l0.59-0.02C382.91,67.31,382.87,67.47,382.8,67.55z M384.16,66.09
	c0,0.16-0.07,0.35-0.22,0.59c-0.23,0.16-0.35,0.17-0.35,0.01l-0.01-0.35C383.81,66.18,384,66.1,384.16,66.09l0.11-0.12
	C384.36,66.05,384.32,66.09,384.16,66.09z"/>
<path id="_x5F_" class="st0" d="M355.21,42.86v7.88H227.48c0.15-2.68-0.08-5.54-1.17-7.88H355.21z M193.08,42.86H0v7.88h178.32
	C182.27,48.1,187.28,45.22,193.08,42.86z"/>
<path id="FACKELMANN" class="st1" d="M364.28,10.54c2.79,0,4.99-2.21,4.99-4.98c0-2.78-2.21-4.98-4.99-4.98s-4.99,2.21-4.99,4.98
	C359.28,8.33,361.49,10.54,364.28,10.54z M364.28,1.39c2.28,0,4.18,1.81,4.18,4.17c0,2.35-1.9,4.17-4.18,4.17
	c-2.28,0-4.18-1.83-4.18-4.17C360.1,3.2,362,1.39,364.28,1.39z M365.14,5.81c0.75-0.03,1.5-0.43,1.5-1.53
	c0-1.18-0.91-1.48-1.93-1.48h-2.36v5.6h0.81V5.81h1.04l1.43,2.59h0.93L365.14,5.81z M364.56,3.61c0.67,0,1.27,0.05,1.27,0.76
	c0,0.76-1.04,0.63-1.8,0.63h-0.86V3.61H364.56z M112.18,35.73l-10.43-16.17l0.31,16.17h-10.7V0.58h10.7l-0.32,16.83L111.9,0.58
	h11.82l-10.66,17.09l11.81,18.06H112.18z M83.99,35.18V24.55c-1.91,1.32-3.91,1.96-6.08,1.96c-4.63,0-8.4-3.75-8.4-8.35
	c0-4.6,3.68-8.35,8.21-8.35c2.06,0,4.16,0.76,6.27,2.26V1.23C81.48,0.42,78.81,0,76.23,0C66.21,0,58.37,8.12,58.37,18.5
	c0,9.98,7.61,17.81,17.34,17.81C77.91,36.3,81.88,35.91,83.99,35.18z M180.6,35.73l1.54-9.81h-10.93V0.58h-11.05v35.15H180.6z
	 M226.52,0.58h-11.85l-5.78,20.19h-0.31l-0.42-1.48l-5.35-18.7h-11.85l-5.52,35.15H196l2.91-19.63l0.29-1.9h0.23l6.11,21.53h6.4
	l6.11-21.53h0.23l0.29,1.9l2.91,19.63h10.56L226.52,0.58z M301.84,0.58V21.4h-0.33L288.69,0.58H277.9v35.15h10.26V14.9h0.33
	l12.78,20.83h10.83V0.58H301.84z M344.43,0.58V21.4h-0.33L331.28,0.58h-10.79v35.15h10.26V14.9h0.33l12.78,20.83h10.83V0.58H344.43z
	 M140.91,27.98V27.7v-5.83v-0.28h10.13v-6.93h-10.13v-0.33V8.6V8.27H152v-7.7h-22.24v35.15h22.62v-7.75H140.91z M11.15,15.4V8.83
	h9.42l2.82-8.25H0v35.15h11.15V22.66h4.7l2.49-7.26H11.15z M57.06,35.73H46.07l-1.33-4.65h-0.01l-0.17-0.59l-0.33-1.14H32.83
	l-0.33,1.14l-0.17,0.59h0L31,35.73H19.98L31.83,0.58h13.06L57.06,35.73z M38.37,9.99L34.9,22.08h7.25L38.67,9.99H38.37z
	 M272.49,35.73H261.5l-1.33-4.65h-0.01l-0.17-0.59l-0.33-1.14h-11.41l-0.33,1.14l-0.17,0.59h0l-1.33,4.65h-11.02l11.85-35.15h13.06
	L272.49,35.73z M253.8,9.99l-3.47,12.09h7.25L254.1,9.99H253.8z"/>
</svg>
